<?xml version="1.0" encoding="utf-8"?>
<!-- Generator: Adobe Illustrator 23.1.0, SVG Export Plug-In . SVG Version: 6.00 Build 0)  -->
<svg version="1.1" id="Layer_1" xmlns="http://www.w3.org/2000/svg" xmlns:xlink="http://www.w3.org/1999/xlink" x="0px" y="0px"
	 viewBox="0 0 9.6 40" style="enable-background:new 0 0 9.6 40;" xml:space="preserve">
<style type="text/css">
	.st0{fill:#FFFFFF;}
	.st1{fill:#2FC4E6;}
</style>
<path id="facebook-f-brands" class="st0" d="M9,10.1l0.5-3.3H6.4v-2C6.3,3.9,7,3.1,7.9,3C8,3,8.1,3,8.2,3h1.4V0.2C8.8,0.1,8,0,7.1,0
	C4.5,0,2.9,1.6,2.9,4.4v2.5H0v3.3h2.9V18h3.5v-7.9H9z"/>
<path id="facebook-f-brands_1_" class="st1" d="M9,32.1l0.5-3.3H6.4v-2.1C6.3,25.9,7,25.1,7.9,25c0.1,0,0.2,0,0.4,0h1.4v-2.8
	C8.8,22.1,8,22,7.1,22c-2.6,0-4.3,1.6-4.3,4.4v2.5H0v3.3h2.9V40h3.5v-7.9H9z"/>
</svg>
