<?xml version="1.0" encoding="utf-8"?>
<!-- Generator: Adobe Illustrator 23.1.0, SVG Export Plug-In . SVG Version: 6.00 Build 0)  -->
<svg version="1.1" id="Layer_1" xmlns="http://www.w3.org/2000/svg" xmlns:xlink="http://www.w3.org/1999/xlink" x="0px" y="0px"
	 viewBox="0 0 18 36" style="enable-background:new 0 0 18 36;" xml:space="preserve">
<style type="text/css">
	.st0{fill:#4A4E57;}
	.st1{fill:#2CC4EC;}
</style>
<path id="linkedin-in-brands" class="st0" d="M4,18H0.3V6H4V18z M2.2,4.3C1,4.3,0,3.4,0,2.2S0.9,0,2.1,0s2.2,1,2.2,2.2
	S3.4,4.3,2.2,4.3z M18,18h-3.7v-5.9c0-1.4,0-3.2-1.9-3.2s-2.2,1.5-2.2,3.1v6H6.4V6H10v1.6l0,0c0.7-1.2,2.1-2,3.5-1.9
	c3.8,0,4.5,2.5,4.5,5.7V18L18,18z"/>
<path id="linkedin-in-brands_1_" class="st1" d="M4,36H0.3V24H4V36z M2.2,22.3C1,22.3,0,21.4,0,20.2C0,19,0.9,18,2.1,18
	s2.2,1,2.2,2.2C4.3,21.4,3.4,22.3,2.2,22.3z M18,36h-3.7v-5.9c0-1.4,0-3.2-1.9-3.2s-2.2,1.5-2.2,3.1v6H6.4V24H10v1.6l0,0
	c0.7-1.2,2.1-2,3.5-1.9c3.8,0,4.5,2.5,4.5,5.7V36L18,36z"/>
</svg>
