<?xml version="1.0" encoding="utf-8"?>
<!-- Generator: Adobe Illustrator 23.1.0, SVG Export Plug-In . SVG Version: 6.00 Build 0)  -->
<svg version="1.1" id="Layer_1" xmlns="http://www.w3.org/2000/svg" xmlns:xlink="http://www.w3.org/1999/xlink" x="0px" y="0px"
	 viewBox="0 0 18 29.2" style="enable-background:new 0 0 18 29.2;" xml:space="preserve">
<style type="text/css">
	.st0{fill:#FFFFFF;}
	.st1{fill:#2CC4EC;}
</style>
<path id="twitter-brands" class="st0" d="M16.1,3.6c0,0.2,0,0.3,0,0.5c0,5.8-4.6,10.5-10.3,10.5c-0.1,0-0.1,0-0.2,0
	c-2,0-4-0.6-5.7-1.7c0.3,0,0.6,0,0.9,0c1.7,0,3.3-0.6,4.6-1.6c-1.6,0-3-1.1-3.4-2.6c0.2,0,0.5,0.1,0.7,0.1c0.3,0,0.7,0,1-0.1
	c-1.7-0.3-3-1.9-3-3.6v0c0.5,0.3,1.1,0.4,1.7,0.5C0.8,4.5,0.3,2.4,1.3,0.7C3.1,3,5.9,4.4,8.9,4.5C8.8,4.3,8.8,4,8.8,3.7
	c0-2,1.7-3.7,3.7-3.7c1,0,2,0.4,2.7,1.2C16,1,16.8,0.7,17.5,0.3c-0.3,0.9-0.9,1.6-1.6,2C16.6,2.2,17.3,2,18,1.7
	C17.5,2.5,16.9,3.1,16.1,3.6z"/>
<path id="twitter-brands_1_" class="st1" d="M16.1,18.3c0,0.2,0,0.3,0,0.5c0,5.8-4.6,10.5-10.3,10.5c-0.1,0-0.1,0-0.2,0
	c-2,0-4-0.6-5.7-1.7c0.3,0,0.6,0,0.9,0c1.7,0,3.3-0.6,4.6-1.6c-1.6,0-3-1.1-3.4-2.6c0.2,0,0.5,0.1,0.7,0.1c0.3,0,0.7,0,1-0.1
	c-1.7-0.3-3-1.9-3-3.6v0c0.5,0.3,1.1,0.4,1.7,0.5c-1.6-1.1-2.1-3.2-1.1-4.9c1.9,2.3,4.6,3.7,7.6,3.9c-0.1-0.3-0.1-0.6-0.1-0.8
	c0-2,1.7-3.7,3.7-3.7c1,0,2,0.4,2.7,1.2c0.8-0.2,1.6-0.5,2.3-0.9c-0.3,0.9-0.9,1.6-1.6,2c0.7-0.1,1.4-0.3,2.1-0.6
	C17.5,17.1,16.9,17.7,16.1,18.3z"/>
</svg>
