<?xml version="1.0" encoding="utf-8"?>
<!-- Generator: Adobe Illustrator 23.1.0, SVG Export Plug-In . SVG Version: 6.00 Build 0)  -->
<svg version="1.1" id="Layer_1" xmlns="http://www.w3.org/2000/svg" xmlns:xlink="http://www.w3.org/1999/xlink" x="0px" y="0px"
	 viewBox="0 0 18 26.8" style="enable-background:new 0 0 18 26.8;" xml:space="preserve">
<style type="text/css">
	.st0{fill:#FFFFFF;}
	.st1{fill:#2CC4EC;}
</style>
<path class="st0" d="M17.5,2.3c-0.2-0.9-1-1.6-1.9-1.8C14.2,0.2,11.7,0,8.9,0C6.2,0,3.6,0.2,2.2,0.5C1.3,0.7,0.5,1.3,0.3,2.3
	C0.2,3.3,0,4.8,0,6.7s0.2,3.3,0.4,4.4c0.2,0.9,1,1.6,1.9,1.8c1.5,0.3,4,0.5,6.7,0.5s5.3-0.2,6.7-0.5c0.9-0.2,1.7-0.8,1.9-1.8
	S18,8.6,18,6.7C17.9,4.8,17.7,3.3,17.5,2.3z M6.7,9.6V3.8l5.1,2.9L6.7,9.6z"/>
<path class="st1" d="M17.5,15.7c-0.2-0.9-1-1.6-1.9-1.8c-1.4-0.3-3.9-0.5-6.7-0.5c-2.7,0-5.3,0.2-6.7,0.5c-0.9,0.2-1.7,0.8-1.9,1.8
	c-0.1,1-0.3,2.5-0.3,4.4s0.2,3.3,0.4,4.4c0.2,0.9,1,1.6,1.9,1.8c1.5,0.3,4,0.5,6.7,0.5s5.3-0.2,6.7-0.5c0.9-0.2,1.7-0.8,1.9-1.8
	S18,22,18,20.1C17.9,18.2,17.7,16.7,17.5,15.7z M6.7,23v-5.8l5.1,2.9L6.7,23z"/>
</svg>
