<?xml version="1.0" encoding="utf-8"?>
<!-- Generator: Adobe Illustrator 23.1.0, SVG Export Plug-In . SVG Version: 6.00 Build 0)  -->
<svg version="1.1" id="Layer_1" xmlns="http://www.w3.org/2000/svg" xmlns:xlink="http://www.w3.org/1999/xlink" x="0px" y="0px"
	 viewBox="0 0 149 65" style="enable-background:new 0 0 149 65;" xml:space="preserve">
<style type="text/css">
	.st0{clip-path:url(#SVGID_2_);fill:#58595B;}
</style>
<g>
	<defs>
		<rect id="SVGID_1_" x="9.5" y="0.5" width="130.4" height="64.4"/>
	</defs>
	<clipPath id="SVGID_2_">
		<use xlink:href="#SVGID_1_"  style="overflow:visible;"/>
	</clipPath>
	<path class="st0" d="M45.4,23.2h7.8c-1.7,1.3-1.7,2.8-1.7,4.4c0,5.2,0,10.4,0,15.7c0,5.1-2,8.1-6.1,9.7c-4.6,1.7-10.2,0.5-13.1-2.8
		c-1.6-1.8-2.1-4-2.1-6.4c0-5.5,0.1-11,0-16.5c0-1.3-0.5-2.6-0.8-4h7.9c-2,1.2-1.9,2.9-1.9,4.6c0,5.2,0,10.4,0,15.7
		c0,1.1,0.2,2.2,0.5,3.2c0.9,2.6,3,4,5.5,3.7c2.1-0.2,4.1-2,4.6-4.5c0.2-0.9,0.3-1.9,0.3-2.8c0-5.4,0.1-10.8,0-16.2
		C46.4,25.8,45.8,24.5,45.4,23.2"/>
	<path class="st0" d="M131.6,23.2h8.3c-2.1,1.6-1.5,3.8-1.5,5.8c0,4.6,0,9.2,0,13.8c0,8.1-6,12.6-13.8,10.4
		c-4.8-1.4-7.1-4.5-7.1-9.5c0-5.5,0.1-11,0-16.5c0-1.3-0.6-2.6-0.9-4h7.7c-1.7,1.2-1.7,2.8-1.7,4.4c0,5.2,0,10.3,0,15.5
		c0,1.1,0.2,2.3,0.5,3.4c0.8,2.6,2.9,4,5.4,3.8c2.2-0.1,4.1-1.9,4.6-4.4c0.2-0.9,0.3-1.9,0.3-2.8c0-5.1,0-10.2,0-15.3
		C133.4,26.2,133.5,24.5,131.6,23.2"/>
	<path class="st0" d="M96.6,48c2,0.8,4.1,1.8,6.4,2.3c2.2,0.5,4.3-0.3,6-1.9c1.9-1.8,1.9-4.2-0.2-5.8c-1-0.8-2.1-1.3-3.2-2
		c-1.5-0.9-3.1-1.6-4.6-2.5c-3.6-2.3-4.9-5.7-4-9.4c0.8-3.3,3.9-5.8,7.9-6.1c2.1-0.1,4.2,0.2,6.3,0.3c1.2,0,1.6,0.6,1.5,1.8
		c-0.1,0.9,0,1.7,0,2.9c-2.2-2-4.6-2.4-7.2-1.7c-1.8,0.5-3.1,1.6-3.5,3.5c-0.4,2,0.4,3.6,2.1,4.6c1.3,0.8,2.7,1.4,4,2.2
		c1.5,0.8,3,1.6,4.3,2.6c4.1,3.3,4,9.3-0.2,12.5c-3.2,2.4-6.9,2.6-10.7,2.4c-2.5-0.1-4.2-1.1-4.4-3.8C97,49.1,96.7,48.4,96.6,48"/>
	<path class="st0" d="M9.5,23.2h18v4.6c-2-2.4-4.6-1.3-7.1-1.5c-1.3-0.1-2.7,0-4.1,0V35h8.9v3.5c-2.9-0.1-5.8-0.3-9-0.4
		c0,4.4-0.1,8.5,0.1,12.6c0,0.8,0.7,1.5,1.2,2.4h-7c0.3-1.4,0.7-2.9,0.8-4.3c0.1-6.8,0-13.6,0-20.4C11.4,26.5,11.6,24.6,9.5,23.2"/>
	<path class="st0" d="M97.2,23.1c-0.6,1.9-1.1,3.4-1.5,4.7c-1-0.5-2-1.2-3-1.5c-1.2-0.3-2.5-0.1-3.8-0.1c0,0.7-0.1,1.3-0.1,1.9
		c0,6.9,0,13.7,0,20.6c0,1.6,0,3.1,1.9,4.3h-8.5c2.1-1.8,1.5-4.2,1.5-6.4c0-6.2,0-12.4,0-18.6c0-0.5,0-1.1,0-1.6
		c-4.5-0.7-5.6-0.4-8.5,2.1c0.5-1.7,1-3.3,1.5-4.8c0.1-0.3,0.6-0.7,0.9-0.7C84,23.1,90.5,23.1,97.2,23.1"/>
	<path class="st0" d="M52.8,64.8c3.8-3.7,4.4-8.3,4.4-13.2c-0.1-7.9,0-15.7,0-23.6c0-1.7,0.2-3.5-2-4.9h9.1c-2.4,1.3-2,3.3-2,5.1
		c0,8.5,0,17,0,25.5c0,5.7-3.3,9.8-8.8,11C53.3,64.9,53.2,64.8,52.8,64.8"/>
	<path class="st0" d="M64.6,8.2c-0.5-4.2,0-5.5,2.9-6.9c3-1.5,6.7-0.8,9.2,1.6c3.3,3.3,3.3,8.7,0,12c-3.3,3.2-8.5,3.1-11.7-0.3
		c-0.9-0.9-1.6-1.9-2.5-2.9c-1.7-1.8-4.1-1.9-5.8-0.4c-1.7,1.4-2,3.9-0.7,5.6c1.3,1.9,3.9,2.4,5.9,1c0.9-0.6,1.6-1.4,2.4-2.2
		c0.8,4-2.7,6.5-7,5.1c-2.5-0.8-4.4-3.2-4.6-5.8c-0.2-3,1.3-5.5,3.9-6.6c2.6-1.2,5.4-0.7,7.4,1.3c1.2,1.2,2.2,2.6,3.5,3.7
		c1.9,1.6,4.1,1.8,6.2,0.5c2.1-1.2,3.1-3.2,2.9-5.7c-0.3-2.4-1.6-4-3.9-4.8c-2.5-0.9-5.1,0.2-6.9,2.7C65.4,6.8,65,7.4,64.6,8.2"/>
	<path class="st0" d="M66.8,53.1c0.3-1.4,0.9-2.7,0.9-4c0.1-7.3,0.1-14.6,0-21.9c0-1.3-0.5-2.6-0.8-4h8c-2.2,1.2-1.9,3-1.9,4.7
		c0,6.9,0,13.8,0,20.8c0,1.5,0.5,2.9,0.8,4.4H66.8z"/>
</g>
</svg>
