<?xml version="1.0" encoding="utf-8"?>
<!-- Generator: Adobe Illustrator 23.1.0, SVG Export Plug-In . SVG Version: 6.00 Build 0)  -->
<svg version="1.1" id="Layer_1" xmlns="http://www.w3.org/2000/svg" xmlns:xlink="http://www.w3.org/1999/xlink" x="0px" y="0px"
	 viewBox="0 0 65 65" style="enable-background:new 0 0 65 65;" xml:space="preserve">
<style type="text/css">
	.st0{clip-path:url(#SVGID_2_);fill:#58595B;}
</style>
<g>
	<defs>
		<rect id="SVGID_1_" x="1.6" y="1.2" width="62.2" height="62.2"/>
	</defs>
	<clipPath id="SVGID_2_">
		<use xlink:href="#SVGID_1_"  style="overflow:visible;"/>
	</clipPath>
	<path class="st0" d="M57.7,46.8c-0.1-0.3-0.2-0.4-0.3-0.6c-0.7-1-1.3-2.1-2-3c-0.4-0.6-0.4-1,0.1-1.5c0.5-0.5,0.9-1.1,1.3-1.6
		c0.2-0.3,0.8-0.7,0.6-1c-0.2-0.3-0.8-0.1-1.2-0.1c-0.6-0.1-1,0.2-1.4,0.7c-0.5,0.8-1.1,1.5-1.6,2.2c-0.3,0.4-0.3,0.7-0.1,1.1
		c0.8,1.2,1.5,2.4,2.3,3.6c0.1,0.2,0.2,0.3,0.4,0.3C56.4,46.8,57,46.8,57.7,46.8 M52.6,41.8V38c0-1.4,0-1.4-1.4-1.4
		c-0.6,0-0.7,0.2-0.7,0.7c0,2.7,0,5.4,0,8.1c0,1.6,0,1.6,1.6,1.5c0.4,0,0.5-0.2,0.5-0.5C52.6,44.8,52.6,43.3,52.6,41.8 M19,42.6v2.9
		c0,1.3,0,1.3,1.3,1.3c0.5,0,0.6-0.1,0.6-0.6c0-2.2,0-4.3,0-6.5c0-1.4,0-1.4,1.4-1.4c1,0,1,0,1.2-1c0.1-0.6,0-0.7-0.6-0.7
		c-1.9,0-3.8,0-5.7,0c-1.1,0-1-0.2-1,1c0,0,0,0.1,0,0.1c0,0.4,0.1,0.5,0.5,0.5c0.6,0,1.2,0,1.8,0c0.4,0,0.5,0.1,0.5,0.5
		C19,40.1,19,41.3,19,42.6 M38.2,46c-0.2,0.8,0.2,0.8,0.7,0.8c0.1,0,0.3,0,0.4,0c0.5,0.1,0.7-0.1,0.7-0.7c0-1.7,0-3.4,0-5
		c0-1.2-0.6-1.9-1.8-2.1c-1.1-0.2-2.2-0.1-3.3,0.2c-0.7,0.2-1,0.5-0.9,1.3c0,0.6,0.2,0.6,0.7,0.5c0.7-0.2,1.4-0.4,2.2-0.4
		c0.5,0,0.8,0.2,1.1,0.6c0.2,0.4,0.1,0.7-0.4,0.7c-0.8,0.1-1.5,0.1-2.3,0.2c-1.7,0.3-2.6,2.3-1.5,3.8c0.4,0.6,1,0.9,1.7,1
		C36.5,46.8,37.4,46.6,38.2,46 M41.7,42.8v2.6c0,1.5,0,1.4,1.5,1.4c0.4,0,0.6-0.1,0.5-0.6c0-1.2,0-2.4,0-3.7c0-1.4,0.1-1.6,1.5-1.9
		c0.2,0,0.3-0.1,0.5-0.1c0.8-0.1,1.3,0.2,1.3,1c0,1.3,0.1,2.5,0.1,3.8c0,1.4,0,1.4,1.4,1.4c0.4,0,0.6-0.1,0.6-0.6
		c-0.1-1.7-0.2-3.5-0.1-5.2c0-1.2-1-2.2-2.3-2.2c-0.9,0-1.6,0.3-2.4,0.6c-0.3,0.2-0.7,0.3-0.7-0.3c0-0.3-0.2-0.3-0.4-0.3
		c-0.3,0-0.6,0-1,0c-0.4,0-0.5,0.1-0.5,0.5C41.7,40.5,41.7,41.7,41.7,42.8 M15.2,43.5c0-0.7,0-1.5,0-2.2c0-0.5-0.2-0.6-0.6-0.6
		c-0.7,0-1.4,0-2.1,0c-0.5,0-0.6,0.1-0.6,0.6c0,0.5,0.1,0.7,0.7,0.6c0.2,0,0.4,0,0.6,0c0.4,0,0.5,0.1,0.5,0.5c0,0.8,0,1.6,0,2.3
		c0,0.2,0.1,0.4-0.2,0.5c-1.1,0.7-2.9,0.1-3.3-1.2c-0.4-1.3-0.5-2.7-0.2-4c0.4-1.5,1.3-2.2,2.9-2.1c0.5,0,0.9,0.2,1.4,0.2
		c0.2,0,0.6,0.4,0.7,0c0.1-0.4,0.2-0.9-0.3-1.2c-0.3-0.2-0.6-0.2-0.9-0.3c-0.6,0-1.2,0-1.9,0c-1.7,0-3,1.1-3.5,2.7
		c-0.5,1.7-0.4,3.5,0.1,5.2c0.3,1.1,1.1,1.9,2.3,2.1c1.4,0.2,2.8,0.1,4.2-0.3c0.3-0.1,0.4-0.2,0.4-0.5
		C15.1,45.1,15.2,44.3,15.2,43.5 M30.6,41.4c0.7-0.3,1.2-0.8,1.3-1.5c0.3-1.5-0.7-2.9-2.3-3.1c-1.3-0.1-2.6-0.1-3.9-0.1
		c-0.4,0-0.5,0.1-0.5,0.6c0,3,0,6,0,9.1c0,0.4,0.1,0.6,0.5,0.6c1.5,0,2.9,0,4.4,0c0.2,0,0.4,0,0.6-0.1c1.7-1,2.2-4,0.1-5
		C30.7,41.6,30.7,41.5,30.6,41.4 M52.7,18c0-2.4,0-4.8,0-7.2c0-0.5-0.1-0.7-0.7-0.7c-4.8,0-9.6,0-14.4,0c-0.5,0-0.6,0.1-0.6,0.6
		c0,4.8,0,9.7,0,14.5c0,0.5,0.2,0.6,0.6,0.6c4.8,0,9.6,0,14.4,0c0.5,0,0.7-0.1,0.7-0.7C52.7,22.8,52.7,20.4,52.7,18 M32.7,63.5
		c-10.1,0-20.2,0-30.3,0c-0.6,0-0.8-0.2-0.8-0.8c0-20.2,0-40.5,0-60.7c0-0.6,0.1-0.8,0.7-0.8c20.3,0,40.5,0,60.8,0
		c0.6,0,0.7,0.2,0.7,0.8c0,20.2,0,40.5,0,60.7c0,0.6-0.1,0.8-0.8,0.8C52.9,63.4,42.8,63.5,32.7,63.5"/>
	<path class="st0" d="M27.1,43.8c0,0,0-0.1,0-0.1c0-1.4,0-1.4,1.3-1.4c1.3,0.1,1.8,0.6,1.8,1.8c0,0.6-0.3,0.9-0.9,1.1
		c-0.6,0.1-1.2,0.1-1.9,0.1c-0.3,0-0.3-0.2-0.3-0.4C27,44.5,27,44.1,27.1,43.8L27.1,43.8z"/>
	<path class="st0" d="M27,39.5c0-1.2,0-1.2,1.3-1.2c0.5,0,1.1,0,1.3,0.6c0.2,0.5,0,1-0.2,1.5c-0.3,0.4-1.8,0.7-2.2,0.4
		C27.1,40.7,27,40.6,27,39.5"/>
	<path class="st0" d="M38.1,43.8c0.2,0.7-0.1,1-0.5,1.2c-0.5,0.3-1.1,0.5-1.7,0.2c-0.7-0.4-0.6-1.5,0.1-1.9c0.6-0.4,1.3-0.3,1.9-0.2
		C38.3,43.2,38,43.6,38.1,43.8"/>
</g>
</svg>
