<?xml version="1.0" encoding="utf-8"?>
<!-- Generator: Adobe Illustrator 23.1.0, SVG Export Plug-In . SVG Version: 6.00 Build 0)  -->
<svg version="1.1" id="Layer_1" xmlns="http://www.w3.org/2000/svg" xmlns:xlink="http://www.w3.org/1999/xlink" x="0px" y="0px"
	 viewBox="0 0 149 65" style="enable-background:new 0 0 149 65;" xml:space="preserve">
<style type="text/css">
	.st0{clip-path:url(#SVGID_2_);fill:#58595B;}
</style>
<g>
	<defs>
		<rect id="SVGID_1_" x="0.3" y="11.4" width="149" height="42.7"/>
	</defs>
	<clipPath id="SVGID_2_">
		<use xlink:href="#SVGID_1_"  style="overflow:visible;"/>
	</clipPath>
	<path class="st0" d="M85.4,40.2c0-0.4,0-0.8,0-1.3c-0.2-2.5-0.4-5-1.6-7.2c-1.2-2.1-3.3-2.4-4.9-0.6c-0.4,0.5-0.8,1-1.1,1.6
		c-0.8,1.5-1.2,3.1-1.4,4.8c-0.5,3.4-0.5,6.7,0.9,9.8c0.8,1.8,2,3,4,2.9c1.9-0.1,2.8-1.6,3.3-3.4C85.2,44.8,85.3,42.5,85.4,40.2
		 M96.1,51.4c-2.8,3.7-8,3.8-9.7-1.9c-1.7,2.7-3.8,4.4-6.9,4.5c-3.1,0.1-5.3-1.5-6.9-4.4c-1.2,2.8-3.2,4.4-5.9,4.4
		c-3,0-4.2-2.4-5.3-5c-0.8,2.4-2.1,4.1-4.4,4.8c-2.4,0.7-4.6-0.1-6-2.4c-1.7-2.9-2.2-6.1-2.2-9.4c-0.1-9.6,0-19.1,0-28.7
		c0-1.4,0.5-1.9,1.8-1.7c1,0.2,2,0.5,2.9,0.8c0.6,0.2,0.9,0.6,0.9,1.4C54,23.1,53.8,32.6,53.9,42c0,1.9,0.1,3.9,0.7,5.7
		c0.1,0.3,0.2,0.6,0.3,0.9c0.4,1,1,1.7,2,1.7c1,0,1.7-0.6,2.2-1.5c0.8-1.5,1.3-3.2,1.1-5c-0.4-4.1-0.2-8.2-0.2-12.3
		c0-6.1,0-12.2,0-18.2c0-1.7,0.6-2.2,2.1-1.9c0.9,0.2,1.7,0.5,2.5,0.7c0.8,0.2,1,0.7,1,1.6c-0.2,9.2-0.3,18.4-0.3,27.5
		c0,2.4,0.1,4.7,0.9,7c0.4,1.2,1.4,2.1,2.4,2.1c1,0,1.8-0.7,2.3-2.1c0.3-0.9,0.4-1.7,0.2-2.7C70,40.2,70.4,34.9,73,30
		c1.2-2.2,2.9-3.9,5.3-4.4c2.6-0.5,4.8,0.2,6.7,2.3c0.1,0.1,0.2,0.2,0.3,0.3c0,0,0.1,0,0.1,0c0.2-0.1,0.1-0.4,0.1-0.5
		c0.1-1,0.5-1.5,1.4-1.3c1.2,0.2,2.3,0.5,3.4,0.9c0.5,0.2,0.7,0.6,0.7,1.2c-0.2,5.2-0.4,10.4-0.5,15.7c0,1.3,0,2.7,0.4,4
		c0.3,1.4,1,2.1,1.9,2.1c1,0.1,1.7-0.5,2.2-1.8c0.7-1.7,0.8-3.6,0.9-5.4c0.3-4.9,0.1-9.8,0.2-14.7c0-1.8,0.4-2.1,2-1.8
		c0.9,0.2,1.8,0.4,2.7,0.7c0.6,0.2,0.9,0.6,0.9,1.4c0,1.4,0,2.8,0,4.3c0.5-1.4,1.1-2.8,1.9-4c1.1-1.7,2.4-3,4.3-3.4
		c1.2-0.3,2.3,0,3,1.2c0.7,1.2,1,2.5,0.4,3.8c-0.3,0.8-0.9,1.1-1.8,1c-2.7-0.5-3.9,0.1-5.2,2.7c-1.7,3.5-2.6,7.2-2.7,11.1
		c-0.1,2.3,0,4.7,0,7c0,1.5-0.4,1.9-1.8,1.8c-0.7-0.1-1.4-0.2-2-0.4C96.3,53.2,96.3,53.2,96.1,51.4"/>
	<path class="st0" d="M25.4,33.1c0,6.4,0,12.8,0,19.2c0,1.7-0.3,2-1.9,1.8c-0.9-0.1-1.7-0.4-2.6-0.6c-0.8-0.3-1.1-0.8-1.1-1.7
		c0-5.4,0-10.9,0-16.3c0-1-0.2-1.3-1.1-1.2c-2.7,0.3-5.4,0.6-8,1.2C10,35.7,9.9,36,9.9,36.7c0,5.2,0,10.5,0,15.7
		c0,1.5-0.4,1.9-1.8,1.7c-0.9-0.1-1.9-0.4-2.8-0.6c-0.7-0.2-1-0.7-1-1.5c0-4.5,0-8.9,0-13.3c0-0.5,0.1-1.1-0.7-0.8
		c-0.5,0.2-1-0.2-1.4-0.6c-0.9-0.8-1.6-1.9-1.9-3.2c-0.2-0.9,0.1-1.6,0.9-1.9c0.7-0.2,1.5-0.5,2.3-0.6c0.7-0.1,0.8-0.5,0.8-1.2
		c0-5.6,0-11.3,0-17c0-1.7,0.5-2.2,2.1-1.8C7.3,11.7,8.1,12,9,12.2c0.7,0.2,1,0.6,1,1.4c0,5.2,0,10.3,0,15.5c0,0.8,0.2,1,0.9,0.9
		c2.7-0.4,5.4-0.5,8.1-0.5c0.8,0,0.9-0.3,0.9-1c0-5,0-10.1,0-15.1c0-1.8,0.5-2.2,2.1-1.8c0.8,0.2,1.6,0.5,2.5,0.7
		c0.7,0.2,1,0.7,1,1.5C25.4,20.2,25.4,26.6,25.4,33.1"/>
	<path class="st0" d="M126.1,40.7c0-3.4-0.1-6-1.2-8.3c-1.5-3.1-4.4-3.4-6-0.3c-2.5,4.8-2.8,9.9-1.1,15.1c0.4,1.2,1.2,2.2,2.3,2.8
		c2.1,1.1,4.2-0.1,5.1-2.8C126,44.8,126.1,42.3,126.1,40.7 M127.3,49c-0.9,1.6-1.9,2.9-3.3,3.8c-3.7,2.4-8.4,1-10.7-3.4
		c-3-5.6-2.4-15.6,1.4-20.6c2.9-4,7.4-4.4,11-1.1c0.1,0.1,0.2,0.2,0.3,0.3c0.2-0.3,0.1-0.7,0.1-1c0-4.6,0-9.1,0-13.7
		c0-1.5,0.6-2.1,1.9-1.8c0.9,0.2,1.8,0.5,2.7,0.8c0.7,0.2,0.9,0.7,0.9,1.4c-0.2,9.2-0.3,18.5-0.3,27.7c0,2.1,0.1,4.3,0.7,6.4
		c0,0.1,0.1,0.2,0.1,0.3c0.4,1.2,1.1,2.2,2.4,2.3c1,0.1,1.8-0.8,2.3-2.3c0.1-0.2,0.1-0.3,0.2-0.5c0.1-0.6,0.3-1.1,1-1
		c0.7,0.2,0.8,0.8,0.7,1.4c-0.2,2.6-2.3,5.2-4.7,5.8c-2.3,0.6-4.6-0.6-5.9-3.2C127.8,50.1,127.5,49.6,127.3,49"/>
	<path class="st0" d="M33.4,41.7c0,1.9,0.2,3.9,1,5.7c1,2.3,2.8,3.4,4.8,2.9c1.6-0.4,2.5-1.8,3.1-3.4c1.3-3.5,1.4-7.2,0.7-10.9
		c-0.4-1.9-0.9-3.7-2.2-5.1c-1.1-1.2-2.5-1.2-3.8-0.2c-0.8,0.7-1.4,1.5-1.8,2.5C33.9,35.8,33.4,38.7,33.4,41.7 M46.6,39.6
		c-0.1,3.8-0.9,7.5-3.1,10.7c-3.3,4.9-11.1,5.2-13.9-1.4c-2.9-6.6-2.5-13.3,1.1-19.6c3.4-5.9,10.5-4.9,13.6,0.4
		C45.9,32.8,46.5,36.1,46.6,39.6"/>
	<path class="st0" d="M141.3,49.5c0-2.8,1.8-5,4.1-5.1c2.1,0,3.8,2.1,3.8,4.7c0,2.7-1.8,4.8-4.1,4.8C143,54,141.3,52,141.3,49.5"/>
</g>
</svg>
