<?xml version="1.0" encoding="utf-8"?>
<!-- Generator: Adobe Illustrator 23.1.0, SVG Export Plug-In . SVG Version: 6.00 Build 0)  -->
<svg version="1.1" id="Layer_1" xmlns="http://www.w3.org/2000/svg" xmlns:xlink="http://www.w3.org/1999/xlink" x="0px" y="0px"
	 viewBox="0 0 132 65" style="enable-background:new 0 0 132 65;" xml:space="preserve">
<style type="text/css">
	.st0{clip-path:url(#SVGID_2_);fill:#58595B;}
</style>
<g>
	<defs>
		<rect id="SVGID_1_" x="1.2" y="9" width="130.1" height="46.7"/>
	</defs>
	<clipPath id="SVGID_2_">
		<use xlink:href="#SVGID_1_"  style="overflow:visible;"/>
	</clipPath>
	<path class="st0" d="M67.4,11.1c-3.1,0.1-5.9,0.1-8.6,0.2c-3.3,0.2-6.5,0.4-9.8,0.7c-2.7,0.2-5.4,0.6-8.1,1
		c-3.4,0.5-6.9,1.2-10.3,1.9c-3.8,0.8-7.6,1.9-11.2,3.2C15.7,19.5,12.2,21,9,23.2C7,24.6,5.3,26.1,4,28.1c-1.7,2.8-1.8,5.6-0.2,8.5
		c1,1.7,2.3,3,3.9,4.2c2.7,2.1,5.7,3.6,8.9,5c4.6,1.9,9.4,3.3,14.2,4.4c3.3,0.7,6.6,1.3,9.9,1.8c2.3,0.4,4.5,0.6,6.8,0.9
		c2.5,0.3,5,0.4,7.6,0.6c2.7,0.2,5.4,0.3,8.1,0.3c2.9,0,5.9,0,8.8-0.1c2.4-0.1,4.9-0.2,7.3-0.3c2.3-0.2,4.5-0.4,6.8-0.6
		c2-0.2,4-0.4,6-0.8c2.8-0.5,5.6-1,8.3-1.5c4.2-0.9,8.4-2,12.5-3.5c3.3-1.2,6.4-2.6,9.4-4.4c2.2-1.4,4.2-2.9,5.7-5
		c1.1-1.5,1.8-3.2,1.8-5.2c0-1.8-0.7-3.3-1.7-4.7c-1.4-2-3.3-3.5-5.3-4.8c-3.7-2.4-7.8-4.1-12-5.5c-4.8-1.6-9.7-2.8-14.6-3.6
		c-3.5-0.6-7-1.1-10.6-1.5c-2.8-0.3-5.6-0.5-8.4-0.7C73.7,11.3,70.4,11.2,67.4,11.1 M1.2,9h130.1v46.7H1.2V9z"/>
	<path class="st0" d="M51.8,22.9h11c-1.6,2.3-3.2,4.5-4.8,6.8c0.7,1.2,1.5,2.4,2.2,3.5c1.1,1.8,2.2,3.5,3.3,5.3
		c0.2,0.4,0.6,0.7,0.9,1h-13c0.1-0.5,0-0.9-0.2-1.3c-1-1.6-2-3.2-3-4.8c0-0.1-0.1-0.1-0.2-0.2c0,2.1-0.1,4.2,0.1,6.3H37.2
		c0-0.4,0.1-0.8,0.1-1.3c0-4.7,0-9.5,0-14.2c0-0.3-0.1-0.6-0.1-1H48c0,0.4-0.1,0.9-0.1,1.3c0,1.4,0,2.8,0,4.2c0,0.1,0,0.3,0.1,0.4
		c0.2-0.2,0.4-0.4,0.5-0.7c1-1.3,2-2.7,3.1-4C51.9,23.9,52.1,23.5,51.8,22.9"/>
	<path class="st0" d="M103.5,32.9c-0.4-1-0.9-1.9-1.3-2.9c-0.5,1-0.9,2-1.3,2.9H103.5z M110.2,22.9c0.1,0.4,0.1,0.8,0.2,1.1
		c2.1,4.9,4.2,9.8,6.3,14.7c0.1,0.3,0.3,0.6,0.5,0.9h-11.7c0.3-0.5,0.1-0.9-0.1-1.3c-0.2-0.5-0.4-1-0.5-1.5
		c-0.1-0.2-0.2-0.3-0.4-0.3c-1.5,0-3,0-4.6,0c-0.2,0-0.3,0.1-0.4,0.3c-0.2,0.6-0.5,1.3-0.7,1.9c-0.1,0.2,0,0.5,0,0.8h-9.2
		c0.3-0.9,0.7-1.7,1-2.6c1.6-4.3,3.2-8.6,4.8-13c0.1-0.3,0.1-0.6,0.1-1H110.2z"/>
	<path class="st0" d="M67.2,39.6c0-0.4,0.1-0.9,0.1-1.3c0-4.8,0-9.5,0-14.3c0-0.4-0.1-0.8-0.1-1.2h19.2v5h-8.8v1.3
		c2.3-0.1,4.6,0.1,6.9-0.1v4.3c-0.7,0-1.3-0.1-2-0.1c-1.4,0-2.9,0-4.3,0c-0.2,0-0.4,0-0.6,0v1.5c0.2,0,0.3,0,0.5,0
		c2.4,0,4.8,0,7.2,0c0.4,0,0.8-0.1,1.2-0.1v5.1H67.2z"/>
	<path class="st0" d="M31,39.6H20.2V23H31c0,0.3-0.1,0.7-0.1,1c0,4.8,0,9.6,0,14.4C30.9,38.8,31,39.2,31,39.6"/>
</g>
</svg>
