<?xml version="1.0" encoding="utf-8"?>
<!-- Generator: Adobe Illustrator 23.1.0, SVG Export Plug-In . SVG Version: 6.00 Build 0)  -->
<svg version="1.1" id="Layer_1" xmlns="http://www.w3.org/2000/svg" xmlns:xlink="http://www.w3.org/1999/xlink" x="0px" y="0px"
	 viewBox="0 0 149 65" style="enable-background:new 0 0 149 65;" xml:space="preserve">
<style type="text/css">
	.st0{clip-path:url(#SVGID_2_);fill:#58595B;}
</style>
<g>
	<defs>
		<rect id="SVGID_1_" x="4.4" y="10.9" width="141.3" height="42.7"/>
	</defs>
	<clipPath id="SVGID_2_">
		<use xlink:href="#SVGID_1_"  style="overflow:visible;"/>
	</clipPath>
	<path class="st0" d="M136.9,46.1c-0.4-0.4-0.6-0.6-0.7-0.8c-4.2-7.3-8.3-14.6-12.4-22c-0.4-0.7-0.7-1.4-1-2.1
		c-2-4.8,0.2-9.1,5.3-9.9c3-0.5,6.1-0.4,9.2-0.4c2.7-0.1,5.4,0,8.4,0C142.8,22.7,139.9,34.2,136.9,46.1"/>
	<path class="st0" d="M112.5,18c0.5,0.7,0.7,1,0.9,1.3c3.8,6.6,7.5,13.1,11.3,19.7c0.7,1.2,1.2,2.4,1.8,3.6c3,5.9-1.6,9.9-6.2,10.4
		c-0.5,0.1-1,0-1.5,0c-4.9,0-9.8,0-15,0C106.7,41.4,109.5,29.9,112.5,18"/>
	<path class="st0" d="M46.2,37.8c2.2-0.4,4-0.5,5.7-1c2.1-0.5,3.5-2,3.8-4.1c0.1-0.7-0.2-1.7-0.6-2.2c-0.8-1-5.5-1.6-6.6-0.9
		c-0.3,0.2-0.5,0.6-0.6,0.9C47.3,32.7,46.8,34.9,46.2,37.8 M43.3,49.7c2.4-0.2,4.6-0.2,6.7-0.6c2.5-0.4,4.1-2,4.7-4.5
		c0.6-2,0.1-3.4-2-3.9c-2-0.5-4.2-0.6-6.3-0.8c-0.3,0-0.9,0.5-1,0.8C44.8,43.6,44.1,46.5,43.3,49.7 M35.9,52.7
		c0.9-3.8,1.9-7.7,2.8-11.6c1.1-4.6,2.3-9.2,3.3-13.9c0.3-1.3,0.8-1.8,2.2-1.8c3.5,0.1,7.1,0,10.6,0.1c1.3,0,2.7,0.2,4,0.5
		c4.2,1.2,5.5,5.5,2.6,8.8c-1.1,1.3-2.7,2.2-4.2,3.4c0,0,0.2,0,0.4,0.1c4.5,1.8,5.5,4.6,3,8.8c-1.8,3.1-4.6,5.2-8,5.5
		C47.1,53,41.6,52.7,35.9,52.7"/>
	<path class="st0" d="M15.8,25.5C14.4,31.4,13,37,11.7,42.6c-0.9,3.8,0.1,6.1,2.9,6.9c2.6,0.7,6.6-0.5,8.1-2.9
		c1.1-1.7,2-3.8,2.6-5.8c1.3-4.5,2.4-9.1,3.5-13.6c0.3-1.3,0.8-1.9,2.2-1.7c1.3,0.1,2.7,0,4.3,0c-1.1,4.3-2,8.3-3.1,12.2
		c-0.6,2.2-1.1,4.4-1.8,6.5c-1.8,5-5.3,8.1-10.6,9c-3.5,0.6-6.9,0.6-10.3-0.5c-4.2-1.5-5.9-4.3-4.9-8.7c1.2-5.7,2.6-11.4,3.9-17.1
		c0.2-1,0.6-1.4,1.6-1.4C12,25.5,13.8,25.5,15.8,25.5"/>
	<path class="st0" d="M83.9,43.3c-0.7-2.7-1.4-5.3-2.2-8.2c-2.2,2.9-4.1,5.4-6.2,8.2H83.9z M93.7,53.1c-2.3,0-4.3,0.1-6.3-0.1
		c-0.5,0-1.2-0.6-1.4-1.1c-0.5-1.3-0.8-2.7-1.2-4.2c-3.9,0-7.7,0-11.6,0c-0.5,0-1,0.4-1.4,0.7c-0.4,0.4-0.8,0.9-1,1.4
		c-1.6,3.7-4.6,3.6-8.1,3c0.4-0.6,0.7-1.1,1.1-1.6C70,43.2,76.2,35,82.4,26.9c0.7-0.9,1.5-1.9,2.6-1.3c0.7,0.3,1.2,1.3,1.5,2.1
		c2.3,7.8,4.5,15.5,6.7,23.3C93.3,51.6,93.5,52.2,93.7,53.1"/>
</g>
</svg>
