<svg xmlns="http://www.w3.org/2000/svg" width="189.274" height="32.152" viewBox="0 0 189.274 32.152">
  <g id="Group_190" data-name="Group 190" transform="translate(-43.625 -219.924)">
    <path id="Path_483" data-name="Path 483" d="M119.319,239.272v10.087l-9.777-10.087H105.4v16.822h4.46v-10.53l10.342,10.53h3.576V239.272Z" transform="translate(-34.247 -10.726)" fill="#fff"/>
    <path id="Path_484" data-name="Path 484" d="M170.451,243.128v-3.856h4.868v16.822h-4.868Z" transform="translate(-70.311 -10.726)" fill="#fff"/>
    <path id="Path_485" data-name="Path 485" d="M262.247,249.36v3.071h11.016v3.664H257.486V239.273h15.708v3.685H262.247v2.984h9.272v3.419Z" transform="translate(-118.562 -10.727)" fill="#fff"/>
    <path id="Path_486" data-name="Path 486" d="M211.32,243.082v13.013h-4.787V243.082h-6.165v-3.808H217.5v3.808Z" transform="translate(-86.897 -10.727)" fill="#fff"/>
    <g id="Group_189" data-name="Group 189" transform="translate(43.625 219.924)">
      <path id="Path_487" data-name="Path 487" d="M318.262,243.047h3.583c3.931,0,5.53,1.651,5.53,4.641,0,3.063-1.643,4.624-5.53,4.63h-3.583Zm-4.777-3.775v16.821h8.468c6.971-.005,10.4-3.158,10.4-8.432,0-4.986-3.084-8.382-10.4-8.39Z" transform="translate(-193.232 -230.65)" fill="#fff"/>
      <path id="Path_488" data-name="Path 488" d="M61.989,248.675c0,5.144-3.2,7.725-9.15,7.725s-9.216-2.57-9.214-7.7v-9.431H48.4v9.443c0,2.564,1.457,3.845,4.457,3.835,2.967-.01,4.369-1.26,4.371-3.809v-9.469h4.761Z" transform="translate(-43.625 -230.651)" fill="#fff"/>
      <path id="Path_489" data-name="Path 489" d="M382.753,227.641A4.4,4.4,0,0,1,387.6,231.1c.984,3.918-1.206,7.755-4.844,10.224l.006-1.4a7.432,7.432,0,0,0,1.818-1.633,6.375,6.375,0,0,0-1.828-.271v-1.769a12.749,12.749,0,0,1,3.029.3,4.374,4.374,0,0,0,.674-1.613,15.045,15.045,0,0,0-3.7.019v-1.239a15.528,15.528,0,0,1,4.028-.385,3.121,3.121,0,0,0-.079-1.323,15.489,15.489,0,0,0-3.945.473v-1a15.952,15.952,0,0,1,3.742-.787,2.043,2.043,0,0,0-.557-1.006,16.7,16.7,0,0,0-3.185.673v-.943a8.635,8.635,0,0,1,2.325-.58,4.626,4.626,0,0,0-2.321-.469Z" transform="translate(-231.631 -224.198)" fill="#fff"/>
      <path id="Path_490" data-name="Path 490" d="M385.167,226.4c6.573-1.215,9.547,1.69,7.763,8.777-1.652,5.828-5.143,9.743-10.166,12.744v-3.067a4.978,4.978,0,0,1,.926,1.14,6.722,6.722,0,0,0,1.7-1.234,13.385,13.385,0,0,0-2.626-2.47c0,.007,0-.376,0-.4a8.9,8.9,0,0,0,2.384-1.918,11.342,11.342,0,0,1,2.883,2.22,9.343,9.343,0,0,0,1.606-2.251,10.732,10.732,0,0,0-2.916-1.667,6.909,6.909,0,0,0,1.291-2.087,13.658,13.658,0,0,1,3.044,1.036,8.31,8.31,0,0,0,.79-2.305,14.559,14.559,0,0,0-3.115-.651,7.266,7.266,0,0,0,.189-1.8,15.921,15.921,0,0,1,3.362.318,4.18,4.18,0,0,0,.057-1.607,18.583,18.583,0,0,0-3.521-.155,3.953,3.953,0,0,0-.316-1.383,16.474,16.474,0,0,1,3.507-.041,2.615,2.615,0,0,0-.767-1.285,15.665,15.665,0,0,0-3.21.183,2.7,2.7,0,0,0-.823-.94,9.713,9.713,0,0,1,2.628-.279,5.788,5.788,0,0,0-3.341-.356,4.137,4.137,0,0,0-1.327-.524" transform="translate(-231.639 -223.364)" fill="#fff"/>
      <path id="Path_491" data-name="Path 491" d="M414.765,251.927v-32H382.782v2.638c4.575-1.451,13.681-.626,18.969,4.122a21.537,21.537,0,0,1,7.594,15.494,20.429,20.429,0,0,1-1.849,9.749Z" transform="translate(-231.649 -219.924)" fill="#fff"/>
      <path id="Path_492" data-name="Path 492" d="M396.506,231.3a7.1,7.1,0,0,0-2.251-.573,6.215,6.215,0,0,1,.22,1.577,12.32,12.32,0,0,1,2.645.73,6.355,6.355,0,0,1,.25,2.124,11.16,11.16,0,0,0-2.968-1.1,9.8,9.8,0,0,1-.4,2.3,13.6,13.6,0,0,1,3.048,1.508,9.38,9.38,0,0,1-.943,2.981,13.915,13.915,0,0,0-3.084-1.93,12.412,12.412,0,0,1-1.6,3.144,13.691,13.691,0,0,1,2.677,2.328,9.143,9.143,0,0,1-2.076,2.587,11.431,11.431,0,0,0-2.2-2.709,11.508,11.508,0,0,1-2.97,3.023,14.249,14.249,0,0,1,1.958,2.625,10.447,10.447,0,0,1-2.4,1.7,11.689,11.689,0,0,0-1.367-2.878,9.071,9.071,0,0,1-2.289,1.467v4.482c5.855-2.119,13.458-8.185,15.264-16.4.88-4-.005-6.412-.836-7.731-1.362-2.159-3.856-2.587-4.985-2.753a4.665,4.665,0,0,1,1.5,1.392,3.6,3.6,0,0,1,2.817,2.1" transform="translate(-231.632 -224.292)" fill="#fff"/>
      <path id="Path_493" data-name="Path 493" d="M382.754,258.646v-.378a15.775,15.775,0,0,0,4.943-2.544,13.263,13.263,0,0,1,.743,2.774,10.706,10.706,0,0,0,2.522-1.995,9.44,9.44,0,0,0-1.03-2.167,19.4,19.4,0,0,0,3.661-3.436,10.425,10.425,0,0,1,1.05,2.343,14.171,14.171,0,0,0,2.573-3.016,8.7,8.7,0,0,0-1.523-1.948,13.7,13.7,0,0,0,2.159-3.92,7.283,7.283,0,0,1,1.73,1.792,11.531,11.531,0,0,0,1.241-3.747,5.721,5.721,0,0,0-1.806-1.361,10.126,10.126,0,0,0,.393-2.863,6.391,6.391,0,0,1,1.755,1.247,6.921,6.921,0,0,0-.21-2.529,4.941,4.941,0,0,0-1.686-1,5.416,5.416,0,0,0-.458-1.622,5.213,5.213,0,0,1,1.534.851,3.65,3.65,0,0,0-1.854-1.763,6.17,6.17,0,0,0-.933-1.284,6.1,6.1,0,0,1,4.41,4.916,17.273,17.273,0,0,1-1.986,10.923c-2.245,4.336-5.007,6.84-9.8,10.726Z" transform="translate(-231.634 -226.664)" fill="#fff"/>
      <path id="Path_494" data-name="Path 494" d="M403.325,263.544a15.783,15.783,0,0,0,3.946-3.517,10.585,10.585,0,0,1,.528,2.278,17.639,17.639,0,0,0,2.975-3.416,6.812,6.812,0,0,0-.843-1.774,11.724,11.724,0,0,0,2.519-4.31,5.161,5.161,0,0,1,1.053,1.724,14.835,14.835,0,0,0,1.621-4.5,5.473,5.473,0,0,0-1.058-1.485,9.728,9.728,0,0,0,.449-3.176,6.233,6.233,0,0,1,1.187,1.487c-.007-1.778-.186-2.917-1.249-3.866a5.976,5.976,0,0,0-.5-2.091c1.568,1.33,2.954,3.1,2.556,7.051-.6,5.959-4.111,11.639-8.259,15.6Z" transform="translate(-243.038 -231.552)" fill="#fff"/>
      <path id="Path_495" data-name="Path 495" d="M428.987,277.107a7.548,7.548,0,0,0,1.8-2.628,5.193,5.193,0,0,1,.333,1.775,14.787,14.787,0,0,0,1.629-6.281,20.325,20.325,0,0,0,.836-4.633,19.545,19.545,0,0,1-1.772,11.767Z" transform="translate(-257.265 -245.102)" fill="#fff"/>
      <path id="Path_496" data-name="Path 496" d="M428.2,254.922a3.559,3.559,0,0,0-.486-2.288,14.3,14.3,0,0,0-.191-2.138c.927,1.268,1.708,2.684,1.409,6.017-.519,4.511-1.879,9.046-5.344,12.366h-1.343a7.237,7.237,0,0,0-.242-2.063,15.415,15.415,0,0,0,3.212-5.134,6.549,6.549,0,0,1,.65,2.315,17.075,17.075,0,0,0,1.792-5.582,4.337,4.337,0,0,0-.608-1.378,11.26,11.26,0,0,0,.591-3.117,3.561,3.561,0,0,1,.56,1" transform="translate(-253.392 -236.873)" fill="#fff"/>
      <path id="Path_497" data-name="Path 497" d="M458.786,284.654a2.137,2.137,0,1,1,2.136,2.127,2.117,2.117,0,0,1-2.136-2.127m3.946,0a1.811,1.811,0,1,0-1.81,1.8,1.814,1.814,0,0,0,1.81-1.8m-.8,1.151h-.394l-.7-1.075h-.393v1.075h-.325v-2.331h1.013c.419,0,.83.114.83.616,0,.46-.324.629-.739.639Zm-1.092-1.4c.29,0,.8.052.8-.318,0-.241-.315-.284-.567-.284h-.623v.6Z" transform="translate(-273.785 -254.629)" fill="#fff"/>
    </g>
  </g>
</svg>
