<?xml version="1.0" encoding="utf-8"?>
<!-- Generator: Adobe Illustrator 23.1.0, SVG Export Plug-In . SVG Version: 6.00 Build 0)  -->
<svg version="1.1" id="Layer_1" xmlns="http://www.w3.org/2000/svg" xmlns:xlink="http://www.w3.org/1999/xlink" x="0px" y="0px"
	 width="550px" height="189px" viewBox="0 0 550 189" style="enable-background:new 0 0 550 189;" xml:space="preserve">
<style type="text/css">
	.st0{enable-background:new    ;}
	.st1{fill:#233659;}
	.st2{fill:#8CC63F;}
</style>
<g id="Group_1431" transform="translate(-686 -191)">
	<g class="st0">
		<path class="st1" d="M830.9,332.6h-32V380h-11.9v-47.4h-95.5v-8.5l92-130.8h15.4v128.3h32V332.6z M786.9,321.7v-53.1
			c0-25.6,0.6-47,1.8-64.4h-1c-1.7,3.1-6.9,11.1-15.6,23.9l-65.5,93.6H786.9z"/>
	</g>
	<g class="st0">
		<path class="st1" d="M1231.9,332.6h-32V380h-11.9v-47.4h-95.5v-8.5l92-130.8h15.4v128.3h32V332.6z M1187.9,321.7v-53.1
			c0-25.6,0.6-47,1.8-64.4h-1c-1.7,3.1-6.9,11.1-15.6,23.9l-65.5,93.6H1187.9z"/>
	</g>
	<g id="streamline-icon-search-circle-alternate_40x40" transform="translate(866 280)">
		<g id="Path_3553">
			<path class="st2" d="M84.7-39.8c19.6,0,35.4,15.9,35.4,35.4s-15.9,35.4-35.4,35.4c-19.6,0-35.4-15.9-35.4-35.4
				C49.2-23.9,65.1-39.8,84.7-39.8z M94.5-89C42.3-89,0-46.7,0,5.5S42.3,100,94.5,100S189,57.7,189,5.5S146.7-89,94.5-89z
				 M153.2,53.1c3.1,3.1,3.1,8.1,0,11.1c-3.1,3-8,3-11.1,0L115.8,38c-0.6-0.6-1.5-0.7-2.2-0.2C90.3,53.9,58.3,48,42.2,24.6
				S32-30.7,55.3-46.8s55.3-10.2,71.5,13.1c12.1,17.5,12.1,40.6,0.1,58.2c-0.5,0.8-0.4,1.8,0.2,2.5L153.2,53.1z"/>
		</g>
	</g>
</g>
</svg>
