<?xml version="1.0" encoding="utf-8"?>
<!-- Generator: Adobe Illustrator 23.1.0, SVG Export Plug-In . SVG Version: 6.00 Build 0)  -->
<svg version="1.1" id="Layer_1" xmlns="http://www.w3.org/2000/svg" xmlns:xlink="http://www.w3.org/1999/xlink" x="0px" y="0px"
	 viewBox="0 0 94 64.9" style="enable-background:new 0 0 94 64.9;" xml:space="preserve">
<style type="text/css">
	.st0{fill:#000C30;}
	.st1{fill:url(#Path_8138_1_);}
</style>
<g id="Group_2869" transform="translate(565.846 -1649.685)">
	<g id="Group_2867" transform="translate(-546.781 1649.685)">
		<path id="Path_8136" class="st0" d="M13.8,55.7H3.2c-0.8,0-1.6-0.3-2.2-0.9c-1.3-1.2-1.3-3.2,0-4.5l17.5-17.8L0.9,14.6
			c-0.9-0.9-1.2-2.3-0.7-3.5c0.5-1.2,1.7-2,2.9-2h10.7c0.9,0,1.7,0.4,2.3,1l19.7,20.1c1.2,1.2,1.2,3.2,0,4.5L16.1,54.8
			C15.5,55.4,14.7,55.7,13.8,55.7z M3.2,53.4h10.6c0.2,0,0.4-0.1,0.6-0.2l19.7-20.1c0.3-0.3,0.3-0.8,0-1.2L14.4,11.8
			c-0.2-0.2-0.4-0.3-0.6-0.3H3.2c-0.3,0-0.6,0.2-0.8,0.5c-0.1,0.3-0.1,0.7,0.2,0.9l17.7,17.9c0.8,0.8,0.8,2.2,0,3l-17.6,18
			c-0.3,0.3-0.3,0.9,0,1.2C2.8,53.3,3,53.4,3.2,53.4L3.2,53.4z"/>
	</g>
	<g id="Group_2868" transform="translate(-565.846 1649.685)">
		<path id="Path_8137" class="st0" d="M1.2,55.7c-0.3,0-0.6-0.1-0.8-0.3c-0.5-0.5-0.5-1.2,0-1.7c0,0,0,0,0,0l20.3-20.7
			c0.3-0.3,0.3-0.8,0-1.2L0.3,11.2c-0.5-0.5-0.4-1.2,0-1.7c0.5-0.5,1.2-0.4,1.7,0l20.3,20.7c1.2,1.2,1.2,3.2,0,4.5L2,55.4
			C1.8,55.6,1.5,55.7,1.2,55.7z"/>
	</g>
	<g id="Path_8137-2" transform="translate(-514.037 1649.69)">
		
			<linearGradient id="Path_8138_1_" gradientUnits="userSpaceOnUse" x1="-102.5765" y1="131.0929" x2="-101.5765" y2="131.0929" gradientTransform="matrix(42.1903 0 0 -46.4773 4327.7388 6125.313)">
			<stop  offset="0" style="stop-color:#2CC4EC"/>
			<stop  offset="1" style="stop-color:#8CC63F"/>
		</linearGradient>
		<path id="Path_8138" class="st1" d="M19.3,55.7H2v-0.2c-0.4-0.2-0.7-0.4-1-0.7c-1.3-1.2-1.3-3.2-0.1-4.5l17.5-17.8L0.9,14.6
			c-0.9-0.9-1.2-2.3-0.7-3.5c0.5-1.2,1.7-2,2.9-2h16.1c0.8,0,1.7,0.3,2.3,0.9l19.7,20.1c1.2,1.2,1.2,3.2,0,4.5L21.5,54.8
			C20.9,55.4,20.1,55.7,19.3,55.7z M3.8,53.4h15.5c0.2,0,0.4-0.1,0.6-0.2l19.7-20.1c0.3-0.3,0.3-0.8,0-1.2L19.9,11.8
			c-0.2-0.2-0.4-0.2-0.6-0.2H3.2c-0.3,0-0.6,0.2-0.8,0.5c-0.1,0.3-0.1,0.7,0.2,0.9l17.7,17.9c0.8,0.8,0.8,2.2,0,3l-17.7,18
			c-0.3,0.3-0.3,0.9,0,1.2c0.2,0.2,0.4,0.2,0.6,0.2L3.8,53.4z"/>
	</g>
</g>
</svg>
