<svg xmlns="http://www.w3.org/2000/svg" xmlns:xlink="http://www.w3.org/1999/xlink" width="63.845" height="64.941" viewBox="0 0 63.845 64.941">
  <defs>
    <linearGradient id="linear-gradient" y1="0.5" x2="1" y2="0.5" gradientUnits="objectBoundingBox">
      <stop offset="0" stop-color="#2cc4ec"/>
      <stop offset="1" stop-color="#8cc63f"/>
    </linearGradient>
  </defs>
  <g id="Group_3699" data-name="Group 3699" transform="translate(474.244 -987.863)">
    <g id="Group_3695" data-name="Group 3695" transform="translate(-473.863 987.863)">
      <path id="Path_9193" data-name="Path 9193" d="M-466.654,1028.235a.942.942,0,0,0,1.207.564.942.942,0,0,0,.564-1.206,24.593,24.593,0,0,1-1.481-8.4c0-.647.028-1.3.08-1.954h5.96a1.884,1.884,0,0,0,1.884-1.884v-10.428a1.884,1.884,0,0,0-1.884-1.884h-.075a24.842,24.842,0,0,1,2.921-2.885,24.735,24.735,0,0,1,15.854-5.768c.2,0,.4.013.6.018l-2.945,2.32a.943.943,0,0,0-.157,1.323.943.943,0,0,0,1.324.157l4.844-3.817a.941.941,0,0,0,.353-.629.938.938,0,0,0-.2-.694l-3.817-4.843a.942.942,0,0,0-1.323-.156.942.942,0,0,0-.156,1.323h0l2.478,3.144c-.336-.013-.672-.03-1.007-.03a26.621,26.621,0,0,0-17.061,6.206,26.694,26.694,0,0,0-4.134,4.331h-7.934a1.884,1.884,0,0,0-1.884,1.884v10.428a1.884,1.884,0,0,0,1.884,1.884h2.581c-.048.655-.076,1.307-.076,1.954A26.469,26.469,0,0,0-466.654,1028.235Zm-4.1-23.312h10.428v10.428h-10.428Z" transform="translate(472.636 -987.863)" fill="#000c30"/>
      <path id="Path_9194" data-name="Path 9194" d="M-408.037,1170.049a24.886,24.886,0,0,1-9.567,5.721,7.93,7.93,0,0,0-7.733-6.226,7.929,7.929,0,0,0-7.712,6.146,24.712,24.712,0,0,1-13.512-10.947l3.753,1.139a.941.941,0,0,0,1.174-.627.942.942,0,0,0-.627-1.175l-5.9-1.792a.938.938,0,0,0-.273-.036c-.031,0-.063,0-.094,0l-.018,0a.937.937,0,0,0-.316.084.939.939,0,0,0-.532.766l-1.733,5.711a.942.942,0,0,0,.628,1.175.942.942,0,0,0,1.174-.628h0l1.122-3.7a26.6,26.6,0,0,0,14.955,11.944,7.924,7.924,0,0,0,7.911,7.772,7.924,7.924,0,0,0,7.908-7.687,26.765,26.765,0,0,0,10.7-6.287.943.943,0,0,0,.027-1.332A.942.942,0,0,0-408.037,1170.049Zm-11.265,7.413a6.036,6.036,0,0,1-6.035,6.035,6.036,6.036,0,0,1-6.035-6.035,6.035,6.035,0,0,1,6.035-6.035A6.035,6.035,0,0,1-419.3,1177.462Z" transform="translate(456.257 -1120.908)" fill="#000c30"/>
      <path id="Path_9195" data-name="Path 9195" d="M-298.038,1026.262l-3.376-5.846a1.884,1.884,0,0,0-1.631-.942,1.884,1.884,0,0,0-1.611.91,26.554,26.554,0,0,0-15.424-10.126.942.942,0,0,0-1.129.706.942.942,0,0,0,.707,1.129h0a24.684,24.684,0,0,1,14.811,10.081l-2.36,4.087-3.376,5.847a1.884,1.884,0,0,0,0,1.884,1.882,1.882,0,0,0,1.631.942h8.45c.021.418.036.839.036,1.261a24.974,24.974,0,0,1-.36,4.216,24.64,24.64,0,0,1-4.048,9.9l-.69-3.931a.941.941,0,0,0-1.09-.765.943.943,0,0,0-.766,1.09l1.051,6,0,.012.011.064,0,.011a.905.905,0,0,0,.046.161c0,.008.005.015.009.023a.932.932,0,0,0,.071.139l.018.027a.856.856,0,0,0,.09.113l.031.032c.019.018.035.039.055.056s.032.021.048.032l.041.028a1,1,0,0,0,.116.066l.045.018a.854.854,0,0,0,.124.041c.018,0,.036.008.055.011a.846.846,0,0,0,.121.016.606.606,0,0,0,.068,0,.865.865,0,0,0,.114-.008c.011,0,.022,0,.034,0l6.073-1.065a.941.941,0,0,0,.764-1.09.941.941,0,0,0-1.09-.765l-3.725.653a26.567,26.567,0,0,0,4.271-10.551,26.906,26.906,0,0,0,.387-4.534c0-.422-.013-.843-.032-1.261h3.165a1.884,1.884,0,0,0,1.632-.942,1.883,1.883,0,0,0,0-1.884Zm-11.759,6.788,3.376-5.847,3.375-5.847,3.375,5.847,3.375,5.847h-13.5Z" transform="translate(357.127 -1004.93)" fill="#000c30"/>
    </g>
    <g id="Group_3696" data-name="Group 3696" transform="translate(-474.244 1002.658)">
      <path id="Path_9196" data-name="Path 9196" d="M-460.472,1065.225h-12.587a1.185,1.185,0,0,1-1.185-1.185v-12.587a1.185,1.185,0,0,1,1.185-1.185h12.587a1.185,1.185,0,0,1,1.185,1.185v12.587A1.185,1.185,0,0,1-460.472,1065.225Zm-11.4-2.371h10.216v-10.216h-10.216Z" transform="translate(474.244 -1050.268)" fill="url(#linear-gradient)"/>
    </g>
    <g id="Group_3697" data-name="Group 3697" transform="translate(-451.134 1036.308)">
      <path id="Path_9197" data-name="Path 9197" d="M-368.518,1208.7a8.257,8.257,0,0,1-8.248-8.248,8.257,8.257,0,0,1,8.248-8.248,8.257,8.257,0,0,1,8.248,8.248A8.257,8.257,0,0,1-368.518,1208.7Zm0-14.125a5.884,5.884,0,0,0-5.877,5.877,5.884,5.884,0,0,0,5.877,5.877,5.884,5.884,0,0,0,5.877-5.877A5.884,5.884,0,0,0-368.518,1194.577Z" transform="translate(376.766 -1192.206)" fill="url(#linear-gradient)"/>
    </g>
    <g id="Group_3698" data-name="Group 3698" transform="translate(-429.191 1001.498)">
      <path id="Path_9198" data-name="Path 9198" d="M-266.6,1061.967h-16.421a1.186,1.186,0,0,1-1.027-.593,1.186,1.186,0,0,1,0-1.186l8.211-14.221a1.185,1.185,0,0,1,1.027-.593,1.185,1.185,0,0,1,1.027.593l8.211,14.221a1.185,1.185,0,0,1,0,1.186A1.186,1.186,0,0,1-266.6,1061.967Zm-14.368-2.371h12.315l-6.157-10.665Z" transform="translate(284.21 -1045.375)" fill="url(#linear-gradient)"/>
    </g>
  </g>
</svg>
