<?xml version="1.0" encoding="utf-8"?>
<!-- Generator: Adobe Illustrator 23.1.0, SVG Export Plug-In . SVG Version: 6.00 Build 0)  -->
<svg version="1.1" id="Layer_1" xmlns="http://www.w3.org/2000/svg" xmlns:xlink="http://www.w3.org/1999/xlink" x="0px" y="0px"
	 viewBox="0 0 74 37" style="enable-background:new 0 0 74 37;" xml:space="preserve">
<style type="text/css">
	.st0{fill:#FFFFFF;}
</style>
<g>
	<path class="st0" d="M13.4,8.2c-0.1,0.1-0.1,0.1-0.1,0.2c-1.5,4.4-3,8.7-4.5,13.1c-0.2,0.4,0.1,0.3,0.3,0.3c2.7,0,5.4,0,8.2,0h0.5
		C16.3,17.2,14.9,12.7,13.4,8.2 M0.3,34.6c0.8,0,1.5,0,2.3,0c0.3,0,0.5-0.1,0.6-0.4c1.6-4.6,3.2-9.3,4.7-13.9
		c1.9-5.6,3.8-11.2,5.7-16.8c0.1-0.2,0.2-0.3,0.4-0.3c0.8,0,1.5,0,2.3,0c0.3,0,0.4,0.1,0.5,0.4c1.2,3.8,2.4,7.5,3.7,11.3
		c2.1,6.4,4.2,12.9,6.3,19.4c0.1,0.4,0.3,0.5,0.6,0.4c0.2,0,0.5,0,0.7,0c0.7,0,0.8,0.2,0.7,0.9c0,0.3-0.2,0.2-0.4,0.2
		c-1.1,0-2.2,0-3.3,0c-2.1,0-4.1,0-6.2,0c-0.4,0-0.5-0.1-0.5-0.5c0-0.3-0.1-0.6,0.5-0.6c0.8,0.1,1.7,0,2.5,0c0.4,0,0.5-0.1,0.3-0.5
		c-1.1-3.3-2.1-6.5-3.1-9.8c-0.1-0.2-0.2-0.5-0.2-0.7c-0.3-0.9-0.3-0.9-1.2-0.9c-2.8,0-5.6,0-8.4,0c-0.3,0-0.5,0.1-0.6,0.4
		c-1.2,3.7-2.5,7.4-3.8,11c-0.1,0.4-0.1,0.4,0.3,0.4c1.2,0,2.4,0,3.6,0c0.5,0,0.4,0.3,0.4,0.6c0,0.3,0,0.5-0.4,0.5
		c-2.7,0-5.4,0-8.1,0V34.6z"/>
	<path class="st0" d="M64.6,20.6c1.4,0,2.7,0,4.1,0c0.3,0,0.4-0.1,0.4-0.4c0-0.7,0-1.5,0-2.2c-0.1-1.2-0.2-2.4-0.7-3.6
		c-0.8-1.7-2.4-2.4-4.1-2c-1.5,0.4-2.3,1.5-2.9,2.8c-0.7,1.6-0.9,3.3-1.1,5c0,0.3,0.2,0.3,0.4,0.3C61.9,20.6,63.3,20.6,64.6,20.6
		 M64.4,36.4c0-0.1-0.1-0.1-0.2-0.1c-3.4-0.5-5.8-2.3-7.3-5.3c-1.4-2.7-1.8-5.7-1.5-8.7c0.2-2.8,1.1-5.3,2.9-7.5
		c2.6-3.2,7-4.4,10.7-2.7c2.3,1,3.7,2.8,4.4,5.2c0.4,1.3,0.6,2.6,0.6,4c0,0.4-0.1,0.4-0.5,0.4c-4.3,0-8.6,0-12.8,0
		c-0.3,0-0.5,0-0.5,0.4c0,2.8,0,5.5,0.7,8.2c0.2,0.8,0.5,1.6,0.9,2.4c1,1.8,2.6,2.6,4.6,2.4c3.2-0.3,5.2-2,6.2-5.4
		c0.2-0.8,0.4-1.6,0.5-2.4c0-0.3,0.1-0.5,0.5-0.4c0.2,0,0.5,0,0.7,0.1v0.3c-0.1,0-0.1,0.1-0.1,0.2c-0.1,0.8-0.2,1.6-0.4,2.4
		c-0.9,3.4-2.9,5.6-6.4,6.4c-0.4,0.1-0.8,0-1.2,0.2H64.4z"/>
	<path class="st0" d="M46.6,36.4c-0.2-0.2-0.6-0.1-0.8-0.2c-1.9-0.5-3.1-1.9-3.4-4c-0.1-0.5-0.1-1-0.1-1.6c0-5.7,0-11.4,0-17.1
		c0-0.4-0.1-0.5-0.5-0.5c-0.7,0-1.3,0-2,0c-0.4,0-0.5-0.1-0.4-0.5c0-0.1,0-0.1,0-0.2c0-0.3,0-0.4,0.4-0.4c0.7,0,1.4,0,2.2,0
		c0.3,0,0.4-0.1,0.4-0.4c0-1.6,0-3.2,0-4.8c0-0.4,0.1-0.4,0.4-0.4c1.2,0,2.4,0,3.5,0c0.3,0,0.4,0.1,0.4,0.4c0,1.6,0,3.1,0,4.7
		c0,0.4,0.1,0.5,0.5,0.5c1.5,0,3,0,4.4,0c0.6,0,0.5,0.3,0.5,0.6c0.1,0.5-0.2,0.4-0.5,0.4c-1.5,0-3,0-4.4,0c-0.4,0-0.4,0.1-0.4,0.4
		c0,6.2,0,12.4,0,18.5c0,0.3,0,0.6,0.1,0.9c0.1,0.8,0.6,1.4,1.4,1.5c0.6,0.1,1.2,0.2,1.9,0c1.1-0.3,1.7-1.1,2-2.1
		c0.2-0.8,0.3-1.6,0.3-2.4c0-1.1,0-2.2,0-3.3c0-0.3,0.1-0.4,0.4-0.4c0.7,0,0.7,0,0.7,0.7c0,1.5,0.1,3-0.1,4.4
		c-0.1,0.8-0.3,1.6-0.6,2.3c-0.8,1.7-2.2,2.4-4,2.6c-0.1,0-0.3-0.1-0.3,0.1H46.6z"/>
	<path class="st0" d="M72.7,0.4c0.3,0.2,0.6,0.4,0.8,0.8c0.1,0.5-0.1,1-0.6,1.2c-0.5,0.2-1,0-1.3-0.4c-0.3-0.5-0.1-1,0.3-1.4
		c0.1-0.1,0.2-0.1,0.3-0.2H72.7z"/>
	<path class="st0" d="M37,23.3c0,3.6,0,7.2,0,10.8c0,0.4,0.1,0.5,0.5,0.5c0.5,0,0.9,0,1.4,0c0.3,0,0.3,0.1,0.4,0.3
		c0,0.7,0,0.7-0.7,0.7c-2.6,0-5.1,0-7.7,0c-0.5,0-0.5-0.2-0.5-0.5c0-0.3,0-0.6,0.4-0.5c0.4,0,0.9,0,1.3,0c0.4,0,0.5-0.1,0.5-0.5
		c0-3.1,0-6.3,0-9.4c0-3.7,0-7.4,0-11.1c0-0.4-0.1-0.5-0.5-0.5c-0.5,0-0.9,0-1.4,0c-0.3,0-0.4-0.1-0.4-0.4c0-0.1,0-0.3,0-0.4
		c0-0.2,0-0.3,0.3-0.3c2,0,4.1,0,6.1,0c0.4,0,0.3,0.3,0.3,0.5C37,16.1,37,19.7,37,23.3"/>
	<path class="st0" d="M35,9.1c-1.1,0-1.9-0.9-2-2c0-1.1,0.9-1.9,2-1.9c1.1,0,1.9,0.9,1.9,2C37,8.2,36.1,9.1,35,9.1"/>
	<path class="st0" d="M57.7,4.9c1.1,0,1.9,0.8,1.9,1.9c0,1-0.9,1.8-2,1.8c-1,0-1.9-0.9-1.9-2C55.7,5.7,56.6,4.9,57.7,4.9"/>
	<path class="st0" d="M64.9,4.8c0,0.9-0.7,1.5-1.6,1.5c-0.9,0-1.5-0.7-1.5-1.6c0-0.9,0.7-1.5,1.6-1.5C64.3,3.2,64.9,3.9,64.9,4.8"/>
	<path class="st0" d="M69.4,3c0,0.7-0.5,1.2-1.2,1.2C67.5,4.2,67,3.7,67,3c0-0.7,0.5-1.2,1.2-1.2C68.9,1.7,69.4,2.3,69.4,3"/>
</g>
</svg>
