<?xml version="1.0" encoding="utf-8"?>
<!-- Generator: Adobe Illustrator 23.1.0, SVG Export Plug-In . SVG Version: 6.00 Build 0)  -->
<svg version="1.1" id="Layer_1" xmlns="http://www.w3.org/2000/svg" xmlns:xlink="http://www.w3.org/1999/xlink" x="0px" y="0px"
	 viewBox="0 0 552 496" style="enable-background:new 0 0 552 496;" xml:space="preserve">
<style type="text/css">
	.st0{opacity:8.999630e-02;}
	.st1{fill:#FFFFFF;}
	.st2{fill:none;stroke:#2EC2EB;stroke-width:10;stroke-linecap:round;stroke-linejoin:round;stroke-miterlimit:10;}
	.st3{fill:none;stroke:#2EC2EB;stroke-width:10;stroke-linecap:round;stroke-miterlimit:10;}
	.st4{fill:none;stroke:#41C5EA;stroke-width:10;}
	.st5{fill:none;stroke:#41C5EA;stroke-width:10;stroke-linecap:round;}
</style>
<g>
	<g>
		<g class="st0">
			<g>
				<path class="st1" d="M96.4,393.3c-30.7-40.8-48.9-91.1-48.9-145.7c0-136,113-246.2,252.3-246.2s252.3,110.2,252.3,246.2
					c0,136-113,246.2-252.3,246.2c-1.5,0-3.1-0.1-4.6-0.1L0.3,496.4L96.4,393.3z"/>
			</g>
		</g>
		<path class="st2" d="M297.9,338c53.5-21.2,59.2-83.9,59.7-103.3c0.1-3-2.2-5.5-5-5.4c-30.5,1.3-46.1-13.8-52.5-22.6
			c-1.9-2.6-5.6-2.6-7.5,0c-6.5,8.8-22.1,23.9-52.5,22.6c-2.8-0.1-5.1,2.3-5,5.4c0.5,19.3,6.2,82.1,59.7,103.3
			C295.7,338.4,296.8,338.4,297.9,338z"/>
	</g>
	<polyline class="st3" points="275.8,272.8 293.4,289.4 328.7,256.2 	"/>
	<g>
		<path class="st4" d="M209.5,108.6c0,0-19,0-19,19v310.7c0,0,0,19,19,19h171.8c0,0,19,0,19-19V127.6c0,0,0-19-19-19H209.5z"/>
	</g>
	<line class="st5" x1="281.6" y1="129.2" x2="351.7" y2="129.2"/>
	<line class="st5" x1="251.6" y1="129" x2="242.4" y2="129"/>
</g>
</svg>
