<?xml version="1.0" encoding="utf-8"?>
<!-- Generator: Adobe Illustrator 23.1.0, SVG Export Plug-In . SVG Version: 6.00 Build 0)  -->
<svg version="1.1" id="Layer_1" xmlns="http://www.w3.org/2000/svg" xmlns:xlink="http://www.w3.org/1999/xlink" x="0px" y="0px"
	 viewBox="0 0 98 98" style="enable-background:new 0 0 98 98;" xml:space="preserve">
<style type="text/css">
	
		.st0{clip-path:url(#SVGID_2_);fill:none;stroke:#BCBEC0;stroke-width:2.966;stroke-linecap:round;stroke-linejoin:round;stroke-miterlimit:10;}
	.st1{clip-path:url(#SVGID_4_);fill:url(#SVGID_5_);}
</style>
<g>
	<defs>
		<rect id="SVGID_1_" x="5.7" y="11.5" width="86.9" height="74.8"/>
	</defs>
	<clipPath id="SVGID_2_">
		<use xlink:href="#SVGID_1_"  style="overflow:visible;"/>
	</clipPath>
	<path class="st0" d="M33.8,80.7c15.4,3.7,30.4,3.7,45.4,3.5c6.4-0.1,7.9-2.8,5.2-7.2c2.3-1.9,5.3-3.3,6.2-5.5
		c0.8-1.9-0.9-4.6-1.6-7.7c0.5-1.1,2.3-3.2,2.3-5.3c0-2-1.9-4-3.1-6.2c2.1-1.7,4-4.2,2.3-7.7c-1.6-3.4-4.9-3.8-8.3-3.7
		c-4.5,0.1-9.1,0.1-13.6,0c-4.3-0.1-4.8-0.8-3.5-4.7c1.2-3.7,2.7-7.4,3.6-11.1c0.8-3.7,1.1-7.6-2.2-10.5c-1.2-1-3.2-1.8-4.7-1.6
		c-1,0.2-2.2,2.2-2.4,3.5c-1,6.8-3.7,12.6-8.7,17.6c-2,2-3.3,4.7-4.9,7.2c-2.4,3.7-5,7.1-9.8,8.3c-0.8,0.2-1.8,1.4-1.8,2.1
		C33.8,61.4,33.8,71.1,33.8,80.7z"/>
</g>
<g>
	<defs>
		<path id="SVGID_3_" d="M9.4,48.6c-3.7,0-3.7,3.7-3.7,3.7v30.3c0,3.7,3.7,3.7,3.7,3.7h13.9c3.7,0,3.7-3.7,3.7-3.7V52.3
			c0-3.7-3.7-3.7-3.7-3.7H9.4z"/>
	</defs>
	<clipPath id="SVGID_4_">
		<use xlink:href="#SVGID_3_"  style="overflow:visible;"/>
	</clipPath>
	
		<linearGradient id="SVGID_5_" gradientUnits="userSpaceOnUse" x1="1.1714" y1="99.3138" x2="2.1714" y2="99.3138" gradientTransform="matrix(27.7032 0 0 27.7032 -29.9042 -2683.8853)">
		<stop  offset="0" style="stop-color:#8FC740"/>
		<stop  offset="1" style="stop-color:#38C6F4"/>
	</linearGradient>
	<rect x="5.7" y="48.6" class="st1" width="21.3" height="37.6"/>
</g>
</svg>
