<svg xmlns="http://www.w3.org/2000/svg" xmlns:xlink="http://www.w3.org/1999/xlink" width="64" height="50.474" viewBox="0 0 64 50.474">
  <defs>
    <linearGradient id="linear-gradient" y1="0.5" x2="1" y2="0.5" gradientUnits="objectBoundingBox">
      <stop offset="0" stop-color="#2cc4ec"/>
      <stop offset="1" stop-color="#8cc63f"/>
    </linearGradient>
  </defs>
  <g id="Group_3679" data-name="Group 3679" transform="translate(906.418 -1155.509)">
    <g id="Group_3661" data-name="Group 3661" transform="translate(-883.892 1179.557)">
      <g id="Path_9151" data-name="Path 9151">
        <path id="Path_9173" data-name="Path 9173" d="M-845.462,1209.31a.89.89,0,0,1-.5-.151.9.9,0,0,1-.25-1.247l4.537-6.811h-13.364c-7.323,0-10.24-4.377-13.062-8.609-2.676-4.015-5.206-7.808-11.564-7.808a.9.9,0,0,1-.9-.9.9.9,0,0,1,.9-.9c7.322,0,10.24,4.377,13.061,8.61,2.677,4.015,5.206,7.808,11.565,7.808h13.364l-4.537-6.811a.9.9,0,0,1,.25-1.247.9.9,0,0,1,1.247.25l5.462,8.2a.906.906,0,0,1,.157.488v.041a.9.9,0,0,1-.157.489l-5.462,8.2A.9.9,0,0,1-845.462,1209.31Z" transform="translate(880.563 -1182.884)" fill="url(#linear-gradient)"/>
      </g>
    </g>
    <g id="Group_3662" data-name="Group 3662" transform="translate(-906.418 1155.509)">
      <g id="Path_9152" data-name="Path 9152">
        <path id="Path_9174" data-name="Path 9174" d="M-882.533,1181.935h-23a.894.894,0,0,1-.889-.9.894.894,0,0,1,.889-.9h23c6.286,0,8.787-3.793,11.433-7.808,2.79-4.233,5.674-8.61,12.914-8.61h13.217l-4.489-6.81a.906.906,0,0,1,.247-1.248.882.882,0,0,1,1.233.25l5.4,8.2a.9.9,0,0,1,.157.495v0h0v.026h0a.893.893,0,0,1-.157.495l-5.4,8.2a.883.883,0,0,1-1.233.249.905.905,0,0,1-.247-1.247l4.489-6.811h-13.217c-6.287,0-8.787,3.794-11.434,7.808C-872.409,1177.558-875.294,1181.935-882.533,1181.935Z" transform="translate(906.418 -1155.509)" fill="#000b2f"/>
      </g>
    </g>
  </g>
</svg>
