<svg xmlns="http://www.w3.org/2000/svg" xmlns:xlink="http://www.w3.org/1999/xlink" width="63.724" height="63.724" viewBox="0 0 63.724 63.724">
  <defs>
    <linearGradient id="linear-gradient" y1="0.5" x2="1" y2="0.5" gradientUnits="objectBoundingBox">
      <stop offset="0" stop-color="#54cdee"/>
      <stop offset="0.304" stop-color="#69cdc7"/>
      <stop offset="0.98" stop-color="#9ecf67"/>
      <stop offset="0.994" stop-color="#a0d065"/>
    </linearGradient>
  </defs>
  <g id="Group_1615" data-name="Group 1615" transform="translate(-2799.759 6057.66)">
    <path id="Path_7386" data-name="Path 7386" d="M3017.646-5930.684a8.01,8.01,0,0,1-5.763,7.722c-1.514.542-1.791,1.546-1.72,2.946.06,1.221.342,2.665-1.649,2.729-1.883.06-2-1.188-1.9-2.534.125-1.677-.537-2.475-2.268-2.6a10.984,10.984,0,0,1-3.115-.874c-.96-.385-2.219-.7-1.541-2.268.548-1.27,1.188-2.192,2.833-1.417a9.868,9.868,0,0,0,5.812.912c2.165-.336,4.048-1.259,4.526-3.646s-.868-3.988-2.827-5.041c-2.041-1.1-4.335-1.627-6.3-2.973-2.621-1.807-4.482-3.907-4.249-7.31a7.536,7.536,0,0,1,5.242-6.9c1.606-.619,1.931-1.677,1.834-3.158-.081-1.286.13-2.4,1.813-2.366,1.519.032,1.769,1.085,1.671,2.241-.157,1.872.744,2.567,2.491,2.691a8.842,8.842,0,0,1,2.311.738c1.346.516,1.378,1.487.9,2.648a1.522,1.522,0,0,1-2.355.944,9.636,9.636,0,0,0-5.567-.722,3.85,3.85,0,0,0-3.717,3.832,4.244,4.244,0,0,0,2.577,3.663c1.764.906,3.625,1.622,5.4,2.506C3015.48-5937.238,3017.781-5934.666,3017.646-5930.684Z" transform="translate(-176.937 -88.77)" fill="url(#linear-gradient)"/>
    <path id="Path_7387" data-name="Path 7387" d="M2831.621-5993.936a31.662,31.662,0,0,1-12.4-2.5,31.755,31.755,0,0,1-10.127-6.828,31.744,31.744,0,0,1-6.827-10.127,31.663,31.663,0,0,1-2.5-12.4,31.665,31.665,0,0,1,2.5-12.4,31.744,31.744,0,0,1,6.827-10.127,31.755,31.755,0,0,1,10.127-6.828,31.67,31.67,0,0,1,12.4-2.5,31.671,31.671,0,0,1,12.4,2.5,31.76,31.76,0,0,1,10.127,6.828,31.756,31.756,0,0,1,6.827,10.127,31.664,31.664,0,0,1,2.5,12.4,31.663,31.663,0,0,1-2.5,12.4,31.756,31.756,0,0,1-6.827,10.127,31.76,31.76,0,0,1-10.127,6.828A31.663,31.663,0,0,1,2831.621-5993.936Zm0-59.7a27.867,27.867,0,0,0-27.834,27.835,27.866,27.866,0,0,0,27.834,27.834,27.866,27.866,0,0,0,27.834-27.834A27.867,27.867,0,0,0,2831.621-6053.633Z" fill="url(#linear-gradient)"/>
  </g>
</svg>
