<svg xmlns="http://www.w3.org/2000/svg" width="52" height="51" viewBox="0 0 52 51">
  <g id="Group_3694" data-name="Group 3694" transform="translate(-170.5 -1478.41)">
    <g id="Group_3541" data-name="Group 3541" transform="translate(665.5 790.41)">
      <path id="Path_8942" data-name="Path 8942" d="M26,0A25.754,25.754,0,0,1,52,25.5,25.754,25.754,0,0,1,26,51,25.754,25.754,0,0,1,0,25.5,25.754,25.754,0,0,1,26,0Z" transform="translate(-495 688)" fill="#8cc63f"/>
    </g>
    <g id="Group_3690" data-name="Group 3690" transform="translate(-31.961 777.243)">
      <path id="Path_9180" data-name="Path 9180" d="M249.773,731.708H226a1.545,1.545,0,0,0-1.545,1.545v13.887A1.545,1.545,0,0,0,226,748.686h23.769a1.545,1.545,0,0,0,1.545-1.546V733.253A1.545,1.545,0,0,0,249.773,731.708Zm-16.89,7.028a.815.815,0,0,1-.815.816h-4.044a.815.815,0,0,1-.815-.816v-2.078a.815.815,0,0,1,.815-.815h4.044a.815.815,0,0,1,.815.815Z" transform="translate(-5.99 -8.597)" fill="#fff"/>
      <path id="Path_9181" data-name="Path 9181" d="M218.764,749.935a1.54,1.54,0,0,0,.513.669V740.93l-3.533,1.4Z" transform="translate(-1.932 -12.891)" fill="#fff"/>
      <path id="Path_9182" data-name="Path 9182" d="M223.332,721.988l14.18-5.635-.848-2.134a1.545,1.545,0,0,0-2.007-.865l-22.088,8.778a1.545,1.545,0,0,0-.865,2.007l.848,2.134,4.811-1.912a2.672,2.672,0,0,1,2.652-2.372Z" fill="#fff"/>
      <path id="Path_9183" data-name="Path 9183" d="M258.03,727.459,257.051,725l-6.2,2.463Z" transform="translate(-18.279 -5.472)" fill="#fff"/>
    </g>
  </g>
</svg>
