<?xml version="1.0" encoding="utf-8"?>
<!-- Generator: Adobe Illustrator 23.1.0, SVG Export Plug-In . SVG Version: 6.00 Build 0)  -->
<svg version="1.1" id="Layer_1" xmlns="http://www.w3.org/2000/svg" xmlns:xlink="http://www.w3.org/1999/xlink" x="0px" y="0px"
	 viewBox="0 0 865 822" style="enable-background:new 0 0 865 822;" xml:space="preserve">
<style type="text/css">
	.st0{clip-path:url(#SVGID_2_);}
	.st1{opacity:0.33;clip-path:url(#SVGID_4_);}
	.st2{clip-path:url(#SVGID_6_);}
	.st3{clip-path:url(#SVGID_8_);fill:none;stroke:#41C5EA;stroke-width:10;stroke-miterlimit:10;stroke-dasharray:46.202,46.202;}
	.st4{clip-path:url(#SVGID_8_);fill:none;stroke:#41C5EA;stroke-width:10;stroke-miterlimit:10;}
	.st5{opacity:0.5;clip-path:url(#SVGID_8_);}
	.st6{clip-path:url(#SVGID_10_);fill:none;stroke:#41C5EA;stroke-width:10;stroke-miterlimit:10;stroke-dasharray:148.61,148.61;}
	.st7{clip-path:url(#SVGID_10_);fill:none;stroke:#41C5EA;stroke-width:10;stroke-miterlimit:10;}
	.st8{opacity:0.26;clip-path:url(#SVGID_8_);}
	.st9{clip-path:url(#SVGID_12_);fill:none;stroke:#41C5EA;stroke-width:10;stroke-miterlimit:10;stroke-dasharray:19.884,19.884;}
	.st10{clip-path:url(#SVGID_12_);fill:none;stroke:#41C5EA;stroke-width:10;stroke-miterlimit:10;}
</style>
<g>
	<defs>
		<rect id="SVGID_1_" x="0.3" y="3.3" width="864.7" height="821.3"/>
	</defs>
	<clipPath id="SVGID_2_">
		<use xlink:href="#SVGID_1_"  style="overflow:visible;"/>
	</clipPath>
	<g class="st0">
		<defs>
			<rect id="SVGID_3_" x="0.3" y="3.3" width="864.7" height="821.3"/>
		</defs>
		<clipPath id="SVGID_4_">
			<use xlink:href="#SVGID_3_"  style="overflow:visible;"/>
		</clipPath>
		<g class="st1">
			<g>
				<defs>
					<rect id="SVGID_5_" x="-8.7" y="-3.7" width="882.7" height="829.3"/>
				</defs>
				<clipPath id="SVGID_6_">
					<use xlink:href="#SVGID_5_"  style="overflow:visible;"/>
				</clipPath>
				<g class="st2">
					<defs>
						<rect id="SVGID_7_" x="0.3" y="3.3" width="864.7" height="821.3"/>
					</defs>
					<clipPath id="SVGID_8_">
						<use xlink:href="#SVGID_7_"  style="overflow:visible;"/>
					</clipPath>
					<path class="st3" d="M772.7,482.5C743.6,629.7,623,744,472.6,763.6"/>
					<path class="st3" d="M357.7,759.9C210.5,730.7,96.2,610.1,76.6,459.7"/>
					<path class="st3" d="M80.3,344.8C109.5,197.6,230.1,83.3,380.5,63.7"/>
					<path class="st3" d="M495.4,67.5c147.2,29.1,261.5,149.7,281.1,300.1"/>
					<path class="st4" d="M778.7,390.6c0.5,7.6,0.7,15.3,0.7,23.1s-0.3,15.5-0.7,23.1 M403.5,61.5c7.6-0.5,15.3-0.7,23.1-0.7
						c7.8,0,15.5,0.3,23.1,0.7 M74.4,436.7c-0.5-7.6-0.7-15.3-0.7-23.1s0.3-15.5,0.7-23.1 M449.6,765.8c-7.6,0.5-15.3,0.7-23.1,0.7
						c-7.8,0-15.5-0.3-23.1-0.7"/>
					<g class="st5">
						<g>
							<defs>
								<rect id="SVGID_9_" x="34.2" y="23.3" width="784.8" height="774.8"/>
							</defs>
							<clipPath id="SVGID_10_">
								<use xlink:href="#SVGID_9_"  style="overflow:visible;"/>
							</clipPath>
							<path class="st6" d="M741.2,623.9c-41.3,61.7-100.4,110.6-169.8,139.4"/>
							<path class="st6" d="M216.3,728.3C154.6,687,105.7,628,76.9,558.5"/>
							<path class="st6" d="M111.9,203.4C153.2,141.7,212.2,92.8,281.7,64"/>
							<path class="st6" d="M636.8,99c61.7,41.3,110.6,100.4,139.4,169.8"/>
							<path class="st7" d="M797.7,339.8c4.7,23.9,7.2,48.6,7.2,73.8c0,25.3-2.5,50-7.2,73.8 M352.7,42.5
								c23.9-4.7,48.6-7.2,73.8-7.2s50,2.5,73.8,7.2 M55.4,487.5c-4.7-23.9-7.2-48.6-7.2-73.8c0-25.3,2.5-50,7.2-73.8 M500.4,784.8
								c-23.9,4.7-48.6,7.2-73.8,7.2s-50-2.5-73.8-7.2"/>
						</g>
					</g>
					<g class="st8">
						<g>
							<defs>
								<rect id="SVGID_11_" x="7.5" y="-3.4" width="838" height="828"/>
							</defs>
							<clipPath id="SVGID_12_">
								<use xlink:href="#SVGID_11_"  style="overflow:visible;"/>
							</clipPath>
							<path class="st9" d="M830.5,443.5C815.7,646.7,651,808.3,446.4,818.2"/>
							<path class="st9" d="M396.7,817.6C193.5,802.8,31.9,638.1,22,433.5"/>
							<path class="st9" d="M22.6,383.9C37.4,180.6,202.1,19,406.7,9.1"/>
							<path class="st9" d="M456.3,9.7c203.2,14.8,364.8,179.5,374.7,384.1"/>
							<path class="st10" d="M831.4,403.7c0.1,3.3,0.1,6.6,0.1,9.9c0,3.3,0,6.6-0.1,9.9 M416.6,8.8c3.3-0.1,6.6-0.1,9.9-0.1
								s6.6,0,9.9,0.1 M21.6,423.6c-0.1-3.3-0.1-6.6-0.1-9.9c0-3.3,0-6.6,0.1-9.9 M436.5,818.5c-3.3,0.1-6.6,0.1-9.9,0.1
								s-6.6,0-9.9-0.1"/>
						</g>
					</g>
				</g>
			</g>
		</g>
	</g>
</g>
</svg>
