<svg xmlns="http://www.w3.org/2000/svg" width="354.782" height="304.85" viewBox="0 0 354.782 304.85">
  <g id="Group_1719" data-name="Group 1719" transform="translate(-1458.756 -39.275)" opacity="0.7">
    <path id="Path_7354" data-name="Path 7354" d="M1753.231,379.174c-112.523-96.841-110.721-203.027-108.167-230.024a9.72,9.72,0,0,1,7.145-8.3c65.738-18.994,95.47-41.767,105.787-51.391a6.786,6.786,0,0,1,9.138.007c11.265,10.45,43.754,36.041,105.285,51.552a9.758,9.758,0,0,1,7.522,8.408c2.539,27.437,3.952,133.234-108.194,229.748A14.4,14.4,0,0,1,1753.231,379.174Z" transform="translate(-72.202 -43.418)" fill="none" stroke="#fff" stroke-miterlimit="10" stroke-width="10" opacity="0.07"/>
    <path id="Rectangle_7427" data-name="Rectangle 7427" d="M0,0H249.5a12.937,12.937,0,0,1,12.937,12.937V42.185A12.937,12.937,0,0,1,249.5,55.123H16.031A16.031,16.031,0,0,1,0,39.092V0A0,0,0,0,1,0,0Z" transform="translate(1459.256 124.594)" fill="#2cc4ec" stroke="#1a1818" stroke-miterlimit="10" stroke-width="1" opacity="0.69"/>
    <path id="Rectangle_7428" data-name="Rectangle 7428" d="M16.031,0H200.049a12.937,12.937,0,0,1,12.937,12.937V42.185a12.937,12.937,0,0,1-12.937,12.937H0a0,0,0,0,1,0,0V16.031A16.031,16.031,0,0,1,16.031,0Z" transform="translate(1721.689 258.806) rotate(-180)" fill="none" stroke="#8cc63f" stroke-miterlimit="10" stroke-width="5"/>
  </g>
</svg>
