<svg id="Clickatell_Logo_-_Dark" data-name="Clickatell Logo - Dark" xmlns="http://www.w3.org/2000/svg" width="165.774" height="24" viewBox="0 0 165.774 24">
  <path id="Path_1" data-name="Path 1" d="M517.082,317.639a11.689,11.689,0,0,1-.757,1.065,7.848,7.848,0,0,1-1.546,1.459,10.016,10.016,0,0,1-2.438,1.288,9.666,9.666,0,0,1-3.429.549,10.56,10.56,0,0,1-4.421-.909,10.109,10.109,0,0,1-3.43-2.524,11.373,11.373,0,0,1-2.2-3.811,14.277,14.277,0,0,1-.773-4.772,13.924,13.924,0,0,1,.773-4.687,11.622,11.622,0,0,1,2.2-3.811,10.223,10.223,0,0,1,3.43-2.558,10.384,10.384,0,0,1,4.421-.927,9.666,9.666,0,0,1,3.429.549,10.079,10.079,0,0,1,2.438,1.288,7.868,7.868,0,0,1,1.546,1.459,11.852,11.852,0,0,1,.757,1.065l-1.21.858q-.2-.275-.656-.876a6.447,6.447,0,0,0-1.277-1.219,8.842,8.842,0,0,0-2.034-1.1,7.933,7.933,0,0,0-2.925-.481,8.864,8.864,0,0,0-3.849.807,8.4,8.4,0,0,0-2.875,2.214,9.893,9.893,0,0,0-1.8,3.314,13.138,13.138,0,0,0-.622,4.1,12.827,12.827,0,0,0,.639,4.1,10.306,10.306,0,0,0,1.816,3.331,8.249,8.249,0,0,0,2.891,2.232,9.059,9.059,0,0,0,3.9.807,7.373,7.373,0,0,0,2.773-.482,8.857,8.857,0,0,0,2.018-1.1,7.4,7.4,0,0,0,1.311-1.219q.487-.6.689-.876Z" transform="translate(-453.271 -298)" fill="#233659"/>
  <rect id="Rectangle_6" data-name="Rectangle 6" width="1.513" height="22.902" transform="translate(67.846 0.549)" fill="#233659"/>
  <path id="Path_2" data-name="Path 2" d="M576.6,309.119h1.513v15.795H576.6Zm-.3-5.562h2.118v2.232h-2.118Z" transform="translate(-502.531 -301.463)" fill="#233659"/>
  <path id="Path_3" data-name="Path 3" d="M605.709,331.1a7.47,7.47,0,0,1-2.538,1.974,7.983,7.983,0,0,1-3.581.772,7.524,7.524,0,0,1-5.58-2.386,7.847,7.847,0,0,1-1.614-2.644,9.267,9.267,0,0,1-.571-3.279,9.045,9.045,0,0,1,.588-3.279,8.075,8.075,0,0,1,1.63-2.644,7.951,7.951,0,0,1,9.026-1.649,7.284,7.284,0,0,1,2.437,2.043l-1.143.893a5.616,5.616,0,0,0-1.933-1.631,6.13,6.13,0,0,0-2.841-.6,5.558,5.558,0,0,0-2.471.549,6.231,6.231,0,0,0-1.95,1.477,6.642,6.642,0,0,0-1.277,2.18,7.753,7.753,0,0,0-.454,2.661,7.5,7.5,0,0,0,.47,2.661,6.884,6.884,0,0,0,1.294,2.18,6.223,6.223,0,0,0,1.95,1.477,5.479,5.479,0,0,0,2.437.549,6.825,6.825,0,0,0,2.975-.618,5.482,5.482,0,0,0,2.068-1.648Z" transform="translate(-512.314 -309.98)" fill="#233659"/>
  <path id="Path_4" data-name="Path 4" d="M638.875,299.457h1.513v15l7.934-7.9h1.984l-5.918,5.872,7.094,9.923h-1.815l-6.354-8.824-2.925,2.884v5.94h-1.513Z" transform="translate(-541.95 -298.908)" fill="#233659"/>
  <path id="Path_5" data-name="Path 5" d="M688,325.362a14.808,14.808,0,0,0-1.765-.292,25.108,25.108,0,0,0-2.706-.12,7.087,7.087,0,0,0-2.723.429,3.915,3.915,0,0,0-1.53,1.065,3.144,3.144,0,0,0-.672,1.373,6.659,6.659,0,0,0-.152,1.322,2.845,2.845,0,0,0,1.126,2.506,4.89,4.89,0,0,0,2.875.79,5.632,5.632,0,0,0,2.151-.412,5.929,5.929,0,0,0,1.765-1.1,5.283,5.283,0,0,0,1.194-1.562,3.923,3.923,0,0,0,.437-1.769Zm.134,8.069a6.339,6.339,0,0,1-.034-.687q-.034-.343-.033-.824v-1.133a7.107,7.107,0,0,1-1.328,1.494,6.28,6.28,0,0,1-1.513.944,7.051,7.051,0,0,1-1.546.481,7.92,7.92,0,0,1-1.4.137,9.389,9.389,0,0,1-1.95-.205,4.789,4.789,0,0,1-1.748-.739,4,4,0,0,1-1.26-1.442,4.874,4.874,0,0,1-.487-2.318,6.193,6.193,0,0,1,.37-2.146,4.38,4.38,0,0,1,1.177-1.751,5.76,5.76,0,0,1,2.084-1.167,9.766,9.766,0,0,1,3.093-.429q1.413,0,2.522.1t1.882.24V323.1a6.6,6.6,0,0,0-.3-2.163,3.116,3.116,0,0,0-.908-1.373,3.466,3.466,0,0,0-1.479-.721,8.863,8.863,0,0,0-2.017-.206,6.829,6.829,0,0,0-3.042.566,8.867,8.867,0,0,0-1.731,1.082l-.807-1.065a8.092,8.092,0,0,1,2.067-1.3,7.98,7.98,0,0,1,3.479-.686,7.232,7.232,0,0,1,4.622,1.3q1.63,1.3,1.63,4.326v8.567q0,.6.033,1.047.033.549.067.961Z" transform="translate(-565.865 -309.98)" fill="#233659"/>
  <path id="Path_6" data-name="Path 6" d="M721.9,311.129H718.8v-1.442H721.9v-5.219h1.513v5.219h5.11v1.442h-5.11v9.133a10.028,10.028,0,0,0,.2,2.249,2.876,2.876,0,0,0,.589,1.27,1.824,1.824,0,0,0,.891.567,4.229,4.229,0,0,0,1.11.138,3.144,3.144,0,0,0,1.445-.309,3.881,3.881,0,0,0,1.21-1.065l.941.927a4.952,4.952,0,0,1-1.529,1.374,4.552,4.552,0,0,1-2.236.48,6.023,6.023,0,0,1-1.681-.223,2.744,2.744,0,0,1-1.311-.824,4.163,4.163,0,0,1-.841-1.614,9.265,9.265,0,0,1-.3-2.592Z" transform="translate(-592.296 -302.031)" fill="#233659"/>
  <path id="Path_7" data-name="Path 7" d="M766.805,324.607a7.091,7.091,0,0,0-1.816-4.43,5.326,5.326,0,0,0-3.933-1.51,5.44,5.44,0,0,0-2.269.463,5.36,5.36,0,0,0-1.765,1.27,6.484,6.484,0,0,0-1.194,1.888,6.918,6.918,0,0,0-.521,2.318Zm.975,6.455a6.69,6.69,0,0,1-2.74,2.043,8.976,8.976,0,0,1-3.547.738,8.286,8.286,0,0,1-3.177-.6,7.144,7.144,0,0,1-2.5-1.7,7.877,7.877,0,0,1-1.631-2.627,9.844,9.844,0,0,1-.033-6.61,8.514,8.514,0,0,1,1.529-2.644,6.976,6.976,0,0,1,5.379-2.437,7.579,7.579,0,0,1,2.941.566,6.494,6.494,0,0,1,2.353,1.665,7.745,7.745,0,0,1,1.547,2.73,11.67,11.67,0,0,1,.555,3.76H755.274a7.257,7.257,0,0,0,.5,2.524,6.6,6.6,0,0,0,1.278,2.06,5.753,5.753,0,0,0,1.933,1.374,6.127,6.127,0,0,0,2.5.5,7.449,7.449,0,0,0,2.925-.618,7.426,7.426,0,0,0,1.294-.721,4.6,4.6,0,0,0,.992-.927Z" transform="translate(-614.209 -309.98)" fill="#233659"/>
  <rect id="Rectangle_9" data-name="Rectangle 9" width="1.513" height="22.902" transform="translate(158.109 0.549)" fill="#233659"/>
  <rect id="Rectangle_10" data-name="Rectangle 10" width="1.513" height="22.902" transform="translate(164.262 0.549)" fill="#233659"/>
  <path id="Path_8" data-name="Path 8" d="M393.179,300.56a10.843,10.843,0,0,0-14.923,4.93,11.814,11.814,0,0,0,4.692,15.594,10.579,10.579,0,0,0,8.392.77l.013.01a6.076,6.076,0,0,0,1.918-.9A8.743,8.743,0,0,1,390.8,318c0-.008,0-.017-.007-.025a7.062,7.062,0,0,1-6.15-.3,7.887,7.887,0,0,1-3.133-10.411,7.24,7.24,0,0,1,9.963-3.291,7.681,7.681,0,0,1,3.883,5.709l3.732,2.029a11.666,11.666,0,0,0-5.914-11.149" transform="translate(-377 -298.782)" fill="#2cc4ec"/>
  <path id="Path_9" data-name="Path 9" d="M421.267,321.1a10.844,10.844,0,0,0,14.9-5,11.813,11.813,0,0,0-4.758-15.573,10.579,10.579,0,0,0-8.4-.733l-.013-.01a6.094,6.094,0,0,0-1.915.9,8.742,8.742,0,0,1,2.48,2.956l.007.025a7.062,7.062,0,0,1,6.151.277,7.887,7.887,0,0,1,3.177,10.4,7.24,7.24,0,0,1-9.949,3.336,7.681,7.681,0,0,1-3.907-5.691l-3.74-2.012a11.663,11.663,0,0,0,5.961,11.122" transform="translate(-401.109 -298.78)" fill="#8cc63f"/>
</svg>
