<svg xmlns="http://www.w3.org/2000/svg" width="165" height="23.461" viewBox="0 0 165 23.461">
  <g id="Group_34" data-name="Group 34" transform="translate(1606 -128.623)">
    <g id="Group_33" data-name="Group 33" transform="translate(-60 146)">
      <g id="Group_22" data-name="Group 22" transform="translate(-1501.392 -17.377)">
        <path id="Path_27" data-name="Path 27" d="M-52.348-53.16A11.507,11.507,0,0,1-53.1-52.12a7.754,7.754,0,0,1-1.539,1.427,10.032,10.032,0,0,1-2.426,1.259,9.785,9.785,0,0,1-3.413.537,10.671,10.671,0,0,1-4.4-.889,10.048,10.048,0,0,1-3.413-2.467,11.064,11.064,0,0,1-2.192-3.726,13.731,13.731,0,0,1-.769-4.665,13.391,13.391,0,0,1,.769-4.582,11.3,11.3,0,0,1,2.192-3.726,10.165,10.165,0,0,1,3.413-2.5,10.5,10.5,0,0,1,4.4-.906,9.779,9.779,0,0,1,3.413.537,10.08,10.08,0,0,1,2.426,1.259A7.777,7.777,0,0,1-53.1-69.137a11.617,11.617,0,0,1,.753,1.041l-1.2.839q-.2-.269-.652-.856a6.357,6.357,0,0,0-1.271-1.192A8.826,8.826,0,0,0-57.5-70.379a8.018,8.018,0,0,0-2.911-.47,8.959,8.959,0,0,0-3.831.789A8.352,8.352,0,0,0-67.1-67.9a9.616,9.616,0,0,0-1.79,3.24,12.638,12.638,0,0,0-.619,4.011,12.326,12.326,0,0,0,.636,4.011,10.015,10.015,0,0,0,1.807,3.256A8.186,8.186,0,0,0-64.193-51.2a9.149,9.149,0,0,0,3.881.789,7.465,7.465,0,0,0,2.761-.471,8.9,8.9,0,0,0,2.008-1.074,7.322,7.322,0,0,0,1.3-1.192q.485-.587.686-.856Z" transform="translate(71.253 72.359)" fill="#fff"/>
      </g>
      <path id="Path_29" data-name="Path 29" d="M254.511-134.6h1.505v22.388h-1.505Z" transform="translate(-1732.982 117.76)" fill="#fff"/>
      <path id="Path_30" data-name="Path 30" d="M276.707-128.908h2.108v2.182h-2.108Zm.3,5.438h1.505v15.44h-1.505Z" transform="translate(-1749.289 113.578)" fill="#fff"/>
      <g id="Group_24" data-name="Group 24" transform="translate(-1466.86 -10.295)">
        <path id="Path_31" data-name="Path 31" d="M-38.265-37.547a7.419,7.419,0,0,1-2.526,1.93,8.066,8.066,0,0,1-3.564.755,7.655,7.655,0,0,1-3.1-.621,7.493,7.493,0,0,1-2.459-1.712,7.642,7.642,0,0,1-1.606-2.585,8.916,8.916,0,0,1-.569-3.205A8.7,8.7,0,0,1-51.5-46.19a7.872,7.872,0,0,1,1.623-2.584,7.47,7.47,0,0,1,2.46-1.712,7.561,7.561,0,0,1,3.062-.621,7.6,7.6,0,0,1,3.463.721,7.216,7.216,0,0,1,2.426,2l-1.138.872a5.565,5.565,0,0,0-1.924-1.595,6.193,6.193,0,0,0-2.827-.587,5.619,5.619,0,0,0-2.46.537,6.2,6.2,0,0,0-1.941,1.444,6.467,6.467,0,0,0-1.271,2.131,7.463,7.463,0,0,0-.452,2.6,7.209,7.209,0,0,0,.468,2.6,6.714,6.714,0,0,0,1.288,2.131,6.181,6.181,0,0,0,1.941,1.443,5.535,5.535,0,0,0,2.426.537,6.9,6.9,0,0,0,2.961-.6,5.444,5.444,0,0,0,2.058-1.611Z" transform="translate(52.084 51.107)" fill="#fff"/>
      </g>
      <g id="Group_26" data-name="Group 26" transform="translate(-1449.528 -16.84)">
        <path id="Path_33" data-name="Path 33" d="M0,0H1.505V14.668l7.9-7.72h1.974l-5.89,5.74,7.061,9.7H10.741L4.417,13.762,1.505,16.581v5.807H0Z" fill="#fff"/>
      </g>
      <g id="Group_27" data-name="Group 27" transform="translate(-1435.541 -10.295)">
        <path id="Path_34" data-name="Path 34" d="M-31.131-43.867a6.067,6.067,0,0,1-.034-.671q-.034-.336-.033-.806v-1.108a6.987,6.987,0,0,1-1.322,1.46,6.272,6.272,0,0,1-1.506.923,7.147,7.147,0,0,1-1.539.47,8.034,8.034,0,0,1-1.389.134,9.521,9.521,0,0,1-1.941-.2,4.811,4.811,0,0,1-1.74-.722A3.927,3.927,0,0,1-41.889-45.8a4.692,4.692,0,0,1-.485-2.266,5.961,5.961,0,0,1,.368-2.1,4.276,4.276,0,0,1,1.171-1.712,5.761,5.761,0,0,1,2.074-1.141,9.892,9.892,0,0,1,3.078-.419q1.406,0,2.51.1t1.873.235v-.873a6.338,6.338,0,0,0-.3-2.115,3.044,3.044,0,0,0-.9-1.342,3.474,3.474,0,0,0-1.472-.7,8.966,8.966,0,0,0-2.008-.2,6.9,6.9,0,0,0-3.028.554,8.844,8.844,0,0,0-1.723,1.057l-.8-1.041a8.068,8.068,0,0,1,2.058-1.275,8.067,8.067,0,0,1,3.463-.671,7.292,7.292,0,0,1,4.6,1.275q1.622,1.276,1.623,4.229v8.374q0,.588.033,1.024.033.537.067.94Zm-.134-7.888a14.942,14.942,0,0,0-1.757-.286,25.4,25.4,0,0,0-2.694-.117,7.168,7.168,0,0,0-2.71.42A3.9,3.9,0,0,0-39.948-50.7a3.051,3.051,0,0,0-.669,1.342,6.4,6.4,0,0,0-.151,1.293,2.762,2.762,0,0,0,1.121,2.45,4.931,4.931,0,0,0,2.861.773,5.691,5.691,0,0,0,2.141-.4,5.917,5.917,0,0,0,1.757-1.075A5.179,5.179,0,0,0-31.7-47.844a3.783,3.783,0,0,0,.435-1.729Z" transform="translate(42.374 59.709)" fill="#fff"/>
      </g>
      <g id="Group_28" data-name="Group 28" transform="translate(-1420.082 -14.994)">
        <path id="Path_35" data-name="Path 35" d="M-8.523-18.03H-11.6v-1.41h3.078v-5.1h1.505v5.1h5.086v1.41H-7.017V-9.1a9.608,9.608,0,0,0,.2,2.2,2.788,2.788,0,0,0,.586,1.242,1.824,1.824,0,0,0,.886.555,4.284,4.284,0,0,0,1.1.134,3.18,3.18,0,0,0,1.439-.3A3.839,3.839,0,0,0-1.6-6.316l.937.906A4.9,4.9,0,0,1-2.182-4.067a4.6,4.6,0,0,1-2.225.47A6.1,6.1,0,0,1-6.08-3.816a2.74,2.74,0,0,1-1.305-.806A4.049,4.049,0,0,1-8.222-6.2a8.907,8.907,0,0,1-.3-2.534Z" transform="translate(11.601 24.542)" fill="#fff"/>
      </g>
      <g id="Group_29" data-name="Group 29" transform="translate(-1407.266 -10.295)">
        <path id="Path_36" data-name="Path 36" d="M-39.1-37.454a6.652,6.652,0,0,1-2.727,2,9.075,9.075,0,0,1-3.53.721,8.38,8.38,0,0,1-3.162-.587,7.121,7.121,0,0,1-2.493-1.662,7.679,7.679,0,0,1-1.623-2.568,8.984,8.984,0,0,1-.585-3.306,8.926,8.926,0,0,1,.552-3.155A8.279,8.279,0,0,1-51.146-48.6,6.988,6.988,0,0,1-48.8-50.343a7.065,7.065,0,0,1,3.012-.637,7.666,7.666,0,0,1,2.928.553A6.468,6.468,0,0,1-40.522-48.8a7.541,7.541,0,0,1,1.539,2.669,11.222,11.222,0,0,1,.552,3.676H-51.547a6.991,6.991,0,0,0,.5,2.467,6.43,6.43,0,0,0,1.272,2.014,5.724,5.724,0,0,0,1.924,1.343,6.193,6.193,0,0,0,2.493.487A7.429,7.429,0,0,0-43.9-36.3a7.339,7.339,0,0,0,1.455-.453,7.422,7.422,0,0,0,1.288-.7,4.538,4.538,0,0,0,.987-.906Zm-.971-6.31a6.868,6.868,0,0,0-1.807-4.33,5.353,5.353,0,0,0-3.915-1.476,5.5,5.5,0,0,0-2.259.453,5.332,5.332,0,0,0-1.757,1.241A6.327,6.327,0,0,0-51-46.03a6.665,6.665,0,0,0-.518,2.266Z" transform="translate(53.22 50.98)" fill="#fff"/>
      </g>
      <path id="Path_38" data-name="Path 38" d="M593.122-134.6h1.505v22.388h-1.505Z" transform="translate(-1981.751 117.76)" fill="#fff"/>
      <path id="Path_39" data-name="Path 39" d="M616.2-134.6h1.505v22.388H616.2Z" transform="translate(-1998.707 117.76)" fill="#fff"/>
      <g id="Group_31" data-name="Group 31" transform="translate(-1546 -16.915)">
        <path id="Path_40" data-name="Path 40" d="M-44.59-3.531a10.884,10.884,0,0,0-14.853,4.82,11.443,11.443,0,0,0,4.67,15.244,10.7,10.7,0,0,0,8.353.753l.013.01A6.112,6.112,0,0,0-44.5,16.42a8.6,8.6,0,0,1-2.455-2.9c0-.008,0-.016-.006-.024a7.144,7.144,0,0,1-6.121-.3A7.639,7.639,0,0,1-56.2,3.021,7.266,7.266,0,0,1-46.282-.2a7.51,7.51,0,0,1,3.865,5.581L-38.7,7.367a11.353,11.353,0,0,0-5.886-10.9" transform="translate(60.693 4.807)" fill="#44cef0"/>
      </g>
      <g id="Group_32" data-name="Group 32" transform="translate(-1531.899 -16.916)">
        <path id="Path_41" data-name="Path 41" d="M-16.511-59.138A10.883,10.883,0,0,0-1.679-64.023,11.442,11.442,0,0,0-6.415-79.247a10.7,10.7,0,0,0-8.356-.716l-.013-.01a6.112,6.112,0,0,0-1.906.884,8.6,8.6,0,0,1,2.468,2.89l.007.024a7.144,7.144,0,0,1,6.122.27A7.64,7.64,0,0,1-4.931-65.741a7.267,7.267,0,0,1-9.9,3.261,7.509,7.509,0,0,1-3.889-5.564l-3.723-1.967a11.353,11.353,0,0,0,5.933,10.872" transform="translate(22.474 80.496)" fill="#87c846"/>
      </g>
    </g>
  </g>
</svg>
