<svg xmlns="http://www.w3.org/2000/svg" xmlns:xlink="http://www.w3.org/1999/xlink" width="165" height="23.571" viewBox="0 0 165 23.571">
  <defs>
    <clipPath id="clip-path">
      <rect id="Rectangle_58" data-name="Rectangle 58" width="165" height="23.571" transform="translate(0)" fill="none"/>
    </clipPath>
    <clipPath id="clip-path-2">
      <rect id="Rectangle_57" data-name="Rectangle 57" width="165.046" height="36.241" fill="none"/>
    </clipPath>
  </defs>
  <g id="Group_972" data-name="Group 972" transform="translate(-550 165)">
    <g id="Group_42" data-name="Group 42" transform="translate(550 -165)" clip-path="url(#clip-path)">
      <g id="Artwork_2" data-name="Artwork 2" transform="translate(0)">
        <g id="Group_41" data-name="Group 41">
          <g id="Group_40" data-name="Group 40" clip-path="url(#clip-path-2)">
            <g id="Group_23" data-name="Group 23">
              <g id="Group_22" data-name="Group 22" clip-path="url(#clip-path-2)">
                <path id="Path_27" data-name="Path 27" d="M689.989-145.806a11.413,11.413,0,0,1-.753,1.04,7.75,7.75,0,0,1-1.538,1.426,10.028,10.028,0,0,1-2.426,1.258,9.778,9.778,0,0,1-3.412.537,10.672,10.672,0,0,1-4.4-.889,10.049,10.049,0,0,1-3.413-2.467,11.068,11.068,0,0,1-2.191-3.725,13.726,13.726,0,0,1-.769-4.664,13.388,13.388,0,0,1,.769-4.581,11.311,11.311,0,0,1,2.191-3.725,10.161,10.161,0,0,1,3.413-2.5,10.493,10.493,0,0,1,4.4-.906,9.778,9.778,0,0,1,3.412.537A10.093,10.093,0,0,1,687.7-163.2a7.772,7.772,0,0,1,1.538,1.426,11.572,11.572,0,0,1,.753,1.04l-1.2.839q-.2-.269-.652-.856a6.366,6.366,0,0,0-1.271-1.191,8.851,8.851,0,0,0-2.024-1.073,8.023,8.023,0,0,0-2.91-.47,8.957,8.957,0,0,0-3.83.789,8.344,8.344,0,0,0-2.861,2.164,9.616,9.616,0,0,0-1.79,3.239,12.628,12.628,0,0,0-.619,4.01,12.33,12.33,0,0,0,.636,4.01,10.019,10.019,0,0,0,1.807,3.255,8.191,8.191,0,0,0,2.876,2.181,9.154,9.154,0,0,0,3.881.789,7.455,7.455,0,0,0,2.76-.471,8.865,8.865,0,0,0,2.008-1.073,7.313,7.313,0,0,0,1.3-1.191q.485-.587.686-.856Z" transform="translate(-626.491 165)" fill="#fff"/>
              </g>
            </g>
            <rect id="Rectangle_44" data-name="Rectangle 44" width="1.505" height="22.383" transform="translate(67.513 0.537)" fill="#fff"/>
            <path id="Path_28" data-name="Path 28" d="M749.594-154.007H751.1v15.436h-1.505Zm-.3-5.436H751.4v2.182h-2.108Z" transform="translate(-675.893 161.49)" fill="#fff"/>
            <g id="Group_25" data-name="Group 25">
              <g id="Group_24" data-name="Group 24" clip-path="url(#clip-path-2)">
                <path id="Path_29" data-name="Path 29" d="M778.641-132.218a7.415,7.415,0,0,1-2.525,1.93,8.065,8.065,0,0,1-3.563.755,7.652,7.652,0,0,1-3.094-.621A7.486,7.486,0,0,1,767-131.866a7.648,7.648,0,0,1-1.606-2.584,8.911,8.911,0,0,1-.569-3.2,8.7,8.7,0,0,1,.585-3.2,7.871,7.871,0,0,1,1.622-2.584,7.478,7.478,0,0,1,2.459-1.711,7.558,7.558,0,0,1,3.061-.621,7.6,7.6,0,0,1,3.462.721,7.218,7.218,0,0,1,2.425,2l-1.137.873a5.565,5.565,0,0,0-1.924-1.594,6.194,6.194,0,0,0-2.827-.586,5.615,5.615,0,0,0-2.459.537,6.19,6.19,0,0,0-1.94,1.443,6.467,6.467,0,0,0-1.271,2.13,7.456,7.456,0,0,0-.452,2.6,7.21,7.21,0,0,0,.468,2.6,6.7,6.7,0,0,0,1.288,2.131,6.184,6.184,0,0,0,1.941,1.443,5.534,5.534,0,0,0,2.425.537,6.9,6.9,0,0,0,2.961-.6,5.439,5.439,0,0,0,2.057-1.61Z" transform="translate(-685.704 152.856)" fill="#fff"/>
              </g>
            </g>
            <path id="Path_30" data-name="Path 30" d="M811.875-163.543h1.505v14.664l7.895-7.718h1.974l-5.888,5.739,7.059,9.7h-1.806l-6.323-8.624-2.91,2.819v5.805h-1.505Z" transform="translate(-715.425 164.08)" fill="#fff"/>
            <g id="Group_27" data-name="Group 27">
              <g id="Group_26" data-name="Group 26" clip-path="url(#clip-path-2)">
                <path id="Path_31" data-name="Path 31" d="M860.949-137.822a14.984,14.984,0,0,0-1.756-.286,25.433,25.433,0,0,0-2.693-.117,7.167,7.167,0,0,0-2.71.42,3.9,3.9,0,0,0-1.522,1.04,3.05,3.05,0,0,0-.669,1.342,6.4,6.4,0,0,0-.151,1.292,2.761,2.761,0,0,0,1.121,2.45,4.931,4.931,0,0,0,2.861.772,5.694,5.694,0,0,0,2.141-.4,5.915,5.915,0,0,0,1.756-1.074,5.174,5.174,0,0,0,1.188-1.527,3.78,3.78,0,0,0,.435-1.728Zm.134,7.886a6.087,6.087,0,0,1-.034-.671q-.034-.335-.033-.805v-1.107a6.988,6.988,0,0,1-1.322,1.46,6.27,6.27,0,0,1-1.505.923,7.11,7.11,0,0,1-1.539.47,8.022,8.022,0,0,1-1.388.134,9.5,9.5,0,0,1-1.94-.2,4.811,4.811,0,0,1-1.74-.722,3.928,3.928,0,0,1-1.254-1.409,4.692,4.692,0,0,1-.485-2.265,5.954,5.954,0,0,1,.368-2.1,4.277,4.277,0,0,1,1.171-1.711,5.759,5.759,0,0,1,2.074-1.141,9.882,9.882,0,0,1,3.078-.42q1.406,0,2.509.1t1.873.235v-.873a6.339,6.339,0,0,0-.3-2.114,3.041,3.041,0,0,0-.9-1.342,3.474,3.474,0,0,0-1.471-.7,8.974,8.974,0,0,0-2.008-.2,6.9,6.9,0,0,0-3.027.554,8.855,8.855,0,0,0-1.723,1.057l-.8-1.04a8.073,8.073,0,0,1,2.057-1.275,8.065,8.065,0,0,1,3.462-.671,7.291,7.291,0,0,1,4.6,1.275q1.621,1.275,1.622,4.228v8.373q0,.588.033,1.024.033.537.067.94Z" transform="translate(-739.409 152.856)" fill="#fff"/>
                <path id="Path_32" data-name="Path 32" d="M894.883-152.022H891.8v-1.41h3.078v-5.1h1.505v5.1h5.085v1.41h-5.085v8.926a9.629,9.629,0,0,0,.2,2.2,2.79,2.79,0,0,0,.586,1.241,1.821,1.821,0,0,0,.886.554,4.282,4.282,0,0,0,1.1.134,3.176,3.176,0,0,0,1.438-.3,3.842,3.842,0,0,0,1.2-1.04l.937.906a4.9,4.9,0,0,1-1.522,1.342,4.6,4.6,0,0,1-2.225.47,6.1,6.1,0,0,1-1.672-.218,2.737,2.737,0,0,1-1.3-.805,4.044,4.044,0,0,1-.836-1.577,8.9,8.9,0,0,1-.3-2.534Z" transform="translate(-765.917 160.914)" fill="#fff"/>
                <path id="Path_33" data-name="Path 33" d="M939.74-138.56a6.868,6.868,0,0,0-1.807-4.329,5.353,5.353,0,0,0-3.914-1.476,5.5,5.5,0,0,0-2.258.453,5.331,5.331,0,0,0-1.756,1.242,6.321,6.321,0,0,0-1.188,1.846,6.66,6.66,0,0,0-.518,2.265Zm.97,6.308a6.648,6.648,0,0,1-2.727,2,9.071,9.071,0,0,1-3.529.721,8.377,8.377,0,0,1-3.161-.587,7.116,7.116,0,0,1-2.492-1.661,7.679,7.679,0,0,1-1.623-2.567,8.982,8.982,0,0,1-.585-3.306,8.93,8.93,0,0,1,.552-3.154,8.286,8.286,0,0,1,1.522-2.584,7,7,0,0,1,2.342-1.745,7.067,7.067,0,0,1,3.011-.637,7.661,7.661,0,0,1,2.927.553,6.463,6.463,0,0,1,2.342,1.628,7.537,7.537,0,0,1,1.539,2.668,11.217,11.217,0,0,1,.552,3.675H928.266a6.98,6.98,0,0,0,.5,2.467,6.428,6.428,0,0,0,1.271,2.013,5.726,5.726,0,0,0,1.923,1.342,6.193,6.193,0,0,0,2.492.487,7.409,7.409,0,0,0,1.456-.151,7.326,7.326,0,0,0,1.455-.453,7.428,7.428,0,0,0,1.288-.7,4.539,4.539,0,0,0,.987-.906Z" transform="translate(-787.892 152.856)" fill="#fff"/>
              </g>
            </g>
            <rect id="Rectangle_47" data-name="Rectangle 47" width="1.505" height="22.383" transform="translate(157.334 0.537)" fill="#fff"/>
            <rect id="Rectangle_48" data-name="Rectangle 48" width="1.505" height="22.383" transform="translate(163.456 0.537)" fill="#fff"/>
            <g id="Group_29" data-name="Group 29">
              <g id="Group_28" data-name="Group 28" clip-path="url(#clip-path-2)">
                <path id="Path_34" data-name="Path 34" d="M566.1-162.47a10.881,10.881,0,0,0-14.85,4.819,11.44,11.44,0,0,0,4.669,15.24,10.7,10.7,0,0,0,8.351.753l.013.01a6.1,6.1,0,0,0,1.909-.875,8.6,8.6,0,0,1-2.455-2.9c0-.008,0-.016-.007-.024a7.141,7.141,0,0,1-6.12-.3,7.637,7.637,0,0,1-3.117-10.175,7.265,7.265,0,0,1,9.914-3.217,7.507,7.507,0,0,1,3.864,5.58l3.713,1.983a11.351,11.351,0,0,0-5.885-10.9" transform="translate(-550 164.207)" fill="#fff"/>
                <path id="Path_35" data-name="Path 35" d="M594.238-142.4a10.881,10.881,0,0,0,14.829-4.884,11.44,11.44,0,0,0-4.735-15.22,10.7,10.7,0,0,0-8.355-.716l-.013-.01a6.12,6.12,0,0,0-1.905.884,8.6,8.6,0,0,1,2.468,2.889l.007.024a7.141,7.141,0,0,1,6.121.27A7.638,7.638,0,0,1,605.815-149a7.265,7.265,0,0,1-9.9,3.26,7.507,7.507,0,0,1-3.888-5.562l-3.722-1.966a11.351,11.351,0,0,0,5.932,10.87" transform="translate(-574.179 164.21)" fill="#fff"/>
                <path id="Path_36" data-name="Path 36" d="M750.108-87.014h1.075v4.287a4.259,4.259,0,0,0,.089.907,1.84,1.84,0,0,0,.308.709,1.406,1.406,0,0,0,.582.456,2.31,2.31,0,0,0,.924.159,2.277,2.277,0,0,0,.912-.159,1.41,1.41,0,0,0,.583-.456,1.845,1.845,0,0,0,.308-.709,4.279,4.279,0,0,0,.089-.907v-4.287h1.075v4.54a3.724,3.724,0,0,1-.179,1.17,2.585,2.585,0,0,1-.543.945,2.526,2.526,0,0,1-.924.632,3.451,3.451,0,0,1-1.321.231,3.454,3.454,0,0,1-1.321-.231,2.578,2.578,0,0,1-.929-.632,2.546,2.546,0,0,1-.549-.945,3.71,3.71,0,0,1-.179-1.17Z" transform="translate(-676.407 115.737)" fill="#fff"/>
                <path id="Path_37" data-name="Path 37" d="M770.273-76.082v-4.584q0-.253-.011-.527h.963l.034.769q.1-.132.246-.292a1.687,1.687,0,0,1,.358-.291,2.133,2.133,0,0,1,.5-.22,2.184,2.184,0,0,1,.644-.088,1.869,1.869,0,0,1,1.512.583,2.373,2.373,0,0,1,.492,1.583v3.066H774v-2.99a1.5,1.5,0,0,0-.313-1.049,1.15,1.15,0,0,0-.884-.335,1.389,1.389,0,0,0-.728.176,1.373,1.373,0,0,0-.464.456,2.024,2.024,0,0,0-.252.638,3.423,3.423,0,0,0-.078.731v2.374Z" transform="translate(-689.139 112.136)" fill="#fff"/>
              </g>
            </g>
            <rect id="Rectangle_50" data-name="Rectangle 50" width="1.008" height="7.331" transform="translate(87.225 28.723)" fill="#fff"/>
            <g id="Group_31" data-name="Group 31">
              <g id="Group_30" data-name="Group 30" clip-path="url(#clip-path-2)">
                <path id="Path_38" data-name="Path 38" d="M795.422-76.86a1.633,1.633,0,0,0,.728-.159,1.717,1.717,0,0,0,.549-.418,1.81,1.81,0,0,0,.341-.594,2.049,2.049,0,0,0,.118-.687,2.024,2.024,0,0,0-.118-.676,1.821,1.821,0,0,0-.347-.6,1.77,1.77,0,0,0-.549-.423,1.6,1.6,0,0,0-.722-.159,1.637,1.637,0,0,0-.728.159,1.713,1.713,0,0,0-.548.418,1.8,1.8,0,0,0-.341.594,2.049,2.049,0,0,0-.118.687,2,2,0,0,0,.118.681,1.83,1.83,0,0,0,.347.593,1.766,1.766,0,0,0,.549.424,1.6,1.6,0,0,0,.722.159m0,.857a2.8,2.8,0,0,1-1.109-.214,2.637,2.637,0,0,1-.867-.588,2.773,2.773,0,0,1-.571-.863,2.665,2.665,0,0,1-.207-1.049,2.673,2.673,0,0,1,.207-1.05,2.778,2.778,0,0,1,.571-.863,2.625,2.625,0,0,1,.867-.588,2.8,2.8,0,0,1,1.109-.215,2.77,2.77,0,0,1,1.1.215,2.7,2.7,0,0,1,.873.588,2.729,2.729,0,0,1,.576.863,2.673,2.673,0,0,1,.207,1.05,2.665,2.665,0,0,1-.207,1.049,2.724,2.724,0,0,1-.576.863,2.709,2.709,0,0,1-.873.588,2.776,2.776,0,0,1-1.1.214" transform="translate(-703.293 112.211)" fill="#fff"/>
                <path id="Path_39" data-name="Path 39" d="M814.826-76.861a2.62,2.62,0,0,1-.857.621,2.78,2.78,0,0,1-1.181.236,3.037,3.037,0,0,1-1.137-.2,2.482,2.482,0,0,1-.862-.56,2.432,2.432,0,0,1-.543-.858,3.044,3.044,0,0,1-.19-1.093,2.773,2.773,0,0,1,.2-1.056,2.627,2.627,0,0,1,.565-.863,2.694,2.694,0,0,1,.863-.582,2.753,2.753,0,0,1,1.1-.215,2.775,2.775,0,0,1,1.165.231,2.625,2.625,0,0,1,.862.627l-.66.626a1.708,1.708,0,0,0-.571-.45,1.788,1.788,0,0,0-.795-.165,1.7,1.7,0,0,0-.722.148,1.55,1.55,0,0,0-.537.407,1.86,1.86,0,0,0-.336.593,2.1,2.1,0,0,0-.118.7,2.06,2.06,0,0,0,.118.687,1.86,1.86,0,0,0,.336.593,1.6,1.6,0,0,0,.537.412,1.64,1.64,0,0,0,.722.154,1.911,1.911,0,0,0,.823-.171,1.685,1.685,0,0,0,.6-.456Z" transform="translate(-714.276 112.212)" fill="#fff"/>
              </g>
            </g>
            <path id="Path_40" data-name="Path 40" d="M825.681-87.014v7.331h1.007v-1.879l.717-.681,1.769,2.56h1.2L828.11-82.9l1.971-1.891h-1.21l-2.183,2.1v-4.32Z" transform="translate(-724.147 115.736)" fill="#fff"/>
            <g id="Group_33" data-name="Group 33">
              <g id="Group_32" data-name="Group 32" clip-path="url(#clip-path-2)">
                <path id="Path_41" data-name="Path 41" d="M849.9-83.464a1.518,1.518,0,0,0,1.069-.347,1.243,1.243,0,0,0,.376-.961,1.276,1.276,0,0,0-.386-.984,1.5,1.5,0,0,0-1.058-.357h-1.344v2.649Zm-2.408-3.55h2.363a3.273,3.273,0,0,1,1.26.209,2.255,2.255,0,0,1,.8.527,1.786,1.786,0,0,1,.414.715,2.692,2.692,0,0,1,.118.769,2.312,2.312,0,0,1-.19.967,1.951,1.951,0,0,1-.526.7,2.283,2.283,0,0,1-.8.423,3.442,3.442,0,0,1-1.013.143h-1.355v2.88H847.5Z" transform="translate(-737.928 115.737)" fill="#fff"/>
                <path id="Path_42" data-name="Path 42" d="M864.844-76.86a1.633,1.633,0,0,0,.728-.159,1.717,1.717,0,0,0,.549-.418,1.81,1.81,0,0,0,.341-.594,2.051,2.051,0,0,0,.118-.687,2.026,2.026,0,0,0-.118-.676,1.821,1.821,0,0,0-.347-.6,1.771,1.771,0,0,0-.549-.423,1.6,1.6,0,0,0-.722-.159,1.638,1.638,0,0,0-.728.159,1.717,1.717,0,0,0-.548.418,1.8,1.8,0,0,0-.341.594,2.048,2.048,0,0,0-.118.687,2,2,0,0,0,.118.681,1.83,1.83,0,0,0,.347.593,1.766,1.766,0,0,0,.549.424,1.6,1.6,0,0,0,.722.159m0,.857a2.8,2.8,0,0,1-1.109-.214,2.636,2.636,0,0,1-.867-.588,2.773,2.773,0,0,1-.571-.863,2.665,2.665,0,0,1-.207-1.049,2.673,2.673,0,0,1,.207-1.05,2.778,2.778,0,0,1,.571-.863,2.624,2.624,0,0,1,.867-.588,2.8,2.8,0,0,1,1.109-.215,2.77,2.77,0,0,1,1.1.215,2.7,2.7,0,0,1,.873.588,2.731,2.731,0,0,1,.576.863,2.668,2.668,0,0,1,.207,1.05,2.66,2.66,0,0,1-.207,1.049,2.726,2.726,0,0,1-.576.863,2.709,2.709,0,0,1-.873.588,2.776,2.776,0,0,1-1.1.214" transform="translate(-747.146 112.211)" fill="#fff"/>
                <path id="Path_43" data-name="Path 43" d="M880-77.444a2.108,2.108,0,0,0,.672.439,2.317,2.317,0,0,0,.906.165,1.952,1.952,0,0,0,.84-.159.524.524,0,0,0,.336-.5.6.6,0,0,0-.072-.3.644.644,0,0,0-.246-.225,2.152,2.152,0,0,0-.459-.182q-.285-.082-.711-.181a4.483,4.483,0,0,1-.6-.176,1.982,1.982,0,0,1-.532-.291,1.445,1.445,0,0,1-.381-.439,1.25,1.25,0,0,1-.145-.621,1.218,1.218,0,0,1,.174-.654,1.521,1.521,0,0,1,.464-.472,2.25,2.25,0,0,1,.655-.292,2.872,2.872,0,0,1,.756-.1,3.386,3.386,0,0,1,1.137.171,2.633,2.633,0,0,1,.834.478l-.549.681a2.022,2.022,0,0,0-.588-.351,2.176,2.176,0,0,0-.822-.143,1.654,1.654,0,0,0-.773.154.529.529,0,0,0-.291.506.524.524,0,0,0,.386.489,6.509,6.509,0,0,0,1.014.3,6.323,6.323,0,0,1,.688.2,2.107,2.107,0,0,1,.559.3,1.313,1.313,0,0,1,.381.445,1.342,1.342,0,0,1,.14.637,1.262,1.262,0,0,1-.179.676,1.541,1.541,0,0,1-.482.489,2.273,2.273,0,0,1-.694.3,3.33,3.33,0,0,1-.818.1,2.912,2.912,0,0,1-2.216-.78Z" transform="translate(-758.073 112.212)" fill="#fff"/>
                <path id="Path_44" data-name="Path 44" d="M894.352-77.444a2.114,2.114,0,0,0,.672.439,2.317,2.317,0,0,0,.906.165,1.952,1.952,0,0,0,.84-.159.525.525,0,0,0,.336-.5.6.6,0,0,0-.073-.3.642.642,0,0,0-.247-.225,2.144,2.144,0,0,0-.459-.182q-.286-.082-.711-.181a4.487,4.487,0,0,1-.6-.176,1.981,1.981,0,0,1-.532-.291,1.443,1.443,0,0,1-.381-.439,1.249,1.249,0,0,1-.145-.621,1.219,1.219,0,0,1,.173-.654,1.518,1.518,0,0,1,.464-.472,2.249,2.249,0,0,1,.655-.292,2.872,2.872,0,0,1,.756-.1,3.384,3.384,0,0,1,1.137.171,2.63,2.63,0,0,1,.834.478l-.549.681a2.022,2.022,0,0,0-.588-.351,2.178,2.178,0,0,0-.823-.143,1.653,1.653,0,0,0-.772.154.529.529,0,0,0-.291.506.524.524,0,0,0,.386.489,6.5,6.5,0,0,0,1.014.3,6.322,6.322,0,0,1,.688.2,2.109,2.109,0,0,1,.56.3,1.323,1.323,0,0,1,.381.445,1.341,1.341,0,0,1,.14.637,1.266,1.266,0,0,1-.179.676,1.544,1.544,0,0,1-.482.489,2.272,2.272,0,0,1-.694.3,3.33,3.33,0,0,1-.818.1,2.912,2.912,0,0,1-2.216-.78Z" transform="translate(-767.138 112.212)" fill="#fff"/>
              </g>
            </g>
            <path id="Path_45" data-name="Path 45" d="M908.849-79.343h1.008v-5.111h-1.008Zm-.067-6.023h1.131v-1.11h-1.131Z" transform="translate(-776.641 115.397)" fill="#fff"/>
            <g id="Group_35" data-name="Group 35">
              <g id="Group_34" data-name="Group 34" clip-path="url(#clip-path-2)">
                <path id="Path_46" data-name="Path 46" d="M916.589-80.529q.157.045.386.094a3.435,3.435,0,0,0,.677.05,2.106,2.106,0,0,0,.784-.138,1.792,1.792,0,0,0,.6-.384,1.672,1.672,0,0,0,.386-.594,2.064,2.064,0,0,0,.134-.753,2.686,2.686,0,0,0-.084-.675,1.62,1.62,0,0,0-.269-.572,1.383,1.383,0,0,0-.464-.4,1.452,1.452,0,0,0-.683-.148,1.529,1.529,0,0,0-.643.126,1.4,1.4,0,0,0-.459.33,1.309,1.309,0,0,0-.274.473,1.74,1.74,0,0,0-.089.555Zm-1-6.485H916.6v2.781a1.656,1.656,0,0,1,.218-.22,1.719,1.719,0,0,1,.342-.225,2.121,2.121,0,0,1,.464-.171,2.426,2.426,0,0,1,.588-.066,2.439,2.439,0,0,1,1.025.2,2.131,2.131,0,0,1,.745.561,2.391,2.391,0,0,1,.453.841,3.456,3.456,0,0,1,.151,1.033,2.825,2.825,0,0,1-.213,1.11,2.5,2.5,0,0,1-.6.868,2.759,2.759,0,0,1-.924.566,3.323,3.323,0,0,1-1.187.2,6.693,6.693,0,0,1-1.187-.1,4.82,4.82,0,0,1-.885-.231Z" transform="translate(-780.943 115.737)" fill="#fff"/>
              </g>
            </g>
            <path id="Path_47" data-name="Path 47" d="M932.257-79.343h1.008v-5.111h-1.008Zm-.067-6.023h1.131v-1.11H932.19Z" transform="translate(-791.428 115.397)" fill="#fff"/>
            <rect id="Rectangle_54" data-name="Rectangle 54" width="1.008" height="7.331" transform="translate(143.27 28.723)" fill="#fff"/>
            <path id="Path_48" data-name="Path 48" d="M945.511-79.343h1.008v-5.111h-1.008Zm-.067-6.023h1.131v-1.11h-1.131Z" transform="translate(-799.801 115.397)" fill="#fff"/>
            <g id="Group_37" data-name="Group 37">
              <g id="Group_36" data-name="Group 36" clip-path="url(#clip-path-2)">
                <path id="Path_49" data-name="Path 49" d="M951.857-83.027h-.94v-.825h.94v-1.671h1.008v1.671h1.523v.825h-1.523v2.517a1.345,1.345,0,0,0,.2.846.686.686,0,0,0,.554.231,1.145,1.145,0,0,0,.481-.088,1.462,1.462,0,0,0,.381-.264l.459.6a2.134,2.134,0,0,1-.666.445,2.18,2.18,0,0,1-.812.137,1.537,1.537,0,0,1-1.215-.439,2.049,2.049,0,0,1-.386-1.374Z" transform="translate(-803.258 114.794)" fill="#fff"/>
              </g>
            </g>
            <path id="Path_50" data-name="Path 50" d="M963.933-79.343h1.008v-5.111h-1.008Zm-.067-6.023H965v-1.11h-1.131Z" transform="translate(-811.438 115.397)" fill="#fff"/>
            <g id="Group_39" data-name="Group 39">
              <g id="Group_38" data-name="Group 38" clip-path="url(#clip-path-2)">
                <path id="Path_51" data-name="Path 51" d="M974.074-79.139a1.642,1.642,0,0,0-.425-1.011,1.383,1.383,0,0,0-1.075-.418,1.63,1.63,0,0,0-.644.121,1.552,1.552,0,0,0-.487.318,1.432,1.432,0,0,0-.313.457,1.477,1.477,0,0,0-.124.533Zm.907,2.253a3.329,3.329,0,0,1-.268.253,2.309,2.309,0,0,1-.465.3,3.578,3.578,0,0,1-.672.247,3.39,3.39,0,0,1-.879.1,3.006,3.006,0,0,1-1.108-.2,2.453,2.453,0,0,1-.862-.56,2.506,2.506,0,0,1-.554-.868,3.071,3.071,0,0,1-.2-1.121,2.873,2.873,0,0,1,.189-1.05,2.507,2.507,0,0,1,.538-.846,2.584,2.584,0,0,1,.823-.566,2.583,2.583,0,0,1,1.047-.208,2.45,2.45,0,0,1,1.153.253,2.288,2.288,0,0,1,.79.671,2.839,2.839,0,0,1,.453.956,4.289,4.289,0,0,1,.146,1.121h-4.11a1.531,1.531,0,0,0,.151.626,1.587,1.587,0,0,0,.376.5,1.819,1.819,0,0,0,.537.33,1.7,1.7,0,0,0,.638.12,2.357,2.357,0,0,0,1.086-.22,2.224,2.224,0,0,0,.615-.428Z" transform="translate(-815.298 112.192)" fill="#fff"/>
                <path id="Path_52" data-name="Path 52" d="M986.824-77.444A2.122,2.122,0,0,0,987.5-77a2.316,2.316,0,0,0,.906.165,1.952,1.952,0,0,0,.84-.159.524.524,0,0,0,.336-.5.6.6,0,0,0-.073-.3.642.642,0,0,0-.247-.225,2.135,2.135,0,0,0-.459-.182q-.286-.082-.711-.181a4.488,4.488,0,0,1-.6-.176,1.986,1.986,0,0,1-.532-.291,1.443,1.443,0,0,1-.381-.439,1.249,1.249,0,0,1-.145-.621,1.218,1.218,0,0,1,.173-.654,1.521,1.521,0,0,1,.464-.472,2.248,2.248,0,0,1,.655-.292,2.872,2.872,0,0,1,.756-.1,3.384,3.384,0,0,1,1.137.171,2.631,2.631,0,0,1,.834.478l-.549.681a2.026,2.026,0,0,0-.588-.351,2.181,2.181,0,0,0-.824-.143,1.653,1.653,0,0,0-.772.154.528.528,0,0,0-.291.506.524.524,0,0,0,.386.489,6.517,6.517,0,0,0,1.014.3,6.3,6.3,0,0,1,.688.2,2.116,2.116,0,0,1,.56.3,1.327,1.327,0,0,1,.38.445,1.342,1.342,0,0,1,.14.637,1.263,1.263,0,0,1-.179.676,1.545,1.545,0,0,1-.482.489,2.273,2.273,0,0,1-.694.3,3.33,3.33,0,0,1-.818.1,2.913,2.913,0,0,1-2.216-.78Z" transform="translate(-825.552 112.212)" fill="#fff"/>
              </g>
            </g>
          </g>
        </g>
      </g>
    </g>
  </g>
</svg>
