<?xml version="1.0" encoding="utf-8"?>
<!-- Generator: Adobe Illustrator 23.1.0, SVG Export Plug-In . SVG Version: 6.00 Build 0)  -->
<svg version="1.1" id="Layer_1" xmlns="http://www.w3.org/2000/svg" xmlns:xlink="http://www.w3.org/1999/xlink" x="0px" y="0px"
	 viewBox="0 0 1000 250" style="enable-background:new 0 0 1000 250;" xml:space="preserve">
<style type="text/css">
	.st0{fill:none;stroke:#FFFFFF;stroke-width:2.409;stroke-miterlimit:10;}
	.st1{fill:none;stroke:#FFFFFF;stroke-width:2.409;stroke-linecap:round;stroke-miterlimit:10;}
	.st2{fill:none;stroke:#FFFFFF;stroke-width:1.354;stroke-miterlimit:10;}
	.st3{fill:none;stroke:#FFFFFF;stroke-width:1.354;stroke-linecap:round;stroke-miterlimit:10;}
	.st4{opacity:0.2;}
	.st5{clip-path:url(#SVGID_2_);fill:#FFFFFF;}
	.st6{clip-path:url(#SVGID_4_);fill:#FFFFFF;}
	.st7{clip-path:url(#SVGID_6_);fill:#FFFFFF;}
</style>
<g>
	<g>
		<path class="st0" d="M23.58,73.27l16.11,0.23l2.61,0.04h120.38c8.09,0,14.64-6.53,14.64-14.58c0-4.03-1.64-7.67-4.29-10.31
			c-2.65-2.64-6.31-4.27-10.35-4.27H40.66c-8.09,0-14.64,6.53-14.64,14.58c0,2.8,0.79,5.41,2.16,7.62L23.58,73.27z"/>
	</g>
	<line class="st1" x1="152.33" y1="53.34" x2="89.76" y2="53.34"/>
	<line class="st1" x1="81.4" y1="53.34" x2="52.6" y2="53.34"/>
	<line class="st1" x1="92.19" y1="62.09" x2="51.92" y2="62.09"/>
	<g>
		<path class="st0" d="M976.26,104.84l-16.11,0.23l-2.61,0.04H837.15c-8.09,0-14.64-6.53-14.64-14.58c0-4.03,1.64-7.67,4.29-10.31
			c2.65-2.64,6.31-4.27,10.35-4.27h122.02c8.09,0,14.64,6.53,14.64,14.58c0,2.8-0.79,5.41-2.16,7.62L976.26,104.84z"/>
	</g>
	<line class="st1" x1="847.51" y1="84.91" x2="910.08" y2="84.91"/>
	<line class="st1" x1="918.44" y1="84.91" x2="947.23" y2="84.91"/>
	<line class="st1" x1="847.51" y1="93.67" x2="887.79" y2="93.67"/>
	<g>
		<path class="st2" d="M718.26,63.49l-9.05,0.13l-1.47,0.02H640.1c-4.54,0-8.23-3.67-8.23-8.19c0-2.26,0.92-4.31,2.41-5.79
			c1.49-1.48,3.54-2.4,5.82-2.4h68.55c4.54,0,8.23,3.67,8.23,8.19c0,1.57-0.44,3.04-1.21,4.28L718.26,63.49z"/>
	</g>
	<line class="st3" x1="645.92" y1="52.29" x2="681.07" y2="52.29"/>
	<line class="st3" x1="685.77" y1="52.29" x2="701.95" y2="52.29"/>
	<line class="st3" x1="645.92" y1="57.21" x2="668.55" y2="57.21"/>
	<g>
		<g class="st4">
			<g>
				<defs>
					<rect id="SVGID_1_" x="248.06" y="28.15" width="99.46" height="37.16"/>
				</defs>
				<clipPath id="SVGID_2_">
					<use xlink:href="#SVGID_1_"  style="overflow:visible;"/>
				</clipPath>
				<path class="st5" d="M311.93,49.74c0,1.91-1.55,3.47-3.47,3.47c-1.91,0-3.47-1.55-3.47-3.47c0-1.91,1.55-3.47,3.47-3.47
					C310.38,46.27,311.93,47.82,311.93,49.74 M299.75,49.74c0,1.91-1.55,3.47-3.47,3.47c-1.91,0-3.47-1.55-3.47-3.47
					c0-1.91,1.55-3.47,3.47-3.47C298.2,46.27,299.75,47.82,299.75,49.74 M287.52,49.74c0,1.91-1.55,3.47-3.47,3.47
					c-1.91,0-3.47-1.55-3.47-3.47c0-1.91,1.55-3.47,3.47-3.47C285.97,46.27,287.52,47.82,287.52,49.74 M333.93,57.36
					c1.37-2.21,2.16-4.82,2.16-7.62c0-8.05-6.56-14.58-14.64-14.58h-49.74c-4.05,0-7.7,1.63-10.35,4.27
					c-2.65,2.64-4.29,6.28-4.29,10.31c0,8.05,6.56,14.58,14.64,14.58h48.1l2.61-0.04l16.11-0.23L333.93,57.36z"/>
			</g>
		</g>
		<g class="st4">
			<g>
				<defs>
					<rect id="SVGID_3_" x="67.53" y="151.66" width="79.1" height="29.87"/>
				</defs>
				<clipPath id="SVGID_4_">
					<use xlink:href="#SVGID_3_"  style="overflow:visible;"/>
				</clipPath>
				<path class="st6" d="M117.68,169.6c0,1.44-1.16,2.6-2.6,2.6c-1.44,0-2.6-1.16-2.6-2.6c0-1.44,1.16-2.6,2.6-2.6
					C116.52,167,117.68,168.16,117.68,169.6 M108.54,169.6c0,1.44-1.16,2.6-2.6,2.6c-1.44,0-2.6-1.16-2.6-2.6
					c0-1.44,1.16-2.6,2.6-2.6C107.38,167,108.54,168.16,108.54,169.6 M99.37,169.6c0,1.44-1.16,2.6-2.6,2.6
					c-1.44,0-2.6-1.16-2.6-2.6c0-1.44,1.16-2.6,2.6-2.6C98.21,167,99.37,168.16,99.37,169.6 M134.18,175.31
					c1.03-1.66,1.62-3.62,1.62-5.71c0-6.04-4.92-10.94-10.98-10.94h-37.3c-3.04,0-5.78,1.22-7.76,3.2
					c-1.99,1.98-3.22,4.71-3.22,7.73c0,6.04,4.92,10.94,10.98,10.94h36.08l1.96-0.03l12.08-0.17L134.18,175.31z"/>
			</g>
		</g>
		<g class="st4">
			<g>
				<defs>
					<rect id="SVGID_5_" x="710.53" y="173.53" width="130" height="48.09"/>
				</defs>
				<clipPath id="SVGID_6_">
					<use xlink:href="#SVGID_5_"  style="overflow:visible;"/>
				</clipPath>
				<path class="st7" d="M756.1,200.58c0,2.63,2.13,4.77,4.76,4.77c2.63,0,4.77-2.13,4.77-4.77c0-2.63-2.13-4.76-4.77-4.76
					C758.23,195.81,756.1,197.95,756.1,200.58 M772.84,200.58c0,2.63,2.13,4.77,4.77,4.77c2.63,0,4.77-2.13,4.77-4.77
					c0-2.63-2.13-4.76-4.77-4.76C774.97,195.81,772.84,197.95,772.84,200.58 M789.65,200.58c0,2.63,2.13,4.77,4.77,4.77
					c2.63,0,4.77-2.13,4.77-4.77c0-2.63-2.13-4.76-4.77-4.76C791.79,195.81,789.65,197.95,789.65,200.58 M725.85,211.06
					c-1.89-3.04-2.97-6.63-2.97-10.48c0-11.07,9.01-20.05,20.13-20.05h68.38c5.56,0,10.59,2.24,14.23,5.87
					c3.65,3.63,5.9,8.64,5.9,14.17c0,11.07-9.01,20.05-20.13,20.05h-66.13l-3.59-0.05l-22.14-0.32L725.85,211.06z"/>
			</g>
		</g>
	</g>
</g>
</svg>
