<svg xmlns="http://www.w3.org/2000/svg" xmlns:xlink="http://www.w3.org/1999/xlink" width="73.949" height="49.627" viewBox="0 0 73.949 49.627">
  <defs>
    <linearGradient id="linear-gradient" y1="0.5" x2="1" y2="0.5" gradientUnits="objectBoundingBox">
      <stop offset="0" stop-color="#54cdee"/>
      <stop offset="0.304" stop-color="#69cdc7"/>
      <stop offset="0.98" stop-color="#9ecf67"/>
      <stop offset="0.994" stop-color="#a0d065"/>
    </linearGradient>
  </defs>
  <path id="Path_7382" data-name="Path 7382" d="M2113.6-5418.47a5.008,5.008,0,0,1-3.2-.938c-.729-.565-1.132-.413-1.761.109a5.683,5.683,0,0,1-7.853-.619,5.639,5.639,0,0,1-.851-1.608.792.792,0,0,0-.885-.6c-2.775-.041-4.741-1.527-5.142-3.875-.081-.478-.3-.648-.846-.737-2.781-.449-4.22-1.921-4.307-4.38-.015-.427-.183-.6-.652-.713-3.589-.859-4.906-4.021-2.746-6.618.334-.4.334-.659-.034-1.025-1.79-1.78-3.526-3.6-5.344-5.356a15.467,15.467,0,0,0-2.055-1.464c-1.734-1.187-3.485-2.355-5.209-3.553-1.039-.722-1.167-1.449-.427-2.406a145.127,145.127,0,0,0,9.637-13.475c.525-.869,1.167-1.046,2.318-.771,3,.713,5.986,1.441,8.987,2.133a14.268,14.268,0,0,0,2.207.3c2.122.146,4.266.148,6.365.414a13.644,13.644,0,0,0,5.086-.4c2.047-.5,4.11-.961,6.173-1.415a5.01,5.01,0,0,1,1.447-.147c3.809.316,7.613.668,11.42,1a3.267,3.267,0,0,0,1.1-.04c3.291-.9,6.58-1.8,9.853-2.739,1.6-.46,2.218-.321,2.789,1.075,1.081,2.638,1.991,5.328,3.083,7.962.8,1.932,1.744,3.823,2.688,5.708.539,1.078.472,1.6-.624,2.313-1.909,1.236-3.85,2.435-5.75,3.68a3.662,3.662,0,0,0-1.067,1.034c-1.358,2.127-2.689,4.269-3.969,6.431a1.342,1.342,0,0,0-.039,1.149c1.381,2.846-.482,5.727-4.031,6.125-.5.056-.666.217-.75.631-.451,2.2-1.909,3.418-4.453,3.727-.5.061-.665.236-.755.641-.511,2.29-1.864,3.451-4.543,3.858-.614.093-.689.377-.762.805A5,5,0,0,1,2113.6-5418.47Zm-14.233-42.785c-1.411-.088-2.69-.152-3.965-.255a1.173,1.173,0,0,0-1.132.5q-5.64,7.037-11.32,14.049c-.359.443-.289.708.1,1.086,1.424,1.4,2.842,2.8,4.19,4.251a1.036,1.036,0,0,0,1.583.243c3.272-1.885,6.838-.32,7.467,2.114.041.159.443.366.665.354,3.13-.157,5.091,1.191,5.62,3.85a.965.965,0,0,0,.631.6c3.1.575,4.673,2.247,4.595,5.009-.011.4.07.609.558.765,3.1.989,4.392,3.349,3.414,6.1a.8.8,0,0,0,.08.733,2.312,2.312,0,0,0,2.177.626,1.944,1.944,0,0,0,1.629-1.476,1.971,1.971,0,0,0-.77-1.959q-1.514-1.378-3.017-2.764c-.837-.774-.892-1.58-.16-2.156a1.745,1.745,0,0,1,2.4.335c1.066.975,2.1,1.975,3.2,2.925a2.389,2.389,0,0,0,2.971.135,1.722,1.722,0,0,0,.288-2.618,7.082,7.082,0,0,0-.618-.62q-2.817-2.619-5.638-5.235c-.842-.784-.9-1.587-.158-2.149.707-.539,1.544-.409,2.4.383.706.654,1.4,1.319,2.1,1.973,1.313,1.217,2.609,2.448,3.955,3.637a2.4,2.4,0,0,0,2.968.145,1.717,1.717,0,0,0,.241-2.563,5.419,5.419,0,0,0-.445-.454q-3.817-3.6-7.635-7.188c-.5-.476-1.027-.939-1.5-1.437a1.192,1.192,0,0,1,.076-1.873,1.633,1.633,0,0,1,2.155.135c.1.084.2.178.3.27q3.707,3.53,7.416,7.059a24.73,24.73,0,0,0,1.9,1.723,2.212,2.212,0,0,0,2.68,0,1.606,1.606,0,0,0,.428-2.233,4.7,4.7,0,0,0-.671-.77c-.84-.816-1.7-1.618-2.543-2.431-4.455-4.284-8.9-8.578-13.383-12.838a2.835,2.835,0,0,0-1.535-.652c-1.6-.166-3.217-.182-4.821-.316a1.418,1.418,0,0,0-1.514.706c-1.085,1.72-2.184,3.436-3.349,5.116a5.846,5.846,0,0,1-8.157,1.293c-1.666-1.314-1.99-3.28-.831-5.332,1.511-2.674,3.054-5.335,4.58-8C2099.09-5460.672,2099.191-5460.9,2099.372-5461.255Zm32.008,20.389c.2-.14.293-.174.331-.233,1.213-1.912,2.436-3.821,3.61-5.751a.868.868,0,0,0-.074-.808q-4.6-6.9-9.261-13.756a1.884,1.884,0,0,0-1.206-.656c-3.2-.321-6.406-.592-9.615-.839a6.5,6.5,0,0,0-1.961.122c-3.437.818-6.86,1.676-10.279,2.549a1.523,1.523,0,0,0-.853.555q-2.592,4.241-5.106,8.517a1.559,1.559,0,0,0,.659,2.235,2.382,2.382,0,0,0,2.687-.275,6.421,6.421,0,0,0,.963-1.224c1.21-1.857,2.4-3.725,3.6-5.589a1.985,1.985,0,0,1,1.9-.956c2.469.14,4.936.309,7.4.444a3.623,3.623,0,0,1,2.5,1.134c3.587,3.584,7.213,7.14,10.825,10.705C2128.781-5443.428,2130.063-5442.164,2131.38-5440.866Zm-40.045-21.18c-.395-.123-.652-.221-.92-.283-1.778-.411-3.567-.79-5.334-1.231a.964.964,0,0,0-1.234.45c-1.643,2.385-3.308,4.759-5.019,7.108-1.114,1.528-2.321,3.006-3.561,4.6,1.466.976,2.918,1.9,4.309,2.887.648.461.98.339,1.412-.211,2.709-3.446,5.458-6.868,8.17-10.312C2089.9-5459.974,2090.552-5460.959,2091.334-5462.046Zm37.967-.433c2.827,4.569,5.208,9.175,8.4,13.483,1.549-.975,3-1.862,4.407-2.8a.785.785,0,0,0,.151-.8c-.614-1.334-1.353-2.627-1.939-3.97-1.072-2.457-2.08-4.934-3.082-7.413-.215-.533-.513-.625-1.09-.423-.638.223-1.306.384-1.962.567C2132.611-5463.4,2131.03-5462.959,2129.3-5462.479Zm-24.529,32.925a1.972,1.972,0,0,0-1.271-2.02,2.35,2.35,0,0,0-2.466.429c-1.208,1.027-2.4,2.072-3.548,3.148a1.73,1.73,0,0,0,.069,2.686,2.412,2.412,0,0,0,3.1-.088c1.133-.951,2.262-1.911,3.317-2.926A5.206,5.206,0,0,0,2104.773-5429.554Zm-5.219-4.569c-.045-1.066-.359-1.7-1.231-2.024a2.3,2.3,0,0,0-2.436.482c-1.137.979-2.236,1.991-3.345,3a1.748,1.748,0,0,0-.186,2.782,2.4,2.4,0,0,0,3.215-.19c1.083-.921,2.166-1.846,3.176-2.826A5.488,5.488,0,0,0,2099.554-5434.123Zm9.485,9.9a1.809,1.809,0,0,0-1.207-1.75,2.231,2.231,0,0,0-2.269.195,19.583,19.583,0,0,0-2.286,2.007,1.566,1.566,0,0,0-.134,2.089,2.156,2.156,0,0,0,2,.945C2106.5-5420.786,2109.017-5423.045,2109.039-5424.224Zm-17.614-15.513a6.35,6.35,0,0,0-1.42.611,20.869,20.869,0,0,0-2.135,1.926,1.524,1.524,0,0,0-.011,2.3,2.152,2.152,0,0,0,2.718.239,12.691,12.691,0,0,0,2.519-2.307C2094.033-5438.162,2093.07-5439.634,2091.426-5439.736Z" transform="translate(-2071.825 5467.64)" fill="url(#linear-gradient)"/>
</svg>
