<svg xmlns="http://www.w3.org/2000/svg" xmlns:xlink="http://www.w3.org/1999/xlink" width="444.613" height="343.227" viewBox="0 0 444.613 343.227">
  <defs>
    <filter id="Rectangle_7444" x="15.054" y="0" width="173.036" height="297.227" filterUnits="userSpaceOnUse">
      <feOffset dx="7" dy="5" input="SourceAlpha"/>
      <feGaussianBlur stdDeviation="5.5" result="blur"/>
      <feFlood flood-color="#030504" flood-opacity="0.259"/>
      <feComposite operator="in" in2="blur"/>
      <feComposite in="SourceGraphic"/>
    </filter>
    <filter id="Rectangle_7445" x="263.621" y="46" width="173.036" height="297.227" filterUnits="userSpaceOnUse">
      <feOffset dx="7" dy="5" input="SourceAlpha"/>
      <feGaussianBlur stdDeviation="5.5" result="blur-2"/>
      <feFlood flood-color="#030504" flood-opacity="0.259"/>
      <feComposite operator="in" in2="blur-2"/>
      <feComposite in="SourceGraphic"/>
    </filter>
  </defs>
  <g id="Group_1710" data-name="Group 1710" transform="translate(-401.557 -3196.5)">
    <text id="CUSTOMER_CARE" data-name="CUSTOMER CARE" transform="translate(498 3521)" fill="#000c30" font-size="16" font-family="OpenSans-Bold, Open Sans" font-weight="700"><tspan x="-66.313" y="0">CUSTOMER CARE</tspan></text>
    <text id="NOTIFICATIONS" transform="translate(735 3226)" fill="#000c30" font-size="16" font-family="OpenSans-Bold, Open Sans" font-weight="700"><tspan x="-62.367" y="0">NOTIFICATIONS</tspan></text>
    <g transform="matrix(1, 0, 0, 1, 401.56, 3196.5)" filter="url(#Rectangle_7444)">
      <rect id="Rectangle_7444-2" data-name="Rectangle 7444" width="140.036" height="264.227" rx="17.963" transform="translate(24.55 11.5)" fill="#fff"/>
    </g>
    <g transform="matrix(1, 0, 0, 1, 401.56, 3196.5)" filter="url(#Rectangle_7445)">
      <rect id="Rectangle_7445-2" data-name="Rectangle 7445" width="140.036" height="264.227" rx="17.963" transform="translate(273.12 57.5)" fill="#fff"/>
    </g>
    <path id="Rectangle_7446" data-name="Rectangle 7446" d="M0,0H178.294a10,10,0,0,1,10,10V36.019a10,10,0,0,1-10,10H10a10,10,0,0,1-10-10V0A0,0,0,0,1,0,0Z" transform="translate(402.558 3254.848)" fill="#89bb2a" opacity="0.6"/>
    <path id="Rectangle_7447" data-name="Rectangle 7447" d="M10,0H190.949a10,10,0,0,1,10,10V129.773a10,10,0,0,1-10,10H0a0,0,0,0,1,0,0V10A10,10,0,0,1,10,0Z" transform="translate(845.171 3430.235) rotate(-180)" fill="#fff" stroke="#16bae8" stroke-miterlimit="10" stroke-width="2" opacity="0.8"/>
    <path id="Rectangle_7448" data-name="Rectangle 7448" d="M0,0H103.082a10,10,0,0,1,10,10V36.019a10,10,0,0,1-10,10H10a10,10,0,0,1-10-10V0A0,0,0,0,1,0,0Z" transform="translate(402.558 3378.854)" fill="#89bb2a" opacity="0.6"/>
    <path id="Rectangle_7449" data-name="Rectangle 7449" d="M10,0H178.294a10,10,0,0,1,10,10V36.019a10,10,0,0,1-10,10H0a0,0,0,0,1,0,0V10A10,10,0,0,1,10,0Z" transform="translate(590.851 3362.87) rotate(-180)" fill="#fff" stroke="#89bb2a" stroke-miterlimit="10" stroke-width="2" opacity="0.8"/>
    <g id="Group_1689" data-name="Group 1689" transform="translate(559.012 3284.038)">
      <path id="Path_7414" data-name="Path 7414" d="M528.174,424.025l4.165,4.165,8.629-8.628" transform="translate(-528.174 -419.562)" fill="none" stroke="#fff" stroke-linecap="round" stroke-linejoin="round" stroke-width="2"/>
      <path id="Path_7415" data-name="Path 7415" d="M541.268,426.722l1.469,1.469,8.629-8.628" transform="translate(-530.687 -419.562)" fill="none" stroke="#fff" stroke-linecap="round" stroke-linejoin="round" stroke-width="2"/>
    </g>
    <g id="Group_1690" data-name="Group 1690" transform="translate(480.037 3408.417)">
      <path id="Path_7416" data-name="Path 7416" d="M430.444,577.942l4.166,4.166,8.629-8.629" transform="translate(-430.444 -573.479)" fill="none" stroke="#fff" stroke-linecap="round" stroke-linejoin="round" stroke-width="2"/>
      <path id="Path_7417" data-name="Path 7417" d="M443.538,580.639l1.469,1.469,8.629-8.629" transform="translate(-432.957 -573.479)" fill="none" stroke="#fff" stroke-linecap="round" stroke-linejoin="round" stroke-width="2"/>
    </g>
    <path id="Rectangle_7450" data-name="Rectangle 7450" d="M0,0H113.1a10,10,0,0,1,10,10V36.019a10,10,0,0,1-10,10H10a10,10,0,0,1-10-10V0A0,0,0,0,1,0,0Z" transform="translate(644.03 3445.243)" fill="#16bae8" opacity="0.6"/>
    <g id="Group_1691" data-name="Group 1691" transform="translate(738.192 3474.806)">
      <path id="Path_7418" data-name="Path 7418" d="M749.907,603.174l4.166,4.166,8.629-8.629" transform="translate(-749.907 -598.711)" fill="none" stroke="#fff" stroke-linecap="round" stroke-linejoin="round" stroke-width="2"/>
      <path id="Path_7419" data-name="Path 7419" d="M763,605.87l1.469,1.469,8.629-8.629" transform="translate(-752.42 -598.711)" fill="none" stroke="#fff" stroke-linecap="round" stroke-linejoin="round" stroke-width="2"/>
    </g>
    <rect id="Rectangle_7451" data-name="Rectangle 7451" width="185.993" height="87.436" transform="translate(651.7 3297.317)" fill="#e0e1e3"/>
    <rect id="Rectangle_7452" data-name="Rectangle 7452" width="116.965" height="5.946" rx="2.973" transform="translate(659.928 3398.591)" fill="#16bae8"/>
    <rect id="Rectangle_7453" data-name="Rectangle 7453" width="67.111" height="5.946" rx="2.973" transform="translate(659.928 3419.025)" fill="#16bae8"/>
  </g>
</svg>
