<svg xmlns="http://www.w3.org/2000/svg" width="52" height="51" viewBox="0 0 52 51">
  <g id="Group_3697" data-name="Group 3697" transform="translate(-1441 -1478.41)">
    <g id="Group_3688" data-name="Group 3688" transform="translate(1936 790.41)">
      <path id="Path_8942" data-name="Path 8942" d="M26,0A25.754,25.754,0,0,1,52,25.5,25.754,25.754,0,0,1,26,51,25.754,25.754,0,0,1,0,25.5,25.754,25.754,0,0,1,26,0Z" transform="translate(-495 688)" fill="#ff5801"/>
    </g>
    <g id="streamline-icon-meeting-headphones_140x140" data-name="streamline-icon-meeting-headphones@140x140" transform="translate(1448.542 1486.244)" opacity="0.9">
      <path id="Path_8843" data-name="Path 8843" d="M3.077,54.234a.385.385,0,0,0-.634-.292,6.908,6.908,0,0,0,0,10.542.385.385,0,0,0,.634-.294Z" transform="translate(-0.001 -39.75)" fill="#fff"/>
      <path id="Path_8844" data-name="Path 8844" d="M131.414,59.216a6.905,6.905,0,0,0-2.441-5.269.385.385,0,0,0-.634.292v9.952a.385.385,0,0,0,.634.294A6.908,6.908,0,0,0,131.414,59.216Z" transform="translate(-94.497 -39.754)" fill="#fff"/>
      <path id="Path_8845" data-name="Path 8845" d="M45.188,13.623a.385.385,0,0,0-.272-.368,6.676,6.676,0,0,0-.963-.218.381.381,0,0,1-.325-.372,12.285,12.285,0,1,0-24.569,0,.386.386,0,0,1-.324.372,6.693,6.693,0,0,0-.964.217.385.385,0,0,0-.271.368v12.44a.385.385,0,0,0,.268.368,6.682,6.682,0,0,0,2.04.334h3.846a.769.769,0,0,0,.769-.769V13.688a.769.769,0,0,0-.769-.769H22.528a.391.391,0,0,1-.278-.118.386.386,0,0,1-.106-.283,9.209,9.209,0,0,1,18.4,0,.385.385,0,0,1-.383.4H39.035a.769.769,0,0,0-.769.769V25.994a.769.769,0,0,0,.769.769h1.154a.385.385,0,0,1,.385.385V29.17c0,2.267-1.986,3.076-3.846,3.076H34.205a.389.389,0,0,1-.32-.171,3.076,3.076,0,1,0,0,3.416.388.388,0,0,1,.32-.169h2.523c4.075,0,6.922-2.53,6.922-6.153V27.017a.385.385,0,0,1,.325-.38,6.6,6.6,0,0,0,.943-.208.385.385,0,0,0,.271-.369Z" transform="translate(-12.885 -0.379)" fill="#fff"/>
    </g>
  </g>
</svg>
