<svg xmlns="http://www.w3.org/2000/svg" xmlns:xlink="http://www.w3.org/1999/xlink" width="64" height="61.514" viewBox="0 0 64 61.514">
  <defs>
    <linearGradient id="linear-gradient" y1="0.5" x2="1" y2="0.5" gradientUnits="objectBoundingBox">
      <stop offset="0" stop-color="#2cc4ec"/>
      <stop offset="1" stop-color="#8cc63f"/>
    </linearGradient>
  </defs>
  <g id="Group_3673" data-name="Group 3673" transform="translate(1408.079 -1138.469)">
    <g id="Group_3657" data-name="Group 3657" transform="translate(-1370.61 1166.522)">
      <g id="Path_9148" data-name="Path 9148">
        <path id="Path_9165" data-name="Path 9165" d="M-1342.037,1204.48h-19.248a3.646,3.646,0,0,1-3.641-3.64v-15.619a3.647,3.647,0,0,1,3.641-3.635h1.857v-3.071a7.646,7.646,0,0,1,7.629-7.494h.31a7.634,7.634,0,0,1,7.594,7.476v3.089h1.857a3.646,3.646,0,0,1,3.641,3.641v15.611A3.646,3.646,0,0,1-1342.037,1204.48Zm-21.106-19.254v15.615a1.86,1.86,0,0,0,1.857,1.855h19.248a1.86,1.86,0,0,0,1.857-1.857v-15.611a1.86,1.86,0,0,0-1.857-1.856h-19.248A1.861,1.861,0,0,0-1363.143,1185.225Zm5.5-3.639h11.965v-3.062a5.856,5.856,0,0,0-5.845-5.72h-.241a5.864,5.864,0,0,0-5.88,5.729Zm5.984,15.806h0a4.165,4.165,0,0,1-2.965-1.228,4.166,4.166,0,0,1-1.227-2.965,4.168,4.168,0,0,1,1.228-2.964,4.167,4.167,0,0,1,2.964-1.227h0a4.167,4.167,0,0,1,2.967,1.228,4.168,4.168,0,0,1,1.227,2.965,4.17,4.17,0,0,1-1.229,2.964A4.167,4.167,0,0,1-1351.66,1197.392Zm0-6.6a2.394,2.394,0,0,0-1.706.7,2.393,2.393,0,0,0-.706,1.7,2.4,2.4,0,0,0,.7,1.7,2.391,2.391,0,0,0,1.7.706h0a2.39,2.39,0,0,0,1.7-.7,2.392,2.392,0,0,0,.707-1.7,2.4,2.4,0,0,0-.7-1.7,2.393,2.393,0,0,0-1.7-.706Z" transform="translate(1364.927 -1171.021)" fill="#000b2f"/>
      </g>
    </g>
    <g id="Group_3658" data-name="Group 3658" transform="translate(-1408.079 1138.469)">
      <g id="Path_9149" data-name="Path 9149">
        <path id="Path_9166" data-name="Path 9166" d="M-1382.911,1199.983a.9.9,0,0,1-.916-.879.877.877,0,0,1,.874-.877.173.173,0,0,0,.042,0,24.193,24.193,0,0,0,6.523-.9.876.876,0,0,1,1.077.61.879.879,0,0,1-.608,1.082A25.935,25.935,0,0,1-1382.911,1199.983Zm-9.473-1.832a.878.878,0,0,1-.317-.061,24.151,24.151,0,0,1-15.378-22.356v-7.8a.876.876,0,0,1,.874-.878.876.876,0,0,1,.874.878v7.794a22.4,22.4,0,0,0,14.264,20.729.879.879,0,0,1,.5,1.137A.875.875,0,0,1-1392.384,1198.151Zm9.429-5.938a17.556,17.556,0,0,1-8.508-2.211,16.379,16.379,0,0,1-8.532-14.265v-13a16.043,16.043,0,0,1,4.356-10.994.872.872,0,0,1,1.235-.036.881.881,0,0,1,.037,1.242,14.286,14.286,0,0,0-3.88,9.791v12.993a14.622,14.622,0,0,0,7.621,12.73,15.743,15.743,0,0,0,15.335,0,.873.873,0,0,1,1.187.345.881.881,0,0,1-.344,1.193A17.556,17.556,0,0,1-1382.955,1192.213Zm.165-7.814h-.358a8.824,8.824,0,0,1-8.763-8.655.877.877,0,0,1,.857-.9.881.881,0,0,1,.892.859,7.043,7.043,0,0,0,7.192,6.934,7.05,7.05,0,0,0,7.227-6.934v-12.976a7.063,7.063,0,0,0-7.192-6.912h-.145a7.084,7.084,0,0,0-7.083,6.935v7.776a.875.875,0,0,1-.874.878.875.875,0,0,1-.874-.878v-7.794a8.835,8.835,0,0,1,8.8-8.673h.357a8.823,8.823,0,0,1,8.762,8.65v13.013A8.833,8.833,0,0,1-1382.79,1184.4Zm-.163-5.2a.876.876,0,0,1-.874-.878v-2.6a.876.876,0,0,1,.874-.878.876.876,0,0,1,.874.878v2.6A.875.875,0,0,1-1382.953,1179.2Zm0-7.794a.876.876,0,0,1-.874-.878v-7.794a.876.876,0,0,1,.874-.878.876.876,0,0,1,.874.878v7.794A.875.875,0,0,1-1382.953,1171.407Zm16.168-4.087a.876.876,0,0,1-.874-.878v-3.7a14.669,14.669,0,0,0-7.008-12.373,15.832,15.832,0,0,0-14.671-1,.873.873,0,0,1-1.152-.451.88.88,0,0,1,.449-1.156,17.567,17.567,0,0,1,16.281,1.109,16.438,16.438,0,0,1,7.849,13.868v3.709A.876.876,0,0,1-1366.785,1167.32Zm8.084-3.707a.876.876,0,0,1-.874-.876,21.862,21.862,0,0,0-5.94-14.987.881.881,0,0,1,.036-1.242.873.873,0,0,1,1.236.036,23.617,23.617,0,0,1,6.417,16.189.876.876,0,0,1-.872.879Zm-48.464-1.3c-.019,0-.039,0-.059,0a.877.877,0,0,1-.815-.933,24.314,24.314,0,0,1,13.154-19.994,25.866,25.866,0,0,1,24.479.331.881.881,0,0,1,.344,1.193.872.872,0,0,1-1.187.345,24.132,24.132,0,0,0-22.839-.306,22.552,22.552,0,0,0-12.205,18.546A.876.876,0,0,1-1407.165,1162.314Z" transform="translate(1408.079 -1138.469)" fill="url(#linear-gradient)"/>
      </g>
    </g>
  </g>
</svg>
