<svg xmlns="http://www.w3.org/2000/svg" xmlns:xlink="http://www.w3.org/1999/xlink" width="42" height="32" viewBox="0 0 42 32">
  <defs>
    <clipPath id="clip-path">
      <path id="Path_10464" data-name="Path 10464" d="M-1792.522,184.522h-2.573l-2.573,10.549-2.573-10.549h-2.573l5.146-6.6Z" transform="translate(1802.813 -177.918)" fill="none"/>
    </clipPath>
    <clipPath id="clip-Streamline_Icon">
      <rect width="42" height="32"/>
    </clipPath>
  </defs>
  <g id="Streamline_Icon" data-name="Streamline Icon" clip-path="url(#clip-Streamline_Icon)">
    <rect width="42" height="32" fill="rgba(255,255,255,0)"/>
    <g id="Group_4768" data-name="Group 4768" transform="translate(215.395 1836.282) rotate(90)">
      <g id="Group_4757" data-name="Group 4757" transform="translate(-1826.64 173.851)">
        <g id="Group_4756" data-name="Group 4756" transform="translate(1.683 1.338)">
          <g id="Group_4755" data-name="Group 4755" clip-path="url(#clip-path)">
            <path id="Path_10462" data-name="Path 10462" d="M-1802.813,177.918v0Z" transform="translate(1802.813 -177.918)" fill="#44cef0"/>
            <rect id="Rectangle_20996" data-name="Rectangle 20996" width="0.069" height="17.153" fill="#44cef0"/>
            <rect id="Rectangle_20997" data-name="Rectangle 20997" width="0.069" height="17.153" transform="translate(0.069)" fill="#45ceef"/>
            <rect id="Rectangle_20998" data-name="Rectangle 20998" width="0.069" height="17.153" transform="translate(0.137)" fill="#45ceee"/>
            <rect id="Rectangle_20999" data-name="Rectangle 20999" width="0.069" height="17.153" transform="translate(0.206)" fill="#46ceed"/>
            <rect id="Rectangle_21000" data-name="Rectangle 21000" width="0.069" height="17.153" transform="translate(0.274)" fill="#46ceec"/>
            <rect id="Rectangle_21001" data-name="Rectangle 21001" width="0.069" height="17.153" transform="translate(0.343)" fill="#47ceeb"/>
            <rect id="Rectangle_21002" data-name="Rectangle 21002" width="0.069" height="17.153" transform="translate(0.412)" fill="#47ceea"/>
            <rect id="Rectangle_21003" data-name="Rectangle 21003" width="0.069" height="17.153" transform="translate(0.48)" fill="#48cee9"/>
            <rect id="Rectangle_21004" data-name="Rectangle 21004" width="0.069" height="17.153" transform="translate(0.549)" fill="#48cde7"/>
            <rect id="Rectangle_21005" data-name="Rectangle 21005" width="0.069" height="17.153" transform="translate(0.618)" fill="#49cde6"/>
            <rect id="Rectangle_21006" data-name="Rectangle 21006" width="0.069" height="17.153" transform="translate(0.686)" fill="#49cde5"/>
            <rect id="Rectangle_21007" data-name="Rectangle 21007" width="0.069" height="17.153" transform="translate(0.755)" fill="#4acde4"/>
            <rect id="Rectangle_21008" data-name="Rectangle 21008" width="0.069" height="17.153" transform="translate(0.823)" fill="#4acde3"/>
            <rect id="Rectangle_21009" data-name="Rectangle 21009" width="0.069" height="17.153" transform="translate(0.892)" fill="#4bcde2"/>
            <rect id="Rectangle_21010" data-name="Rectangle 21010" width="0.069" height="17.153" transform="translate(0.961)" fill="#4bcde1"/>
            <rect id="Rectangle_21011" data-name="Rectangle 21011" width="0.057" height="17.153" transform="translate(1.029)" fill="#4bcde1"/>
            <rect id="Rectangle_21012" data-name="Rectangle 21012" width="0.057" height="17.153" transform="translate(1.086)" fill="#4bcde0"/>
            <rect id="Rectangle_21013" data-name="Rectangle 21013" width="0.057" height="17.153" transform="translate(1.144)" fill="#4ccddf"/>
            <rect id="Rectangle_21014" data-name="Rectangle 21014" width="0.057" height="17.153" transform="translate(1.201)" fill="#4ccdde"/>
            <rect id="Rectangle_21015" data-name="Rectangle 21015" width="0.057" height="17.153" transform="translate(1.258)" fill="#4dcddd"/>
            <rect id="Rectangle_21016" data-name="Rectangle 21016" width="0.057" height="17.153" transform="translate(1.315)" fill="#4dcddc"/>
            <rect id="Rectangle_21017" data-name="Rectangle 21017" width="0.057" height="17.153" transform="translate(1.372)" fill="#4dcddb"/>
            <rect id="Rectangle_21018" data-name="Rectangle 21018" width="0.057" height="17.153" transform="translate(1.429)" fill="#4ecdda"/>
            <rect id="Rectangle_21019" data-name="Rectangle 21019" width="0.057" height="17.153" transform="translate(1.487)" fill="#4ecdd9"/>
            <rect id="Rectangle_21020" data-name="Rectangle 21020" width="0.057" height="17.153" transform="translate(1.544)" fill="#4fccd7"/>
            <rect id="Rectangle_21021" data-name="Rectangle 21021" width="0.057" height="17.153" transform="translate(1.601)" fill="#4fccd6"/>
            <rect id="Rectangle_21022" data-name="Rectangle 21022" width="0.057" height="17.153" transform="translate(1.658)" fill="#50ccd5"/>
            <rect id="Rectangle_21023" data-name="Rectangle 21023" width="0.057" height="17.153" transform="translate(1.715)" fill="#50ccd4"/>
            <rect id="Rectangle_21024" data-name="Rectangle 21024" width="0.057" height="17.153" transform="translate(1.772)" fill="#50ccd3"/>
            <rect id="Rectangle_21025" data-name="Rectangle 21025" width="0.057" height="17.153" transform="translate(1.83)" fill="#51ccd2"/>
            <rect id="Rectangle_21026" data-name="Rectangle 21026" width="0.057" height="17.153" transform="translate(1.887)" fill="#51ccd1"/>
            <rect id="Rectangle_21027" data-name="Rectangle 21027" width="0.057" height="17.153" transform="translate(1.944)" fill="#52ccd0"/>
            <rect id="Rectangle_21028" data-name="Rectangle 21028" width="0.057" height="17.153" transform="translate(2.001)" fill="#52cccf"/>
            <rect id="Rectangle_21029" data-name="Rectangle 21029" width="0.061" height="17.153" transform="translate(2.058)" fill="#52cccf"/>
            <rect id="Rectangle_21030" data-name="Rectangle 21030" width="0.061" height="17.153" transform="translate(2.119)" fill="#52ccce"/>
            <rect id="Rectangle_21031" data-name="Rectangle 21031" width="0.061" height="17.153" transform="translate(2.179)" fill="#53cccd"/>
            <rect id="Rectangle_21032" data-name="Rectangle 21032" width="0.061" height="17.153" transform="translate(2.24)" fill="#53cccc"/>
            <rect id="Rectangle_21033" data-name="Rectangle 21033" width="0.061" height="17.153" transform="translate(2.3)" fill="#54cccb"/>
            <rect id="Rectangle_21034" data-name="Rectangle 21034" width="0.061" height="17.153" transform="translate(2.361)" fill="#54ccca"/>
            <rect id="Rectangle_21035" data-name="Rectangle 21035" width="0.061" height="17.153" transform="translate(2.422)" fill="#55ccc9"/>
            <rect id="Rectangle_21036" data-name="Rectangle 21036" width="0.061" height="17.153" transform="translate(2.482)" fill="#55ccc8"/>
            <rect id="Rectangle_21037" data-name="Rectangle 21037" width="0.061" height="17.153" transform="translate(2.543)" fill="#56ccc7"/>
            <rect id="Rectangle_21038" data-name="Rectangle 21038" width="0.061" height="17.153" transform="translate(2.603)" fill="#56ccc5"/>
            <rect id="Rectangle_21039" data-name="Rectangle 21039" width="0.061" height="17.153" transform="translate(2.664)" fill="#56ccc4"/>
            <rect id="Rectangle_21040" data-name="Rectangle 21040" width="0.061" height="17.153" transform="translate(2.724)" fill="#57ccc3"/>
            <rect id="Rectangle_21041" data-name="Rectangle 21041" width="0.061" height="17.153" transform="translate(2.785)" fill="#57ccc2"/>
            <rect id="Rectangle_21042" data-name="Rectangle 21042" width="0.061" height="17.153" transform="translate(2.845)" fill="#58ccc1"/>
            <rect id="Rectangle_21043" data-name="Rectangle 21043" width="0.061" height="17.153" transform="translate(2.906)" fill="#58ccc0"/>
            <rect id="Rectangle_21044" data-name="Rectangle 21044" width="0.061" height="17.153" transform="translate(2.966)" fill="#59ccbf"/>
            <rect id="Rectangle_21045" data-name="Rectangle 21045" width="0.061" height="17.153" transform="translate(3.027)" fill="#59ccbe"/>
            <rect id="Rectangle_21046" data-name="Rectangle 21046" width="0.061" height="17.153" transform="translate(3.088)" fill="#59ccbe"/>
            <rect id="Rectangle_21047" data-name="Rectangle 21047" width="0.061" height="17.153" transform="translate(3.148)" fill="#59ccbd"/>
            <rect id="Rectangle_21048" data-name="Rectangle 21048" width="0.061" height="17.153" transform="translate(3.209)" fill="#5accbc"/>
            <rect id="Rectangle_21049" data-name="Rectangle 21049" width="0.061" height="17.153" transform="translate(3.269)" fill="#5accbb"/>
            <rect id="Rectangle_21050" data-name="Rectangle 21050" width="0.061" height="17.153" transform="translate(3.33)" fill="#5bccba"/>
            <rect id="Rectangle_21051" data-name="Rectangle 21051" width="0.061" height="17.153" transform="translate(3.39)" fill="#5bccb9"/>
            <rect id="Rectangle_21052" data-name="Rectangle 21052" width="0.061" height="17.153" transform="translate(3.451)" fill="#5cccb8"/>
            <rect id="Rectangle_21053" data-name="Rectangle 21053" width="0.061" height="17.153" transform="translate(3.511)" fill="#5cccb7"/>
            <rect id="Rectangle_21054" data-name="Rectangle 21054" width="0.061" height="17.153" transform="translate(3.572)" fill="#5dccb6"/>
            <rect id="Rectangle_21055" data-name="Rectangle 21055" width="0.061" height="17.153" transform="translate(3.632)" fill="#5dcbb4"/>
            <rect id="Rectangle_21056" data-name="Rectangle 21056" width="0.061" height="17.153" transform="translate(3.693)" fill="#5dcbb3"/>
            <rect id="Rectangle_21057" data-name="Rectangle 21057" width="0.061" height="17.153" transform="translate(3.753)" fill="#5ecbb2"/>
            <rect id="Rectangle_21058" data-name="Rectangle 21058" width="0.061" height="17.153" transform="translate(3.814)" fill="#5ecbb1"/>
            <rect id="Rectangle_21059" data-name="Rectangle 21059" width="0.061" height="17.153" transform="translate(3.875)" fill="#5fcbb0"/>
            <rect id="Rectangle_21060" data-name="Rectangle 21060" width="0.061" height="17.153" transform="translate(3.935)" fill="#5fcbaf"/>
            <rect id="Rectangle_21061" data-name="Rectangle 21061" width="0.061" height="17.153" transform="translate(3.996)" fill="#60cbae"/>
            <rect id="Rectangle_21062" data-name="Rectangle 21062" width="0.061" height="17.153" transform="translate(4.056)" fill="#60cbad"/>
            <rect id="Rectangle_21063" data-name="Rectangle 21063" width="0.057" height="17.153" transform="translate(4.117)" fill="#60cbad"/>
            <rect id="Rectangle_21064" data-name="Rectangle 21064" width="0.057" height="17.153" transform="translate(4.174)" fill="#60cbac"/>
            <rect id="Rectangle_21065" data-name="Rectangle 21065" width="0.057" height="17.153" transform="translate(4.231)" fill="#61cbab"/>
            <rect id="Rectangle_21066" data-name="Rectangle 21066" width="0.057" height="17.153" transform="translate(4.288)" fill="#61cbaa"/>
            <rect id="Rectangle_21067" data-name="Rectangle 21067" width="0.057" height="17.153" transform="translate(4.345)" fill="#62cba9"/>
            <rect id="Rectangle_21068" data-name="Rectangle 21068" width="0.057" height="17.153" transform="translate(4.403)" fill="#62cba8"/>
            <rect id="Rectangle_21069" data-name="Rectangle 21069" width="0.057" height="17.153" transform="translate(4.46)" fill="#62cba7"/>
            <rect id="Rectangle_21070" data-name="Rectangle 21070" width="0.057" height="17.153" transform="translate(4.517)" fill="#63cba6"/>
            <rect id="Rectangle_21071" data-name="Rectangle 21071" width="0.057" height="17.153" transform="translate(4.574)" fill="#63cba5"/>
            <rect id="Rectangle_21072" data-name="Rectangle 21072" width="0.057" height="17.153" transform="translate(4.631)" fill="#64caa3"/>
            <rect id="Rectangle_21073" data-name="Rectangle 21073" width="0.057" height="17.153" transform="translate(4.688)" fill="#64caa2"/>
            <rect id="Rectangle_21074" data-name="Rectangle 21074" width="0.057" height="17.153" transform="translate(4.746)" fill="#65caa1"/>
            <rect id="Rectangle_21075" data-name="Rectangle 21075" width="0.057" height="17.153" transform="translate(4.803)" fill="#65caa0"/>
            <rect id="Rectangle_21076" data-name="Rectangle 21076" width="0.057" height="17.153" transform="translate(4.86)" fill="#65ca9f"/>
            <rect id="Rectangle_21077" data-name="Rectangle 21077" width="0.057" height="17.153" transform="translate(4.917)" fill="#66ca9e"/>
            <rect id="Rectangle_21078" data-name="Rectangle 21078" width="0.057" height="17.153" transform="translate(4.974)" fill="#66ca9d"/>
            <rect id="Rectangle_21079" data-name="Rectangle 21079" width="0.057" height="17.153" transform="translate(5.031)" fill="#67ca9c"/>
            <rect id="Rectangle_21080" data-name="Rectangle 21080" width="0.057" height="17.153" transform="translate(5.089)" fill="#67ca9b"/>
            <rect id="Rectangle_21081" data-name="Rectangle 21081" width="0.057" height="17.153" transform="translate(5.146)" fill="#67ca9b"/>
            <rect id="Rectangle_21082" data-name="Rectangle 21082" width="0.057" height="17.153" transform="translate(5.203)" fill="#67ca9a"/>
            <rect id="Rectangle_21083" data-name="Rectangle 21083" width="0.057" height="17.153" transform="translate(5.26)" fill="#68ca99"/>
            <rect id="Rectangle_21084" data-name="Rectangle 21084" width="0.057" height="17.153" transform="translate(5.317)" fill="#68ca98"/>
            <rect id="Rectangle_21085" data-name="Rectangle 21085" width="0.057" height="17.153" transform="translate(5.375)" fill="#69ca97"/>
            <rect id="Rectangle_21086" data-name="Rectangle 21086" width="0.057" height="17.153" transform="translate(5.432)" fill="#69ca96"/>
            <rect id="Rectangle_21087" data-name="Rectangle 21087" width="0.057" height="17.153" transform="translate(5.489)" fill="#69ca95"/>
            <rect id="Rectangle_21088" data-name="Rectangle 21088" width="0.057" height="17.153" transform="translate(5.546)" fill="#6aca94"/>
            <rect id="Rectangle_21089" data-name="Rectangle 21089" width="0.057" height="17.153" transform="translate(5.603)" fill="#6aca93"/>
            <rect id="Rectangle_21090" data-name="Rectangle 21090" width="0.057" height="17.153" transform="translate(5.66)" fill="#6bca91"/>
            <rect id="Rectangle_21091" data-name="Rectangle 21091" width="0.057" height="17.153" transform="translate(5.718)" fill="#6bca90"/>
            <rect id="Rectangle_21092" data-name="Rectangle 21092" width="0.057" height="17.153" transform="translate(5.775)" fill="#6cca8f"/>
            <rect id="Rectangle_21093" data-name="Rectangle 21093" width="0.057" height="17.153" transform="translate(5.832)" fill="#6cca8e"/>
            <rect id="Rectangle_21094" data-name="Rectangle 21094" width="0.057" height="17.153" transform="translate(5.889)" fill="#6cca8d"/>
            <rect id="Rectangle_21095" data-name="Rectangle 21095" width="0.057" height="17.153" transform="translate(5.946)" fill="#6dca8c"/>
            <rect id="Rectangle_21096" data-name="Rectangle 21096" width="0.057" height="17.153" transform="translate(6.003)" fill="#6dca8b"/>
            <rect id="Rectangle_21097" data-name="Rectangle 21097" width="0.057" height="17.153" transform="translate(6.061)" fill="#6eca8a"/>
            <rect id="Rectangle_21098" data-name="Rectangle 21098" width="0.057" height="17.153" transform="translate(6.118)" fill="#6eca89"/>
            <rect id="Rectangle_21099" data-name="Rectangle 21099" width="0.057" height="17.153" transform="translate(6.175)" fill="#6eca89"/>
            <rect id="Rectangle_21100" data-name="Rectangle 21100" width="0.057" height="17.153" transform="translate(6.232)" fill="#6eca88"/>
            <rect id="Rectangle_21101" data-name="Rectangle 21101" width="0.057" height="17.153" transform="translate(6.289)" fill="#6fca87"/>
            <rect id="Rectangle_21102" data-name="Rectangle 21102" width="0.057" height="17.153" transform="translate(6.347)" fill="#6fca86"/>
            <rect id="Rectangle_21103" data-name="Rectangle 21103" width="0.057" height="17.153" transform="translate(6.404)" fill="#70ca85"/>
            <rect id="Rectangle_21104" data-name="Rectangle 21104" width="0.057" height="17.153" transform="translate(6.461)" fill="#70ca84"/>
            <rect id="Rectangle_21105" data-name="Rectangle 21105" width="0.057" height="17.153" transform="translate(6.518)" fill="#70ca83"/>
            <rect id="Rectangle_21106" data-name="Rectangle 21106" width="0.057" height="17.153" transform="translate(6.575)" fill="#71ca82"/>
            <rect id="Rectangle_21107" data-name="Rectangle 21107" width="0.057" height="17.153" transform="translate(6.632)" fill="#71ca81"/>
            <rect id="Rectangle_21108" data-name="Rectangle 21108" width="0.057" height="17.153" transform="translate(6.69)" fill="#72c97f"/>
            <rect id="Rectangle_21109" data-name="Rectangle 21109" width="0.057" height="17.153" transform="translate(6.747)" fill="#72c97e"/>
            <rect id="Rectangle_21110" data-name="Rectangle 21110" width="0.057" height="17.153" transform="translate(6.804)" fill="#73c97d"/>
            <rect id="Rectangle_21111" data-name="Rectangle 21111" width="0.057" height="17.153" transform="translate(6.861)" fill="#73c97c"/>
            <rect id="Rectangle_21112" data-name="Rectangle 21112" width="0.057" height="17.153" transform="translate(6.918)" fill="#73c97b"/>
            <rect id="Rectangle_21113" data-name="Rectangle 21113" width="0.057" height="17.153" transform="translate(6.975)" fill="#74c97a"/>
            <rect id="Rectangle_21114" data-name="Rectangle 21114" width="0.057" height="17.153" transform="translate(7.033)" fill="#74c979"/>
            <rect id="Rectangle_21115" data-name="Rectangle 21115" width="0.057" height="17.153" transform="translate(7.09)" fill="#75c978"/>
            <rect id="Rectangle_21116" data-name="Rectangle 21116" width="0.057" height="17.153" transform="translate(7.147)" fill="#75c977"/>
            <rect id="Rectangle_21117" data-name="Rectangle 21117" width="0.057" height="17.153" transform="translate(7.204)" fill="#75c977"/>
            <rect id="Rectangle_21118" data-name="Rectangle 21118" width="0.057" height="17.153" transform="translate(7.261)" fill="#75c976"/>
            <rect id="Rectangle_21119" data-name="Rectangle 21119" width="0.057" height="17.153" transform="translate(7.319)" fill="#76c975"/>
            <rect id="Rectangle_21120" data-name="Rectangle 21120" width="0.057" height="17.153" transform="translate(7.376)" fill="#76c974"/>
            <rect id="Rectangle_21121" data-name="Rectangle 21121" width="0.057" height="17.153" transform="translate(7.433)" fill="#77c973"/>
            <rect id="Rectangle_21122" data-name="Rectangle 21122" width="0.057" height="17.153" transform="translate(7.49)" fill="#77c972"/>
            <rect id="Rectangle_21123" data-name="Rectangle 21123" width="0.057" height="17.153" transform="translate(7.547)" fill="#77c971"/>
            <rect id="Rectangle_21124" data-name="Rectangle 21124" width="0.057" height="17.153" transform="translate(7.604)" fill="#78c970"/>
            <rect id="Rectangle_21125" data-name="Rectangle 21125" width="0.057" height="17.153" transform="translate(7.662)" fill="#78c96f"/>
            <rect id="Rectangle_21126" data-name="Rectangle 21126" width="0.057" height="17.153" transform="translate(7.719)" fill="#79c96d"/>
            <rect id="Rectangle_21127" data-name="Rectangle 21127" width="0.057" height="17.153" transform="translate(7.776)" fill="#79c96c"/>
            <rect id="Rectangle_21128" data-name="Rectangle 21128" width="0.057" height="17.153" transform="translate(7.833)" fill="#7ac96b"/>
            <rect id="Rectangle_21129" data-name="Rectangle 21129" width="0.057" height="17.153" transform="translate(7.89)" fill="#7ac96a"/>
            <rect id="Rectangle_21130" data-name="Rectangle 21130" width="0.057" height="17.153" transform="translate(7.947)" fill="#7ac969"/>
            <rect id="Rectangle_21131" data-name="Rectangle 21131" width="0.057" height="17.153" transform="translate(8.005)" fill="#7bc968"/>
            <rect id="Rectangle_21132" data-name="Rectangle 21132" width="0.057" height="17.153" transform="translate(8.062)" fill="#7bc967"/>
            <rect id="Rectangle_21133" data-name="Rectangle 21133" width="0.057" height="17.153" transform="translate(8.119)" fill="#7cc966"/>
            <rect id="Rectangle_21134" data-name="Rectangle 21134" width="0.057" height="17.153" transform="translate(8.176)" fill="#7cc965"/>
            <rect id="Rectangle_21135" data-name="Rectangle 21135" width="0.057" height="17.153" transform="translate(8.233)" fill="#7cc965"/>
            <rect id="Rectangle_21136" data-name="Rectangle 21136" width="0.057" height="17.153" transform="translate(8.291)" fill="#7cc964"/>
            <rect id="Rectangle_21137" data-name="Rectangle 21137" width="0.057" height="17.153" transform="translate(8.348)" fill="#7dc963"/>
            <rect id="Rectangle_21138" data-name="Rectangle 21138" width="0.057" height="17.153" transform="translate(8.405)" fill="#7dc962"/>
            <rect id="Rectangle_21139" data-name="Rectangle 21139" width="0.057" height="17.153" transform="translate(8.462)" fill="#7dc961"/>
            <rect id="Rectangle_21140" data-name="Rectangle 21140" width="0.057" height="17.153" transform="translate(8.519)" fill="#7ec960"/>
            <rect id="Rectangle_21141" data-name="Rectangle 21141" width="0.057" height="17.153" transform="translate(8.576)" fill="#7ec95f"/>
            <rect id="Rectangle_21142" data-name="Rectangle 21142" width="0.057" height="17.153" transform="translate(8.634)" fill="#7ec95e"/>
            <rect id="Rectangle_21143" data-name="Rectangle 21143" width="0.057" height="17.153" transform="translate(8.691)" fill="#7fc95d"/>
            <rect id="Rectangle_21144" data-name="Rectangle 21144" width="0.057" height="17.153" transform="translate(8.748)" fill="#7fc85b"/>
            <rect id="Rectangle_21145" data-name="Rectangle 21145" width="0.057" height="17.153" transform="translate(8.805)" fill="#80c85a"/>
            <rect id="Rectangle_21146" data-name="Rectangle 21146" width="0.057" height="17.153" transform="translate(8.862)" fill="#80c859"/>
            <rect id="Rectangle_21147" data-name="Rectangle 21147" width="0.057" height="17.153" transform="translate(8.919)" fill="#80c858"/>
            <rect id="Rectangle_21148" data-name="Rectangle 21148" width="0.057" height="17.153" transform="translate(8.977)" fill="#81c857"/>
            <rect id="Rectangle_21149" data-name="Rectangle 21149" width="0.057" height="17.153" transform="translate(9.034)" fill="#81c856"/>
            <rect id="Rectangle_21150" data-name="Rectangle 21150" width="0.057" height="17.153" transform="translate(9.091)" fill="#81c855"/>
            <rect id="Rectangle_21151" data-name="Rectangle 21151" width="0.057" height="17.153" transform="translate(9.148)" fill="#82c854"/>
            <rect id="Rectangle_21152" data-name="Rectangle 21152" width="0.057" height="17.153" transform="translate(9.205)" fill="#82c853"/>
            <rect id="Rectangle_21153" data-name="Rectangle 21153" width="0.079" height="17.153" transform="translate(9.263)" fill="#82c853"/>
            <rect id="Rectangle_21154" data-name="Rectangle 21154" width="0.079" height="17.153" transform="translate(9.342)" fill="#82c852"/>
            <rect id="Rectangle_21155" data-name="Rectangle 21155" width="0.079" height="17.153" transform="translate(9.421)" fill="#83c851"/>
            <rect id="Rectangle_21156" data-name="Rectangle 21156" width="0.079" height="17.153" transform="translate(9.5)" fill="#83c850"/>
            <rect id="Rectangle_21157" data-name="Rectangle 21157" width="0.079" height="17.153" transform="translate(9.579)" fill="#84c84f"/>
            <rect id="Rectangle_21158" data-name="Rectangle 21158" width="0.079" height="17.153" transform="translate(9.658)" fill="#84c84e"/>
            <rect id="Rectangle_21159" data-name="Rectangle 21159" width="0.079" height="17.153" transform="translate(9.738)" fill="#85c84d"/>
            <rect id="Rectangle_21160" data-name="Rectangle 21160" width="0.079" height="17.153" transform="translate(9.817)" fill="#85c84b"/>
            <rect id="Rectangle_21161" data-name="Rectangle 21161" width="0.079" height="17.153" transform="translate(9.896)" fill="#85c84a"/>
            <rect id="Rectangle_21162" data-name="Rectangle 21162" width="0.079" height="17.153" transform="translate(9.975)" fill="#86c849"/>
            <rect id="Rectangle_21163" data-name="Rectangle 21163" width="0.079" height="17.153" transform="translate(10.054)" fill="#86c848"/>
            <rect id="Rectangle_21164" data-name="Rectangle 21164" width="0.079" height="17.153" transform="translate(10.133)" fill="#87c847"/>
            <rect id="Rectangle_21165" data-name="Rectangle 21165" width="0.079" height="17.153" transform="translate(10.213)" fill="#87c846"/>
            <path id="Path_10463" data-name="Path 10463" d="M-1771.525,195.071v0Z" transform="translate(1781.817 -177.918)" fill="#87c846"/>
          </g>
        </g>
        <path id="Path_10465" data-name="Path 10465" d="M-1801.1,195.812l-3.219-13.2h-3.61l6.829-8.764,6.829,8.764h-3.61Zm-3.463-14.842h1.536l1.927,7.9,1.927-7.9h1.536l-3.463-4.444Z" transform="translate(1807.93 -173.851)" fill="#000c30"/>
      </g>
      <g id="Group_4758" data-name="Group 4758" transform="translate(-1829.306 209.058)">
        <path id="Path_10466" data-name="Path 10466" d="M-1813.045,286.867a2.994,2.994,0,0,1-2.991-2.99,2.994,2.994,0,0,1,2.991-2.991,2.994,2.994,0,0,1,2.991,2.991A2.994,2.994,0,0,1-1813.045,286.867Zm0-4.336a1.347,1.347,0,0,0-1.346,1.346,1.348,1.348,0,0,0,1.346,1.346,1.348,1.348,0,0,0,1.346-1.346A1.347,1.347,0,0,0-1813.045,282.531Z" transform="translate(1816.036 -280.886)" fill="#000c30"/>
      </g>
      <g id="Group_4759" data-name="Group 4759" transform="translate(-1827.138 191.519)">
        <path id="Path_10467" data-name="Path 10467" d="M-1808.622,246.749a.822.822,0,0,1-.822-.822V235.085a.824.824,0,0,1,.232-.573l6.5-6.7a.823.823,0,0,1,1.163-.017.822.822,0,0,1,.017,1.163l-6.272,6.458v10.508A.822.822,0,0,1-1808.622,246.749Z" transform="translate(1809.444 -227.565)" fill="#000c30"/>
      </g>
      <g id="Group_4760" data-name="Group 4760" transform="translate(-1820.634 191.519)">
        <path id="Path_10468" data-name="Path 10468" d="M-1788.848,240.244a.822.822,0,0,1-.822-.822V228.387a.822.822,0,0,1,.822-.822.822.822,0,0,1,.822.822v11.034A.822.822,0,0,1-1788.848,240.244Z" transform="translate(1789.67 -227.565)" fill="#000c30"/>
      </g>
      <g id="Group_4761" data-name="Group 4761" transform="translate(-1822.802 202.553)">
        <path id="Path_10469" data-name="Path 10469" d="M-1793.271,267.091a2.994,2.994,0,0,1-2.99-2.991,2.994,2.994,0,0,1,2.99-2.991,2.994,2.994,0,0,1,2.991,2.991A2.994,2.994,0,0,1-1793.271,267.091Zm0-4.337a1.347,1.347,0,0,0-1.346,1.346,1.347,1.347,0,0,0,1.346,1.346,1.348,1.348,0,0,0,1.346-1.346A1.348,1.348,0,0,0-1793.271,262.755Z" transform="translate(1796.261 -261.11)" fill="#000c30"/>
      </g>
      <g id="Group_4762" data-name="Group 4762" transform="translate(-1835.811 202.553)">
        <path id="Path_10470" data-name="Path 10470" d="M-1832.821,267.091a2.994,2.994,0,0,1-2.99-2.991,2.994,2.994,0,0,1,2.99-2.991,2.994,2.994,0,0,1,2.991,2.991A2.994,2.994,0,0,1-1832.821,267.091Zm0-4.337a1.348,1.348,0,0,0-1.346,1.346,1.348,1.348,0,0,0,1.346,1.346,1.348,1.348,0,0,0,1.346-1.346A1.348,1.348,0,0,0-1832.821,262.755Z" transform="translate(1835.811 -261.11)" fill="#000c30"/>
      </g>
      <g id="Group_4763" data-name="Group 4763" transform="translate(-1833.643 191.519)">
        <path id="Path_10471" data-name="Path 10471" d="M-1828.4,240.244a.822.822,0,0,1-.822-.822v-4.336a.822.822,0,0,1,.446-.731l13.009-6.7a.823.823,0,0,1,1.108.355.823.823,0,0,1-.355,1.108l-12.564,6.468v3.835A.822.822,0,0,1-1828.4,240.244Z" transform="translate(1829.22 -227.565)" fill="#000c30"/>
      </g>
      <g id="Group_4764" data-name="Group 4764" transform="translate(-1816.297 209.058)">
        <path id="Path_10472" data-name="Path 10472" d="M-1773.5,286.867a2.994,2.994,0,0,1-2.991-2.99,2.994,2.994,0,0,1,2.991-2.991,2.994,2.994,0,0,1,2.99,2.991A2.994,2.994,0,0,1-1773.5,286.867Zm0-4.336a1.347,1.347,0,0,0-1.346,1.346,1.348,1.348,0,0,0,1.346,1.346,1.347,1.347,0,0,0,1.346-1.346A1.347,1.347,0,0,0-1773.5,282.531Z" transform="translate(1776.486 -280.886)" fill="#000c30"/>
      </g>
      <g id="Group_4765" data-name="Group 4765" transform="translate(-1820.634 191.519)">
        <path id="Path_10473" data-name="Path 10473" d="M-1782.343,246.749a.822.822,0,0,1-.822-.822V235.419l-6.272-6.458a.823.823,0,0,1,.017-1.163.823.823,0,0,1,1.163.017l6.5,6.7a.821.821,0,0,1,.233.573v10.841A.822.822,0,0,1-1782.343,246.749Z" transform="translate(1789.67 -227.565)" fill="#000c30"/>
      </g>
      <g id="Group_4766" data-name="Group 4766" transform="translate(-1809.792 202.553)">
        <path id="Path_10474" data-name="Path 10474" d="M-1753.72,267.091a2.994,2.994,0,0,1-2.991-2.991,2.994,2.994,0,0,1,2.991-2.991,2.994,2.994,0,0,1,2.991,2.991A2.994,2.994,0,0,1-1753.72,267.091Zm0-4.337a1.348,1.348,0,0,0-1.346,1.346,1.348,1.348,0,0,0,1.346,1.346,1.348,1.348,0,0,0,1.346-1.346A1.348,1.348,0,0,0-1753.72,262.755Z" transform="translate(1756.711 -261.11)" fill="#000c30"/>
      </g>
      <g id="Group_4767" data-name="Group 4767" transform="translate(-1820.634 191.519)">
        <path id="Path_10475" data-name="Path 10475" d="M-1775.838,240.243a.822.822,0,0,1-.823-.822v-3.835l-12.563-6.468a.822.822,0,0,1-.354-1.108.822.822,0,0,1,1.107-.355l13.01,6.7a.822.822,0,0,1,.446.731v4.336A.822.822,0,0,1-1775.838,240.243Z" transform="translate(1789.67 -227.564)" fill="#000c30"/>
      </g>
    </g>
  </g>
</svg>
