<svg xmlns="http://www.w3.org/2000/svg" xmlns:xlink="http://www.w3.org/1999/xlink" width="64" height="45.191" viewBox="0 0 64 45.191">
  <defs>
    <linearGradient id="linear-gradient" y1="0.5" x2="1" y2="0.5" gradientUnits="objectBoundingBox">
      <stop offset="0" stop-color="#2cc4ec"/>
      <stop offset="1" stop-color="#8cc63f"/>
    </linearGradient>
  </defs>
  <g id="Group_3698" data-name="Group 3698" transform="translate(-1016.125 -3974.6)">
    <g id="Group_3633" data-name="Group 3633" transform="translate(1024.313 3982.765)">
      <g id="Path_9131" data-name="Path 9131" transform="translate(0)">
        <path id="Path_9158" data-name="Path 9158" d="M-1086.488,1051.616a.837.837,0,0,1-.837-.837v-25.834a8.691,8.691,0,0,0-8.681-8.681,8.69,8.69,0,0,0-8.68,8.681v25.834a.837.837,0,0,1-.837.837.837.837,0,0,1-.837-.837v-25.834a10.366,10.366,0,0,1,10.354-10.355,10.366,10.366,0,0,1,10.355,10.355v25.834A.837.837,0,0,1-1086.488,1051.616Zm-5.438-21.755h-8.159a.837.837,0,0,1-.837-.837v-4.079a4.924,4.924,0,0,1,4.916-4.916,4.924,4.924,0,0,1,4.916,4.915h0v4.079A.837.837,0,0,1-1091.926,1029.861Zm-7.322-1.674h6.485v-3.243a3.248,3.248,0,0,0-3.243-3.242,3.248,3.248,0,0,0-3.242,3.242Z" transform="translate(1106.36 -1014.59)" fill="#000b2f"/>
      </g>
    </g>
    <path id="Path_9159" data-name="Path 9159" d="M-1087.657,1028.743a.832.832,0,0,1-.443-.128.839.839,0,0,1-.263-1.154,16.788,16.788,0,0,0-3.249-21.712,16.629,16.629,0,0,0-21.872-.031,16.791,16.791,0,0,0-3.31,21.7.838.838,0,0,1-.266,1.153.831.831,0,0,1-1.148-.267,18.46,18.46,0,0,1,3.639-23.859,18.283,18.283,0,0,1,24.046.034,18.458,18.458,0,0,1,3.573,23.87A.833.833,0,0,1-1087.657,1028.743Zm24.368-6.712a.829.829,0,0,1-.52-.184.839.839,0,0,1-.13-1.176l4.335-5.44h-19.936a.835.835,0,0,1-.834-.837.836.836,0,0,1,.834-.837h19.935l-4.334-5.438a.839.839,0,0,1,.131-1.177.831.831,0,0,1,1.171.131l5.4,6.776a.834.834,0,0,1,.2.538.835.835,0,0,1-.183.531l-5.418,6.8A.83.83,0,0,1-1063.29,1022.032Z" transform="translate(2137.163 2974.645)" fill="url(#linear-gradient)"/>
    <path id="Path_9188" data-name="Path 9188" d="M-1087.657,1028.743a.832.832,0,0,1-.443-.128.839.839,0,0,1-.263-1.154,16.788,16.788,0,0,0-3.249-21.712,16.629,16.629,0,0,0-21.872-.031,16.791,16.791,0,0,0-3.31,21.7.838.838,0,0,1-.266,1.153.831.831,0,0,1-1.148-.267,18.46,18.46,0,0,1,3.639-23.859,18.283,18.283,0,0,1,24.046.034,18.458,18.458,0,0,1,3.573,23.87A.833.833,0,0,1-1087.657,1028.743Zm24.368-6.712a.829.829,0,0,1-.52-.184.839.839,0,0,1-.13-1.176l4.335-5.44h-19.936a.835.835,0,0,1-.834-.837.836.836,0,0,1,.834-.837h19.935l-4.334-5.438a.839.839,0,0,1,.131-1.177.831.831,0,0,1,1.171.131l5.4,6.776a.834.834,0,0,1,.2.538.835.835,0,0,1-.183.531l-5.418,6.8A.83.83,0,0,1-1063.29,1022.032Z" transform="translate(2137.163 2974.645)" fill="url(#linear-gradient)"/>
  </g>
</svg>
