<svg xmlns="http://www.w3.org/2000/svg" xmlns:xlink="http://www.w3.org/1999/xlink" width="56.067" height="64.941" viewBox="0 0 56.067 64.941">
  <defs>
    <linearGradient id="linear-gradient" y1="0.5" x2="1" y2="0.5" gradientUnits="objectBoundingBox">
      <stop offset="0" stop-color="#2cc4ec"/>
      <stop offset="1" stop-color="#8cc63f"/>
    </linearGradient>
  </defs>
  <g id="Group_2876" data-name="Group 2876" transform="translate(1210.422 -1135.438)">
    <g id="Path_8146" data-name="Path 8146" transform="translate(-1210.422 1135.438)">
      <path id="Path_8146-2" data-name="Path 8146" d="M-1179.434,1183.133l-.068,0a1.366,1.366,0,0,1-1.253-1.014,69.524,69.524,0,0,0-6.821-16.635c-1.828,3.273-4.106,5.121-6.787,5.5-4.676.662-8.939-3.428-11.062-5.928-4.872-5.735-6.547-19.511-3.381-27.812a2.82,2.82,0,0,1,1.8-1.686,2.815,2.815,0,0,1,2.444.4c3.155,2.236,6.614,3.275,9.959,4.28,4.286,1.288,8.335,2.5,11.336,6.031h0c3.208,3.77,4.459,7.3,3.722,10.485-.619,2.677-2.636,4.95-6.006,6.777a72.158,72.158,0,0,1,6.384,14.31,45.771,45.771,0,0,1,4.508-7.221c-2.735-2.2-3.343-4.457-3.342-6.033,0-2.577,1.6-5.119,4.385-6.973h0a22.671,22.671,0,0,1,7.319-2.883,24.1,24.1,0,0,0,7.118-2.723,2.816,2.816,0,0,1,.762-.326,2.784,2.784,0,0,1,2.127.292,2.787,2.787,0,0,1,1.3,1.711c1.69,6.255-.173,15.834-3.835,19.7-2.735,2.878-6.07,4.268-8.924,3.722a7.924,7.924,0,0,1-5.27-4.093,43.97,43.97,0,0,0-5.141,9.235A1.369,1.369,0,0,1-1179.434,1183.133Zm8.267-12.443c1.05,2.177,2.372,3.431,3.939,3.732,2.275.437,4.813-1.222,6.427-2.919,2.749-2.9,4.779-11.184,3.177-17.116a.081.081,0,0,0-.092-.062,26.4,26.4,0,0,1-7.889,3.051,20.248,20.248,0,0,0-6.491,2.514c-1.981,1.32-3.164,3.078-3.166,4.7a5.347,5.347,0,0,0,2.354,3.926,26.214,26.214,0,0,1,7.675-6.054,1.367,1.367,0,0,1,1.833.612,1.366,1.366,0,0,1-.612,1.833A23.75,23.75,0,0,0-1171.167,1170.69Zm-35.019-32.519a.062.062,0,0,0-.019,0,.073.073,0,0,0-.048.043c-3.069,8.046-.965,20.51,2.909,25.071,2.993,3.523,6.128,5.343,8.594,4.991,2.116-.3,3.969-2.172,5.507-5.562a69.514,69.514,0,0,0-11.737-14,1.367,1.367,0,0,1-.085-1.931,1.366,1.366,0,0,1,1.931-.084,72.21,72.21,0,0,1,12.163,14.5c2.723-1.446,4.324-3.143,4.767-5.058.662-2.862-1.343-5.983-3.141-8.1h0c-2.478-2.912-5.983-3.966-10.041-5.185-3.39-1.018-7.232-2.173-10.757-4.67A.074.074,0,0,0-1206.186,1138.17Z" transform="translate(1210.422 -1135.438)" fill="url(#linear-gradient)"/>
    </g>
    <g id="Path_8147" data-name="Path 8147" transform="translate(-1192.391 1180.401)">
      <path id="Path_8147-2" data-name="Path 8147" d="M-1166.737,1237.678a7.108,7.108,0,0,1-6.75-4.863l-3.806-11.427a2.825,2.825,0,0,1,.388-2.526,2.824,2.824,0,0,1,2.276-1.161h21.924a2.811,2.811,0,0,1,2.266,1.157,2.824,2.824,0,0,1,.393,2.525l-3.82,11.432h0a7.114,7.114,0,0,1-6.756,4.863h-6.116Zm-7.889-17.245a.079.079,0,0,0-.064.032.08.08,0,0,0-.007.065l3.8,11.421a4.381,4.381,0,0,0,4.161,3h6.11a4.386,4.386,0,0,0,4.167-3l3.818-11.426a.075.075,0,0,0-.014-.064.069.069,0,0,0-.055-.026h-21.918Zm19.465,11.949h0Z" transform="translate(1177.433 -1217.7)" fill="#000b2f"/>
    </g>
  </g>
</svg>
