<?xml version="1.0" encoding="utf-8"?>
<!-- Generator: Adobe Illustrator 23.1.0, SVG Export Plug-In . SVG Version: 6.00 Build 0)  -->
<svg version="1.1" id="Layer_1" xmlns="http://www.w3.org/2000/svg" xmlns:xlink="http://www.w3.org/1999/xlink" x="0px" y="0px"
	 viewBox="0 0 300 26" style="enable-background:new 0 0 300 26;" xml:space="preserve">
<style type="text/css">
	.st0{display:none;fill:#DB1919;}
	.st1{fill:#FFFFFF;}
</style>
<rect class="st0" width="300" height="26"/>
<g>
	<path class="st1" d="M0.3,24.74V0.95h16.17v1.96H2.53v8.55h12.78v1.93H2.53v9.28h14.31v2.06H0.3z"/>
	<path class="st1" d="M18.34,24.74l6.46-9.08l-5.76-8.12h2.4l4.49,6.62h0.07l4.49-6.62h2.33l-5.59,7.95l6.59,9.25h-2.43l-5.36-7.75
		h-0.07l-5.29,7.75H18.34z"/>
	<path class="st1" d="M41.6,25.18c-2.44,0-4.35-0.84-5.74-2.53c-1.39-1.69-2.08-3.85-2.08-6.49c0-2.64,0.7-4.8,2.1-6.49
		c1.4-1.69,3.32-2.53,5.76-2.53c1.91,0,3.47,0.49,4.67,1.48c1.21,0.99,1.96,2.36,2.25,4.11h-2.06c-0.51-2.57-2.13-3.86-4.86-3.86
		c-1.89,0-3.31,0.68-4.28,2.05s-1.45,3.11-1.45,5.24c0,2.13,0.48,3.87,1.45,5.22c0.96,1.35,2.38,2.03,4.24,2.03
		c1.44,0,2.61-0.42,3.49-1.25c0.89-0.83,1.42-1.95,1.6-3.34h1.96c-0.2,1.97-0.92,3.53-2.16,4.66C45.25,24.61,43.62,25.18,41.6,25.18
		z"/>
	<path class="st1" d="M51.11,24.74V0.95h2.06v23.79H51.11z"/>
	<path class="st1" d="M62.26,25.14c-1.69,0-3.05-0.48-4.09-1.45c-1.04-0.96-1.56-2.3-1.56-4.01V7.54h2.06v12.01
		c0,1.26,0.35,2.22,1.06,2.88c0.71,0.65,1.71,0.98,2.99,0.98c1.46,0,2.66-0.49,3.59-1.46c0.93-0.98,1.4-2.2,1.4-3.66V7.54h2.03v17.2
		h-2.03v-2.53h-0.07c-0.69,0.93-1.44,1.65-2.26,2.16C64.57,24.89,63.52,25.14,62.26,25.14z"/>
	<path class="st1" d="M79.23,25.21c-2.22,0-3.93-0.53-5.14-1.6c-1.21-1.07-1.87-2.47-1.98-4.23h2.1c0.29,2.71,1.97,4.06,5.06,4.06
		c1.4,0,2.47-0.3,3.23-0.9c0.75-0.6,1.13-1.41,1.13-2.43c0-0.93-0.32-1.62-0.95-2.06s-1.85-0.87-3.64-1.26
		c-1.04-0.24-1.88-0.47-2.5-0.67c-0.62-0.2-1.26-0.48-1.91-0.85c-0.65-0.37-1.13-0.83-1.43-1.4c-0.3-0.57-0.45-1.25-0.45-2.05
		c0-1.42,0.55-2.55,1.66-3.39c1.11-0.84,2.55-1.26,4.33-1.26c3.81,0,5.94,1.7,6.39,5.09h-2.06c-0.24-2.26-1.69-3.39-4.33-3.39
		c-1.29,0-2.26,0.27-2.93,0.8c-0.67,0.53-1,1.22-1,2.06c0,0.91,0.35,1.56,1.06,1.95c0.71,0.39,2,0.8,3.86,1.25
		c2.04,0.42,3.54,0.98,4.51,1.68c0.96,0.7,1.45,1.86,1.45,3.48c0,1.55-0.58,2.79-1.75,3.73S81.2,25.21,79.23,25.21z"/>
	<path class="st1" d="M88.28,3.88V0.95h2.06v2.93H88.28z M88.28,24.74V7.54h2.06v17.2H88.28z"/>
	<path class="st1" d="M98.39,24.74l-6.09-17.2h2.2l3.69,10.91l1.4,4.36h0.07c0.58-1.8,1.05-3.25,1.43-4.36l3.86-10.91h2.1
		l-6.22,17.2H98.39z"/>
	<path class="st1" d="M115.63,25.18c-2.51,0-4.47-0.84-5.89-2.51c-1.42-1.67-2.13-3.84-2.13-6.5c0-2.62,0.72-4.78,2.16-6.47
		c1.44-1.7,3.34-2.55,5.69-2.55c1.33,0,2.49,0.26,3.48,0.77c0.99,0.51,1.76,1.22,2.31,2.13c0.55,0.91,0.96,1.9,1.21,2.98
		c0.25,1.08,0.38,2.25,0.38,3.51h-13.11c0.04,2.04,0.57,3.7,1.56,4.97c1,1.28,2.44,1.91,4.33,1.91c2.62,0,4.29-1.29,5.02-3.86h2
		c-0.38,1.73-1.17,3.1-2.38,4.11C119.06,24.67,117.52,25.18,115.63,25.18z M109.77,14.89h10.91c-0.04-1.8-0.5-3.26-1.38-4.38
		c-0.88-1.12-2.16-1.68-3.84-1.68c-1.66,0-2.98,0.55-3.94,1.66C110.56,11.61,109.97,13.08,109.77,14.89z"/>
	<path class="st1" d="M137.46,24.74l-8.52-23.79h2.33l6.16,17.57l1.26,3.93h0.07c0.51-1.71,0.94-3.05,1.3-4.03l6.19-17.47h2.26
		l-8.62,23.79H137.46z"/>
	<path class="st1" d="M150.57,3.88V0.95h2.06v2.93H150.57z M150.57,24.74V7.54h2.06v17.2H150.57z"/>
	<path class="st1" d="M156.13,24.74V7.54h2.06v3.19h0.07c1.18-2.22,2.93-3.33,5.26-3.33c0.2,0,0.39,0.02,0.57,0.07V9.5
		c-1.35-0.22-2.57,0.06-3.66,0.83c-1.49,1.11-2.23,2.65-2.23,4.63v9.78H156.13z"/>
	<path class="st1" d="M171.26,24.88c-2.2,0-3.29-1.03-3.29-3.09V9.24h-2.6v-1.7h2.6V2.25h2.06v5.29h3.19v1.7h-3.19v12.21
		c0,0.6,0.13,1.02,0.4,1.26c0.27,0.24,0.69,0.37,1.26,0.37c0.51,0,0.96-0.09,1.36-0.27h0.1v1.76
		C172.61,24.78,171.97,24.88,171.26,24.88z"/>
	<path class="st1" d="M181.45,25.14c-1.69,0-3.05-0.48-4.09-1.45c-1.04-0.96-1.56-2.3-1.56-4.01V7.54h2.06v12.01
		c0,1.26,0.35,2.22,1.06,2.88s1.71,0.98,3,0.98c1.46,0,2.66-0.49,3.59-1.46c0.93-0.98,1.4-2.2,1.4-3.66V7.54h2.03v17.2h-2.03v-2.53
		h-0.07c-0.69,0.93-1.44,1.65-2.26,2.16C183.75,24.89,182.71,25.14,181.45,25.14z"/>
	<path class="st1" d="M197.05,25.14c-1.66,0-3.02-0.41-4.06-1.23c-1.04-0.82-1.56-2.01-1.56-3.56c0-0.98,0.17-1.8,0.52-2.48
		c0.34-0.68,0.88-1.2,1.6-1.58s1.45-0.66,2.2-0.85s1.67-0.35,2.78-0.48c1.86-0.22,3.1-0.46,3.71-0.72c0.61-0.25,0.92-0.79,0.92-1.61
		V12.3c0-2.31-1.38-3.46-4.13-3.46c-3.06,0-4.67,1.28-4.82,3.83h-2.03c0.11-1.71,0.74-3.05,1.9-4.03s2.81-1.46,4.96-1.46
		c4.06,0,6.09,1.77,6.09,5.32v9.35c0,0.95,0.38,1.45,1.13,1.5c0.11,0,0.37-0.04,0.77-0.13h0.1v1.5c-0.4,0.18-0.87,0.27-1.4,0.27
		c-1.6,0-2.44-0.81-2.53-2.43v-0.37h-0.1C201.68,24.16,199.67,25.14,197.05,25.14z M197.42,23.48c1.77,0,3.18-0.5,4.21-1.51
		c1.03-1.01,1.55-2.16,1.55-3.44v-3.09c-0.84,0.47-2.33,0.84-4.46,1.13c-0.71,0.09-1.27,0.18-1.68,0.27
		c-0.41,0.09-0.87,0.22-1.36,0.4s-0.88,0.39-1.13,0.63c-0.25,0.24-0.48,0.58-0.67,1c-0.19,0.42-0.28,0.92-0.28,1.5
		C193.59,22.44,194.87,23.48,197.42,23.48z"/>
	<path class="st1" d="M209.1,24.74V0.95h2.06v23.79H209.1z"/>
	<path class="st1" d="M220.11,24.74V0.95h16.17v1.96h-13.94v8.55h12.78v1.93h-12.78v9.28h14.31v2.06H220.11z"/>
	<path class="st1" d="M243.37,24.74l-6.09-17.2h2.2l3.69,10.91l1.4,4.36h0.07c0.58-1.8,1.05-3.25,1.43-4.36l3.86-10.91h2.1
		l-6.22,17.2H243.37z"/>
	<path class="st1" d="M260.64,25.18c-2.51,0-4.47-0.84-5.89-2.51c-1.42-1.67-2.13-3.84-2.13-6.5c0-2.62,0.72-4.78,2.16-6.47
		c1.44-1.7,3.34-2.55,5.69-2.55c1.33,0,2.49,0.26,3.48,0.77c0.99,0.51,1.76,1.22,2.31,2.13c0.55,0.91,0.96,1.9,1.21,2.98
		c0.25,1.08,0.38,2.25,0.38,3.51h-13.11c0.04,2.04,0.57,3.7,1.56,4.97s2.44,1.91,4.33,1.91c2.62,0,4.29-1.29,5.02-3.86h2
		c-0.38,1.73-1.17,3.1-2.38,4.11S262.52,25.18,260.64,25.18z M254.78,14.89h10.91c-0.04-1.8-0.5-3.26-1.38-4.38
		c-0.88-1.12-2.16-1.68-3.84-1.68c-1.66,0-2.98,0.55-3.94,1.66C255.56,11.61,254.98,13.08,254.78,14.89z"/>
	<path class="st1" d="M270.42,24.74V7.54h2.06v2.63h0.07c1.35-2,3.27-2.99,5.76-2.99c1.64,0,2.97,0.47,3.98,1.41
		c1.01,0.94,1.51,2.26,1.51,3.94v12.21h-2.06V12.73c0-2.53-1.31-3.79-3.93-3.79c-1.49,0-2.75,0.47-3.78,1.4
		c-1.03,0.93-1.55,2.1-1.55,3.49v10.91H270.42z"/>
	<path class="st1" d="M291.51,24.88c-2.2,0-3.29-1.03-3.29-3.09V9.24h-2.6v-1.7h2.6V2.25h2.06v5.29h3.19v1.7h-3.19v12.21
		c0,0.6,0.13,1.02,0.4,1.26c0.27,0.24,0.69,0.37,1.26,0.37c0.51,0,0.96-0.09,1.36-0.27h0.1v1.76
		C292.86,24.78,292.22,24.88,291.51,24.88z"/>
</g>
</svg>
