<?xml version="1.0" encoding="utf-8"?>
<!-- Generator: Adobe Illustrator 23.1.0, SVG Export Plug-In . SVG Version: 6.00 Build 0)  -->
<svg version="1.1" id="Layer_1" xmlns="http://www.w3.org/2000/svg" xmlns:xlink="http://www.w3.org/1999/xlink" x="0px" y="0px"
	 viewBox="0 0 195 86" style="enable-background:new 0 0 195 86;" xml:space="preserve">
<style type="text/css">
	.st0{clip-path:url(#SVGID_2_);fill:#939598;}
	.st1{fill:none;stroke:#41C5EA;stroke-width:5;stroke-linecap:round;}
	.st2{clip-path:url(#SVGID_4_);fill:none;stroke:#41C5EA;stroke-width:5;stroke-linecap:round;}
</style>
<g>
	<defs>
		<rect id="SVGID_1_" x="0.24" y="-0.04" width="194.32" height="86"/>
	</defs>
	<clipPath id="SVGID_2_">
		<use xlink:href="#SVGID_1_"  style="overflow:visible;"/>
	</clipPath>
	<path class="st0" d="M57.22,8.82c0.47,1,0.74,1.67,1.08,2.3c2.75,5.11,5.55,10.19,8.25,15.32c1.63,3.1,0.56,4.86-2.9,4.95
		c-2.1,0.05-4.2-0.01-6.3,0.06c-0.63,0.02-1.46,0.12-1.84,0.52c-1.42,1.47-0.11,6.57,1.82,7.26c4.98,1.78,10,3.47,14.97,5.26
		c9.89,3.56,19.97,5.78,30.58,4.97c3.17-0.24,6.38-0.04,9.58-0.04c1.68,0,3.82-0.28,4.28,1.69c0.29,1.24-0.47,3.06-1.32,4.19
		c-5.64,7.54-11.43,14.96-17.16,22.43c-0.53,0.69-0.99,1.44-1.81,2.64c3.79,0.05,6.77,0.53,9.75-1.85
		c11.47-9.2,23.11-18.19,34.8-27.11c1.47-1.12,3.62-1.86,5.46-1.89c10.75-0.18,21.51,0.05,32.26-0.19c2.73-0.06,5.61-0.96,8.11-2.14
		c2.85-1.34,3.06-3.9,0.9-6.22c-1.02-1.1-2.22-2.08-3.47-2.9c-6.76-4.48-14.18-6.71-22.34-6.68c-23.44,0.07-46.88,0.06-70.32-0.05
		c-1.6-0.01-3.54-0.65-4.74-1.67c-7.23-6.16-14.39-12.4-21.34-18.87C63.09,8.52,60.64,8.27,57.22,8.82 M96.4,5.87
		c3,3.92,5.57,7.45,8.35,10.8c1.43,1.73,0.92,2.62-0.62,3.84c-1.53,1.22-2.4,1.25-3.63-0.41C96.87,15.16,93,10.39,89.38,5.44
		c-0.69-0.94-1.22-2.68-0.8-3.55c0.43-0.87,2.09-1.3,3.29-1.58c1.12-0.26,2.36,0.09,3.51-0.09c7.08-1.13,12.68,1.42,18.02,6.06
		c6.96,6.05,14.73,11.18,21.68,17.25c2.55,2.23,4.94,2.49,7.82,2.48c6.55-0.03,13.1-0.01,19.66,0c9.37,0.01,17.87,2.82,25.49,8.19
		c1.76,1.24,3.36,2.84,4.65,4.56c2.93,3.89,2.35,8.53-1.32,11.75c-3.51,3.08-7.71,4.31-12.32,4.32c-10.33,0.01-20.67,0.04-31-0.03
		c-1.96-0.01-3.5,0.49-5.06,1.71c-11.7,9.18-23.41,18.34-35.24,27.36c-1.47,1.12-3.59,1.74-5.47,1.9c-3.5,0.3-7.06,0.22-10.57,0.01
		c-1.16-0.07-2.72-0.8-3.24-1.71c-0.42-0.75,0.14-2.45,0.8-3.33c5.91-7.86,11.94-15.63,17.93-23.43c0.48-0.63,0.89-1.31,1.66-2.46
		c-1.56,0-2.54-0.08-3.5,0.01c-13.55,1.22-26.34-2.02-38.9-6.62c-4.57-1.68-9.12-3.41-13.73-5c-2.04-0.7-3.03-1.9-2.99-4.07
		c0.06-3.2-0.05-6.39,0.01-9.59c0.05-2.57,1-3.49,3.53-3.55c2.07-0.05,4.14-0.01,6.68-0.01c-0.51-1.15-0.79-1.9-1.17-2.6
		c-2.7-5.04-5.45-10.05-8.13-15.1c-1.7-3.21-0.63-5,2.96-5.09c0.08,0,0.17,0.01,0.25,0c7.73-1.25,13.81,1.28,19.2,7.07
		c4.79,5.14,10.44,9.49,15.79,14.08c0.94,0.81,2.31,1.57,3.49,1.58c11.68,0.12,23.35,0.08,35.03,0.07c0.38,0,0.77-0.1,1.15-0.16
		c0.25-0.32,0.5-0.63,0.75-0.95c-0.68-0.31-1.45-0.49-2.02-0.93c-6.93-5.33-13.96-10.53-20.67-16.12
		C103.56,5.3,100.43,5.54,96.4,5.87"/>
</g>
<line class="st1" x1="80.74" y1="71.61" x2="38.74" y2="71.61"/>
<line class="st1" x1="164.24" y1="68.61" x2="149.24" y2="68.61"/>
<line class="st1" x1="133.74" y1="12.04" x2="167.74" y2="12.04"/>
<g>
	<defs>
		<rect id="SVGID_3_" x="0.24" y="-0.04" width="194.32" height="86"/>
	</defs>
	<clipPath id="SVGID_4_">
		<use xlink:href="#SVGID_3_"  style="overflow:visible;"/>
	</clipPath>
	<line class="st2" x1="31.74" y1="36.96" x2="2.74" y2="36.96"/>
</g>
</svg>
