<?xml version="1.0" encoding="utf-8"?>
<!-- Generator: Adobe Illustrator 23.1.0, SVG Export Plug-In . SVG Version: 6.00 Build 0)  -->
<svg version="1.1" id="Layer_1" xmlns="http://www.w3.org/2000/svg" xmlns:xlink="http://www.w3.org/1999/xlink" x="0px" y="0px"
	 viewBox="0 0 144 22" style="enable-background:new 0 0 144 22;" xml:space="preserve">
<style type="text/css">
	.st0{clip-path:url(#SVGID_2_);fill:#F7FAFA;}
</style>
<g>
	<defs>
		<rect id="SVGID_1_" x="0.06" y="0.8" width="143.75" height="19.85"/>
	</defs>
	<clipPath id="SVGID_2_">
		<use xlink:href="#SVGID_1_"  style="overflow:visible;"/>
	</clipPath>
	<path class="st0" d="M55.42,8.22c0,0-0.01,0-0.01,0c0,0.9,0,1.79,0,2.69c0,0.28,0.02,0.52,0.36,0.65c1.15,0.44,3.4-0.16,4-1.16
		c0.85-1.4,0.75-2.87,0.01-4.27c-0.68-1.3-1.9-1.69-3.3-1.65c-0.7,0.02-1.06,0.36-1.06,1.05C55.41,6.43,55.42,7.32,55.42,8.22
		 M59.8,11.89c0.61,0.49,0.94,1.05,1.26,1.62c0.92,1.63,1.85,3.26,2.77,4.89c0.42,0.75,0.93,1.33,1.88,1.35
		c0.24,0.01,0.63,0.04,0.6,0.41c-0.04,0.42-0.43,0.33-0.71,0.32c-1.14-0.04-2.28-0.19-3.42,0c-0.61,0.1-0.86-0.32-1.1-0.77
		c-1.16-2.18-2.34-4.35-3.48-6.54c-0.36-0.68-0.89-0.88-1.61-0.85c-0.41,0.02-0.59,0.17-0.59,0.58c0.01,1.88,0.01,3.75,0.03,5.63
		c0.01,0.64,0.38,0.99,0.99,1.1c0.27,0.05,0.54,0.04,0.81,0.08c0.22,0.04,0.45,0.15,0.45,0.4c0,0.32-0.26,0.38-0.52,0.37
		c-2.12-0.09-4.24-0.13-6.36,0c-0.26,0.02-0.53-0.06-0.53-0.36c0-0.3,0.27-0.38,0.52-0.41c0.16-0.02,0.33-0.02,0.49-0.04
		c0.87-0.11,1.22-0.45,1.23-1.32c0.01-4.16,0.01-8.32,0-12.48c0-0.93-0.34-1.26-1.27-1.36c-0.22-0.02-0.44-0.03-0.65-0.08
		c-0.19-0.05-0.35-0.17-0.33-0.4c0.02-0.23,0.19-0.31,0.4-0.33c0.16-0.01,0.33-0.03,0.49-0.01c2.26,0.23,4.51,0.02,6.77,0
		c0.88-0.01,1.74,0.07,2.58,0.33c1.76,0.55,2.83,1.98,2.88,3.83c0.05,1.79-0.89,3.09-2.69,3.74C60.41,11.68,60.16,11.77,59.8,11.89"
		/>
	<path class="st0" d="M130.07,8.18L130.07,8.18c-0.01,0.9-0.01,1.79-0.01,2.69c0,0.27,0.01,0.53,0.33,0.67
		c1.1,0.48,3.46-0.16,4.06-1.19c0.82-1.41,0.72-2.88-0.03-4.27c-0.68-1.26-1.87-1.64-3.24-1.61c-0.75,0.02-1.1,0.38-1.11,1.1
		C130.06,6.44,130.07,7.31,130.07,8.18 M134.47,11.89c0.62,0.49,0.96,1.11,1.31,1.72c0.94,1.65,1.87,3.31,2.81,4.96
		c0.37,0.64,0.84,1.11,1.65,1.16c0.28,0.02,0.77-0.01,0.71,0.47c-0.05,0.39-0.46,0.3-0.74,0.28c-1.14-0.05-2.28-0.18-3.42,0
		c-0.58,0.09-0.81-0.31-1.04-0.73c-1.08-2.04-2.16-4.08-3.25-6.11c-0.17-0.31-0.33-0.63-0.55-0.9c-0.42-0.51-1.04-0.48-1.59-0.36
		c-0.52,0.11-0.3,0.63-0.31,0.97c-0.02,1.58-0.01,3.16,0,4.73c0.01,1.2,0.28,1.49,1.45,1.61c0.16,0.02,0.33,0.02,0.48,0.06
		c0.18,0.06,0.36,0.16,0.34,0.4c-0.02,0.23-0.18,0.32-0.39,0.33c-0.14,0.01-0.27,0.01-0.41,0.01c-1.93-0.1-3.86-0.13-5.79-0.01
		c-0.3,0.02-0.76,0.13-0.8-0.32c-0.04-0.5,0.44-0.44,0.78-0.48c1.13-0.12,1.42-0.4,1.42-1.55c0.01-4.05,0.01-8.11,0-12.16
		c0-1.1-0.29-1.37-1.39-1.48c-0.21-0.02-0.43-0.06-0.63-0.13c-0.17-0.06-0.24-0.22-0.2-0.4c0.03-0.14,0.13-0.24,0.28-0.26
		c0.19-0.02,0.38-0.04,0.57-0.02c2.28,0.23,4.57,0.02,6.85,0c0.9-0.01,1.8,0.08,2.65,0.37c1.7,0.58,2.75,2.05,2.76,3.83
		c0.02,1.75-0.91,3.03-2.68,3.68C135.09,11.68,134.81,11.77,134.47,11.89"/>
	<path class="st0" d="M39.6,11.63c1-0.04,2.16-0.09,2.88-1.13c0.92-1.33,0.82-2.79,0.19-4.19c-0.57-1.27-1.66-1.8-3.03-1.83
		c-1.16-0.02-1.45,0.22-1.47,1.41c-0.03,1.47-0.01,2.93-0.01,4.4C38.16,11.58,38.2,11.63,39.6,11.63 M42.68,11.85
		c1.37,1.64,2.17,3.59,3.26,5.36c0.3,0.49,0.56,0.99,0.86,1.48c0.35,0.59,0.82,0.98,1.56,1.04c0.28,0.02,0.77-0.03,0.71,0.46
		c-0.06,0.46-0.51,0.3-0.81,0.29c-1.09-0.03-2.17-0.18-3.26,0.01c-0.6,0.1-0.88-0.27-1.13-0.73c-1.06-2.02-2.13-4.03-3.2-6.05
		c-0.17-0.31-0.33-0.63-0.54-0.91c-0.42-0.58-1.06-0.55-1.64-0.42c-0.54,0.13-0.33,0.68-0.33,1.05c-0.02,1.58-0.02,3.15,0.01,4.73
		c0.02,1.14,0.31,1.41,1.46,1.53c0.19,0.02,0.38,0.05,0.56,0.1c0.18,0.05,0.26,0.19,0.25,0.37c-0.01,0.19-0.13,0.29-0.31,0.32
		c-0.16,0.02-0.33,0.03-0.49,0.02c-1.93-0.1-3.86-0.13-5.79-0.01c-0.3,0.02-0.75,0.14-0.78-0.34c-0.03-0.47,0.41-0.42,0.72-0.45
		c1.24-0.14,1.5-0.38,1.51-1.65c0.02-3.97,0.02-7.94,0-11.91c-0.01-1.27-0.25-1.49-1.51-1.63c-0.31-0.03-0.74,0.02-0.72-0.46
		c0.03-0.49,0.49-0.36,0.77-0.34c2.39,0.22,4.78-0.01,7.17-0.01c0.74,0,1.46,0.09,2.17,0.31c1.8,0.54,2.9,1.95,2.95,3.76
		c0.05,1.91-0.87,3.2-2.75,3.86C43.15,11.71,42.92,11.78,42.68,11.85"/>
	<path class="st0" d="M7.35,0.85c2.17,0.03,4.35,0.13,6.53-0.03c0.48-0.04,0.71,0.14,0.7,0.64c-0.01,1.06,0,2.12-0.01,3.18
		c0,0.25-0.02,0.53-0.29,0.62c-0.33,0.1-0.47-0.2-0.61-0.42c-0.09-0.13-0.15-0.29-0.21-0.44c-0.52-1.4-1.58-2.09-3-2.31
		C9.44,1.94,8.41,1.86,7.37,1.91C6.5,1.95,6.15,2.25,6.13,3.09C6.1,4.94,6.13,6.79,6.13,8.64c0,0.53,0.22,0.78,0.79,0.8
		C7.76,9.45,8.6,9.46,9.44,9.42c1.17-0.06,1.94-0.6,2.29-1.73C11.81,7.46,11.9,7.23,11.98,7c0.09-0.23,0.25-0.37,0.5-0.33
		c0.26,0.04,0.32,0.26,0.32,0.49c0,0.27,0,0.54-0.01,0.82c-0.1,1.69-0.09,3.37,0.08,5.05c0.03,0.29,0.12,0.66-0.26,0.76
		c-0.43,0.11-0.52-0.26-0.63-0.58c-0.82-2.45-1.25-2.75-3.85-2.78c-1.99-0.02-2.02,0.01-2.02,1.96c0,1.77-0.01,3.54,0.01,5.3
		c0.01,1.37,0.37,1.74,1.71,1.83c0.16,0.01,0.33,0.01,0.49,0.05c0.3,0.06,0.62,0.14,0.56,0.55c-0.05,0.35-0.35,0.38-0.63,0.36
		c-2.53-0.12-5.05-0.12-7.58,0c-0.29,0.01-0.56-0.05-0.6-0.41c-0.04-0.37,0.25-0.44,0.51-0.51c2.14-0.56,2.15-0.56,2.15-2.76
		c0-4.16,0-8.32,0-12.48c0-0.25,0-0.49,0-0.74C2.69,2.23,2.44,1.97,1.08,1.76C0.69,1.7,0.05,1.82,0.1,1.21
		c0.05-0.62,0.65-0.36,1.06-0.36C3.22,0.85,5.29,0.85,7.35,0.85"/>
	<path class="st0" d="M29.99,11.89c-0.04-2.14-0.65-4.22-2.22-5.92c-2.49-2.67-6.61-2.21-8.48,0.92c-1.99,3.33-1.32,8.71,1.42,11.47
		c2.33,2.34,5.72,2.06,7.61-0.64C29.5,16.01,29.94,14.08,29.99,11.89 M14.92,12.12c0.03-4.3,3.2-7.81,7.49-8.44
		c2.14-0.32,4.18-0.09,6.11,0.88c5,2.51,6.26,8.55,2.59,12.79c-2.37,2.74-5.45,3.84-9.02,3.06c-3.44-0.74-5.84-2.76-6.89-6.21
		C14.99,13.49,14.89,12.76,14.92,12.12"/>
	<path class="st0" d="M73.48,3.71c1.82,0,3.65,0.02,5.47-0.01c0.49-0.01,0.7,0.11,0.69,0.62c-0.02,0.84,0,1.69-0.01,2.53
		c0,0.2,0.07,0.47-0.21,0.56c-0.26,0.08-0.41-0.12-0.49-0.32c-1.12-2.8-3.58-2.36-5.83-2.4c-0.43-0.01-0.71,0.28-0.71,0.74
		c-0.02,1.66-0.03,3.32-0.03,4.98c0,0.43,0.26,0.62,0.68,0.66c0.93,0.08,1.85,0.06,2.76-0.09c0.91-0.15,1.41-0.73,1.69-1.58
		C77.57,9.12,77.61,8.7,78,8.76c0.47,0.08,0.28,0.52,0.26,0.81c-0.09,1.47-0.18,2.93-0.11,4.4c0.01,0.24,0.12,0.59-0.29,0.65
		c-0.32,0.04-0.43-0.24-0.47-0.47c-0.33-1.9-1.62-2.28-3.31-2.21c-1.74,0.07-1.75,0.01-1.75,1.73c0.01,1.41-0.01,2.83,0.05,4.24
		c0.04,1.03,0.42,1.42,1.43,1.55c0.84,0.11,1.69,0.12,2.53,0c1.12-0.16,1.95-0.78,2.54-1.74c0.24-0.39,0.45-0.8,0.68-1.2
		c0.1-0.17,0.23-0.33,0.46-0.26c0.18,0.06,0.25,0.22,0.23,0.39c-0.14,1.1-0.24,2.22-0.45,3.31c-0.1,0.52-0.64,0.52-1.08,0.52
		c-1.52-0.01-3.05-0.01-4.57-0.05c-2.04-0.05-4.08-0.14-6.12,0.03c-0.33,0.03-0.8,0.14-0.82-0.39c-0.01-0.46,0.44-0.39,0.74-0.43
		c1.29-0.2,1.51-0.43,1.51-1.74c0.01-3.89,0.01-7.78,0-11.67c0-1.34-0.23-1.57-1.6-1.73c-0.29-0.03-0.67-0.01-0.67-0.42
		c0.01-0.5,0.43-0.4,0.74-0.38C69.78,3.85,71.63,3.8,73.48,3.71"/>
	<path class="st0" d="M116.27,3.71c1.79,0,3.59,0.03,5.39-0.02c0.59-0.01,0.78,0.16,0.76,0.73c-0.03,0.84-0.01,1.69-0.01,2.53
		c0,0.19,0.02,0.4-0.23,0.46c-0.23,0.05-0.35-0.11-0.45-0.28c-0.01-0.02-0.03-0.05-0.04-0.07c-0.75-2.15-2.57-2.35-4.44-2.4
		c-2.15-0.06-2.15-0.04-2.15,2.07c0,1.09,0.03,2.18-0.01,3.26c-0.02,0.77,0.31,1.11,1.06,1.08c0.65-0.02,1.31-0.02,1.96-0.06
		c1.05-0.05,1.8-0.53,2.14-1.57c0.09-0.29,0.12-0.77,0.54-0.69c0.5,0.1,0.27,0.58,0.24,0.9c-0.1,1.44-0.16,2.88-0.1,4.32
		c0.01,0.23,0.09,0.54-0.22,0.63c-0.36,0.1-0.46-0.22-0.56-0.47c-0.14-0.35-0.24-0.72-0.39-1.07c-0.22-0.5-0.58-0.87-1.13-0.98
		c-0.99-0.21-2-0.16-3.01-0.1c-0.43,0.03-0.52,0.36-0.52,0.7c0.01,1.77,0.02,3.53,0.05,5.3c0.01,0.87,0.52,1.35,1.36,1.45
		c0.89,0.11,1.8,0.14,2.69-0.01c1.08-0.18,1.89-0.8,2.46-1.72c0.24-0.39,0.45-0.81,0.68-1.2c0.1-0.17,0.24-0.33,0.46-0.25
		c0.21,0.07,0.25,0.27,0.23,0.47c-0.13,1.02-0.24,2.05-0.4,3.07c-0.09,0.59-0.58,0.67-1.06,0.67c-1.55-0.01-3.1-0.01-4.65-0.05
		c-2.04-0.05-4.08-0.14-6.12,0.03c-0.3,0.02-0.74,0.14-0.81-0.31c-0.08-0.54,0.42-0.45,0.74-0.5c1.28-0.2,1.51-0.43,1.51-1.75
		c0.01-3.89,0.01-7.78,0-11.67c0-1.33-0.23-1.56-1.61-1.72c-0.3-0.03-0.67-0.02-0.65-0.44c0.02-0.49,0.44-0.39,0.75-0.36
		C112.57,3.85,114.42,3.8,116.27,3.71"/>
	<path class="st0" d="M102.19,11.85c0,2.01-0.02,4.03,0.01,6.04c0.01,1.37,0.22,1.57,1.58,1.76c0.29,0.04,0.67,0,0.66,0.43
		c-0.01,0.49-0.43,0.42-0.74,0.4c-1.96-0.11-3.91-0.11-5.87,0c-0.31,0.02-0.73,0.09-0.74-0.4c-0.01-0.42,0.38-0.38,0.67-0.42
		c1.39-0.22,1.58-0.42,1.58-1.85c0.01-4.05-0.01-8.11,0.02-12.16c0.01-0.79-0.26-1-1.04-1.02c-2.03-0.05-3.53,0.72-4.48,2.53
		c-0.14,0.28-0.32,0.66-0.72,0.5C92.68,7.49,92.92,7.1,93,6.81c0.32-1.18,0.66-2.35,1.01-3.52c0.07-0.22,0.09-0.53,0.39-0.57
		c0.35-0.05,0.34,0.26,0.42,0.49c0.15,0.46,0.53,0.6,0.96,0.6c3.45-0.03,6.91,0.11,10.36-0.08c0.66-0.04,1.32-0.1,1.58-0.89
		c0.05-0.16,0.22-0.25,0.4-0.2c0.18,0.05,0.24,0.21,0.24,0.38c0.06,1.47-0.07,2.94-0.21,4.4c-0.01,0.16-0.11,0.31-0.3,0.34
		c-0.24,0.04-0.35-0.12-0.42-0.3c-0.06-0.15-0.08-0.31-0.12-0.47c-0.46-1.81-1.09-2.31-2.99-2.33c-0.38-0.01-0.76,0.02-1.14-0.01
		c-0.74-0.06-1.02,0.27-1.02,1C102.2,7.72,102.19,9.79,102.19,11.85L102.19,11.85z"/>
	<path class="st0" d="M82.21,17.45c0-0.38-0.02-0.76,0-1.14c0.02-0.31-0.11-0.76,0.31-0.83c0.45-0.08,0.42,0.4,0.5,0.69
		c0.25,0.88,0.64,1.68,1.26,2.35c1.05,1.13,2.32,1.73,3.88,1.26c2.29-0.68,2.96-3.26,1.31-5c-0.69-0.72-1.56-1.18-2.44-1.6
		c-0.85-0.41-1.73-0.78-2.54-1.29c-1.66-1.03-2.37-2.53-2.09-4.43c0.27-1.84,1.4-3.02,3.15-3.6c1.78-0.59,3.55-0.3,5.3,0.2
		c0.31,0.09,0.54,0.26,0.55,0.62c0.02,0.84,0.05,1.68,0.06,2.53c0,0.21-0.03,0.47-0.29,0.52c-0.31,0.06-0.43-0.19-0.52-0.42
		c-0.22-0.55-0.38-1.14-0.65-1.67c-0.62-1.23-2.01-1.73-3.51-1.33c-1.3,0.35-2.03,1.32-1.98,2.62c0.04,0.85,0.44,1.5,1.12,1.98
		c0.67,0.48,1.41,0.81,2.17,1.12c0.75,0.31,1.49,0.65,2.19,1.08c1.98,1.23,2.83,2.95,2.45,4.99c-0.43,2.31-2.04,3.96-4.27,4.39
		c-1.6,0.31-3.14,0.1-4.65-0.44c-1.27-0.46-1.33-0.57-1.33-1.88c0-0.24,0-0.49,0-0.74H82.21z"/>
	<path class="st0" d="M143.35,5.93c0-1.06-0.81-1.89-1.82-1.88c-0.98,0.01-1.79,0.83-1.81,1.83c-0.02,1.05,0.77,1.89,1.8,1.9
		C142.57,7.79,143.34,7.01,143.35,5.93 M143.81,5.93c0,1.27-1.02,2.27-2.29,2.25c-1.27-0.02-2.3-1.06-2.27-2.3
		c0.03-1.22,1.03-2.19,2.27-2.19C142.82,3.68,143.81,4.65,143.81,5.93"/>
	<path class="st0" d="M141.58,4.98c-0.29-0.02-0.54-0.02-0.53,0.4c0.01,0.34,0.18,0.42,0.47,0.4c0.27-0.02,0.58-0.02,0.62-0.38
		C142.17,5,141.86,5,141.58,4.98 M140.68,7.24c0-0.79,0-1.54,0-2.29c0-0.18,0.05-0.32,0.27-0.31c0.38,0.01,0.77-0.02,1.13,0.05
		c0.49,0.1,0.75,0.8,0.35,1.07c-0.63,0.43-0.25,0.72-0.03,1.09c0.05,0.09,0.07,0.19,0.13,0.33c-0.45,0.08-0.49-0.3-0.65-0.49
		c-0.18-0.21-0.22-0.63-0.61-0.54c-0.38,0.09-0.16,0.45-0.21,0.69C141.03,6.98,141.07,7.17,140.68,7.24"/>
</g>
</svg>
