<?xml version="1.0" encoding="utf-8"?>
<!-- Generator: Adobe Illustrator 23.1.0, SVG Export Plug-In . SVG Version: 6.00 Build 0)  -->
<svg version="1.1" id="Layer_1" xmlns="http://www.w3.org/2000/svg" xmlns:xlink="http://www.w3.org/1999/xlink" x="0px" y="0px"
	 viewBox="0 0 114 124" style="enable-background:new 0 0 114 124;" xml:space="preserve">
<style type="text/css">
	.st0{clip-path:url(#SVGID_2_);fill:none;stroke:#CBCCCE;stroke-width:4;stroke-linecap:round;stroke-miterlimit:10;}
	.st1{clip-path:url(#SVGID_4_);fill:url(#SVGID_5_);}
	.st2{fill:none;stroke:#FFFFFF;stroke-width:3.066;stroke-miterlimit:10;}
</style>
<g>
	<defs>
		<rect id="SVGID_1_" x="0.3" y="0.7" width="113.9" height="122.5"/>
	</defs>
	<clipPath id="SVGID_2_">
		<use xlink:href="#SVGID_1_"  style="overflow:visible;"/>
	</clipPath>
	<path class="st0" d="M55.2,61.9L18.1,83.8 M99.1,58.7l-43.9,3.2l17.6,36 M32.1,25.8l23.1,36.1l20.2-37.5 M82.1,20.3
		c0,2.6-2.1,4.7-4.7,4.7c-2.6,0-4.7-2.1-4.7-4.7c0-2.6,2.1-4.7,4.7-4.7C80,15.6,82.1,17.7,82.1,20.3z M112.1,57.7
		c0,3.6-2.9,6.6-6.6,6.6c-3.6,0-6.6-2.9-6.6-6.6c0-3.6,2.9-6.6,6.6-6.6C109.2,51.1,112.1,54,112.1,57.7z M39.3,14.7
		c0,6.7-5.4,12.1-12.1,12.1c-6.7,0-12.1-5.4-12.1-12.1c0-6.7,5.4-12.1,12.1-12.1C33.9,2.7,39.3,8.1,39.3,14.7z M89.5,109.1
		c0,6.7-5.4,12.1-12.1,12.1c-6.7,0-12.1-5.4-12.1-12.1c0-6.7,5.4-12.1,12.1-12.1C84.1,97,89.5,102.4,89.5,109.1z M19.5,88.5
		c0,4.8-3.9,8.6-8.6,8.6c-4.8,0-8.6-3.9-8.6-8.6s3.9-8.6,8.6-8.6C15.6,79.9,19.5,83.8,19.5,88.5z"/>
</g>
<g>
	<defs>
		<path id="SVGID_3_" d="M37.2,61.9c0,10,8.1,18,18,18c10,0,18-8.1,18-18s-8.1-18-18-18C45.2,43.9,37.2,52,37.2,61.9"/>
	</defs>
	<clipPath id="SVGID_4_">
		<use xlink:href="#SVGID_3_"  style="overflow:visible;"/>
	</clipPath>
	
		<linearGradient id="SVGID_5_" gradientUnits="userSpaceOnUse" x1="-167.5937" y1="297.8436" x2="-166.5937" y2="297.8436" gradientTransform="matrix(39.0995 0 0 -39.0995 6588.4756 11707.4502)">
		<stop  offset="0" style="stop-color:#8FC740"/>
		<stop  offset="1" style="stop-color:#38C6F4"/>
	</linearGradient>
	<rect x="37.2" y="43.9" class="st1" width="36" height="36"/>
</g>
<g>
	<path class="st2" d="M73.2,61.9c0,10-8.1,18-18,18c-9.9,0-18-8.1-18-18s8.1-18,18-18C65.1,43.9,73.2,52,73.2,61.9z"/>
</g>
</svg>
