<svg xmlns="http://www.w3.org/2000/svg" xmlns:xlink="http://www.w3.org/1999/xlink" width="64.947" height="64.942" viewBox="0 0 64.947 64.942">
  <defs>
    <linearGradient id="linear-gradient" y1="0.5" x2="1" y2="0.5" gradientUnits="objectBoundingBox">
      <stop offset="0" stop-color="#8fc740"/>
      <stop offset="1" stop-color="#38c6f4"/>
    </linearGradient>
  </defs>
  <g id="Group_3451" data-name="Group 3451" transform="translate(-921.157 488.986)">
    <g id="Group_3444" data-name="Group 3444" transform="translate(946.645 -455.747)">
      <path id="Path_8857" data-name="Path 8857" d="M976.128-387.3a1.306,1.306,0,0,1-1.3-1.222,1.306,1.306,0,0,1,1.135-1.379c.189-.026,14.021-2.005,18.585-14.022h-6.5a1.305,1.305,0,0,1-1.229-.864,1.306,1.306,0,0,1,.4-1.449l15.1-12.467a1.3,1.3,0,0,1,.971-.291,1.3,1.3,0,0,1,.886.49l9.83,12.467a1.306,1.306,0,0,1,.15,1.379,1.306,1.306,0,0,1-1.175.736h-5.157a17.58,17.58,0,0,1-4.538,7.913C997.7-390.228,988.56-387.3,976.128-387.3Zm15.548-19.235h4.677a1.306,1.306,0,0,1,1.043.52,1.309,1.309,0,0,1,.213,1.145A23.252,23.252,0,0,1,986.087-390.7c18.06-3.125,19.337-14.517,19.349-14.65a1.306,1.306,0,0,1,1.3-1.187h3.546l-7.335-9.3Z" transform="translate(-974.822 418.999)" fill="url(#linear-gradient)"/>
    </g>
    <g id="Group_3445" data-name="Group 3445" transform="translate(921.157 -488.986)">
      <path id="Path_8858" data-name="Path 8858" d="M936.984-428.854a1.3,1.3,0,0,1-.7-.2,32.514,32.514,0,0,1-10.125-44.8,32.514,32.514,0,0,1,44.8-10.125A32.408,32.408,0,0,1,985.8-460.946a1.306,1.306,0,0,1-1.116,1.472,1.306,1.306,0,0,1-1.472-1.116,29.8,29.8,0,0,0-13.643-21.181,29.9,29.9,0,0,0-41.2,9.311,29.9,29.9,0,0,0,9.31,41.2,1.306,1.306,0,0,1,.408,1.8A1.305,1.305,0,0,1,936.984-428.854Z" transform="translate(-921.157 488.986)" fill="#000c30"/>
    </g>
    <g id="Group_3446" data-name="Group 3446" transform="translate(937.784 -488.081)">
      <path id="Path_8859" data-name="Path 8859" d="M960.245-433.434a1.306,1.306,0,0,1-1.256-.951,74.989,74.989,0,0,1-2.82-21.147c0-12.718,2.714-24.3,7.261-30.978a1.306,1.306,0,0,1,1.814-.344,1.305,1.305,0,0,1,.344,1.815c-4.2,6.165-6.807,17.477-6.807,29.521A72.4,72.4,0,0,0,961.5-435.1a1.306,1.306,0,0,1-.9,1.612A1.3,1.3,0,0,1,960.245-433.434Z" transform="translate(-956.165 487.081)" fill="#000c30"/>
    </g>
    <g id="Group_3447" data-name="Group 3447" transform="translate(921.22 -459.903)">
      <path id="Path_8860" data-name="Path 8860" d="M959.928-425.138H922.6a1.306,1.306,0,0,1-1.306-1.306,1.306,1.306,0,0,1,1.306-1.306h37.332a1.306,1.306,0,0,1,1.306,1.306A1.306,1.306,0,0,1,959.928-425.138Z" transform="translate(-921.29 427.75)" fill="#000c30"/>
    </g>
    <g id="Group_3448" data-name="Group 3448" transform="translate(927.381 -476.525)">
      <path id="Path_8861" data-name="Path 8861" d="M985.441-460.138H935.569a1.306,1.306,0,0,1-1.306-1.306,1.306,1.306,0,0,1,1.306-1.306h49.871a1.306,1.306,0,0,1,1.306,1.306A1.306,1.306,0,0,1,985.441-460.138Z" transform="translate(-934.263 462.75)" fill="#000c30"/>
    </g>
    <g id="Group_3449" data-name="Group 3449" transform="translate(924.747 -443.28)">
      <path id="Path_8862" data-name="Path 8862" d="M955.516-390.138H930.022a1.306,1.306,0,0,1-1.306-1.306,1.306,1.306,0,0,1,1.306-1.306h25.494a1.306,1.306,0,0,1,1.306,1.306A1.306,1.306,0,0,1,955.516-390.138Z" transform="translate(-928.716 392.75)" fill="#000c30"/>
    </g>
    <g id="Group_3450" data-name="Group 3450" transform="translate(959.829 -488.081)">
      <path id="Path_8863" data-name="Path 8863" d="M1010.814-458.54a1.306,1.306,0,0,1-1.3-1.241c-.525-10.429-3.03-19.872-6.7-25.259a1.306,1.306,0,0,1,.343-1.815,1.307,1.307,0,0,1,1.815.344c3.989,5.853,6.595,15.548,7.151,26.6a1.306,1.306,0,0,1-1.238,1.37Z" transform="translate(-1002.583 487.082)" fill="#000c30"/>
    </g>
  </g>
</svg>
