<svg xmlns="http://www.w3.org/2000/svg" xmlns:xlink="http://www.w3.org/1999/xlink" width="49.847" height="32" viewBox="0 0 49.847 32">
  <defs>
    <linearGradient id="linear-gradient" y1="0.5" x2="1" y2="0.5" gradientUnits="objectBoundingBox">
      <stop offset="0" stop-color="#2cc4ec"/>
      <stop offset="1" stop-color="#8cc63f"/>
    </linearGradient>
  </defs>
  <g id="Group_4660" data-name="Group 4660" transform="translate(-7055.839 -2790)">
    <g id="Group_4658" data-name="Group 4658" transform="translate(7066.137 2790.196)">
      <path id="Path_10349" data-name="Path 10349" d="M7259.108,2814.891c-1.544,1.273-.8,4.883,2.8,2.707,0,0,4.4-2.2,6.968-3.663.561-.318.935-.212,1.4.319.514.371,12.156,13.374,12.156,13.374s3.589-2.725,4.991-5.592c0,0-3.226-6.064-6.3-12.082a3.317,3.317,0,0,1-2.675.693,13.8,13.8,0,0,1-2.892-1.685,8.8,8.8,0,0,0-3.229-1.381c-1.8-.257-3.216.548-4.766,1.438-1.763,1.011-3.475,2.148-5.148,3.335Q7260.725,2813.557,7259.108,2814.891Z" transform="translate(-7253.506 -2806.418)" fill="url(#linear-gradient)"/>
      <path id="Path_10350" data-name="Path 10350" d="M7293.94,3095.073a2.161,2.161,0,0,1,.258-2.774l3.694-3.363a1.6,1.6,0,0,1,2.448.233h0a2.161,2.161,0,0,1-.258,2.775l-3.691,3.363a1.6,1.6,0,0,1-2.451-.234Z" transform="translate(-7286.078 -3066.35)" fill="url(#linear-gradient)"/>
      <path id="Path_10351" data-name="Path 10351" d="M7248.341,3062.451a2.16,2.16,0,0,1,.258-2.774l2.914-2.653a1.6,1.6,0,0,1,2.449.234h0a2.162,2.162,0,0,1-.257,2.776l-2.913,2.653a1.6,1.6,0,0,1-2.451-.235Z" transform="translate(-7243.887 -3036.826)" fill="url(#linear-gradient)"/>
      <path id="Path_10352" data-name="Path 10352" d="M7193.9,3056.232a2.154,2.154,0,0,1,.393-2.755l.652-.508a1.608,1.608,0,0,1,2.435.388l.039.049a2.093,2.093,0,0,1-.431,2.706l-.653.508a1.606,1.606,0,0,1-2.435-.388Z" transform="translate(-7193.571 -3033.137)" fill="url(#linear-gradient)"/>
      <path id="Path_10353" data-name="Path 10353" d="M7359,3143.807a1.6,1.6,0,0,0-2.457-.1l-1.593,1.654a2.165,2.165,0,0,0-.138,2.785,1.6,1.6,0,0,0,2.458.1l1.591-1.654A2.164,2.164,0,0,0,7359,3143.807Z" transform="translate(-7342.344 -3116.971)" fill="url(#linear-gradient)"/>
      <path id="Path_10354" data-name="Path 10354" d="M7587.647,2805.5a.969.969,0,0,1-.318,1.326l-2.679,1.412a.968.968,0,0,1-1.266-.5l-6.366-12.3a.968.968,0,0,1,.32-1.326l2.679-1.411a.968.968,0,0,1,1.267.5Z" transform="translate(-7548.229 -2792.611)" fill="url(#linear-gradient)"/>
    </g>
    <g id="Group_4659" data-name="Group 4659" transform="translate(7055.839 2790)">
      <path id="Path_10355" data-name="Path 10355" d="M7060.183,2805.2a.945.945,0,0,1-1.143.669l-2.7-.938a.948.948,0,0,1-.417-1.258l4.877-12.958a.947.947,0,0,1,1.145-.669l2.7.939a.947.947,0,0,1,.417,1.258Z" transform="translate(-7055.839 -2790)" fill="#000b2f"/>
      <path id="Path_10356" data-name="Path 10356" d="M7424.727,3040.321l-.008-.009a1.5,1.5,0,0,1-.361.8,1.738,1.738,0,0,1-1.3.6,1.818,1.818,0,0,1-1.372-.655l-4.6-5.215a.39.39,0,0,0-.3-.148c-.439,0-.925.722-.53,1.137l3.775,4.172a2.222,2.222,0,0,1,.022,2.891,1.528,1.528,0,0,1-1.151.543,1.816,1.816,0,0,1-1.352-.676l-4.326-4.82a.4.4,0,0,0-.345-.218.709.709,0,0,0-.406,1.165l3.327,3.814a2.163,2.163,0,0,1-.048,2.812,1.454,1.454,0,0,1-1.1.518,1.557,1.557,0,0,1-.687-.167,3.262,3.262,0,0,1-.606,1.017,2.688,2.688,0,0,0,1.293.35,2.58,2.58,0,0,0,1.93-.9,3.4,3.4,0,0,0,.852-2.133,2.776,2.776,0,0,0,1.463.435,2.652,2.652,0,0,0,1.987-.922,3.339,3.339,0,0,0,.83-2.146,2.807,2.807,0,0,0,3.477-.639,2.959,2.959,0,0,0,.7-1.694,1.245,1.245,0,0,0-.114-.719c-.13.1-.215.169-.235.185Z" transform="translate(-7385.642 -3017.324)" fill="#000b2f"/>
      <path id="Path_10357" data-name="Path 10357" d="M7138.287,2819.89l.017-.014.016-.013.274-.214c-2.256-2.291-3.637-3.976-3.637-3.976,2.168-5.519,4.618-12.244,4.618-12.244-.021.381,1.263,1.062,1.521,1.165a3.618,3.618,0,0,0,1.353.254c.13,0,.261-.006.389-.019a10.369,10.369,0,0,0,3.817-1.59,5.98,5.98,0,0,1,2.742-.917,2.292,2.292,0,0,1,1.279.375c.361-.22.719-.431,1.067-.633a1.2,1.2,0,0,0-.2-.21,3.357,3.357,0,0,0-2.144-.732,7.04,7.04,0,0,0-3.284,1.061l-.312.176a8.537,8.537,0,0,1-3.072,1.276c-.092.009-.187.014-.279.014a2.536,2.536,0,0,1-.942-.174,5.192,5.192,0,0,1-.883-.528,1.158,1.158,0,0,0-.809-.69,1.088,1.088,0,0,0-.24-.027,1.148,1.148,0,0,0-1.068.772c-.024.067-2.47,6.775-4.607,12.215a1.243,1.243,0,0,0,.19,1.238c.059.071,1.424,1.733,3.667,4.014A3.086,3.086,0,0,1,7138.287,2819.89Z" transform="translate(-7127.982 -2800.292)" fill="#000b2f"/>
    </g>
  </g>
</svg>
