<svg xmlns="http://www.w3.org/2000/svg" width="356.582" height="436.689" viewBox="0 0 356.582 436.689">
  <g id="Group_1635" data-name="Group 1635" transform="translate(-1200.834 -2789.755)">
    <g id="Rectangle_7438" data-name="Rectangle 7438" transform="translate(1300.018 2818.443)" fill="none" stroke="#000c30" stroke-width="3">
      <rect width="230" height="408" rx="18" stroke="none"/>
      <rect x="1.5" y="1.5" width="227" height="405" rx="16.5" fill="none"/>
    </g>
    <g id="Group_1627" data-name="Group 1627" transform="translate(1219.517 2897.517)">
      <rect id="Rectangle_7431" data-name="Rectangle 7431" width="97" height="134" rx="7" transform="translate(17.501 -0.074)" fill="#2cc4ec"/>
      <rect id="Rectangle_7432" data-name="Rectangle 7432" width="9" height="117" rx="4.5" transform="translate(99.501 7.926)" fill="#fff"/>
      <circle id="Ellipse_8" data-name="Ellipse 8" cx="7.5" cy="7.5" r="7.5" transform="translate(95.501 20.926)" fill="#000c30"/>
      <rect id="Rectangle_7433" data-name="Rectangle 7433" width="53" height="4" rx="2" transform="translate(33.501 22.926)" fill="#f4f9ff"/>
      <rect id="Rectangle_7434" data-name="Rectangle 7434" width="53" height="3" rx="1.5" transform="translate(33.501 35.926)" fill="#f4f9ff"/>
      <rect id="Rectangle_7435" data-name="Rectangle 7435" width="53" height="2" rx="1" transform="translate(33.501 49.926)" fill="#f4f9ff"/>
      <rect id="Rectangle_7436" data-name="Rectangle 7436" width="53" height="4" rx="2" transform="translate(33.501 61.926)" fill="#f4f9ff"/>
      <rect id="Rectangle_7437" data-name="Rectangle 7437" width="53" height="5" rx="2.5" transform="translate(33.501 74.926)" fill="#f4f9ff"/>
      <g id="Ellipse_9" data-name="Ellipse 9" transform="translate(-0.499 88.926)" fill="#8cc63f" stroke="#fff" stroke-width="5">
        <circle cx="27" cy="27" r="27" stroke="none"/>
        <circle cx="27" cy="27" r="24.5" fill="none"/>
      </g>
      <path id="Path_7395" data-name="Path 7395" d="M0,7.892l7.047,7.752L19.872,0" transform="matrix(0.998, 0.07, -0.07, 0.998, 18.94, 107.45)" fill="none" stroke="#fff" stroke-linecap="round" stroke-linejoin="round" stroke-width="5"/>
    </g>
    <g id="Group_1629" data-name="Group 1629" transform="translate(1375.393 2917.785)">
      <path id="Path_7396" data-name="Path 7396" d="M1214.438,548.566a6.826,6.826,0,0,1-2.506-.478c-51.226-20.19-56.641-80.042-57.08-97.906a7.818,7.818,0,0,1,2.289-5.757,6.987,6.987,0,0,1,5.259-2.054c26.829,1.1,40.536-11.9,46.322-19.753a7.016,7.016,0,0,1,11.434,0c5.784,7.849,19.5,20.848,46.321,19.753a6.97,6.97,0,0,1,5.257,2.053,7.819,7.819,0,0,1,2.29,5.758c-.439,17.863-5.854,77.715-57.08,97.906h0A6.82,6.82,0,0,1,1214.438,548.566Zm-52.327-100.64a1.519,1.519,0,0,0-1.07.463,2.239,2.239,0,0,0-.63,1.657c.418,17,5.515,73.933,53.559,92.868a1.27,1.27,0,0,0,.934,0h0c48.045-18.936,53.142-75.87,53.56-92.868a2.241,2.241,0,0,0-.63-1.658,1.532,1.532,0,0,0-1.13-.461q-1.739.071-3.414.071c-27.169,0-41.427-13.688-47.612-22.08a1.49,1.49,0,0,0-2.481,0c-6.44,8.737-21.63,23.218-51.026,22.01Z" transform="translate(-1154.85 -419.669)" fill="#8cc63f"/>
      <g id="Group_1628" data-name="Group 1628" transform="translate(26.152 31.174)">
        <path id="Path_7397" data-name="Path 7397" d="M1238.836,522.643l-19.059-19.059a2.78,2.78,0,0,1,3.931-3.932l15.127,15.127,32.336-32.337a2.781,2.781,0,0,1,3.933,3.933Z" transform="translate(-1205.5 -474.518)" fill="#2dc3ea"/>
        <path id="Path_7398" data-name="Path 7398" d="M1230.848,537.511a33.7,33.7,0,1,1,21.561-59.608,2.086,2.086,0,0,1-2.667,3.207,29.525,29.525,0,1,0,10.644,21.982,29.866,29.866,0,0,0-.553-5.04,2.085,2.085,0,1,1,4.091-.809,34.046,34.046,0,0,1,.631,5.746A33.694,33.694,0,0,1,1231.7,537.5C1231.413,537.508,1231.13,537.511,1230.848,537.511Z" transform="translate(-1197.174 -470.121)" fill="#2dc3ea"/>
      </g>
    </g>
    <g id="Group_1630" data-name="Group 1630" transform="translate(1200.834 3073.35)" opacity="0.3">
      <path id="Path_7394" data-name="Path 7394" d="M-3262.165-2112.81h-187.189a25.068,25.068,0,0,1-25.314-26.709,25.025,25.025,0,0,1,7.3-16.156,25.033,25.033,0,0,1,17.756-7.355h152.127a25.27,25.27,0,0,1,25.318,26.465,25.044,25.044,0,0,1-1.351,6.894.017.017,0,0,0,0,.018l13.076,12.536A2.5,2.5,0,0,1-3262.165-2112.81Z" transform="translate(3474.72 2163.03)" fill="#2cc4ec"/>
    </g>
    <g id="Group_1631" data-name="Group 1631" transform="translate(1241.283 3139.224)" opacity="0.3">
      <path id="Path_7394-2" data-name="Path 7394" d="M-3472.214-2112.81h187.189a25.069,25.069,0,0,0,25.314-26.709,25.027,25.027,0,0,0-7.3-16.156,25.032,25.032,0,0,0-17.756-7.355H-3436.9a25.27,25.27,0,0,0-25.318,26.465,25.053,25.053,0,0,0,1.351,6.894.016.016,0,0,1,0,.018l-13.076,12.536A2.5,2.5,0,0,0-3472.214-2112.81Z" transform="translate(3474.72 2163.03)" fill="#2cc4ec"/>
    </g>
    <g id="Group_1633" data-name="Group 1633" transform="translate(1456.078 2789.755)">
      <path id="Path_7399" data-name="Path 7399" d="M1108.786,842.918c1.309,26.361-20.145,48.288-46.539,48.288h-53.391a1.348,1.348,0,0,1-.826-2.413l12.909-10.021A8.246,8.246,0,0,0,1023,868.128a46.4,46.4,0,0,1-4.642-34.653,45,45,0,0,1,33.168-32.854A46.053,46.053,0,0,1,1108.786,842.918Z" transform="translate(-1007.505 -799.263)" fill="#8cc63f"/>
      <g id="Group_1632" data-name="Group 1632" transform="translate(50.733 22.161)">
        <path id="Path_7400" data-name="Path 7400" d="M1111.157,878.542h0a1.979,1.979,0,0,1-1.975-1.846l-2.141-31.846a1.979,1.979,0,0,1,1.974-2.112h4.284a1.979,1.979,0,0,1,1.974,2.112l-2.141,31.846A1.979,1.979,0,0,1,1111.157,878.542Z" transform="translate(-1107.036 -842.739)" fill="#fff"/>
        <circle id="Ellipse_10" data-name="Ellipse 10" cx="2.781" cy="2.781" r="2.781" transform="translate(1.34 42.06)" fill="#fff"/>
      </g>
    </g>
    <g id="Group_1634" data-name="Group 1634" transform="translate(1471.072 3041.236)">
      <path id="Path_7401" data-name="Path 7401" d="M376.977-5371.326c-.048,10.922-.2,21.847-.077,32.768a6.088,6.088,0,0,1-3.449,6.024c-9.064,5.21-19.01,7.06-29.231,7.762a76.72,76.72,0,0,1-15.424-.264c-8.989-1.2-11.118-5.363-6.487-12.932-3.461-.623-7.315-.817-8.369-5.053-1.037-4.164,1.777-6.449,5.284-8.661-4.021-.9-8-1.549-8.175-6.233-.168-4.6,3.384-6.337,6.941-7.739.24-1.139-.715-1.268-1.235-1.725-3.208-2.818-3.178-6.945.092-9.739a11.393,11.393,0,0,1,6.965-2.509c4.887-.3,9.779-.534,14.665-.854,4.217-.275,4.8-1.1,3.788-5.2-1.856-7.488-3.274-14.989-.991-22.655.645-.922,1.224-1.9,1.945-2.756,1.842-2.194,4.149-3.349,6.993-2.3,2.941,1.088,3.2,3.593,2.777,6.247-1.243,7.763,2.359,13.873,6.739,19.679C364.534-5381.09,370.687-5376.128,376.977-5371.326Z" transform="translate(-311.042 5413.78)" fill="#2cc4ec"/>
      <path id="Path_7402" data-name="Path 7402" d="M417.761-5319.21c-3.365-.062-6.74-.312-10.092-.131-2.934.158-3.872-.856-3.84-3.8.135-12.1.057-24.2.049-36.3,0-.747-.065-1.494-.1-2.241,4.608-.761,9.248-.193,13.872-.337,1.619-.052,2.178.8,2.176,2.322q-.03,18.979.015,37.958C419.846-5320.193,419.234-5319.416,417.761-5319.21Z" transform="translate(-333.599 5401.208)" fill="#2cc4ec"/>
    </g>
  </g>
</svg>
