<svg xmlns="http://www.w3.org/2000/svg" xmlns:xlink="http://www.w3.org/1999/xlink" width="334.906" height="449.871" viewBox="0 0 334.906 449.871">
  <defs>
    <clipPath id="clip-path">
      <rect id="Rectangle_7442" data-name="Rectangle 7442" width="334.906" height="449.871" fill="none"/>
    </clipPath>
    <clipPath id="clip-path-3">
      <rect id="Rectangle_7439" data-name="Rectangle 7439" width="284.976" height="64.537" fill="none"/>
    </clipPath>
    <clipPath id="clip-path-4">
      <rect id="Rectangle_7440" data-name="Rectangle 7440" width="284.976" height="64.538" fill="none"/>
    </clipPath>
  </defs>
  <g id="Group_1648" data-name="Group 1648" transform="translate(1085.122 217.802)">
    <g id="Group_1647" data-name="Group 1647" transform="translate(-1085.122 -217.802)" clip-path="url(#clip-path)">
      <g id="Group_1646" data-name="Group 1646">
        <g id="Group_1645" data-name="Group 1645" clip-path="url(#clip-path)">
          <path id="Path_7405" data-name="Path 7405" d="M-936.909-180.461h-76.422a22.418,22.418,0,0,0-22.418,22.417v376a22.418,22.418,0,0,0,22.418,22.417h218.06a22.418,22.418,0,0,0,22.417-22.417v-376a22.418,22.418,0,0,0-22.417-22.417h-76.423" transform="translate(1070.098 206.44)" fill="none" stroke="#fff" stroke-width="8.788"/>
          <g id="Group_1641" data-name="Group 1641" transform="translate(67.252 231.663)" opacity="0.5">
            <g id="Group_1640" data-name="Group 1640" transform="translate(0 0)">
              <g id="Group_1639" data-name="Group 1639" clip-path="url(#clip-path-3)">
                <path id="Path_7406" data-name="Path 7406" d="M-716,182.986l-25.645.37-4.163.061h-191.68A23.268,23.268,0,0,1-960.8,160.2a23.078,23.078,0,0,1,6.83-16.416,23.271,23.271,0,0,1,16.484-6.8H-743.2A23.269,23.269,0,0,1-719.881,160.2a22.944,22.944,0,0,1-3.437,12.133Z" transform="translate(980.039 -121.817)" fill="none" stroke="#fff" stroke-miterlimit="10" stroke-width="5.514"/>
                <line id="Line_1" data-name="Line 1" x2="99.63" transform="translate(59.04 29.437)" fill="none" stroke="#fff" stroke-linecap="round" stroke-miterlimit="10" stroke-width="5.514"/>
                <line id="Line_2" data-name="Line 2" x2="45.847" transform="translate(171.984 29.437)" fill="none" stroke="#fff" stroke-linecap="round" stroke-miterlimit="10" stroke-width="5.514"/>
                <line id="Line_3" data-name="Line 3" x2="64.133" transform="translate(59.663 43.374)" fill="none" stroke="#fff" stroke-linecap="round" stroke-miterlimit="10" stroke-width="5.514"/>
              </g>
            </g>
          </g>
          <g id="Group_1644" data-name="Group 1644" transform="translate(-17.323 152.277)" opacity="0.5">
            <g id="Group_1643" data-name="Group 1643" transform="translate(0 0)">
              <g id="Group_1642" data-name="Group 1642" clip-path="url(#clip-path-4)">
                <path id="Path_7407" data-name="Path 7407" d="M-1079.932,68.881l25.645.37,4.162.06h191.68A23.268,23.268,0,0,0-835.13,46.094a23.075,23.075,0,0,0-6.83-16.415,23.269,23.269,0,0,0-16.484-6.8h-194.288a23.269,23.269,0,0,0-23.315,23.218,22.939,22.939,0,0,0,3.438,12.133Z" transform="translate(1100.865 -7.711)" fill="none" stroke="#fff" stroke-miterlimit="10" stroke-width="5.514"/>
                <line id="Line_4" data-name="Line 4" x1="99.63" transform="translate(126.306 29.437)" fill="none" stroke="#fff" stroke-linecap="round" stroke-miterlimit="10" stroke-width="5.514"/>
                <line id="Line_5" data-name="Line 5" x1="45.847" transform="translate(67.145 29.437)" fill="none" stroke="#fff" stroke-linecap="round" stroke-miterlimit="10" stroke-width="5.514"/>
                <line id="Line_6" data-name="Line 6" x1="64.133" transform="translate(67.133 43.375)" fill="none" stroke="#fff" stroke-linecap="round" stroke-miterlimit="10" stroke-width="5.514"/>
              </g>
            </g>
          </g>
          <path id="Path_7408" data-name="Path 7408" d="M-865.265-211.248c-9.275.276-18.061,4.62-24.5,13.362a31.92,31.92,0,0,0-1.064,36.107,2.487,2.487,0,0,1,.317,2.233c-.94,3.274-1.8,6.568-2.723,9.848-.184.655-.125.813.605.615,3.437-.93,6.895-1.789,10.331-2.722a2.231,2.231,0,0,1,1.91.248,31.777,31.777,0,0,0,21.429,4.307,32.233,32.233,0,0,0,26.809-38.08c-3.081-15.144-16.209-25.922-33.117-25.917m1.478-6.554c18.38.239,33.535,12.279,37.777,29.918A38.806,38.806,0,0,1-856.1-141.113a38.291,38.291,0,0,1-25.46-3.616,2.026,2.026,0,0,0-1.585-.1q-9.257,2.433-18.515,4.86c-1.083.283-1.087.281-.783-.831q2.465-9.007,4.948-18.009a2.131,2.131,0,0,0-.2-1.741,38.758,38.758,0,0,1,26.443-56.5,40.705,40.705,0,0,1,7.464-.746" transform="translate(1029.586 217.802)" fill="#fcfcfc"/>
          <path id="Path_7409" data-name="Path 7409" d="M-845.221-151.409a13.013,13.013,0,0,1-4.09-.64c-8.9-2.54-15.56-8.1-20.922-15.434-2.006-2.745-3.865-5.561-4.5-8.975a10.841,10.841,0,0,1,3.5-10.523,6.265,6.265,0,0,1,5.143-.691,2.219,2.219,0,0,1,.978,1.2q1.617,3.855,3.223,7.714a1.929,1.929,0,0,1-.1,1.616,12.122,12.122,0,0,1-2.4,3.179,1.568,1.568,0,0,0-.239,2.157,26.45,26.45,0,0,0,13.22,11.369,1.568,1.568,0,0,0,2.048-.5c.927-1.165,1.883-2.3,2.8-3.476.73-.93,1.1-1.083,2.228-.638,2.019.8,3.932,1.822,5.884,2.767.279.134.557.273.833.408,2.081,1.018,2.23,1.314,1.807,3.6a8.471,8.471,0,0,1-6.989,6.672,11.235,11.235,0,0,1-2.43.188" transform="translate(1021.173 208.72)" fill="#fcfcfc"/>
        </g>
      </g>
    </g>
  </g>
</svg>
