<svg id="Layer_1" data-name="Layer 1" xmlns="http://www.w3.org/2000/svg" xmlns:xlink="http://www.w3.org/1999/xlink" width="143.48" height="91.31" viewBox="0 0 143.48 91.31">
  <defs>
    <style>
      .cls-1, .cls-3, .cls-5, .cls-6, .cls-7 {
        fill: none;
      }

      .cls-2 {
        clip-path: url(#clip-path);
      }

      .cls-3, .cls-6 {
        stroke: #8cc63f;
      }

      .cls-3, .cls-5, .cls-6, .cls-7 {
        stroke-miterlimit: 10;
      }

      .cls-3, .cls-5, .cls-6 {
        stroke-width: 15.19px;
      }

      .cls-3, .cls-5 {
        opacity: 0.1;
      }

      .cls-4 {
        clip-path: url(#clip-path-2);
      }

      .cls-5, .cls-7 {
        stroke: #2cc4ec;
      }

      .cls-7 {
        stroke-width: 15px;
      }
       .cls-6, .cls-7{
        stroke-dasharray: 10, 201.75;
  stroke-dashoffset: 1;
  -webkit-animation: anim 1.6s ease-in-out infinite;
          animation: anim 1.6s ease-in-out infinite;
    }

     @keyframes anim {
  40% {
    stroke-dasharray: 201.75, 150;
    stroke-dashoffset: -100;
  }
  80% {
    stroke-dasharray: 20, 201;
    stroke-dashoffset: -190;
  }
  100% {
    stroke-dasharray:20, 201;
    stroke-dashoffset: -200;
  }
}  
    </style>
    <clipPath id="clip-path" transform="translate(-23.9 -41.84)">
      <path class="cls-1" d="M77.34,38.84v97.32h93.29V38.84ZM95.43,92.57,79.76,84.14s-5.43-14.11,0-24.28c4.69-8.81,19.85-14.14,22.6-12.51,5.53,3.29,10.17,11.41,10.37,12.25C112.78,59.92,95.43,92.57,95.43,92.57Z"/>
    </clipPath>
    <clipPath id="clip-path-2" transform="translate(-23.9 -41.84)">
      <path class="cls-1" d="M113.93,136.16V38.84H20.63v97.32ZM95.84,82.43l15.66,8.43s5.44,14.11,0,24.28c-4.68,8.81-19.84,14.14-22.59,12.51-5.54-3.29-10.17-11.41-10.37-12.25C78.49,115.08,95.84,82.43,95.84,82.43Z"/>
    </clipPath>
  </defs>
  <title>logo_ring</title>
  <g class="cls-2">
    <ellipse id="green-bg" class="cls-3" cx="99.63" cy="45.66" rx="36.25" ry="38.06"/>
  </g>
  <g class="cls-4">
    <ellipse id="blue-bg" class="cls-5" cx="43.84" cy="45.66" rx="36.25" ry="38.06"/>
  </g>
  <g class="cls-2">
    <path id="green_ring" data-name="green ring" class="cls-6" d="M104.11,55.36a34.79,34.79,0,0,1,19.42-5.92c20,0,36.25,17,36.25,38.06s-16.23,38.06-36.25,38.06-36.25-17-36.25-38.06c0-1.26.06-2.5.17-3.73" transform="translate(-23.9 -41.84)"/>
  </g>
  <g class="cls-4">
    <path id="blue_ring" data-name="blue ring" class="cls-7" d="M86.63,120a34.84,34.84,0,0,1-18.89,5.57c-20,0-36.25-17-36.25-38.06S47.72,49.44,67.74,49.44,104,66.48,104,87.5a41.24,41.24,0,0,1-.45,6" transform="translate(-23.9 -41.84)"/>
  </g>
</svg>
