<?xml version="1.0" encoding="utf-8"?>
<!-- Generator: Adobe Illustrator 24.1.3, SVG Export Plug-In . SVG Version: 6.00 Build 0)  -->
<svg version="1.1" id="Layer_1" xmlns="http://www.w3.org/2000/svg" xmlns:xlink="http://www.w3.org/1999/xlink" x="0px" y="0px"
	 viewBox="0 0 904 632" style="enable-background:new 0 0 904 632;" xml:space="preserve">
<style type="text/css">
	.st0{clip-path:url(#SVGID_2_);}
	.st1{opacity:0.1;clip-path:url(#SVGID_4_);}
	.st2{clip-path:url(#SVGID_6_);fill:#2EC2EB;}
	.st3{clip-path:url(#SVGID_8_);fill:none;stroke:#BCBEC0;stroke-width:23.3206;stroke-miterlimit:10;}
	.st4{clip-path:url(#SVGID_8_);fill:url(#SVGID_9_);}
	.st5{clip-path:url(#SVGID_8_);fill:url(#SVGID_10_);}
	.st6{clip-path:url(#SVGID_12_);fill:none;stroke:#FFFFFF;stroke-width:36.0993;stroke-linecap:round;stroke-miterlimit:10;}
	.st7{fill:none;stroke:#FFFFFF;stroke-width:36.0993;stroke-linecap:round;stroke-linejoin:round;stroke-miterlimit:10;}
	
		.st8{clip-path:url(#SVGID_14_);fill:none;stroke:#BCBEC0;stroke-width:25.4596;stroke-linecap:round;stroke-linejoin:round;stroke-miterlimit:10;}
	.st9{clip-path:url(#SVGID_14_);fill:url(#SVGID_15_);}
	
		.st10{clip-path:url(#SVGID_17_);fill:none;stroke:#BCBEC0;stroke-width:23.9366;stroke-linecap:round;stroke-linejoin:round;stroke-miterlimit:10;}
	.st11{fill:url(#SVGID_18_);}
	
		.st12{clip-path:url(#SVGID_20_);fill:none;stroke:#BCBEC0;stroke-width:23.9366;stroke-linecap:round;stroke-linejoin:round;stroke-miterlimit:10;stroke-dasharray:67.4535,43.5168;}
	
		.st13{clip-path:url(#SVGID_20_);fill:none;stroke:#BCBEC0;stroke-width:23.9366;stroke-linecap:round;stroke-linejoin:round;stroke-miterlimit:10;stroke-dasharray:67.688,43.7514;}
	
		.st14{clip-path:url(#SVGID_20_);fill:none;stroke:#BCBEC0;stroke-width:23.9366;stroke-linecap:round;stroke-linejoin:round;stroke-miterlimit:10;}
	
		.st15{clip-path:url(#SVGID_22_);fill:none;stroke:#BCBEC0;stroke-width:22.4093;stroke-linecap:round;stroke-linejoin:round;stroke-miterlimit:10;}
	.st16{fill:url(#SVGID_23_);}
	.st17{clip-path:url(#SVGID_25_);fill:url(#SVGID_26_);}
	.st18{clip-path:url(#SVGID_28_);fill:url(#SVGID_29_);}
	.st19{clip-path:url(#SVGID_31_);fill:url(#SVGID_32_);}
</style>
<g>
	<g>
		<defs>
			<path id="SVGID_27_" d="M437.8,453.5l3.2-17.9c0.1-0.8,0-1.6-0.5-2.3c-2-2.6-3.2-5.8-3.1-9.3c0.2-7.5,6.4-13.8,14-14.1
				c8.4-0.4,15.3,6.3,15.3,14.5c0,3.4-1.1,6.5-3.1,8.9c-0.5,0.6-0.7,1.5-0.5,2.2l3.2,17.9c0.2,1.1-0.7,2.1-1.8,2.1h-24.9
				C438.4,455.7,437.6,454.7,437.8,453.5 M400.8,339.6v-26.5c0-27.1,22.3-50.9,49.6-51.8c14.3-0.4,27.8,4.9,37.9,14.9
				c9.7,9.6,15,22.4,15,36v27.3c0,1.4-1.1,2.5-2.5,2.5h-97.3C401.9,342.1,400.8,341,400.8,339.6 M449.2,232.2
				c-43.6,1.5-77.9,37.9-77.9,81.3v26.2c0,1.4-1.1,2.5-2.5,2.5h-20.1c-3.8,0-6.8,3-6.8,6.8v165.5c0,3.8,3.1,6.8,6.8,6.8h206.5
				c3.8,0,6.8-3,6.8-6.8V348.9c0-3.8-3.1-6.8-6.8-6.8h-20.1c-1.4,0-2.5-1.1-2.5-2.5v-27.3c0-22.1-9-42.2-23.6-56.7
				c-14.6-14.5-34.8-23.5-57-23.5C451.1,232.1,450.1,232.1,449.2,232.2"/>
		</defs>
		<clipPath id="SVGID_2_">
			<use xlink:href="#SVGID_27_"  style="overflow:visible;"/>
		</clipPath>
		
			<linearGradient id="SVGID_4_" gradientUnits="userSpaceOnUse" x1="-129.1613" y1="705.2357" x2="-126.2023" y2="705.2357" gradientTransform="matrix(90.0073 74.9912 74.9912 -90.0073 -40915.8516 73449.9922)">
			<stop  offset="0" style="stop-color:#8FC740"/>
			<stop  offset="1" style="stop-color:#38C6F4"/>
		</linearGradient>
		<polygon style="clip-path:url(#SVGID_2_);fill:url(#SVGID_4_);" points="432.1,123.8 704.3,350.6 471.9,629.5 199.7,402.8 		"/>
	</g>
	<g>
		<defs>
			<path id="SVGID_30_" d="M449.2,34.5C244.5,36,79,202.4,79,407.5c0,69.4,19,134.4,52,190.1h80.4c-4.8-6.1-9.4-12.3-13.7-18.7
				c-11.1-16.4-20.6-33.9-28.3-52.1c-7.8-18.5-13.8-37.8-17.8-57.5c-4.1-20.2-6.2-41-6.2-61.9c0-20.8,2.1-41.7,6.2-61.9
				c4-19.7,10-39,17.8-57.5c7.7-18.2,17.2-35.7,28.3-52.1c11-16.3,23.6-31.5,37.5-45.4c13.9-13.9,29.2-26.5,45.4-37.5
				c16.4-11.1,33.9-20.6,52.1-28.3c18.5-7.8,37.8-13.8,57.5-17.8c20.2-4.1,41-6.2,61.9-6.2s41.7,2.1,61.9,6.2
				c19.7,4,39,10,57.5,17.8c18.2,7.7,35.7,17.2,52.1,28.3c16.3,11,31.5,23.6,45.4,37.5c13.9,13.9,26.5,29.2,37.5,45.4
				c11.1,16.4,20.6,33.9,28.3,52.1c7.8,18.5,13.8,37.8,17.8,57.5c4.1,20.2,6.2,41,6.2,61.9c0,20.8-2.1,41.7-6.2,61.9
				c-4,19.7-10,39-17.8,57.5c-7.7,18.2-17.2,35.7-28.3,52.1c-4.3,6.4-8.9,12.6-13.7,18.7H773c32.2-54.2,51-117.2,52-184.6v-11
				C822.1,199.4,657.7,36,454.9,34.5H449.2z"/>
		</defs>
		<clipPath id="SVGID_6_">
			<use xlink:href="#SVGID_30_"  style="overflow:visible;"/>
		</clipPath>
		
			<linearGradient id="SVGID_8_" gradientUnits="userSpaceOnUse" x1="-129.1711" y1="701.7714" x2="-126.2122" y2="701.7714" gradientTransform="matrix(252.1283 0 0 -252.1283 32646.6719 177252.3906)">
			<stop  offset="0" style="stop-color:#8FC740"/>
			<stop  offset="1" style="stop-color:#38C6F4"/>
		</linearGradient>
		<rect x="79" y="34.5" style="clip-path:url(#SVGID_6_);fill:url(#SVGID_8_);" width="746" height="563.1"/>
	</g>
</g>
</svg>
