<svg xmlns="http://www.w3.org/2000/svg" xmlns:xlink="http://www.w3.org/1999/xlink" width="32.076" height="32" viewBox="0 0 32.076 32">
  <defs>
    <linearGradient id="linear-gradient" y1="0.5" x2="1" y2="0.5" gradientUnits="objectBoundingBox">
      <stop offset="0" stop-color="#2cc4ec"/>
      <stop offset="1" stop-color="#8cc63f"/>
    </linearGradient>
  </defs>
  <g id="Group_4656" data-name="Group 4656" transform="translate(-4213.715 -86.935)">
    <path id="Path_10342" data-name="Path 10342" d="M4340.857,1010.364a14.394,14.394,0,0,1-21.478,1.06l1.264-.147-4.029-2.423,1.18,4.552.521-1.222a15.7,15.7,0,0,0,18.212,3.252,15.844,15.844,0,0,0,5.336-4.261Z" transform="translate(-100.24 -898.088)" fill="#000b2f"/>
    <path id="Path_10343" data-name="Path 10343" d="M4917.347,136.382l-.088,4.7,3.354-3.294-1.317.158a15.7,15.7,0,0,0-12.654-19.892l-.2,1.277a14.408,14.408,0,0,1,11.661,18.072Z" transform="translate(-674.822 -30.316)" fill="#000b2f"/>
    <path id="Path_10344" data-name="Path 10344" d="M4225.287,90.468l.507-1.164a14.5,14.5,0,0,0-10.786,13.94,14.307,14.307,0,0,0,.967,5.2l-1.205.467A15.7,15.7,0,0,1,4225.674,88l-.8-1.066,4.528,1.265Z" fill="#000b2f"/>
    <circle id="Ellipse_662" data-name="Ellipse 662" cx="3.193" cy="3.193" r="3.193" transform="translate(4226.212 100.051)" fill="url(#linear-gradient)"/>
    <path id="Path_10345" data-name="Path 10345" d="M4436.405,322.714a1.657,1.657,0,0,1-1.007-2.432l.933-1.614-2.358-2.358-1.614.933a1.657,1.657,0,0,1-2.432-1.007l-.483-1.8h-3.328l-.483,1.8a1.658,1.658,0,0,1-2.432,1.007l-1.613-.933-2.358,2.358.934,1.614a1.657,1.657,0,0,1-1.007,2.432l-1.8.483v3.333l1.8.483a1.657,1.657,0,0,1,1.007,2.432l-.934,1.614,2.358,2.358,1.613-.933a1.658,1.658,0,0,1,2.432,1.007l.483,1.8h3.328l.483-1.8a1.657,1.657,0,0,1,2.432-1.007l1.614.933,2.358-2.358-.933-1.614a1.657,1.657,0,0,1,1.007-2.432l1.8-.483V323.2Zm-8.625,7.9a5.747,5.747,0,1,1,5.747-5.747A5.747,5.747,0,0,1,4427.781,330.613Z" transform="translate(-198.376 -221.619)" fill="url(#linear-gradient)"/>
  </g>
</svg>
