<?xml version="1.0" encoding="utf-8"?>
<!-- Generator: Adobe Illustrator 23.1.0, SVG Export Plug-In . SVG Version: 6.00 Build 0)  -->
<svg version="1.1" id="Layer_1" xmlns="http://www.w3.org/2000/svg" xmlns:xlink="http://www.w3.org/1999/xlink" x="0px" y="0px"
	 viewBox="0 0 152.9 22.7" style="enable-background:new 0 0 152.9 22.7;" xml:space="preserve">
<style type="text/css">
	.st0{enable-background:new    ;}
	.st1{fill:#F4F9FF;}
</style>
<g class="st0">
	<path class="st1" d="M0,22.3V0.8h2v19.6h11.4v1.9H0z"/>
	<path class="st1" d="M15.8,3.5V0.8h1.9v2.6H15.8z M15.8,22.3V6.8h1.9v15.5H15.8z"/>
	<path class="st1" d="M24.9,22.3L19.4,6.8h2l3.3,9.8l1.3,3.9H26c0.5-1.6,0.9-2.9,1.3-3.9l3.5-9.8h1.9l-5.6,15.5H24.9z"/>
	<path class="st1" d="M40.4,22.7c-2.3,0-4-0.8-5.3-2.3c-1.3-1.5-1.9-3.5-1.9-5.9c0-2.4,0.6-4.3,2-5.8c1.3-1.5,3-2.3,5.1-2.3
		c1.2,0,2.2,0.2,3.1,0.7C44.3,7.5,45,8.2,45.5,9s0.9,1.7,1.1,2.7c0.2,1,0.3,2,0.3,3.2H35.1c0,1.8,0.5,3.3,1.4,4.5s2.2,1.7,3.9,1.7
		c2.4,0,3.9-1.2,4.5-3.5h1.8c-0.3,1.6-1.1,2.8-2.1,3.7C43.5,22.2,42.1,22.7,40.4,22.7z M35.2,13.4H45c0-1.6-0.5-2.9-1.2-3.9
		c-0.8-1-1.9-1.5-3.5-1.5c-1.5,0-2.7,0.5-3.6,1.5S35.3,11.8,35.2,13.4z"/>
	<path class="st1" d="M58.3,22.3L52.6,0.8h2.1l3.7,14.5l1,4.2h0.1c0.4-1.7,0.7-3.1,1-4.1l3.9-14.6h2.2l3.9,14.5l1,4.1h0.1
		c0.4-1.8,0.7-3.2,1-4.2l3.8-14.5h2l-5.8,21.5h-2L66.3,6.6l-0.8-3.5h-0.1c-0.3,1.4-0.6,2.6-0.8,3.5l-4.2,15.6H58.3z"/>
	<path class="st1" d="M85.1,22.7c-2.3,0-4-0.8-5.3-2.3c-1.3-1.5-1.9-3.5-1.9-5.9c0-2.4,0.6-4.3,2-5.8c1.3-1.5,3-2.3,5.1-2.3
		c1.2,0,2.2,0.2,3.1,0.7C89,7.5,89.6,8.2,90.1,9s0.9,1.7,1.1,2.7c0.2,1,0.3,2,0.3,3.2H79.8c0,1.8,0.5,3.3,1.4,4.5s2.2,1.7,3.9,1.7
		c2.4,0,3.9-1.2,4.5-3.5h1.8c-0.3,1.6-1.1,2.8-2.1,3.7C88.2,22.2,86.8,22.7,85.1,22.7z M79.8,13.4h9.8c0-1.6-0.5-2.9-1.2-3.9
		c-0.8-1-1.9-1.5-3.5-1.5c-1.5,0-2.7,0.5-3.6,1.5S80,11.8,79.8,13.4z"/>
	<path class="st1" d="M100.9,22.7c-2.2,0-3.9-0.9-5.1-2.8h-0.1v2.3h-1.9V0.8h1.9v8.6h0.1c1.2-2,2.9-3,5.3-3c1.9,0,3.4,0.7,4.6,2.2
		c1.2,1.5,1.8,3.4,1.8,6c0,2.4-0.6,4.4-1.8,5.9C104.5,21.9,102.9,22.7,100.9,22.7z M100.9,21.1c1.5,0,2.7-0.6,3.5-1.8
		s1.2-2.8,1.2-4.7c0-2-0.4-3.6-1.2-4.8c-0.8-1.2-2-1.8-3.5-1.8c-1.7,0-2.9,0.6-3.9,1.9s-1.4,2.8-1.4,4.7c0,2,0.5,3.6,1.4,4.8
		C97.9,20.5,99.2,21.1,100.9,21.1z"/>
	<path class="st1" d="M109.9,3.5V0.8h1.9v2.6H109.9z M109.9,22.3V6.8h1.9v15.5H109.9z"/>
	<path class="st1" d="M114.9,22.3V6.8h1.9v2.4h0.1c1.2-1.8,2.9-2.7,5.2-2.7c1.5,0,2.7,0.4,3.6,1.3s1.4,2,1.4,3.6v11h-1.9V11.4
		c0-2.3-1.2-3.4-3.5-3.4c-1.3,0-2.5,0.4-3.4,1.3s-1.4,1.9-1.4,3.2v9.8H114.9z"/>
	<path class="st1" d="M134.1,22.6c-1.5,0-2.7-0.4-3.7-1.1c-0.9-0.7-1.4-1.8-1.4-3.2c0-0.9,0.2-1.6,0.5-2.2c0.3-0.6,0.8-1.1,1.4-1.4
		c0.6-0.3,1.3-0.6,2-0.8c0.7-0.2,1.5-0.3,2.5-0.4c1.7-0.2,2.8-0.4,3.3-0.6c0.5-0.2,0.8-0.7,0.8-1.5V11c0-2.1-1.2-3.1-3.7-3.1
		c-2.8,0-4.2,1.2-4.3,3.5h-1.8c0.1-1.5,0.7-2.8,1.7-3.6c1-0.9,2.5-1.3,4.5-1.3c3.7,0,5.5,1.6,5.5,4.8v8.4c0,0.9,0.3,1.3,1,1.4
		c0.1,0,0.3,0,0.7-0.1h0.1v1.3c-0.4,0.2-0.8,0.2-1.3,0.2c-1.4,0-2.2-0.7-2.3-2.2V20h-0.1C138.3,21.7,136.5,22.6,134.1,22.6z
		 M134.5,21.1c1.6,0,2.9-0.5,3.8-1.4c0.9-0.9,1.4-1.9,1.4-3.1v-2.8c-0.8,0.4-2.1,0.8-4,1c-0.6,0.1-1.1,0.2-1.5,0.2
		c-0.4,0.1-0.8,0.2-1.2,0.4c-0.5,0.2-0.8,0.4-1,0.6c-0.2,0.2-0.4,0.5-0.6,0.9c-0.2,0.4-0.3,0.8-0.3,1.3
		C131,20.2,132.2,21.1,134.5,21.1z"/>
	<path class="st1" d="M144.9,22.3V6.8h1.9v2.9h0.1c1.1-2,2.6-3,4.7-3c0.2,0,0.3,0,0.5,0.1v1.8c-1.2-0.2-2.3,0.1-3.3,0.8
		c-1.3,1-2,2.4-2,4.2v8.8H144.9z"/>
</g>
</svg>
