<?xml version="1.0" encoding="utf-8"?>
<!-- Generator: Adobe Illustrator 23.1.0, SVG Export Plug-In . SVG Version: 6.00 Build 0)  -->
<svg version="1.1" id="Layer_1" xmlns="http://www.w3.org/2000/svg" xmlns:xlink="http://www.w3.org/1999/xlink" x="0px" y="0px"
	 viewBox="0 0 279 275" style="enable-background:new 0 0 279 275;" xml:space="preserve">
<style type="text/css">
	
		.st0{clip-path:url(#SVGID_2_);fill:none;stroke:#41C5EA;stroke-width:4.285;stroke-linecap:round;stroke-linejoin:round;stroke-miterlimit:10;}
	
		.st1{clip-path:url(#SVGID_2_);fill:none;stroke:#FFFFFF;stroke-width:4.285;stroke-linecap:round;stroke-linejoin:round;stroke-miterlimit:10;}
	.st2{clip-path:url(#SVGID_2_);fill:url(#SVGID_3_);}
	.st3{fill:url(#SVGID_4_);}
	.st4{fill:url(#SVGID_5_);}
	
		.st5{clip-path:url(#SVGID_7_);fill:none;stroke:#FFFFFF;stroke-width:4.285;stroke-linecap:round;stroke-linejoin:round;stroke-miterlimit:10;}
	.st6{clip-path:url(#SVGID_7_);fill:url(#SVGID_8_);}
	.st7{fill:url(#SVGID_9_);}
	.st8{fill:none;stroke:#41C5EA;stroke-width:4.285;stroke-linecap:round;stroke-linejoin:round;stroke-miterlimit:10;}
</style>
<g>
	<defs>
		<rect id="SVGID_1_" x="0.5" y="0.3" width="278.4" height="334.3"/>
	</defs>
	<clipPath id="SVGID_2_">
		<use xlink:href="#SVGID_1_"  style="overflow:visible;"/>
	</clipPath>
	<path class="st0" d="M25.1,139.5v173c0,11,9,20,20,20h182.8c11,0,20-9,20-20v-86.8"/>
	<path class="st0" d="M247.9,176.1V22.5c0-11-9-20-20-20H45.1c-11,0-20,9-20,20v70"/>
	<path class="st1" d="M175.8,131.7c4.4-4.5,7.1-10.7,7.1-17.5c0-13.8-11.2-25-25-25H38.7c-13.8,0-25,11.2-25,25
		c0,3.9,0.9,7.6,2.3,11.4c-0.2,0.5-13.3,13.6-13.3,13.6H41h91.4"/>
	
		<linearGradient id="SVGID_3_" gradientUnits="userSpaceOnUse" x1="-287.118" y1="544.6169" x2="-286.118" y2="544.6169" gradientTransform="matrix(49.8975 0 0 -49.8975 14454.4521 27305.332)">
		<stop  offset="0" style="stop-color:#8FC740"/>
		<stop  offset="1" style="stop-color:#38C6F4"/>
	</linearGradient>
	<path class="st2" d="M152.9,152.4v-1.5c11.4,0,20.6-9.2,20.6-20.6c0-11.4-9.2-20.6-20.6-20.6c-11.4,0-20.6,9.2-20.6,20.6
		c0,11.4,9.2,20.6,20.6,20.6V152.4v1.5c-13.1,0-23.6-10.6-23.6-23.6c0-13.1,10.6-23.6,23.6-23.6c13.1,0,23.6,10.6,23.6,23.6
		c0,13.1-10.6,23.6-23.6,23.6V152.4z"/>
</g>
<linearGradient id="SVGID_4_" gradientUnits="userSpaceOnUse" x1="-244.0841" y1="576.2422" x2="-243.0841" y2="576.2422" gradientTransform="matrix(6 0 0 -6 1614.434 3583.396)">
	<stop  offset="0" style="stop-color:#8FC740"/>
	<stop  offset="1" style="stop-color:#38C6F4"/>
</linearGradient>
<path class="st3" d="M154.4,116.7v18.4c0,0.8-0.7,1.5-1.5,1.5c-0.8,0-1.5-0.7-1.5-1.5v-18.4c0-0.8,0.7-1.5,1.5-1.5
	C153.8,115.2,154.4,115.9,154.4,116.7"/>
<linearGradient id="SVGID_5_" gradientUnits="userSpaceOnUse" x1="-244.0841" y1="574.791" x2="-243.0841" y2="574.791" gradientTransform="matrix(6 0 0 -6 1614.434 3591.553)">
	<stop  offset="0" style="stop-color:#8FC740"/>
	<stop  offset="1" style="stop-color:#38C6F4"/>
</linearGradient>
<path class="st4" d="M154.4,142.5v0.7c0,0.8-0.7,1.5-1.5,1.5c-0.8,0-1.5-0.7-1.5-1.5v-0.7c0-0.8,0.7-1.5,1.5-1.5
	C153.8,141,154.4,141.6,154.4,142.5"/>
<g>
	<defs>
		<rect id="SVGID_6_" x="0.5" y="0.3" width="278.4" height="334.3"/>
	</defs>
	<clipPath id="SVGID_7_">
		<use xlink:href="#SVGID_6_"  style="overflow:visible;"/>
	</clipPath>
	<path class="st5" d="M104.4,218.2c-5-4.6-7.9-10.6-7.9-17.9c0-13.8,11.2-25,25-25h119.3c13.8,0,25,11.2,25,25
		c0,3.9-0.9,7.6-2.3,11.4c0.2,0.5,13.3,13.6,13.3,13.6h-38.4h-90.8"/>
	
		<linearGradient id="SVGID_8_" gradientUnits="userSpaceOnUse" x1="-287.118" y1="544.6169" x2="-286.118" y2="544.6169" gradientTransform="matrix(49.8975 0 0 -49.8975 14428.0264 27392.1699)">
		<stop  offset="0" style="stop-color:#8FC740"/>
		<stop  offset="1" style="stop-color:#38C6F4"/>
	</linearGradient>
	<path class="st6" d="M126.5,239.3v-1.5c11.4,0,20.6-9.2,20.6-20.6c0-11.4-9.2-20.6-20.6-20.6c-11.4,0-20.6,9.2-20.6,20.6
		c0,11.4,9.2,20.6,20.6,20.6V239.3v1.5c-13.1,0-23.6-10.6-23.6-23.6c0-13.1,10.6-23.6,23.6-23.6c13.1,0,23.6,10.6,23.6,23.6
		c0,13.1-10.6,23.6-23.6,23.6V239.3z"/>
</g>
<linearGradient id="SVGID_9_" gradientUnits="userSpaceOnUse" x1="-280.5146" y1="549.148" x2="-279.5146" y2="549.148" gradientTransform="matrix(23.5072 0 0 -23.5072 6708.8638 13126.0801)">
	<stop  offset="0" style="stop-color:#8FC740"/>
	<stop  offset="1" style="stop-color:#38C6F4"/>
</linearGradient>
<path class="st7" d="M118.7,215.6l5.3,6l10.3-12.2c0.5-0.6,1.5-0.7,2.1-0.2s0.7,1.5,0.2,2.1l-11.4,13.6c-0.3,0.3-0.7,0.5-1.1,0.5
	c-0.4,0-0.9-0.2-1.1-0.5l-6.4-7.3c-0.5-0.6-0.5-1.6,0.1-2.1C117.2,215,118.2,215,118.7,215.6L118.7,215.6z"/>
<line class="st8" x1="95.8" y1="20.9" x2="181.5" y2="20.9"/>
</svg>
