<?xml version="1.0" encoding="utf-8"?>
<!-- Generator: Adobe Illustrator 23.1.0, SVG Export Plug-In . SVG Version: 6.00 Build 0)  -->
<svg version="1.1" id="Layer_1" xmlns="http://www.w3.org/2000/svg" xmlns:xlink="http://www.w3.org/1999/xlink" x="0px" y="0px"
	 viewBox="0 0 280 247" style="enable-background:new 0 0 280 247;" xml:space="preserve">
<style type="text/css">
	.st0{clip-path:url(#SVGID_2_);fill:none;stroke:#FFFFFF;stroke-width:4.5;stroke-miterlimit:10;}
	.st1{clip-path:url(#SVGID_2_);fill:none;stroke:#BCBEC0;stroke-width:8;stroke-miterlimit:10;}
	.st2{clip-path:url(#SVGID_2_);fill:url(#SVGID_3_);}
	.st3{clip-path:url(#SVGID_2_);fill:url(#SVGID_4_);}
</style>
<g>
	<defs>
		<rect id="SVGID_1_" x="0.1" y="0.47" width="280" height="246.42"/>
	</defs>
	<clipPath id="SVGID_2_">
		<use xlink:href="#SVGID_1_"  style="overflow:visible;"/>
	</clipPath>
	<path class="st0" d="M115.58,67.42c1.46,29.49-22.52,54.01-52.03,54.01H3.86c-1.43,0-2.06-1.82-0.92-2.7l14.43-11.21
		c3.64-2.83,4.61-7.91,2.3-11.91c-6.33-11-8.7-24.57-5.19-38.76c4.5-18.18,18.88-32.39,37.08-36.75
		C84.54,12.21,114.03,36.14,115.58,67.42z"/>
	<path class="st0" d="M213.6,213.5c-0.83,16.56,12.78,30.33,29.52,30.33H277c0.82,0,1.17-1.02,0.52-1.51l-8.19-6.29
		c-2.07-1.59-2.61-4.44-1.31-6.69c3.59-6.18,4.94-13.8,2.95-21.76c-2.55-10.21-10.71-18.19-21.04-20.63
		C231.21,182.5,214.48,195.93,213.6,213.5z"/>
	<path class="st1" d="M215.99,103.04c1.82,36.6-27.97,67.04-64.61,67.04H77.25c-1.78,0-2.56-2.26-1.15-3.35l17.92-13.91
		c4.53-3.51,5.72-9.82,2.86-14.78c-7.86-13.66-10.81-30.5-6.45-48.11c5.59-22.57,23.44-40.21,46.05-45.62
		C177.44,34.52,214.06,64.21,215.99,103.04z M209.23,77.49h44.18c1.51,0,2.74,1.23,2.74,2.74v127.42c0,1.51-1.23,2.74-2.74,2.74
		h-84.4c-1.51,0-2.74,1.23-2.74,2.74v11.73c0,1.51,1.23,2.74,2.74,2.74h25.6c1.51,0,2.74,1.23,2.74,2.74v9.82
		c0,1.51-1.23,2.74-2.74,2.74H96.83c-1.51,0-2.74-1.23-2.74-2.74v-9.82c0-1.51,1.23-2.74,2.74-2.74h25.6c1.51,0,2.74-1.23,2.74-2.74
		v-11.73c0-1.51-1.23-2.74-2.74-2.74h-84.4c-1.51,0-2.74-1.23-2.74-2.74V80.23c0-1.51,1.23-2.74,2.74-2.74h56.95"/>
	
		<linearGradient id="SVGID_3_" gradientUnits="userSpaceOnUse" x1="41.0666" y1="225.2931" x2="42.0666" y2="225.2931" gradientTransform="matrix(-149.098 -146.007 -146.007 149.098 39213.5938 -27445.9063)">
		<stop  offset="0" style="stop-color:#8FC740"/>
		<stop  offset="1" style="stop-color:#38C6F4"/>
	</linearGradient>
	<path class="st2" d="M155.39,135.45h3.5c0,4.07-3.29,7.36-7.36,7.36c-4.07,0-7.36-3.29-7.36-7.36c0-4.07,3.29-7.36,7.36-7.36
		c4.07,0,7.36,3.29,7.36,7.36H155.39h-3.5c0-0.2-0.16-0.36-0.36-0.36c-0.2,0-0.36,0.16-0.36,0.36c0,0.2,0.16,0.36,0.36,0.36
		c0.2,0,0.36-0.16,0.36-0.36H155.39z M151.53,122.91v3.5c-3.29,0-6.01-2.55-6.23-5.83l-2.97-44.21l0,0
		c-0.01-0.14-0.01-0.28-0.01-0.42c0-3.43,2.77-6.24,6.25-6.24h5.95c3.48,0.01,6.25,2.81,6.25,6.25c0,0.14,0,0.28-0.01,0.42l0,0
		l-2.97,44.22c-0.22,3.28-2.94,5.83-6.23,5.83V122.91v-3.5v0.75l-0.75-0.05c0.03-0.4,0.35-0.7,0.75-0.7v0.75l-0.75-0.05l2.97-44.21
		l0,0l0.69,0.05l-0.69,0l0-0.05l0.69,0.05l-0.69,0h0.75l0,0.75c-0.42-0.01-0.75-0.33-0.75-0.75h0.75l0,0.75h-5.95v-0.76h0.75
		c0,0.43-0.33,0.75-0.75,0.76v-0.76h0.75h-0.72l0.71-0.05l0,0.05h-0.72l0.71-0.05l0,0l2.97,44.22l-0.75,0.05l0-0.75
		c0.4,0,0.72,0.31,0.75,0.7l-0.75,0.05l0-0.75V122.91z"/>
	
		<linearGradient id="SVGID_4_" gradientUnits="userSpaceOnUse" x1="41.0666" y1="225" x2="42.0666" y2="225" gradientTransform="matrix(-149.098 -146.007 -146.007 149.098 39213.5938 -27445.9063)">
		<stop  offset="0" style="stop-color:#8FC740"/>
		<stop  offset="1" style="stop-color:#38C6F4"/>
	</linearGradient>
	<path class="st3" d="M115.26,36.26L99.17,20.17c-1.37-1.37-1.37-3.58,0-4.95s3.58-1.37,4.95,0l16.09,16.09
		c1.37,1.37,1.37,3.58,0,4.95S116.62,37.63,115.26,36.26z M179.72,31.32l16.09-16.09c1.37-1.37,3.58-1.37,4.95,0
		c1.37,1.37,1.37,3.58,0,4.95l-16.09,16.09c-1.37,1.37-3.58,1.37-4.95,0C178.36,34.9,178.36,32.68,179.72,31.32z M146.5,26.64V4.47
		c0-1.93,1.57-3.5,3.5-3.5c1.93,0,3.5,1.57,3.5,3.5v22.17c0,1.93-1.57,3.5-3.5,3.5C148.07,30.14,146.5,28.57,146.5,26.64z"/>
</g>
</svg>
