<svg xmlns="http://www.w3.org/2000/svg" xmlns:xlink="http://www.w3.org/1999/xlink" width="64" height="64" viewBox="0 0 64 64">
  <defs>
    <linearGradient id="linear-gradient" y1="0.5" x2="1" y2="0.5" gradientUnits="objectBoundingBox">
      <stop offset="0" stop-color="#2cc4ec"/>
      <stop offset="1" stop-color="#8cc63f"/>
    </linearGradient>
  </defs>
  <g id="Group_3671" data-name="Group 3671" transform="translate(652.296 -856.208)">
    <g id="Group_3642" data-name="Group 3642" transform="translate(-652.296 856.208)">
      <g id="Path_9137" data-name="Path 9137">
        <path id="Path_9161" data-name="Path 9161" d="M-616.243,920.208h0a4.958,4.958,0,0,1-4.951-4.952,4.96,4.96,0,0,1,4.056-4.872V895.832a11.606,11.606,0,0,1-6.7-2.763l-19.426,19.379a4.933,4.933,0,0,1,.875,2.808,4.959,4.959,0,0,1-4.951,4.952h0a4.959,4.959,0,0,1-4.953-4.952,4.96,4.96,0,0,1,4.953-4.953,4.919,4.919,0,0,1,2.81.878l19.422-19.375a11.629,11.629,0,0,1-2.846-7.655,11.671,11.671,0,0,1,.625-3.777l-15.989-6.856a5,5,0,0,1-.52.61,4.918,4.918,0,0,1-3.5,1.452h0a4.927,4.927,0,0,1-3.5-1.453,4.922,4.922,0,0,1-1.449-3.5,4.96,4.96,0,0,1,4.953-4.948,4.958,4.958,0,0,1,4.951,4.948,5.033,5.033,0,0,1-.164,1.274l15.931,6.832a11.729,11.729,0,0,1,10.382-6.292,11.662,11.662,0,0,1,7.635,2.837l11.282-11.307a4.922,4.922,0,0,1-.875-2.806,4.959,4.959,0,0,1,4.952-4.953,4.96,4.96,0,0,1,4.951,4.953,4.959,4.959,0,0,1-4.951,4.952h0a4.917,4.917,0,0,1-2.812-.879l-11.283,11.308a11.662,11.662,0,0,1,2.815,7.609,11.638,11.638,0,0,1-1.141,5.04l8.107,3.349a4.954,4.954,0,0,1,4.314-2.522,4.958,4.958,0,0,1,4.952,4.951,4.958,4.958,0,0,1-4.952,4.953h0a4.959,4.959,0,0,1-4.952-4.953,4.957,4.957,0,0,1,.055-.733l-8.426-3.481a11.721,11.721,0,0,1-8.775,5.077v14.552a4.961,4.961,0,0,1,4.057,4.872A4.958,4.958,0,0,1-616.243,920.208Zm0-8.115a3.165,3.165,0,0,0-3.161,3.162,3.166,3.166,0,0,0,3.161,3.162,3.165,3.165,0,0,0,3.161-3.162A3.165,3.165,0,0,0-616.243,912.093Zm-31.1,0a3.167,3.167,0,0,0-3.162,3.162,3.167,3.167,0,0,0,3.162,3.162,3.166,3.166,0,0,0,3.161-3.162,3.148,3.148,0,0,0-.883-2.189c-.015-.013-.031-.028-.046-.043s-.03-.03-.042-.046A3.153,3.153,0,0,0-647.343,912.093Zm54.095-20.284a3.165,3.165,0,0,0-3.162,3.161,3.166,3.166,0,0,0,3.162,3.162,3.165,3.165,0,0,0,3.161-3.162A3.165,3.165,0,0,0-593.248,891.809Zm-32.127-11.538a9.87,9.87,0,0,0-.791,3.88,9.933,9.933,0,0,0,9.921,9.923h0a9.928,9.928,0,0,0,8.515-4.831.918.918,0,0,1,.068-.115,9.86,9.86,0,0,0,1.34-4.976,9.935,9.935,0,0,0-9.923-9.923,9.938,9.938,0,0,0-9.11,5.99l-.011.026C-625.367,880.253-625.371,880.262-625.375,880.271Zm-21.968-12.8a3.167,3.167,0,0,0-3.162,3.159,3.166,3.166,0,0,0,3.162,3.164v.9l0-.9a3.142,3.142,0,0,0,2.236-.927,3.227,3.227,0,0,0,.568-.773c.007-.02.014-.039.023-.059a.93.93,0,0,1,.066-.126,3.158,3.158,0,0,0,.268-1.279A3.166,3.166,0,0,0-647.343,867.466ZM-593.248,858a3.166,3.166,0,0,0-3.162,3.162,3.166,3.166,0,0,0,3.162,3.161,3.166,3.166,0,0,0,3.161-3.161A3.167,3.167,0,0,0-593.248,858Z" transform="translate(652.296 -856.208)" fill="#000b2f"/>
      </g>
    </g>
    <g id="Group_3643" data-name="Group 3643" transform="translate(-628.018 872.37)">
      <g id="Path_9138" data-name="Path 9138">
        <path id="Path_9162" data-name="Path 9162" d="M-613.417,897.748h0a11.748,11.748,0,0,1-11.732-11.736,11.749,11.749,0,0,1,11.735-11.734,11.748,11.748,0,0,1,11.735,11.735A11.748,11.748,0,0,1-613.417,897.748Zm0-21.676a9.953,9.953,0,0,0-9.941,9.94,9.953,9.953,0,0,0,9.938,9.942l0,.9v-.9a9.953,9.953,0,0,0,9.941-9.941A9.952,9.952,0,0,0-613.417,876.072Z" transform="translate(625.152 -874.278)" fill="url(#linear-gradient)"/>
      </g>
    </g>
  </g>
</svg>
