<svg xmlns="http://www.w3.org/2000/svg" xmlns:xlink="http://www.w3.org/1999/xlink" width="125.558" height="37.185" viewBox="0 0 125.558 37.185">
  <defs>
    <linearGradient id="linear-gradient" x1="1" y1="0.5" x2="0" y2="0.5" gradientUnits="objectBoundingBox">
      <stop offset="0" stop-color="#54cdee"/>
      <stop offset="0.304" stop-color="#69cdc7"/>
      <stop offset="0.98" stop-color="#9ecf67"/>
      <stop offset="0.994" stop-color="#a0d065"/>
    </linearGradient>
  </defs>
  <g id="Group_1614" data-name="Group 1614" transform="translate(-1453.879 6099.986)">
    <path id="Path_7383" data-name="Path 7383" d="M1484.59-6062.8a1.308,1.308,0,0,1-.61-.151l-10.619-5.583-10.62,5.583a1.312,1.312,0,0,1-1.381-.1,1.311,1.311,0,0,1-.522-1.283l2.028-11.825-8.591-8.374a1.311,1.311,0,0,1-.332-1.344,1.311,1.311,0,0,1,1.059-.893l11.873-1.725,5.31-10.759a1.311,1.311,0,0,1,1.176-.731,1.311,1.311,0,0,1,1.176.731l5.31,10.759,11.873,1.725a1.311,1.311,0,0,1,1.059.893,1.312,1.312,0,0,1-.332,1.344l-8.591,8.374,2.028,11.825a1.312,1.312,0,0,1-.522,1.283A1.315,1.315,0,0,1,1484.59-6062.8Zm-26.581-21.756,7.182,7a1.311,1.311,0,0,1,.377,1.161l-1.7,9.885,8.878-4.667a1.309,1.309,0,0,1,1.22,0l8.878,4.667-1.7-9.885a1.311,1.311,0,0,1,.377-1.161l7.182-7-9.925-1.442a1.312,1.312,0,0,1-.988-.718l-4.439-8.994-4.439,8.994a1.311,1.311,0,0,1-.988.718Z" transform="translate(0)" fill="url(#linear-gradient)"/>
    <path id="Path_7384" data-name="Path 7384" d="M1910.331-6062.8a1.308,1.308,0,0,1-.61-.151l-10.619-5.583-10.62,5.583a1.312,1.312,0,0,1-1.381-.1,1.311,1.311,0,0,1-.522-1.283l2.028-11.825-8.591-8.374a1.312,1.312,0,0,1-.332-1.344,1.311,1.311,0,0,1,1.059-.893l11.873-1.725,5.31-10.759a1.311,1.311,0,0,1,1.176-.731,1.311,1.311,0,0,1,1.176.731l5.31,10.759,11.873,1.725a1.311,1.311,0,0,1,1.059.893,1.311,1.311,0,0,1-.332,1.344l-8.591,8.374,2.028,11.825a1.311,1.311,0,0,1-.522,1.283A1.314,1.314,0,0,1,1910.331-6062.8Zm-26.581-21.756,7.182,7a1.311,1.311,0,0,1,.377,1.161l-1.7,9.885,8.878-4.667a1.31,1.31,0,0,1,1.221,0l8.878,4.667-1.7-9.885a1.311,1.311,0,0,1,.377-1.161l7.182-7-9.926-1.442a1.311,1.311,0,0,1-.988-.718l-4.439-8.994-4.439,8.994a1.312,1.312,0,0,1-.988.718Z" transform="translate(-382.743)" fill="url(#linear-gradient)"/>
    <path id="Path_7385" data-name="Path 7385" d="M2342-6062.8a1.307,1.307,0,0,1-.61-.151l-10.62-5.583-10.619,5.583a1.312,1.312,0,0,1-1.381-.1,1.311,1.311,0,0,1-.522-1.283l2.028-11.825-8.591-8.374a1.311,1.311,0,0,1-.332-1.344,1.312,1.312,0,0,1,1.059-.893l11.873-1.725,5.31-10.759a1.311,1.311,0,0,1,1.176-.731,1.311,1.311,0,0,1,1.176.731l5.31,10.759,11.873,1.725a1.312,1.312,0,0,1,1.059.893,1.311,1.311,0,0,1-.332,1.344l-8.591,8.374,2.028,11.825a1.311,1.311,0,0,1-.522,1.283A1.314,1.314,0,0,1,2342-6062.8Zm-11.23-8.527a1.309,1.309,0,0,1,.61.151l8.878,4.667-1.7-9.885a1.312,1.312,0,0,1,.377-1.161l7.182-7-9.926-1.442a1.311,1.311,0,0,1-.987-.718l-4.439-8.994-4.438,8.994a1.312,1.312,0,0,1-.988.718l-9.926,1.442,7.182,7a1.31,1.31,0,0,1,.377,1.161l-1.7,9.885,8.878-4.667A1.309,1.309,0,0,1,2330.766-6071.328Z" transform="translate(-770.81)" fill="url(#linear-gradient)"/>
  </g>
</svg>
