<svg xmlns="http://www.w3.org/2000/svg" xmlns:xlink="http://www.w3.org/1999/xlink" width="52" height="51" viewBox="0 0 52 51">
  <defs>
    <clipPath id="clip-path">
      <ellipse id="Ellipse_583" data-name="Ellipse 583" cx="26" cy="25.5" rx="26" ry="25.5" transform="translate(-979 977)" fill="#001966" opacity="0.8"/>
    </clipPath>
  </defs>
  <g id="Group_3695" data-name="Group 3695" transform="translate(-601 -1476.5)">
    <g id="Group_3538" data-name="Group 3538" transform="translate(86 -1266.5)">
      <path id="Path_8942" data-name="Path 8942" d="M26,0A25.754,25.754,0,0,1,52,25.5,25.754,25.754,0,0,1,26,51,25.754,25.754,0,0,1,0,25.5,25.754,25.754,0,0,1,26,0Z" transform="translate(515 2743)" fill="#001966"/>
    </g>
    <path id="Path_9184" data-name="Path 9184" d="M189.741,552.267a15.91,15.91,0,1,0,15.909,15.91A15.911,15.911,0,0,0,189.741,552.267Zm1.215,23.869v2.631H188.5v-2.53a8.381,8.381,0,0,1-4.454-1.923l1.62-2.5a6.017,6.017,0,0,0,3.619,1.467c1.417,0,2.049-.581,2.049-1.745,0-2.607-6.68-2.557-6.68-7.111a4.521,4.521,0,0,1,3.846-4.682v-2.607h2.454v2.556a6.273,6.273,0,0,1,3.771,2.075l-1.872,2.126a3.879,3.879,0,0,0-2.759-1.266c-1.214,0-1.872.48-1.872,1.619,0,2.4,6.68,2.2,6.68,7.035A4.677,4.677,0,0,1,190.955,576.136Z" transform="translate(437.26 933.823)" fill="#fff"/>
  </g>
</svg>
