<svg xmlns="http://www.w3.org/2000/svg" xmlns:xlink="http://www.w3.org/1999/xlink" width="64" height="60.24" viewBox="0 0 64 60.24">
  <defs>
    <linearGradient id="linear-gradient" y1="0.5" x2="1" y2="0.5" gradientUnits="objectBoundingBox">
      <stop offset="0" stop-color="#2cc4ec"/>
      <stop offset="1" stop-color="#8cc63f"/>
    </linearGradient>
  </defs>
  <g id="Group_3678" data-name="Group 3678" transform="translate(851.188 -1351.293)">
    <g id="Group_3637" data-name="Group 3637" transform="translate(-851.188 1361.974)">
      <g id="Path_9134" data-name="Path 9134">
        <path id="Path_9171" data-name="Path 9171" d="M-848.229,1413.322a2.939,2.939,0,0,1-2.09-.865,2.941,2.941,0,0,1-.869-2.094l.005-6.239a2.963,2.963,0,0,1,2.956-2.961h2.265a13.37,13.37,0,0,1,13.321-12.468h5.35v-12.778h-2.231a2.968,2.968,0,0,1-2.964-2.963l0-6.23h0a2.969,2.969,0,0,1,2.964-2.963h6.231a2.969,2.969,0,0,1,2.963,2.963v6.231a2.968,2.968,0,0,1-2.963,2.962h-2.233V1388.7h5.35a13.259,13.259,0,0,1,9.438,3.91,13.246,13.246,0,0,1,3.882,8.559h2.265a2.943,2.943,0,0,1,2.092.866,2.939,2.939,0,0,1,.867,2.093v6.236a2.941,2.941,0,0,1-.865,2.094,2.942,2.942,0,0,1-2.093.869h-6.238a2.968,2.968,0,0,1-2.964-2.963l0-6.235h0a2.966,2.966,0,0,1,2.963-2.961h2.2a11.494,11.494,0,0,0-3.359-7.307,11.5,11.5,0,0,0-8.187-3.391h-5.35v10.7h2.235a2.964,2.964,0,0,1,2.961,2.959v6.236a2.968,2.968,0,0,1-2.963,2.964h-6.233a2.968,2.968,0,0,1-2.964-2.963l0-6.235h0a2.966,2.966,0,0,1,2.963-2.961h2.231v-10.7h-5.349a11.509,11.509,0,0,0-8.19,3.394,11.489,11.489,0,0,0-3.358,7.3h2.2a2.965,2.965,0,0,1,2.962,2.959v6.236a2.968,2.968,0,0,1-2.964,2.964h-6.237Zm0-10.389a1.184,1.184,0,0,0-.841.349,1.185,1.185,0,0,0-.347.842h0l-.005,6.234a1.181,1.181,0,0,0,.349.844,1.422,1.422,0,0,0,.842.349h6.235a1.2,1.2,0,0,0,1.195-1.195v-6.233a1.183,1.183,0,0,0-.35-.842,1.183,1.183,0,0,0-.842-.349h-6.236Zm36.21,1.192,0,6.234a1.2,1.2,0,0,0,1.195,1.193h6.236a1.187,1.187,0,0,0,.842-.349,1.186,1.186,0,0,0,.348-.843v-6.235a1.181,1.181,0,0,0-.348-.842,1.184,1.184,0,0,0-.841-.349h-6.236a1.2,1.2,0,0,0-1.194,1.192Zm-18.7,0,0,6.234a1.2,1.2,0,0,0,1.195,1.193h6.233a1.2,1.2,0,0,0,1.194-1.195v-6.233a1.183,1.183,0,0,0-.35-.842,1.183,1.183,0,0,0-.842-.349h-6.234a1.2,1.2,0,0,0-1.194,1.192Zm0-37.4,0,6.229a1.2,1.2,0,0,0,1.195,1.193h6.232a1.2,1.2,0,0,0,1.195-1.193v-6.23a1.2,1.2,0,0,0-1.194-1.194h-6.231a1.2,1.2,0,0,0-1.195,1.195Z" transform="translate(851.188 -1363.762)" fill="#000b2f"/>
      </g>
    </g>
    <g id="Group_3638" data-name="Group 3638" transform="translate(-836.75 1351.293)">
      <g id="Path_9135" data-name="Path 9135">
        <path id="Path_9172" data-name="Path 9172" d="M-831.487,1400.853a2.942,2.942,0,0,1-2.092-.865,2.946,2.946,0,0,1-.869-2.094l.005-6.24a2.963,2.963,0,0,1,2.956-2.96h2.264a13.257,13.257,0,0,1,3.88-8.556,13.269,13.269,0,0,1,9.441-3.912h5.35v-12.778h-2.232a2.968,2.968,0,0,1-2.963-2.962l0-6.23h0a2.968,2.968,0,0,1,2.963-2.963h6.231a2.969,2.969,0,0,1,2.964,2.963v6.231a2.969,2.969,0,0,1-2.965,2.962h-2.231v12.778h5.349a13.367,13.367,0,0,1,13.321,12.468h2.265a2.964,2.964,0,0,1,2.96,2.958v6.237a2.965,2.965,0,0,1-2.959,2.964h-6.238a2.967,2.967,0,0,1-2.963-2.963v-6.235h0a2.966,2.966,0,0,1,2.963-2.96h2.2a11.6,11.6,0,0,0-11.547-10.7h-5.349v10.7h2.234a2.965,2.965,0,0,1,2.962,2.959v6.236a2.969,2.969,0,0,1-2.964,2.964h-6.233a2.968,2.968,0,0,1-2.963-2.963l0-6.235h0a2.966,2.966,0,0,1,2.961-2.96h2.232V1378H-815.9a11.512,11.512,0,0,0-8.19,3.394,11.494,11.494,0,0,0-3.358,7.3h2.2a2.967,2.967,0,0,1,2.962,2.959v6.236a2.969,2.969,0,0,1-2.964,2.964h-6.236Zm0-10.388a1.191,1.191,0,0,0-1.188,1.19v0l-.005,6.234a1.188,1.188,0,0,0,.35.845,1.182,1.182,0,0,0,.842.348h6.235a1.2,1.2,0,0,0,1.195-1.195v-6.233a1.194,1.194,0,0,0-1.193-1.191h-6.235Zm36.209,1.192v6.234a1.2,1.2,0,0,0,1.193,1.193h6.237a1.184,1.184,0,0,0,.842-.35,1.187,1.187,0,0,0,.349-.843v-6.235a1.193,1.193,0,0,0-1.19-1.191h-6.236a1.2,1.2,0,0,0-1.194,1.192Zm-18.7,0,0,6.234a1.2,1.2,0,0,0,1.193,1.193h6.233a1.2,1.2,0,0,0,1.195-1.195v-6.233a1.183,1.183,0,0,0-.35-.843,1.184,1.184,0,0,0-.842-.348h-6.234a1.194,1.194,0,0,0-1.192,1.192Zm0-37.4,0,6.229a1.2,1.2,0,0,0,1.193,1.193h6.232a1.2,1.2,0,0,0,1.2-1.193v-6.23a1.2,1.2,0,0,0-1.195-1.194h-6.231a1.2,1.2,0,0,0-1.193,1.195Z" transform="translate(834.448 -1351.293)" fill="url(#linear-gradient)"/>
      </g>
    </g>
  </g>
</svg>
