<svg xmlns="http://www.w3.org/2000/svg" xmlns:xlink="http://www.w3.org/1999/xlink" width="59.952" height="56.527" viewBox="0 0 59.952 56.527">
  <defs>
    <linearGradient id="linear-gradient" x1="0.5" x2="0.5" y2="1" gradientUnits="objectBoundingBox">
      <stop offset="0" stop-color="#8cc63f"/>
      <stop offset="1" stop-color="#2cc4ec"/>
    </linearGradient>
  </defs>
  <g id="Group_1685" data-name="Group 1685" transform="translate(417.135 -129.841) rotate(90)">
    <path id="Path_7412" data-name="Path 7412" d="M145.994,417.135a2.7,2.7,0,0,1-2.7-2.7V366.406l-12.841,12.84a2.7,2.7,0,0,1-3.82-3.82l17.452-17.452a2.7,2.7,0,0,1,4.611,1.911v54.549A2.7,2.7,0,0,1,145.994,417.135Z" transform="translate(4 0)" fill="url(#linear-gradient)"/>
    <path id="Path_7413" data-name="Path 7413" d="M197.451,417.136a2.7,2.7,0,0,1-2.7-2.7V359.885a2.7,2.7,0,0,1,5.4,0v48.028l12.841-12.84a2.7,2.7,0,0,1,3.82,3.82l-17.452,17.452A2.7,2.7,0,0,1,197.451,417.136Z" transform="translate(-31.237 0)" fill="url(#linear-gradient)"/>
  </g>
</svg>
