<svg xmlns="http://www.w3.org/2000/svg" xmlns:xlink="http://www.w3.org/1999/xlink" width="33.825" height="34.033" viewBox="0 0 33.825 34.033">
  <defs>
    <linearGradient id="linear-gradient" y1="0.5" x2="1" y2="0.5" gradientUnits="objectBoundingBox">
      <stop offset="0" stop-color="#2cc4ec"/>
      <stop offset="1" stop-color="#8cc63f"/>
    </linearGradient>
  </defs>
  <g id="Group_4655" data-name="Group 4655" transform="translate(-3693.602 -3202.737)">
    <path id="Path_10339" data-name="Path 10339" d="M3711.221,3203.752a15.794,15.794,0,0,0-4.275.4,15.865,15.865,0,1,0,4.275-.4Z" transform="translate(0)" fill="none" stroke="#000b2f" stroke-width="2"/>
    <path id="Path_10340" data-name="Path 10340" d="M3980.374,3479.081a11.687,11.687,0,0,0-3.161.293,11.841,11.841,0,0,0,2.65,23.363,11.684,11.684,0,0,0,2.649-.3,11.844,11.844,0,0,0-2.137-23.353Z" transform="translate(-269.333 -271.165)" fill="url(#linear-gradient)"/>
    <path id="Path_10341" data-name="Path 10341" d="M4478.121,3750.478a3.448,3.448,0,0,1-.854,2.357,3.9,3.9,0,0,1-2.477,1.217l0,1.878h-1.434l0-1.828a6.808,6.808,0,0,1-2.022-.435,4.857,4.857,0,0,1-1.55-.9l.783-2.046a5.013,5.013,0,0,0,1.277.787,5.137,5.137,0,0,0,1.506.4l-.007-2.8a9.747,9.747,0,0,1-1.722-.636,3.14,3.14,0,0,1-1.178-1.031,3.1,3.1,0,0,1-.477-1.8,3.513,3.513,0,0,1,.861-2.39,3.838,3.838,0,0,1,2.5-1.217l0-1.861h1.434l0,1.828a5.677,5.677,0,0,1,2.913,1.021l-.711,2.063a5.171,5.171,0,0,0-2.2-.871l.007,2.851a9.315,9.315,0,0,1,1.7.611,2.92,2.92,0,0,1,1.648,2.808Zm-5.846-4.978a.924.924,0,0,0,.274.688,2.131,2.131,0,0,0,.79.452l-.006-2.381a1.488,1.488,0,0,0-.8.479,1.193,1.193,0,0,0-.256.763Zm2.51,6.338a1.468,1.468,0,0,0,.773-.437,1.068,1.068,0,0,0,.256-.721.942.942,0,0,0-.267-.687,2.246,2.246,0,0,0-.769-.469l.006,2.314Z" transform="translate(-763.414 -528.308)" fill="#f4f9ff"/>
  </g>
</svg>
