<?xml version="1.0" encoding="utf-8"?>
<!-- Generator: Adobe Illustrator 23.1.0, SVG Export Plug-In . SVG Version: 6.00 Build 0)  -->
<svg version="1.1" id="Layer_1" xmlns="http://www.w3.org/2000/svg" xmlns:xlink="http://www.w3.org/1999/xlink" x="0px" y="0px"
	 viewBox="0 0 100 87" style="enable-background:new 0 0 100 87;" xml:space="preserve">
<style type="text/css">
	
		.st0{clip-path:url(#SVGID_2_);fill:none;stroke:#666666;stroke-width:4;stroke-linecap:round;stroke-linejoin:round;stroke-miterlimit:10;}
	.st1{clip-path:url(#SVGID_2_);fill:url(#SVGID_3_);}
</style>
<g>
	<defs>
		<rect id="SVGID_1_" x="7.2" y="4.9" width="85.3" height="76.6"/>
	</defs>
	<clipPath id="SVGID_2_">
		<use xlink:href="#SVGID_1_"  style="overflow:visible;"/>
	</clipPath>
	<path class="st0" d="M32.2,10.5C47.9,6.8,63.1,6.8,78.3,7c6.5,0.1,8.1,2.9,5.3,7.3c2.3,1.9,5.4,3.4,6.3,5.6
		c0.8,1.9-0.9,4.7-1.7,7.8c0.5,1.1,2.3,3.3,2.3,5.4c0,2-2,4-3.2,6.3c2.1,1.8,4.1,4.2,2.4,7.8c-1.7,3.5-4.9,3.8-8.5,3.8
		c-4.6-0.1-9.2-0.1-13.8,0c-4.3,0.1-4.9,0.8-3.6,4.8c1.2,3.8,2.7,7.5,3.6,11.3c0.9,3.8,1.1,7.8-2.3,10.7c-1.2,1-3.3,1.8-4.8,1.6
		c-1-0.2-2.3-2.2-2.5-3.5C57,69,54.2,63.1,49.1,58c-2.1-2.1-3.4-4.8-5-7.3c-2.4-3.8-5-7.3-10-8.4c-0.8-0.2-1.9-1.4-1.9-2.2
		C32.1,30.2,32.2,20.4,32.2,10.5z"/>
	
		<linearGradient id="SVGID_3_" gradientUnits="userSpaceOnUse" x1="1.3105" y1="88.229" x2="2.3105" y2="88.229" gradientTransform="matrix(20.0812 0 0 -20.0812 -19.0812 1795.791)">
		<stop  offset="0" style="stop-color:#8FC740"/>
		<stop  offset="1" style="stop-color:#38C6F4"/>
	</linearGradient>
	<path class="st1" d="M9.2,41.2v-1.5h14.6V8.4H10.7l0,32.8H9.2v-1.5V41.2H7.7V6.9c0-0.4,0.2-0.8,0.4-1.1c0.3-0.3,0.7-0.4,1.1-0.4
		h16.1c0.4,0,0.8,0.2,1.1,0.4c0.3,0.3,0.4,0.7,0.4,1.1v34.3c0,0.4-0.2,0.8-0.4,1.1s-0.7,0.4-1.1,0.4H9.2c-0.4,0-0.8-0.2-1.1-0.4
		c-0.3-0.3-0.4-0.7-0.4-1.1H9.2z"/>
</g>
</svg>
