<?xml version="1.0" encoding="utf-8"?>
<!-- Generator: Adobe Illustrator 23.1.0, SVG Export Plug-In . SVG Version: 6.00 Build 0)  -->
<svg version="1.1" id="Layer_1" xmlns="http://www.w3.org/2000/svg" xmlns:xlink="http://www.w3.org/1999/xlink" x="0px" y="0px"
	 viewBox="0 0 136 124" style="enable-background:new 0 0 136 124;" xml:space="preserve">
<style type="text/css">
	.st0{clip-path:url(#SVGID_2_);fill:url(#SVGID_3_);}
	.st1{clip-path:url(#SVGID_5_);fill:none;stroke:#FFFFFF;stroke-width:4;stroke-miterlimit:10;}
	.st2{clip-path:url(#SVGID_5_);fill:none;stroke:#CBCCCE;stroke-width:4;stroke-linecap:round;stroke-miterlimit:10;}
</style>
<g>
	<defs>
		<path id="SVGID_1_" d="M41.4,61.1c0,6,2,11.6,5.4,16.2l-8.7,12.8l30.8-1.7c0.2,0,0.3,0,0.5,0c15.5,0,28-12.2,28-27.3
			c0-15.1-12.5-27.3-28-27.3C53.9,33.8,41.4,46,41.4,61.1"/>
	</defs>
	<clipPath id="SVGID_2_">
		<use xlink:href="#SVGID_1_"  style="overflow:visible;"/>
	</clipPath>
	
		<linearGradient id="SVGID_3_" gradientUnits="userSpaceOnUse" x1="-163.683" y1="296.7865" x2="-162.683" y2="296.7865" gradientTransform="matrix(-60.25 0 0 -60.25 -9764.0459 17943.3027)">
		<stop  offset="0" style="stop-color:#8FC740"/>
		<stop  offset="1" style="stop-color:#38C6F4"/>
	</linearGradient>
	<rect x="38.1" y="33.8" class="st0" width="59.3" height="56.3"/>
</g>
<g>
	<defs>
		<rect id="SVGID_4_" x="0.7" y="30.3" width="135.1" height="63.2"/>
	</defs>
	<clipPath id="SVGID_5_">
		<use xlink:href="#SVGID_4_"  style="overflow:visible;"/>
	</clipPath>
	<path class="st1" d="M46.8,77.2c-3.4-4.5-5.4-10.1-5.4-16.2c0-15.1,12.5-27.3,28-27.3c15.5,0,28,12.2,28,27.3s-12.5,27.3-28,27.3
		c-0.2,0-0.3,0-0.5,0l-30.8,1.7L46.8,77.2z"/>
	<path class="st2" d="M111.6,79c4.6-4.6,7.4-10.6,7.4-17c0-6.5-2.8-12.4-7.4-17"/>
	<path class="st2" d="M119,91.5c9.2-8,14.8-18.3,14.8-29.6c0-11.3-5.6-21.6-14.8-29.6"/>
	<path class="st2" d="M24.8,79c-4.6-4.6-7.4-10.6-7.4-17c0-6.5,2.8-12.4,7.4-17"/>
	<path class="st2" d="M17.5,91.5c-9.2-8-14.8-18.3-14.8-29.6c0-11.3,5.6-21.6,14.8-29.6"/>
</g>
</svg>
