<?xml version="1.0" encoding="utf-8"?>
<!-- Generator: Adobe Illustrator 23.1.0, SVG Export Plug-In . SVG Version: 6.00 Build 0)  -->
<svg version="1.1" id="Layer_1" xmlns="http://www.w3.org/2000/svg" xmlns:xlink="http://www.w3.org/1999/xlink" x="0px" y="0px"
	 viewBox="0 0 100 87" style="enable-background:new 0 0 100 87;" xml:space="preserve">
<style type="text/css">
	
		.st0{clip-path:url(#SVGID_2_);fill:none;stroke:#666666;stroke-width:4;stroke-linecap:round;stroke-linejoin:round;stroke-miterlimit:10;}
	.st1{fill:url(#SVGID_3_);}
</style>
<g>
	<defs>
		<rect id="SVGID_1_" x="4" y="0.9" width="91.9" height="84.5"/>
	</defs>
	<clipPath id="SVGID_2_">
		<use xlink:href="#SVGID_1_"  style="overflow:visible;"/>
	</clipPath>
	<polyline class="st0" points="6,2.9 6,83.4 94,83.4 	"/>
</g>
<linearGradient id="SVGID_3_" gradientUnits="userSpaceOnUse" x1="1.0393" y1="87.8912" x2="2.0393" y2="87.8912" gradientTransform="matrix(77 0 0 -77 -67.0256 6810)">
	<stop  offset="0" style="stop-color:#8FC740"/>
	<stop  offset="1" style="stop-color:#38C6F4"/>
</linearGradient>
<path class="st1" d="M16.2,15.4l19,22.8L47,27.3c0.3-0.3,0.7-0.4,1.2-0.4c0.4,0,0.8,0.3,1.1,0.6l20,26.7L76,48
	c0.3-0.3,0.8-0.4,1.2-0.4c0.4,0.1,0.8,0.3,1.1,0.7l11,19.2c0.4,0.7,0.2,1.6-0.6,2c-0.7,0.4-1.6,0.2-2-0.6L76.6,51.5l-6.6,6
	c-0.3,0.3-0.7,0.4-1.1,0.4c-0.4,0-0.8-0.3-1.1-0.6l-20-26.7L36,41.5c-0.3,0.3-0.7,0.4-1.1,0.4c-0.4,0-0.8-0.2-1.1-0.5l-20-24
	c-0.5-0.6-0.4-1.6,0.2-2.1C14.7,14.7,15.6,14.8,16.2,15.4L16.2,15.4z"/>
</svg>
