<?xml version="1.0" encoding="utf-8"?>
<!-- Generator: Adobe Illustrator 23.1.0, SVG Export Plug-In . SVG Version: 6.00 Build 0)  -->
<svg version="1.1" id="Layer_1" xmlns="http://www.w3.org/2000/svg" xmlns:xlink="http://www.w3.org/1999/xlink" x="0px" y="0px"
	 viewBox="0 0 100 87" style="enable-background:new 0 0 100 87;" xml:space="preserve">
<style type="text/css">
	.st0{fill:url(#SVGID_1_);}
	
		.st1{clip-path:url(#SVGID_3_);fill:none;stroke:#666666;stroke-width:4;stroke-linecap:round;stroke-linejoin:round;stroke-miterlimit:10;}
</style>
<linearGradient id="SVGID_1_" gradientUnits="userSpaceOnUse" x1="0.9673" y1="88.6524" x2="1.9672" y2="88.6524" gradientTransform="matrix(24.3714 0 0 -24.3714 20.7567 2202.5859)">
	<stop  offset="0" style="stop-color:#8FC740"/>
	<stop  offset="1" style="stop-color:#38C6F4"/>
</linearGradient>
<path class="st0" d="M54.3,68.7v-6.6c-3.8-0.1-7.7-1.2-10-2.9l1.6-4.4c2.3,1.6,5.7,2.8,9.4,2.8c4.6,0,7.8-2.7,7.8-6.4
	c0-3.6-2.5-5.8-7.4-7.8C49,41,44.9,38,44.9,32.3c0-5.4,3.8-9.5,9.8-10.5v-6.6h4v6.3c3.9,0.1,6.6,1.2,8.5,2.3l-1.6,4.3
	c-1.4-0.8-4-2.2-8.2-2.2c-5,0-6.9,3-6.9,5.6c0,3.4,2.4,5.1,8.1,7.4c6.7,2.7,10.1,6.1,10.1,11.9c0,5.1-3.6,10-10.3,11.1v6.8H54.3z"/>
<g>
	<defs>
		<rect id="SVGID_2_" x="0.2" y="0.1" width="99.6" height="86"/>
	</defs>
	<clipPath id="SVGID_3_">
		<use xlink:href="#SVGID_2_"  style="overflow:visible;"/>
	</clipPath>
	<path class="st1" d="M19,27.2C25.2,12.4,39.8,2.1,56.8,2.1c22.7,0,41,18.4,41,41s-18.4,41-41,41c-17,0-31.6-10.3-37.8-25 M2.2,43.1
		h27.1"/>
</g>
</svg>
