<?xml version="1.0" encoding="utf-8"?>
<!-- Generator: Adobe Illustrator 23.1.0, SVG Export Plug-In . SVG Version: 6.00 Build 0)  -->
<svg version="1.1" id="Layer_1" xmlns="http://www.w3.org/2000/svg" xmlns:xlink="http://www.w3.org/1999/xlink" x="0px" y="0px"
	 viewBox="0 0 234 110" style="enable-background:new 0 0 234 110;" xml:space="preserve">
<style type="text/css">
	.st0{fill:#8CC63F;}
	.st1{fill:#939598;}
</style>
<g>
	<path class="st0" d="M233.57,104.61c-1.83,0.42-3.6,1.24-5.52,1.06c-15.11-1.46-30.12,1.21-45.2,1.18c-2.64-0.01-5.13-0.3-7.59-1.3
		c-7.47-3.03-15.66-3.25-23.25-5.86c-1.96-0.67-4.01-0.02-5.64,1.36c-1.7,1.45-3.55,2.83-4.9,4.57c-3.86,5-8.55,5.96-14.05,3.26
		c-5.47-2.68-11.23-2.74-16.95-1.75c-6.52,1.13-12.13-0.09-16.94-4.7c-2.62-2.51-5.76-3.56-9.38-3.26c-1.29,0.1-2.62,0.17-3.89-0.03
		c-7.8-1.19-14.35,1.17-19.83,6.74c-2.46,2.5-5.33,1.75-8.19,1c-0.33-0.09-0.67-0.27-0.93-0.5C43.45,99.4,33.52,99.86,24,98.87
		c-3.16-0.33-6.35-0.42-9.51-0.74c-4.53-0.46-8.95-0.57-12.97,2.11c-0.4,0.27-1.11,0.09-1.68,0.12v-6.37c1.12,0.75,2.03,0,2.93-0.47
		c2.69-1.4,5.51-1.9,8.53-1.69c10.29,0.72,20.55,1.71,30.77,3.15c2.67,0.38,4.62,2.23,6.76,3.65c6.17,4.08,8.02,4.08,13.74-0.56
		c1.88-1.52,4.3-2.47,5.46-4.82c6.18,4.26,12.21,4.22,18.06-0.67c3.67,0.8,6.73,2.77,9.48,5.22c3.58,3.2,7.59,4.35,12.38,3.45
		c7.17-1.34,14.24-1.16,21.06,2.02c4.58,2.13,8.42,0.53,11.7-3.04c2.21-2.41,4.24-5.07,7.47-6.28c4.59,1.74,9.19,3.48,14.07,0.97
		c-0.05,1.72,1.18,1.6,2.38,1.8c2.54,0.42,5.24,0.59,7.52,1.64c5.35,2.46,10.84,2.6,16.54,2.22c7.46-0.5,14.93-0.53,22.4-1.18
		c4.23-0.37,8.87-0.75,13.21,0.69c3.24,1.07,6.13-1.18,9.28-1.13V104.61z"/>
	<path class="st1" d="M157.94,76.29c-5.12,0-9.29,4.17-9.29,9.29s4.17,9.29,9.29,9.29c5.12,0,9.29-4.17,9.29-9.29
		S163.06,76.29,157.94,76.29 M157.94,99.06c-7.44,0-13.49-6.05-13.49-13.49c0-7.44,6.05-13.49,13.49-13.49
		c7.44,0,13.48,6.05,13.48,13.49C171.42,93.01,165.37,99.06,157.94,99.06"/>
	<path class="st1" d="M74.91,76.29c-5.12,0-9.29,4.17-9.29,9.29s4.17,9.29,9.29,9.29c5.12,0,9.29-4.17,9.29-9.29
		S80.04,76.29,74.91,76.29 M74.91,99.06c-7.44,0-13.49-6.05-13.49-13.49c0-7.44,6.05-13.49,13.49-13.49
		c7.44,0,13.48,6.05,13.48,13.49C88.4,93.01,82.35,99.06,74.91,99.06"/>
	<path class="st1" d="M74.91,83.41c-1.19,0-2.17,0.97-2.17,2.17c0,1.19,0.97,2.17,2.17,2.17c1.19,0,2.17-0.97,2.17-2.17
		C77.08,84.38,76.11,83.41,74.91,83.41 M74.91,91.94c-3.51,0-6.36-2.85-6.36-6.36c0-3.51,2.86-6.36,6.36-6.36
		c3.51,0,6.36,2.86,6.36,6.36C81.28,89.08,78.42,91.94,74.91,91.94"/>
	<path class="st1" d="M174.63,80.38h-7.43c-1.16,0-2.1-0.94-2.1-2.1c0-1.16,0.94-2.1,2.1-2.1h7.43c1.16,0,2.1,0.94,2.1,2.1
		C176.73,79.44,175.79,80.38,174.63,80.38"/>
	<path class="st1" d="M125.96,67.7H49.9c-1.16,0-2.1-0.94-2.1-2.1c0-1.16,0.94-2.1,2.1-2.1h76.05c1.16,0,2.1,0.94,2.1,2.1
		C128.05,66.76,127.11,67.7,125.96,67.7"/>
	<path class="st1" d="M73.34,53.75h33.44V37.99H73.34V53.75z M108.88,57.95H71.24c-1.16,0-2.1-0.94-2.1-2.1V35.89
		c0-1.16,0.94-2.1,2.1-2.1h37.64c1.16,0,2.1,0.94,2.1,2.1v19.96C110.98,57.01,110.04,57.95,108.88,57.95"/>
	<path class="st1" d="M157.94,83.41c-1.19,0-2.17,0.97-2.17,2.17c0,1.19,0.97,2.17,2.17,2.17c1.19,0,2.17-0.97,2.17-2.17
		C160.1,84.38,159.13,83.41,157.94,83.41 M157.94,91.94c-3.51,0-6.36-2.85-6.36-6.36c0-3.51,2.85-6.36,6.36-6.36
		c3.51,0,6.36,2.86,6.36,6.36C164.3,89.08,161.45,91.94,157.94,91.94"/>
	<path class="st1" d="M171.26,83.47h4.99c0.44,0,0.85-0.18,1.15-0.51c0.17-0.19,0.45-0.6,0.39-1.2c-0.08-0.76-0.86-1.38-1.75-1.38
		h-1.42c-1.16,0-2.1-0.94-2.1-2.1V60.4c0-2.55-1.6-4.87-3.98-5.77l-10.13-3.86c-0.52-0.2-0.94-0.6-1.17-1.11l-7.31-16.47
		c-1.41-3.18-4.58-5.24-8.06-5.24h-86.5c-1.86,0-3.38,1.52-3.38,3.38v48.77c0,1.87,1.52,3.38,3.38,3.38h6.21
		c1.01-6.44,6.6-11.39,13.32-11.39s12.31,4.94,13.32,11.39h56.38c1.01-6.44,6.6-11.39,13.32-11.39
		C164.66,72.09,170.25,77.03,171.26,83.47 M176.25,87.67h-6.93c-1.16,0-2.1-0.94-2.1-2.1c0-5.12-4.17-9.29-9.29-9.29
		c-5.12,0-9.29,4.17-9.29,9.29c0,1.16-0.94,2.1-2.1,2.1H86.3c-1.16,0-2.1-0.94-2.1-2.1c0-5.12-4.17-9.29-9.29-9.29
		c-5.12,0-9.29,4.17-9.29,9.29c0,1.16-0.94,2.1-2.1,2.1h-8.15c-4.18,0-7.58-3.4-7.58-7.58V31.32c0-4.18,3.4-7.58,7.58-7.58h86.5
		c5.14,0,9.81,3.04,11.9,7.73l6.96,15.68l9.32,3.55c3.99,1.52,6.68,5.42,6.68,9.7v15.82c2.73,0.31,4.97,2.45,5.24,5.12
		c0.16,1.62-0.37,3.24-1.46,4.44C179.43,86.98,177.87,87.67,176.25,87.67"/>
	<path class="st1" d="M159.17,50.91h-27.41c-1.16,0-2.1-0.94-2.1-2.1s0.94-2.1,2.1-2.1h13.77l-4.06-9.37h-9.71
		c-1.16,0-2.1-0.94-2.1-2.1c0-1.16,0.94-2.1,2.1-2.1h11.09c0.84,0,1.59,0.5,1.93,1.26l5.33,12.31h9.06c1.16,0,2.1,0.94,2.1,2.1
		S160.33,50.91,159.17,50.91"/>
	<path class="st1" d="M125.96,87.67c-1.16,0-2.1-0.94-2.1-2.1V25.84c0-1.16,0.94-2.1,2.1-2.1c1.16,0,2.1,0.94,2.1,2.1v59.73
		C128.05,86.73,127.11,87.67,125.96,87.67"/>
	<path class="st1" d="M90.06,57.95c-1.16,0-2.1-0.94-2.1-2.1V35.89c0-1.16,0.94-2.1,2.1-2.1c1.16,0,2.1,0.94,2.1,2.1v19.96
		C92.16,57.01,91.22,57.95,90.06,57.95"/>
	<path class="st1" d="M79.13,50.39c-0.54,0-1.07-0.2-1.48-0.61c-0.82-0.82-0.82-2.15,0-2.97l4.85-4.85c0.82-0.82,2.15-0.82,2.97,0
		c0.82,0.82,0.82,2.15,0,2.97l-4.85,4.85C80.2,50.18,79.67,50.39,79.13,50.39"/>
	<path class="st1" d="M97.27,50.39c-0.54,0-1.07-0.2-1.48-0.61c-0.82-0.82-0.82-2.15,0-2.97l4.85-4.85c0.82-0.82,2.15-0.82,2.97,0
		c0.82,0.82,0.82,2.15,0,2.97l-4.85,4.85C98.35,50.18,97.81,50.39,97.27,50.39"/>
	<path class="st1" d="M169.65,63.92c-0.87,0-1.57,0.7-1.57,1.57c0,0.87,0.71,1.57,1.57,1.57h2.88v-3.15H169.65z M174.63,71.27h-4.98
		c-3.18,0-5.77-2.59-5.77-5.77s2.59-5.77,5.77-5.77h4.98c1.16,0,2.1,0.94,2.1,2.1v7.35C176.73,70.33,175.79,71.27,174.63,71.27"/>
	<path class="st1" d="M140.37,63.08h-5.35c-1.16,0-2.1-0.94-2.1-2.1s0.94-2.1,2.1-2.1h5.35c1.16,0,2.1,0.94,2.1,2.1
		S141.53,63.08,140.37,63.08"/>
	<path class="st1" d="M109.86,23.75h9.38v-2.3c0-2.58-2.1-4.69-4.69-4.69c-2.58,0-4.69,2.1-4.69,4.69V23.75z M121.34,27.94h-13.57
		c-1.16,0-2.1-0.94-2.1-2.1v-4.39c0-4.9,3.99-8.89,8.89-8.89c4.9,0,8.89,3.99,8.89,8.89v4.39C123.44,27,122.5,27.94,121.34,27.94"/>
	<path class="st1" d="M114.55,9.91c-1.16,0-2.1-0.94-2.1-2.1V2.35c0-1.16,0.94-2.1,2.1-2.1c1.16,0,2.1,0.94,2.1,2.1v5.46
		C116.65,8.97,115.71,9.91,114.55,9.91"/>
	<path class="st1" d="M121.34,13.12c-0.54,0-1.07-0.2-1.48-0.61c-0.82-0.82-0.82-2.15,0-2.97l5.04-5.04c0.82-0.82,2.15-0.82,2.97,0
		c0.82,0.82,0.82,2.15,0,2.97l-5.04,5.04C122.41,12.92,121.87,13.12,121.34,13.12"/>
	<path class="st1" d="M107.76,13.12c-0.54,0-1.07-0.2-1.49-0.61l-5.04-5.04c-0.82-0.82-0.82-2.15,0-2.97s2.15-0.82,2.97,0l5.04,5.04
		c0.82,0.82,0.82,2.15,0,2.97C108.84,12.92,108.3,13.12,107.76,13.12"/>
</g>
</svg>
