<?xml version="1.0" encoding="utf-8"?>
<!-- Generator: Adobe Illustrator 23.1.0, SVG Export Plug-In . SVG Version: 6.00 Build 0)  -->
<svg version="1.1" id="Layer_1" xmlns="http://www.w3.org/2000/svg" xmlns:xlink="http://www.w3.org/1999/xlink" x="0px" y="0px"
	 viewBox="0 0 90 97" style="enable-background:new 0 0 90 97;" xml:space="preserve">
<style type="text/css">
	
		.st0{clip-path:url(#SVGID_2_);fill:none;stroke:#000C30;stroke-width:4.05;stroke-linecap:round;stroke-linejoin:round;stroke-miterlimit:10;}
	.st1{fill:url(#SVGID_3_);}
	
		.st2{clip-path:url(#SVGID_5_);fill:none;stroke:#000C30;stroke-width:4.05;stroke-linecap:round;stroke-linejoin:round;stroke-miterlimit:10;stroke-dasharray:11.413,7.363;}
	
		.st3{clip-path:url(#SVGID_5_);fill:none;stroke:#000C30;stroke-width:4.05;stroke-linecap:round;stroke-linejoin:round;stroke-miterlimit:10;stroke-dasharray:11.453,7.403;}
	
		.st4{clip-path:url(#SVGID_5_);fill:none;stroke:#000C30;stroke-width:4.05;stroke-linecap:round;stroke-linejoin:round;stroke-miterlimit:10;}
</style>
<g>
	<defs>
		<rect id="SVGID_1_" x="1.5" y="4.5" width="87.5" height="87.8"/>
	</defs>
	<clipPath id="SVGID_2_">
		<use xlink:href="#SVGID_1_"  style="overflow:visible;"/>
	</clipPath>
	<rect x="3.5" y="40.2" class="st0" width="52.1" height="50"/>
</g>
<linearGradient id="SVGID_3_" gradientUnits="userSpaceOnUse" x1="-2.9122" y1="99.1376" x2="-1.9122" y2="99.1376" gradientTransform="matrix(50.7842 0 0 -50.7842 175.166 5076.0132)">
	<stop  offset="0" style="stop-color:#8FC740"/>
	<stop  offset="1" style="stop-color:#38C6F4"/>
</linearGradient>
<path class="st1" d="M74.1,33.7V19.2l-13.9,0c-0.8,0-1.5-0.7-1.5-1.5c0-0.8,0.7-1.5,1.5-1.5l16.9,0v17.5c0,0.8-0.7,1.5-1.5,1.5
	C74.8,35.2,74.1,34.5,74.1,33.7L74.1,33.7z M28.6,64l44.2-44.9c0.6-0.6,1.5-0.6,2.1,0s0.6,1.5,0,2.1L30.8,66.1
	c-0.6,0.6-1.5,0.6-2.1,0C28,65.6,28,64.6,28.6,64z"/>
<g>
	<defs>
		<rect id="SVGID_4_" x="1.5" y="4.5" width="87.5" height="87.8"/>
	</defs>
	<clipPath id="SVGID_5_">
		<use xlink:href="#SVGID_4_"  style="overflow:visible;"/>
	</clipPath>
	<line class="st2" x1="86.9" y1="68.5" x2="86.9" y2="15.9"/>
	<line class="st3" x1="73.8" y1="6.5" x2="20.9" y2="6.5"/>
	<path class="st4" d="M11.5,25.3v7.6 M17.2,6.5h-5.7v7.6 M86.9,12.2V6.5h-5.7 M80.1,81.6h6.9v-5.7 M63.4,81.6h6.9"/>
</g>
</svg>
