<svg xmlns="http://www.w3.org/2000/svg" xmlns:xlink="http://www.w3.org/1999/xlink" width="64.109" height="63" viewBox="0 0 64.109 63">
  <defs>
    <clipPath id="clip-path">
      <path id="Path_9787" data-name="Path 9787" d="M-565.846-366.228a1.019,1.019,0,0,0-1.019-1.019,1.019,1.019,0,0,0-1.019,1.019v9.977a1.019,1.019,0,0,0,1.019,1.019h9.982a1.019,1.019,0,0,0,1.019-1.019,1.019,1.019,0,0,0-1.019-1.019h-7.5l48.632-47.708v9.576a1.019,1.019,0,0,0,1.019,1.019,1.019,1.019,0,0,0,1.019-1.019v-12c0-.02,0-.038-.006-.058a1,1,0,0,0-.014-.137.933.933,0,0,0-.026-.09,1,1,0,0,0-.031-.1,1.01,1.01,0,0,0-.05-.1c-.014-.026-.026-.053-.042-.078a1.012,1.012,0,0,0-.094-.117c-.011-.012-.018-.025-.029-.036l0,0a1.021,1.021,0,0,0-.156-.13l-.017-.009a1,1,0,0,0-.158-.085,1.015,1.015,0,0,0-.11-.034c-.028-.008-.055-.019-.083-.025a1.036,1.036,0,0,0-.2-.02h-12.009a1.019,1.019,0,0,0-1.019,1.019,1.019,1.019,0,0,0,1.019,1.019h9.509l-48.62,47.7Z" transform="translate(567.885 408.425)" fill="none"/>
    </clipPath>
  </defs>
  <g id="Group_4068" data-name="Group 4068" transform="translate(590.826 432.42)">
    <g id="Group_4063" data-name="Group 4063" transform="translate(-590.826 -396.47)">
      <path id="Path_9784" data-name="Path 9784" d="M-564.8-249.863a1.019,1.019,0,0,0-1.019,1.019v13.578h-22.968v-22.972h13.578a1.019,1.019,0,0,0,1.019-1.019,1.019,1.019,0,0,0-1.019-1.019h-14.6a1.019,1.019,0,0,0-1.019,1.019v25.011a1.019,1.019,0,0,0,1.019,1.019H-564.8a1.019,1.019,0,0,0,1.019-1.019v-14.6A1.019,1.019,0,0,0-564.8-249.863Z" transform="translate(590.826 260.277)" fill="#000b2f"/>
    </g>
    <g id="Group_4066" data-name="Group 4066" transform="translate(-586.035 -427.409)">
      <g id="Group_4065" data-name="Group 4065">
        <g id="Group_4064" data-name="Group 4064" clip-path="url(#clip-path)">
          <path id="Path_9785" data-name="Path 9785" d="M-567.885-408.425v0Z" transform="translate(567.885 408.425)" fill="#2cc4ec"/>
          <rect id="Rectangle_20330" data-name="Rectangle 20330" width="0.313" height="53.194" transform="translate(0 0)" fill="#2cc4ec"/>
          <rect id="Rectangle_20331" data-name="Rectangle 20331" width="0.313" height="53.194" transform="translate(0.313 0)" fill="#2dc4eb"/>
          <rect id="Rectangle_20332" data-name="Rectangle 20332" width="0.313" height="53.194" transform="translate(0.626 0)" fill="#2dc4ea"/>
          <rect id="Rectangle_20333" data-name="Rectangle 20333" width="0.313" height="53.194" transform="translate(0.939 0)" fill="#2ec4e9"/>
          <rect id="Rectangle_20334" data-name="Rectangle 20334" width="0.313" height="53.194" transform="translate(1.252 0)" fill="#2ec4e8"/>
          <rect id="Rectangle_20335" data-name="Rectangle 20335" width="0.313" height="53.194" transform="translate(1.566 0)" fill="#2fc4e7"/>
          <rect id="Rectangle_20336" data-name="Rectangle 20336" width="0.313" height="53.194" transform="translate(1.879 0)" fill="#2fc4e6"/>
          <rect id="Rectangle_20337" data-name="Rectangle 20337" width="0.313" height="53.194" transform="translate(2.192 0)" fill="#30c4e5"/>
          <rect id="Rectangle_20338" data-name="Rectangle 20338" width="0.313" height="53.194" transform="translate(2.505 0)" fill="#30c4e4"/>
          <rect id="Rectangle_20339" data-name="Rectangle 20339" width="0.313" height="53.194" transform="translate(2.818 0)" fill="#31c4e3"/>
          <rect id="Rectangle_20340" data-name="Rectangle 20340" width="0.313" height="53.194" transform="translate(3.131 0)" fill="#32c4e2"/>
          <rect id="Rectangle_20341" data-name="Rectangle 20341" width="0.313" height="53.194" transform="translate(3.444 0)" fill="#32c4e1"/>
          <rect id="Rectangle_20342" data-name="Rectangle 20342" width="0.313" height="53.194" transform="translate(3.758 0)" fill="#33c4e0"/>
          <rect id="Rectangle_20343" data-name="Rectangle 20343" width="0.313" height="53.194" transform="translate(4.071 0)" fill="#33c4df"/>
          <rect id="Rectangle_20344" data-name="Rectangle 20344" width="0.313" height="53.194" transform="translate(4.384 0)" fill="#34c4de"/>
          <rect id="Rectangle_20345" data-name="Rectangle 20345" width="0.313" height="53.194" transform="translate(4.697 0)" fill="#34c4dd"/>
          <rect id="Rectangle_20346" data-name="Rectangle 20346" width="0.313" height="53.194" transform="translate(5.01 0)" fill="#35c4dc"/>
          <rect id="Rectangle_20347" data-name="Rectangle 20347" width="0.313" height="53.194" transform="translate(5.323 0)" fill="#35c4db"/>
          <rect id="Rectangle_20348" data-name="Rectangle 20348" width="0.313" height="53.194" transform="translate(5.636 0)" fill="#36c4da"/>
          <rect id="Rectangle_20349" data-name="Rectangle 20349" width="0.313" height="53.194" transform="translate(5.95 0)" fill="#37c4d9"/>
          <rect id="Rectangle_20350" data-name="Rectangle 20350" width="0.313" height="53.194" transform="translate(6.263 0)" fill="#37c4d8"/>
          <rect id="Rectangle_20351" data-name="Rectangle 20351" width="0.313" height="53.194" transform="translate(6.576 0)" fill="#38c4d7"/>
          <rect id="Rectangle_20352" data-name="Rectangle 20352" width="0.313" height="53.194" transform="translate(6.889 0)" fill="#38c4d6"/>
          <rect id="Rectangle_20353" data-name="Rectangle 20353" width="0.313" height="53.194" transform="translate(7.202 0)" fill="#39c4d5"/>
          <rect id="Rectangle_20354" data-name="Rectangle 20354" width="0.313" height="53.194" transform="translate(7.515 0)" fill="#39c4d4"/>
          <rect id="Rectangle_20355" data-name="Rectangle 20355" width="0.313" height="53.194" transform="translate(7.828 0)" fill="#3ac4d3"/>
          <rect id="Rectangle_20356" data-name="Rectangle 20356" width="0.313" height="53.194" transform="translate(8.141 0)" fill="#3bc4d2"/>
          <rect id="Rectangle_20357" data-name="Rectangle 20357" width="0.313" height="53.194" transform="translate(8.455 0)" fill="#3bc4d1"/>
          <rect id="Rectangle_20358" data-name="Rectangle 20358" width="0.313" height="53.194" transform="translate(8.768 0)" fill="#3cc4d0"/>
          <rect id="Rectangle_20359" data-name="Rectangle 20359" width="0.313" height="53.194" transform="translate(9.081 0)" fill="#3cc4cf"/>
          <rect id="Rectangle_20360" data-name="Rectangle 20360" width="0.313" height="53.194" transform="translate(9.394 0)" fill="#3dc4ce"/>
          <rect id="Rectangle_20361" data-name="Rectangle 20361" width="0.313" height="53.194" transform="translate(9.707 0)" fill="#3dc4cd"/>
          <rect id="Rectangle_20362" data-name="Rectangle 20362" width="0.313" height="53.194" transform="translate(10.02 0)" fill="#3ec4cc"/>
          <rect id="Rectangle_20363" data-name="Rectangle 20363" width="0.313" height="53.194" transform="translate(10.333 0)" fill="#3ec4cb"/>
          <rect id="Rectangle_20364" data-name="Rectangle 20364" width="0.313" height="53.194" transform="translate(10.647 0)" fill="#3fc4ca"/>
          <rect id="Rectangle_20365" data-name="Rectangle 20365" width="0.313" height="53.194" transform="translate(10.96 0)" fill="#40c4c9"/>
          <rect id="Rectangle_20366" data-name="Rectangle 20366" width="0.313" height="53.194" transform="translate(11.273 0)" fill="#40c4c8"/>
          <rect id="Rectangle_20367" data-name="Rectangle 20367" width="0.313" height="53.194" transform="translate(11.586 0)" fill="#41c4c7"/>
          <rect id="Rectangle_20368" data-name="Rectangle 20368" width="0.313" height="53.194" transform="translate(11.899 0)" fill="#41c4c6"/>
          <rect id="Rectangle_20369" data-name="Rectangle 20369" width="0.313" height="53.194" transform="translate(12.212 0)" fill="#42c4c5"/>
          <rect id="Rectangle_20370" data-name="Rectangle 20370" width="0.313" height="53.194" transform="translate(12.525 0)" fill="#42c4c4"/>
          <rect id="Rectangle_20371" data-name="Rectangle 20371" width="0.313" height="53.194" transform="translate(12.839 0)" fill="#43c4c3"/>
          <rect id="Rectangle_20372" data-name="Rectangle 20372" width="0.313" height="53.194" transform="translate(13.152 0)" fill="#43c4c2"/>
          <rect id="Rectangle_20373" data-name="Rectangle 20373" width="0.313" height="53.194" transform="translate(13.465 0)" fill="#44c5c1"/>
          <rect id="Rectangle_20374" data-name="Rectangle 20374" width="0.313" height="53.194" transform="translate(13.778 0)" fill="#45c5c0"/>
          <rect id="Rectangle_20375" data-name="Rectangle 20375" width="0.313" height="53.194" transform="translate(14.091 0)" fill="#45c5bf"/>
          <rect id="Rectangle_20376" data-name="Rectangle 20376" width="0.313" height="53.194" transform="translate(14.404 0)" fill="#46c5be"/>
          <rect id="Rectangle_20377" data-name="Rectangle 20377" width="0.313" height="53.194" transform="translate(14.717 0)" fill="#46c5bd"/>
          <rect id="Rectangle_20378" data-name="Rectangle 20378" width="0.313" height="53.194" transform="translate(15.03 0)" fill="#47c5bc"/>
          <rect id="Rectangle_20379" data-name="Rectangle 20379" width="0.313" height="53.194" transform="translate(15.344 0)" fill="#47c5bb"/>
          <rect id="Rectangle_20380" data-name="Rectangle 20380" width="0.313" height="53.194" transform="translate(15.657 0)" fill="#48c5ba"/>
          <rect id="Rectangle_20381" data-name="Rectangle 20381" width="0.313" height="53.194" transform="translate(15.97 0)" fill="#48c5b9"/>
          <rect id="Rectangle_20382" data-name="Rectangle 20382" width="0.313" height="53.194" transform="translate(16.283 0)" fill="#49c5b8"/>
          <rect id="Rectangle_20383" data-name="Rectangle 20383" width="0.313" height="53.194" transform="translate(16.596 0)" fill="#4ac5b7"/>
          <rect id="Rectangle_20384" data-name="Rectangle 20384" width="0.313" height="53.194" transform="translate(16.909 0)" fill="#4ac5b6"/>
          <rect id="Rectangle_20385" data-name="Rectangle 20385" width="0.313" height="53.194" transform="translate(17.222 0)" fill="#4bc5b5"/>
          <rect id="Rectangle_20386" data-name="Rectangle 20386" width="0.313" height="53.194" transform="translate(17.536 0)" fill="#4bc5b4"/>
          <rect id="Rectangle_20387" data-name="Rectangle 20387" width="0.313" height="53.194" transform="translate(17.849 0)" fill="#4cc5b3"/>
          <rect id="Rectangle_20388" data-name="Rectangle 20388" width="0.313" height="53.194" transform="translate(18.162 0)" fill="#4cc5b2"/>
          <rect id="Rectangle_20389" data-name="Rectangle 20389" width="0.313" height="53.194" transform="translate(18.475 0)" fill="#4dc5b1"/>
          <rect id="Rectangle_20390" data-name="Rectangle 20390" width="0.313" height="53.194" transform="translate(18.788 0)" fill="#4dc5b0"/>
          <rect id="Rectangle_20391" data-name="Rectangle 20391" width="0.313" height="53.194" transform="translate(19.101 0)" fill="#4ec5af"/>
          <rect id="Rectangle_20392" data-name="Rectangle 20392" width="0.313" height="53.194" transform="translate(19.414 0)" fill="#4fc5ae"/>
          <rect id="Rectangle_20393" data-name="Rectangle 20393" width="0.313" height="53.194" transform="translate(19.728 0)" fill="#4fc5ad"/>
          <rect id="Rectangle_20394" data-name="Rectangle 20394" width="0.313" height="53.194" transform="translate(20.041 0)" fill="#50c5ac"/>
          <rect id="Rectangle_20395" data-name="Rectangle 20395" width="0.313" height="53.194" transform="translate(20.354 0)" fill="#50c5ab"/>
          <rect id="Rectangle_20396" data-name="Rectangle 20396" width="0.313" height="53.194" transform="translate(20.667 0)" fill="#51c5aa"/>
          <rect id="Rectangle_20397" data-name="Rectangle 20397" width="0.313" height="53.194" transform="translate(20.98 0)" fill="#51c5a9"/>
          <rect id="Rectangle_20398" data-name="Rectangle 20398" width="0.313" height="53.194" transform="translate(21.293 0)" fill="#52c5a8"/>
          <rect id="Rectangle_20399" data-name="Rectangle 20399" width="0.313" height="53.194" transform="translate(21.606 0)" fill="#53c5a7"/>
          <rect id="Rectangle_20400" data-name="Rectangle 20400" width="0.313" height="53.194" transform="translate(21.919 0)" fill="#53c5a6"/>
          <rect id="Rectangle_20401" data-name="Rectangle 20401" width="0.313" height="53.194" transform="translate(22.233 0)" fill="#54c5a5"/>
          <rect id="Rectangle_20402" data-name="Rectangle 20402" width="0.313" height="53.194" transform="translate(22.546 0)" fill="#54c5a4"/>
          <rect id="Rectangle_20403" data-name="Rectangle 20403" width="0.313" height="53.194" transform="translate(22.859 0)" fill="#55c5a3"/>
          <rect id="Rectangle_20404" data-name="Rectangle 20404" width="0.313" height="53.194" transform="translate(23.172 0)" fill="#55c5a2"/>
          <rect id="Rectangle_20405" data-name="Rectangle 20405" width="0.313" height="53.194" transform="translate(23.485 0)" fill="#56c5a1"/>
          <rect id="Rectangle_20406" data-name="Rectangle 20406" width="0.313" height="53.194" transform="translate(23.798 0)" fill="#56c5a0"/>
          <rect id="Rectangle_20407" data-name="Rectangle 20407" width="0.313" height="53.194" transform="translate(24.111 0)" fill="#57c59f"/>
          <rect id="Rectangle_20408" data-name="Rectangle 20408" width="0.313" height="53.194" transform="translate(24.425 0)" fill="#58c59e"/>
          <rect id="Rectangle_20409" data-name="Rectangle 20409" width="0.313" height="53.194" transform="translate(24.738 0)" fill="#58c59d"/>
          <rect id="Rectangle_20410" data-name="Rectangle 20410" width="0.313" height="53.194" transform="translate(25.051 0)" fill="#59c59c"/>
          <rect id="Rectangle_20411" data-name="Rectangle 20411" width="0.313" height="53.194" transform="translate(25.364 0)" fill="#59c59b"/>
          <rect id="Rectangle_20412" data-name="Rectangle 20412" width="0.313" height="53.194" transform="translate(25.677 0)" fill="#5ac59a"/>
          <rect id="Rectangle_20413" data-name="Rectangle 20413" width="0.313" height="53.194" transform="translate(25.99 0)" fill="#5ac599"/>
          <rect id="Rectangle_20414" data-name="Rectangle 20414" width="0.313" height="53.194" transform="translate(26.303 0)" fill="#5bc598"/>
          <rect id="Rectangle_20415" data-name="Rectangle 20415" width="0.313" height="53.194" transform="translate(26.617 0)" fill="#5bc597"/>
          <rect id="Rectangle_20416" data-name="Rectangle 20416" width="0.313" height="53.194" transform="translate(26.93 0)" fill="#5cc596"/>
          <rect id="Rectangle_20417" data-name="Rectangle 20417" width="0.313" height="53.194" transform="translate(27.243 0)" fill="#5dc594"/>
          <rect id="Rectangle_20418" data-name="Rectangle 20418" width="0.313" height="53.194" transform="translate(27.556 0)" fill="#5dc593"/>
          <rect id="Rectangle_20419" data-name="Rectangle 20419" width="0.313" height="53.194" transform="translate(27.869 0)" fill="#5ec592"/>
          <rect id="Rectangle_20420" data-name="Rectangle 20420" width="0.313" height="53.194" transform="translate(28.182 0)" fill="#5ec591"/>
          <rect id="Rectangle_20421" data-name="Rectangle 20421" width="0.313" height="53.194" transform="translate(28.495 0)" fill="#5fc590"/>
          <rect id="Rectangle_20422" data-name="Rectangle 20422" width="0.313" height="53.194" transform="translate(28.808 0)" fill="#5fc58f"/>
          <rect id="Rectangle_20423" data-name="Rectangle 20423" width="0.313" height="53.194" transform="translate(29.122 0)" fill="#60c58e"/>
          <rect id="Rectangle_20424" data-name="Rectangle 20424" width="0.313" height="53.194" transform="translate(29.435 0)" fill="#60c58d"/>
          <rect id="Rectangle_20425" data-name="Rectangle 20425" width="0.313" height="53.194" transform="translate(29.748 0)" fill="#61c58c"/>
          <rect id="Rectangle_20426" data-name="Rectangle 20426" width="0.313" height="53.194" transform="translate(30.061 0)" fill="#62c58b"/>
          <rect id="Rectangle_20427" data-name="Rectangle 20427" width="0.313" height="53.194" transform="translate(30.374 0)" fill="#62c58a"/>
          <rect id="Rectangle_20428" data-name="Rectangle 20428" width="0.313" height="53.194" transform="translate(30.687 0)" fill="#63c589"/>
          <rect id="Rectangle_20429" data-name="Rectangle 20429" width="0.313" height="53.194" transform="translate(31 0)" fill="#63c588"/>
          <rect id="Rectangle_20430" data-name="Rectangle 20430" width="0.313" height="53.194" transform="translate(31.314 0)" fill="#64c587"/>
          <rect id="Rectangle_20431" data-name="Rectangle 20431" width="0.313" height="53.194" transform="translate(31.627 0)" fill="#64c586"/>
          <rect id="Rectangle_20432" data-name="Rectangle 20432" width="0.313" height="53.194" transform="translate(31.94 0)" fill="#65c585"/>
          <rect id="Rectangle_20433" data-name="Rectangle 20433" width="0.313" height="53.194" transform="translate(32.253 0)" fill="#65c584"/>
          <rect id="Rectangle_20434" data-name="Rectangle 20434" width="0.313" height="53.194" transform="translate(32.566 0)" fill="#66c583"/>
          <rect id="Rectangle_20435" data-name="Rectangle 20435" width="0.313" height="53.194" transform="translate(32.879 0)" fill="#67c582"/>
          <rect id="Rectangle_20436" data-name="Rectangle 20436" width="0.313" height="53.194" transform="translate(33.192 0)" fill="#67c581"/>
          <rect id="Rectangle_20437" data-name="Rectangle 20437" width="0.313" height="53.194" transform="translate(33.506 0)" fill="#68c580"/>
          <rect id="Rectangle_20438" data-name="Rectangle 20438" width="0.313" height="53.194" transform="translate(33.819 0)" fill="#68c57f"/>
          <rect id="Rectangle_20439" data-name="Rectangle 20439" width="0.313" height="53.194" transform="translate(34.132 0)" fill="#69c57e"/>
          <rect id="Rectangle_20440" data-name="Rectangle 20440" width="0.313" height="53.194" transform="translate(34.445 0)" fill="#69c57d"/>
          <rect id="Rectangle_20441" data-name="Rectangle 20441" width="0.313" height="53.194" transform="translate(34.758 0)" fill="#6ac57c"/>
          <rect id="Rectangle_20442" data-name="Rectangle 20442" width="0.313" height="53.194" transform="translate(35.071 0)" fill="#6bc57b"/>
          <rect id="Rectangle_20443" data-name="Rectangle 20443" width="0.313" height="53.194" transform="translate(35.384 0)" fill="#6bc57a"/>
          <rect id="Rectangle_20444" data-name="Rectangle 20444" width="0.313" height="53.194" transform="translate(35.697 0)" fill="#6cc579"/>
          <rect id="Rectangle_20445" data-name="Rectangle 20445" width="0.313" height="53.194" transform="translate(36.011 0)" fill="#6cc578"/>
          <rect id="Rectangle_20446" data-name="Rectangle 20446" width="0.313" height="53.194" transform="translate(36.324 0)" fill="#6dc577"/>
          <rect id="Rectangle_20447" data-name="Rectangle 20447" width="0.313" height="53.194" transform="translate(36.637 0)" fill="#6dc576"/>
          <rect id="Rectangle_20448" data-name="Rectangle 20448" width="0.313" height="53.194" transform="translate(36.95 0)" fill="#6ec575"/>
          <rect id="Rectangle_20449" data-name="Rectangle 20449" width="0.313" height="53.194" transform="translate(37.263 0)" fill="#6ec574"/>
          <rect id="Rectangle_20450" data-name="Rectangle 20450" width="0.313" height="53.194" transform="translate(37.576 0)" fill="#6fc573"/>
          <rect id="Rectangle_20451" data-name="Rectangle 20451" width="0.313" height="53.194" transform="translate(37.889 0)" fill="#70c572"/>
          <rect id="Rectangle_20452" data-name="Rectangle 20452" width="0.313" height="53.194" transform="translate(38.203 0)" fill="#70c571"/>
          <rect id="Rectangle_20453" data-name="Rectangle 20453" width="0.313" height="53.194" transform="translate(38.516 0)" fill="#71c570"/>
          <rect id="Rectangle_20454" data-name="Rectangle 20454" width="0.313" height="53.194" transform="translate(38.829 0)" fill="#71c56f"/>
          <rect id="Rectangle_20455" data-name="Rectangle 20455" width="0.313" height="53.194" transform="translate(39.142 0)" fill="#72c56e"/>
          <rect id="Rectangle_20456" data-name="Rectangle 20456" width="0.313" height="53.194" transform="translate(39.455 0)" fill="#72c56d"/>
          <rect id="Rectangle_20457" data-name="Rectangle 20457" width="0.313" height="53.194" transform="translate(39.768 0)" fill="#73c56c"/>
          <rect id="Rectangle_20458" data-name="Rectangle 20458" width="0.313" height="53.194" transform="translate(40.081 0)" fill="#73c56b"/>
          <rect id="Rectangle_20459" data-name="Rectangle 20459" width="0.313" height="53.194" transform="translate(40.394 0)" fill="#74c66a"/>
          <rect id="Rectangle_20460" data-name="Rectangle 20460" width="0.313" height="53.194" transform="translate(40.708 0)" fill="#75c669"/>
          <rect id="Rectangle_20461" data-name="Rectangle 20461" width="0.313" height="53.194" transform="translate(41.021 0)" fill="#75c668"/>
          <rect id="Rectangle_20462" data-name="Rectangle 20462" width="0.313" height="53.194" transform="translate(41.334 0)" fill="#76c667"/>
          <rect id="Rectangle_20463" data-name="Rectangle 20463" width="0.313" height="53.194" transform="translate(41.647 0)" fill="#76c666"/>
          <rect id="Rectangle_20464" data-name="Rectangle 20464" width="0.313" height="53.194" transform="translate(41.96 0)" fill="#77c665"/>
          <rect id="Rectangle_20465" data-name="Rectangle 20465" width="0.313" height="53.194" transform="translate(42.273 0)" fill="#77c664"/>
          <rect id="Rectangle_20466" data-name="Rectangle 20466" width="0.313" height="53.194" transform="translate(42.586 0)" fill="#78c663"/>
          <rect id="Rectangle_20467" data-name="Rectangle 20467" width="0.313" height="53.194" transform="translate(42.9 0)" fill="#78c662"/>
          <rect id="Rectangle_20468" data-name="Rectangle 20468" width="0.313" height="53.194" transform="translate(43.213 0)" fill="#79c661"/>
          <rect id="Rectangle_20469" data-name="Rectangle 20469" width="0.313" height="53.194" transform="translate(43.526 0)" fill="#7ac660"/>
          <rect id="Rectangle_20470" data-name="Rectangle 20470" width="0.313" height="53.194" transform="translate(43.839 0)" fill="#7ac65f"/>
          <rect id="Rectangle_20471" data-name="Rectangle 20471" width="0.313" height="53.194" transform="translate(44.152 0)" fill="#7bc65e"/>
          <rect id="Rectangle_20472" data-name="Rectangle 20472" width="0.313" height="53.194" transform="translate(44.465 0)" fill="#7bc65d"/>
          <rect id="Rectangle_20473" data-name="Rectangle 20473" width="0.313" height="53.194" transform="translate(44.778 0)" fill="#7cc65c"/>
          <rect id="Rectangle_20474" data-name="Rectangle 20474" width="0.313" height="53.194" transform="translate(45.092 0)" fill="#7cc65b"/>
          <rect id="Rectangle_20475" data-name="Rectangle 20475" width="0.313" height="53.194" transform="translate(45.405 0)" fill="#7dc65a"/>
          <rect id="Rectangle_20476" data-name="Rectangle 20476" width="0.313" height="53.194" transform="translate(45.718 0)" fill="#7dc659"/>
          <rect id="Rectangle_20477" data-name="Rectangle 20477" width="0.313" height="53.194" transform="translate(46.031 0)" fill="#7ec658"/>
          <rect id="Rectangle_20478" data-name="Rectangle 20478" width="0.313" height="53.194" transform="translate(46.344 0)" fill="#7fc657"/>
          <rect id="Rectangle_20479" data-name="Rectangle 20479" width="0.313" height="53.194" transform="translate(46.657 0)" fill="#7fc656"/>
          <rect id="Rectangle_20480" data-name="Rectangle 20480" width="0.313" height="53.194" transform="translate(46.97 0)" fill="#80c655"/>
          <rect id="Rectangle_20481" data-name="Rectangle 20481" width="0.313" height="53.194" transform="translate(47.283 0)" fill="#80c654"/>
          <rect id="Rectangle_20482" data-name="Rectangle 20482" width="0.313" height="53.194" transform="translate(47.597 0)" fill="#81c653"/>
          <rect id="Rectangle_20483" data-name="Rectangle 20483" width="0.313" height="53.194" transform="translate(47.91 0)" fill="#81c652"/>
          <rect id="Rectangle_20484" data-name="Rectangle 20484" width="0.313" height="53.194" transform="translate(48.223 0)" fill="#82c651"/>
          <rect id="Rectangle_20485" data-name="Rectangle 20485" width="0.313" height="53.194" transform="translate(48.536 0)" fill="#83c650"/>
          <rect id="Rectangle_20486" data-name="Rectangle 20486" width="0.313" height="53.194" transform="translate(48.849 0)" fill="#83c64f"/>
          <rect id="Rectangle_20487" data-name="Rectangle 20487" width="0.313" height="53.194" transform="translate(49.162 0)" fill="#84c64e"/>
          <rect id="Rectangle_20488" data-name="Rectangle 20488" width="0.313" height="53.194" transform="translate(49.475 0)" fill="#84c64d"/>
          <rect id="Rectangle_20489" data-name="Rectangle 20489" width="0.313" height="53.194" transform="translate(49.789 0)" fill="#85c64c"/>
          <rect id="Rectangle_20490" data-name="Rectangle 20490" width="0.313" height="53.194" transform="translate(50.102 0)" fill="#85c64b"/>
          <rect id="Rectangle_20491" data-name="Rectangle 20491" width="0.313" height="53.194" transform="translate(50.415 0)" fill="#86c64a"/>
          <rect id="Rectangle_20492" data-name="Rectangle 20492" width="0.313" height="53.194" transform="translate(50.728 0)" fill="#86c649"/>
          <rect id="Rectangle_20493" data-name="Rectangle 20493" width="0.313" height="53.194" transform="translate(51.041 0)" fill="#87c648"/>
          <rect id="Rectangle_20494" data-name="Rectangle 20494" width="0.313" height="53.194" transform="translate(51.354 0)" fill="#88c647"/>
          <rect id="Rectangle_20495" data-name="Rectangle 20495" width="0.313" height="53.194" transform="translate(51.667 0)" fill="#88c646"/>
          <rect id="Rectangle_20496" data-name="Rectangle 20496" width="0.313" height="53.194" transform="translate(51.981 0)" fill="#89c645"/>
          <rect id="Rectangle_20497" data-name="Rectangle 20497" width="0.313" height="53.194" transform="translate(52.294 0)" fill="#89c644"/>
          <rect id="Rectangle_20498" data-name="Rectangle 20498" width="0.313" height="53.194" transform="translate(52.607 0)" fill="#8ac643"/>
          <rect id="Rectangle_20499" data-name="Rectangle 20499" width="0.313" height="53.194" transform="translate(52.92 0)" fill="#8ac642"/>
          <rect id="Rectangle_20500" data-name="Rectangle 20500" width="0.313" height="53.194" transform="translate(53.233 0)" fill="#8bc641"/>
          <rect id="Rectangle_20501" data-name="Rectangle 20501" width="0.313" height="53.194" transform="translate(53.546 0)" fill="#8bc640"/>
          <rect id="Rectangle_20502" data-name="Rectangle 20502" width="0.313" height="53.194" transform="translate(53.859 0)" fill="#8cc63f"/>
          <path id="Path_9786" data-name="Path 9786" d="M-308.488-355.231v0Z" transform="translate(362.66 408.425)" fill="#8cc63f"/>
        </g>
      </g>
    </g>
    <g id="Group_4067" data-name="Group 4067" transform="translate(-571.336 -432.42)">
      <path id="Path_9788" data-name="Path 9788" d="M-453.9-432.42h-42.581A1.019,1.019,0,0,0-497.5-431.4v31.057a1.019,1.019,0,0,0,1.019,1.019,1.019,1.019,0,0,0,1.019-1.019v-30.038h40.542v39.433h-31.152a1.019,1.019,0,0,0-1.019,1.019,1.019,1.019,0,0,0,1.019,1.019H-453.9a1.019,1.019,0,0,0,1.019-1.019V-431.4A1.019,1.019,0,0,0-453.9-432.42Z" transform="translate(497.501 432.42)" fill="#000b2f"/>
    </g>
  </g>
</svg>
