<svg id="Group_2772" data-name="Group 2772" xmlns="http://www.w3.org/2000/svg" xmlns:xlink="http://www.w3.org/1999/xlink" width="64.941" height="64.941" viewBox="0 0 64.941 64.941">
  <defs>
    <clipPath id="clip-path">
      <path id="Path_7832" data-name="Path 7832" d="M2.838,105.95A6.861,6.861,0,1,1,9.7,112.811a6.869,6.869,0,0,1-6.861-6.861M0,105.95a9.694,9.694,0,0,0,19.284,1.419h9.7v2.721a1.42,1.42,0,0,0,2.839,0v-2.721h5.441v4.791a1.419,1.419,0,1,0,2.838,0v-7.63H19.284A9.694,9.694,0,0,0,0,105.95" transform="translate(0 -96.25)" fill="none"/>
    </clipPath>
    <clipPath id="clip-path-2">
      <rect id="Rectangle_8471" data-name="Rectangle 8471" width="64.941" height="64.941" fill="none"/>
    </clipPath>
  </defs>
  <g id="Group_2769" data-name="Group 2769" transform="translate(0 45.542)">
    <g id="Group_2768" data-name="Group 2768" clip-path="url(#clip-path)">
      <rect id="Rectangle_8238" data-name="Rectangle 8238" width="0.175" height="13.722" transform="translate(2.838 2.839)" fill="#33c4e0"/>
      <rect id="Rectangle_8239" data-name="Rectangle 8239" width="0.232" height="13.722" transform="translate(3.013 2.839)" fill="#33c4df"/>
      <rect id="Rectangle_8240" data-name="Rectangle 8240" width="0.232" height="13.722" transform="translate(3.245 2.839)" fill="#34c4de"/>
      <rect id="Rectangle_8241" data-name="Rectangle 8241" width="0.232" height="13.722" transform="translate(3.477 2.839)" fill="#34c4dd"/>
      <rect id="Rectangle_8242" data-name="Rectangle 8242" width="0.232" height="13.722" transform="translate(3.709 2.839)" fill="#35c4dc"/>
      <rect id="Rectangle_8243" data-name="Rectangle 8243" width="0.232" height="13.722" transform="translate(3.94 2.839)" fill="#35c4db"/>
      <rect id="Rectangle_8244" data-name="Rectangle 8244" width="0.232" height="13.722" transform="translate(4.172 2.839)" fill="#36c4da"/>
      <rect id="Rectangle_8245" data-name="Rectangle 8245" width="0.232" height="13.722" transform="translate(4.404 2.839)" fill="#37c4d9"/>
      <rect id="Rectangle_8246" data-name="Rectangle 8246" width="0.232" height="13.722" transform="translate(4.636 2.839)" fill="#37c4d8"/>
      <rect id="Rectangle_8247" data-name="Rectangle 8247" width="0.232" height="13.722" transform="translate(4.868 2.839)" fill="#38c4d7"/>
      <rect id="Rectangle_8248" data-name="Rectangle 8248" width="0.232" height="13.722" transform="translate(5.099 2.839)" fill="#38c4d6"/>
      <rect id="Rectangle_8249" data-name="Rectangle 8249" width="0.232" height="13.722" transform="translate(5.331 2.839)" fill="#39c4d5"/>
      <rect id="Rectangle_8250" data-name="Rectangle 8250" width="0.232" height="13.722" transform="translate(5.563 2.839)" fill="#39c4d4"/>
      <rect id="Rectangle_8251" data-name="Rectangle 8251" width="0.232" height="13.722" transform="translate(5.795 2.839)" fill="#3ac4d3"/>
      <rect id="Rectangle_8252" data-name="Rectangle 8252" width="0.232" height="13.722" transform="translate(6.027 2.839)" fill="#3bc4d2"/>
      <rect id="Rectangle_8253" data-name="Rectangle 8253" width="0.232" height="13.722" transform="translate(6.259 2.839)" fill="#3bc4d1"/>
      <rect id="Rectangle_8254" data-name="Rectangle 8254" width="0.232" height="13.722" transform="translate(6.49 2.839)" fill="#3cc4d0"/>
      <rect id="Rectangle_8255" data-name="Rectangle 8255" width="0.232" height="13.722" transform="translate(6.722 2.839)" fill="#3cc4cf"/>
      <rect id="Rectangle_8256" data-name="Rectangle 8256" width="0.232" height="13.722" transform="translate(6.954 2.839)" fill="#3dc4ce"/>
      <rect id="Rectangle_8257" data-name="Rectangle 8257" width="0.232" height="13.722" transform="translate(7.185 2.839)" fill="#3dc4cd"/>
      <rect id="Rectangle_8258" data-name="Rectangle 8258" width="0.232" height="13.722" transform="translate(7.417 2.839)" fill="#3ec4cc"/>
      <rect id="Rectangle_8259" data-name="Rectangle 8259" width="0.232" height="13.722" transform="translate(7.649 2.839)" fill="#3ec4cb"/>
      <rect id="Rectangle_8260" data-name="Rectangle 8260" width="0.232" height="13.722" transform="translate(7.881 2.839)" fill="#3fc4ca"/>
      <rect id="Rectangle_8261" data-name="Rectangle 8261" width="0.232" height="13.722" transform="translate(8.113 2.839)" fill="#40c4c9"/>
      <rect id="Rectangle_8262" data-name="Rectangle 8262" width="0.232" height="13.722" transform="translate(8.345 2.839)" fill="#40c4c8"/>
      <rect id="Rectangle_8263" data-name="Rectangle 8263" width="0.232" height="13.722" transform="translate(8.577 2.839)" fill="#41c4c7"/>
      <rect id="Rectangle_8264" data-name="Rectangle 8264" width="0.232" height="13.722" transform="translate(8.808 2.839)" fill="#41c4c6"/>
      <rect id="Rectangle_8265" data-name="Rectangle 8265" width="0.232" height="13.722" transform="translate(9.04 2.839)" fill="#42c4c5"/>
      <rect id="Rectangle_8266" data-name="Rectangle 8266" width="0.232" height="13.722" transform="translate(9.272 2.839)" fill="#42c4c4"/>
      <rect id="Rectangle_8267" data-name="Rectangle 8267" width="0.232" height="13.722" transform="translate(9.503 2.839)" fill="#43c4c3"/>
      <rect id="Rectangle_8268" data-name="Rectangle 8268" width="0.232" height="13.722" transform="translate(9.735 2.839)" fill="#43c4c2"/>
      <rect id="Rectangle_8269" data-name="Rectangle 8269" width="0.232" height="13.722" transform="translate(9.967 2.839)" fill="#44c5c1"/>
      <rect id="Rectangle_8270" data-name="Rectangle 8270" width="0.232" height="13.722" transform="translate(10.199 2.839)" fill="#45c5c0"/>
      <rect id="Rectangle_8271" data-name="Rectangle 8271" width="0.232" height="13.722" transform="translate(10.43 2.839)" fill="#45c5bf"/>
      <rect id="Rectangle_8272" data-name="Rectangle 8272" width="0.232" height="13.722" transform="translate(10.663 2.839)" fill="#46c5be"/>
      <rect id="Rectangle_8273" data-name="Rectangle 8273" width="0.232" height="13.722" transform="translate(10.894 2.839)" fill="#46c5bd"/>
      <rect id="Rectangle_8274" data-name="Rectangle 8274" width="0.232" height="13.722" transform="translate(11.126 2.839)" fill="#47c5bc"/>
      <rect id="Rectangle_8275" data-name="Rectangle 8275" width="0.232" height="13.722" transform="translate(11.358 2.839)" fill="#47c5bb"/>
      <rect id="Rectangle_8276" data-name="Rectangle 8276" width="0.232" height="13.722" transform="translate(11.59 2.839)" fill="#48c5ba"/>
      <rect id="Rectangle_8277" data-name="Rectangle 8277" width="0.232" height="13.722" transform="translate(11.821 2.839)" fill="#48c5b9"/>
      <rect id="Rectangle_8278" data-name="Rectangle 8278" width="0.232" height="13.722" transform="translate(12.053 2.839)" fill="#49c5b8"/>
      <rect id="Rectangle_8279" data-name="Rectangle 8279" width="0.232" height="13.722" transform="translate(12.285 2.839)" fill="#4ac5b7"/>
      <rect id="Rectangle_8280" data-name="Rectangle 8280" width="0.232" height="13.722" transform="translate(12.517 2.839)" fill="#4ac5b6"/>
      <rect id="Rectangle_8281" data-name="Rectangle 8281" width="0.232" height="13.722" transform="translate(12.748 2.839)" fill="#4bc5b5"/>
      <rect id="Rectangle_8282" data-name="Rectangle 8282" width="0.232" height="13.722" transform="translate(12.981 2.839)" fill="#4bc5b4"/>
      <rect id="Rectangle_8283" data-name="Rectangle 8283" width="0.232" height="13.722" transform="translate(13.212 2.839)" fill="#4cc5b3"/>
      <rect id="Rectangle_8284" data-name="Rectangle 8284" width="0.232" height="13.722" transform="translate(13.444 2.839)" fill="#4cc5b2"/>
      <rect id="Rectangle_8285" data-name="Rectangle 8285" width="0.232" height="13.722" transform="translate(13.676 2.839)" fill="#4dc5b1"/>
      <rect id="Rectangle_8286" data-name="Rectangle 8286" width="0.232" height="13.722" transform="translate(13.908 2.839)" fill="#4dc5b0"/>
      <rect id="Rectangle_8287" data-name="Rectangle 8287" width="0.232" height="13.722" transform="translate(14.139 2.839)" fill="#4ec5af"/>
      <rect id="Rectangle_8288" data-name="Rectangle 8288" width="0.232" height="13.722" transform="translate(14.371 2.839)" fill="#4fc5ae"/>
      <rect id="Rectangle_8289" data-name="Rectangle 8289" width="0.232" height="13.722" transform="translate(14.603 2.839)" fill="#4fc5ad"/>
      <rect id="Rectangle_8290" data-name="Rectangle 8290" width="0.232" height="13.722" transform="translate(14.835 2.839)" fill="#50c5ac"/>
      <rect id="Rectangle_8291" data-name="Rectangle 8291" width="0.232" height="13.722" transform="translate(15.066 2.839)" fill="#50c5ab"/>
      <rect id="Rectangle_8292" data-name="Rectangle 8292" width="0.232" height="13.722" transform="translate(15.298 2.839)" fill="#51c5aa"/>
      <rect id="Rectangle_8293" data-name="Rectangle 8293" width="0.232" height="13.722" transform="translate(15.53 2.839)" fill="#51c5a9"/>
      <rect id="Rectangle_8294" data-name="Rectangle 8294" width="0.232" height="13.722" transform="translate(15.762 2.839)" fill="#52c5a8"/>
      <rect id="Rectangle_8295" data-name="Rectangle 8295" width="0.232" height="13.722" transform="translate(15.994 2.839)" fill="#53c5a7"/>
      <rect id="Rectangle_8296" data-name="Rectangle 8296" width="0.232" height="13.722" transform="translate(16.226 2.839)" fill="#53c5a6"/>
      <rect id="Rectangle_8297" data-name="Rectangle 8297" width="0.103" height="13.722" transform="translate(16.458 2.839)" fill="#54c5a5"/>
      <path id="Path_7830" data-name="Path 7830" d="M0,96.25v0Z" transform="translate(0 -96.25)" fill="#2cc4ec"/>
      <rect id="Rectangle_8298" data-name="Rectangle 8298" width="0.232" height="19.4" fill="#2cc4ec"/>
      <rect id="Rectangle_8299" data-name="Rectangle 8299" width="0.232" height="19.4" transform="translate(0.232)" fill="#2dc4eb"/>
      <rect id="Rectangle_8300" data-name="Rectangle 8300" width="0.232" height="19.4" transform="translate(0.464)" fill="#2dc4ea"/>
      <rect id="Rectangle_8301" data-name="Rectangle 8301" width="0.232" height="19.4" transform="translate(0.695)" fill="#2ec4e9"/>
      <rect id="Rectangle_8302" data-name="Rectangle 8302" width="0.232" height="19.4" transform="translate(0.927)" fill="#2ec4e8"/>
      <rect id="Rectangle_8303" data-name="Rectangle 8303" width="0.232" height="19.4" transform="translate(1.159)" fill="#2fc4e7"/>
      <rect id="Rectangle_8304" data-name="Rectangle 8304" width="0.232" height="19.4" transform="translate(1.391)" fill="#2fc4e6"/>
      <rect id="Rectangle_8305" data-name="Rectangle 8305" width="0.232" height="19.4" transform="translate(1.622)" fill="#30c4e5"/>
      <rect id="Rectangle_8306" data-name="Rectangle 8306" width="0.232" height="19.4" transform="translate(1.854)" fill="#30c4e4"/>
      <rect id="Rectangle_8307" data-name="Rectangle 8307" width="0.232" height="19.4" transform="translate(2.086)" fill="#31c4e3"/>
      <rect id="Rectangle_8308" data-name="Rectangle 8308" width="0.232" height="19.4" transform="translate(2.318)" fill="#32c4e2"/>
      <rect id="Rectangle_8309" data-name="Rectangle 8309" width="0.232" height="19.4" transform="translate(2.55)" fill="#32c4e1"/>
      <rect id="Rectangle_8310" data-name="Rectangle 8310" width="0.232" height="19.4" transform="translate(2.781)" fill="#33c4e0"/>
      <rect id="Rectangle_8311" data-name="Rectangle 8311" width="0.232" height="19.4" transform="translate(3.013)" fill="#33c4df"/>
      <rect id="Rectangle_8312" data-name="Rectangle 8312" width="0.232" height="19.4" transform="translate(3.245)" fill="#34c4de"/>
      <rect id="Rectangle_8313" data-name="Rectangle 8313" width="0.232" height="19.4" transform="translate(3.477)" fill="#34c4dd"/>
      <rect id="Rectangle_8314" data-name="Rectangle 8314" width="0.232" height="19.4" transform="translate(3.709)" fill="#35c4dc"/>
      <rect id="Rectangle_8315" data-name="Rectangle 8315" width="0.232" height="19.4" transform="translate(3.94)" fill="#35c4db"/>
      <rect id="Rectangle_8316" data-name="Rectangle 8316" width="0.232" height="19.4" transform="translate(4.172)" fill="#36c4da"/>
      <rect id="Rectangle_8317" data-name="Rectangle 8317" width="0.232" height="19.4" transform="translate(4.404)" fill="#37c4d9"/>
      <rect id="Rectangle_8318" data-name="Rectangle 8318" width="0.232" height="19.4" transform="translate(4.636)" fill="#37c4d8"/>
      <rect id="Rectangle_8319" data-name="Rectangle 8319" width="0.232" height="19.4" transform="translate(4.868)" fill="#38c4d7"/>
      <rect id="Rectangle_8320" data-name="Rectangle 8320" width="0.232" height="19.4" transform="translate(5.099)" fill="#38c4d6"/>
      <rect id="Rectangle_8321" data-name="Rectangle 8321" width="0.232" height="19.4" transform="translate(5.331)" fill="#39c4d5"/>
      <rect id="Rectangle_8322" data-name="Rectangle 8322" width="0.232" height="19.4" transform="translate(5.563)" fill="#39c4d4"/>
      <rect id="Rectangle_8323" data-name="Rectangle 8323" width="0.232" height="19.4" transform="translate(5.795)" fill="#3ac4d3"/>
      <rect id="Rectangle_8324" data-name="Rectangle 8324" width="0.232" height="19.4" transform="translate(6.027)" fill="#3bc4d2"/>
      <rect id="Rectangle_8325" data-name="Rectangle 8325" width="0.232" height="19.4" transform="translate(6.259)" fill="#3bc4d1"/>
      <rect id="Rectangle_8326" data-name="Rectangle 8326" width="0.232" height="19.4" transform="translate(6.49)" fill="#3cc4d0"/>
      <rect id="Rectangle_8327" data-name="Rectangle 8327" width="0.232" height="19.4" transform="translate(6.722)" fill="#3cc4cf"/>
      <rect id="Rectangle_8328" data-name="Rectangle 8328" width="0.232" height="19.4" transform="translate(6.954)" fill="#3dc4ce"/>
      <rect id="Rectangle_8329" data-name="Rectangle 8329" width="0.232" height="19.4" transform="translate(7.185)" fill="#3dc4cd"/>
      <rect id="Rectangle_8330" data-name="Rectangle 8330" width="0.232" height="19.4" transform="translate(7.417)" fill="#3ec4cc"/>
      <rect id="Rectangle_8331" data-name="Rectangle 8331" width="0.232" height="19.4" transform="translate(7.649)" fill="#3ec4cb"/>
      <rect id="Rectangle_8332" data-name="Rectangle 8332" width="0.232" height="19.4" transform="translate(7.881)" fill="#3fc4ca"/>
      <rect id="Rectangle_8333" data-name="Rectangle 8333" width="0.232" height="19.4" transform="translate(8.113)" fill="#40c4c9"/>
      <rect id="Rectangle_8334" data-name="Rectangle 8334" width="0.232" height="19.4" transform="translate(8.345)" fill="#40c4c8"/>
      <rect id="Rectangle_8335" data-name="Rectangle 8335" width="0.232" height="19.4" transform="translate(8.577)" fill="#41c4c7"/>
      <rect id="Rectangle_8336" data-name="Rectangle 8336" width="0.232" height="19.4" transform="translate(8.808)" fill="#41c4c6"/>
      <rect id="Rectangle_8337" data-name="Rectangle 8337" width="0.232" height="19.4" transform="translate(9.04)" fill="#42c4c5"/>
      <rect id="Rectangle_8338" data-name="Rectangle 8338" width="0.232" height="19.4" transform="translate(9.272)" fill="#42c4c4"/>
      <rect id="Rectangle_8339" data-name="Rectangle 8339" width="0.232" height="19.4" transform="translate(9.503)" fill="#43c4c3"/>
      <rect id="Rectangle_8340" data-name="Rectangle 8340" width="0.232" height="19.4" transform="translate(9.735)" fill="#43c4c2"/>
      <rect id="Rectangle_8341" data-name="Rectangle 8341" width="0.232" height="19.4" transform="translate(9.967)" fill="#44c5c1"/>
      <rect id="Rectangle_8342" data-name="Rectangle 8342" width="0.232" height="19.4" transform="translate(10.199)" fill="#45c5c0"/>
      <rect id="Rectangle_8343" data-name="Rectangle 8343" width="0.232" height="19.4" transform="translate(10.43)" fill="#45c5bf"/>
      <rect id="Rectangle_8344" data-name="Rectangle 8344" width="0.232" height="19.4" transform="translate(10.663)" fill="#46c5be"/>
      <rect id="Rectangle_8345" data-name="Rectangle 8345" width="0.232" height="19.4" transform="translate(10.894)" fill="#46c5bd"/>
      <rect id="Rectangle_8346" data-name="Rectangle 8346" width="0.232" height="19.4" transform="translate(11.126)" fill="#47c5bc"/>
      <rect id="Rectangle_8347" data-name="Rectangle 8347" width="0.232" height="19.4" transform="translate(11.358)" fill="#47c5bb"/>
      <rect id="Rectangle_8348" data-name="Rectangle 8348" width="0.232" height="19.4" transform="translate(11.59)" fill="#48c5ba"/>
      <rect id="Rectangle_8349" data-name="Rectangle 8349" width="0.232" height="19.4" transform="translate(11.821)" fill="#48c5b9"/>
      <rect id="Rectangle_8350" data-name="Rectangle 8350" width="0.232" height="19.4" transform="translate(12.053)" fill="#49c5b8"/>
      <rect id="Rectangle_8351" data-name="Rectangle 8351" width="0.232" height="19.4" transform="translate(12.285)" fill="#4ac5b7"/>
      <rect id="Rectangle_8352" data-name="Rectangle 8352" width="0.232" height="19.4" transform="translate(12.517)" fill="#4ac5b6"/>
      <rect id="Rectangle_8353" data-name="Rectangle 8353" width="0.232" height="19.4" transform="translate(12.748)" fill="#4bc5b5"/>
      <rect id="Rectangle_8354" data-name="Rectangle 8354" width="0.232" height="19.4" transform="translate(12.981)" fill="#4bc5b4"/>
      <rect id="Rectangle_8355" data-name="Rectangle 8355" width="0.232" height="19.4" transform="translate(13.212)" fill="#4cc5b3"/>
      <rect id="Rectangle_8356" data-name="Rectangle 8356" width="0.232" height="19.4" transform="translate(13.444)" fill="#4cc5b2"/>
      <rect id="Rectangle_8357" data-name="Rectangle 8357" width="0.232" height="19.4" transform="translate(13.676)" fill="#4dc5b1"/>
      <rect id="Rectangle_8358" data-name="Rectangle 8358" width="0.232" height="19.4" transform="translate(13.908)" fill="#4dc5b0"/>
      <rect id="Rectangle_8359" data-name="Rectangle 8359" width="0.232" height="19.4" transform="translate(14.139)" fill="#4ec5af"/>
      <rect id="Rectangle_8360" data-name="Rectangle 8360" width="0.232" height="19.4" transform="translate(14.371)" fill="#4fc5ae"/>
      <rect id="Rectangle_8361" data-name="Rectangle 8361" width="0.232" height="19.4" transform="translate(14.603)" fill="#4fc5ad"/>
      <rect id="Rectangle_8362" data-name="Rectangle 8362" width="0.232" height="19.4" transform="translate(14.835)" fill="#50c5ac"/>
      <rect id="Rectangle_8363" data-name="Rectangle 8363" width="0.232" height="19.4" transform="translate(15.066)" fill="#50c5ab"/>
      <rect id="Rectangle_8364" data-name="Rectangle 8364" width="0.232" height="19.4" transform="translate(15.298)" fill="#51c5aa"/>
      <rect id="Rectangle_8365" data-name="Rectangle 8365" width="0.232" height="19.4" transform="translate(15.53)" fill="#51c5a9"/>
      <rect id="Rectangle_8366" data-name="Rectangle 8366" width="0.232" height="19.4" transform="translate(15.762)" fill="#52c5a8"/>
      <rect id="Rectangle_8367" data-name="Rectangle 8367" width="0.232" height="19.4" transform="translate(15.994)" fill="#53c5a7"/>
      <rect id="Rectangle_8368" data-name="Rectangle 8368" width="0.232" height="19.4" transform="translate(16.226)" fill="#53c5a6"/>
      <rect id="Rectangle_8369" data-name="Rectangle 8369" width="0.232" height="19.4" transform="translate(16.457)" fill="#54c5a5"/>
      <rect id="Rectangle_8370" data-name="Rectangle 8370" width="0.232" height="19.4" transform="translate(16.689)" fill="#54c5a4"/>
      <rect id="Rectangle_8371" data-name="Rectangle 8371" width="0.232" height="19.4" transform="translate(16.921)" fill="#55c5a3"/>
      <rect id="Rectangle_8372" data-name="Rectangle 8372" width="0.232" height="19.4" transform="translate(17.153)" fill="#55c5a2"/>
      <rect id="Rectangle_8373" data-name="Rectangle 8373" width="0.232" height="19.4" transform="translate(17.384)" fill="#56c5a1"/>
      <rect id="Rectangle_8374" data-name="Rectangle 8374" width="0.232" height="19.4" transform="translate(17.616)" fill="#56c5a0"/>
      <rect id="Rectangle_8375" data-name="Rectangle 8375" width="0.232" height="19.4" transform="translate(17.848)" fill="#57c59f"/>
      <rect id="Rectangle_8376" data-name="Rectangle 8376" width="0.232" height="19.4" transform="translate(18.08)" fill="#58c59e"/>
      <rect id="Rectangle_8377" data-name="Rectangle 8377" width="0.232" height="19.4" transform="translate(18.312)" fill="#58c59d"/>
      <rect id="Rectangle_8378" data-name="Rectangle 8378" width="0.232" height="19.4" transform="translate(18.543)" fill="#59c59c"/>
      <rect id="Rectangle_8379" data-name="Rectangle 8379" width="0.232" height="19.4" transform="translate(18.776)" fill="#59c59b"/>
      <rect id="Rectangle_8380" data-name="Rectangle 8380" width="0.232" height="19.4" transform="translate(19.007)" fill="#5ac59a"/>
      <rect id="Rectangle_8381" data-name="Rectangle 8381" width="0.232" height="19.4" transform="translate(19.239)" fill="#5ac599"/>
      <rect id="Rectangle_8382" data-name="Rectangle 8382" width="0.232" height="19.4" transform="translate(19.471)" fill="#5bc598"/>
      <rect id="Rectangle_8383" data-name="Rectangle 8383" width="0.232" height="19.4" transform="translate(19.702)" fill="#5bc597"/>
      <rect id="Rectangle_8384" data-name="Rectangle 8384" width="0.232" height="19.4" transform="translate(19.934)" fill="#5cc596"/>
      <rect id="Rectangle_8385" data-name="Rectangle 8385" width="0.232" height="19.4" transform="translate(20.166)" fill="#5dc594"/>
      <rect id="Rectangle_8386" data-name="Rectangle 8386" width="0.232" height="19.4" transform="translate(20.398)" fill="#5dc593"/>
      <rect id="Rectangle_8387" data-name="Rectangle 8387" width="0.232" height="19.4" transform="translate(20.63)" fill="#5ec592"/>
      <rect id="Rectangle_8388" data-name="Rectangle 8388" width="0.232" height="19.4" transform="translate(20.861)" fill="#5ec591"/>
      <rect id="Rectangle_8389" data-name="Rectangle 8389" width="0.232" height="19.4" transform="translate(21.093)" fill="#5fc590"/>
      <rect id="Rectangle_8390" data-name="Rectangle 8390" width="0.232" height="19.4" transform="translate(21.325)" fill="#5fc58f"/>
      <rect id="Rectangle_8391" data-name="Rectangle 8391" width="0.232" height="19.4" transform="translate(21.557)" fill="#60c58e"/>
      <rect id="Rectangle_8392" data-name="Rectangle 8392" width="0.232" height="19.4" transform="translate(21.789)" fill="#60c58d"/>
      <rect id="Rectangle_8393" data-name="Rectangle 8393" width="0.232" height="19.4" transform="translate(22.02)" fill="#61c58c"/>
      <rect id="Rectangle_8394" data-name="Rectangle 8394" width="0.232" height="19.4" transform="translate(22.252)" fill="#62c58b"/>
      <rect id="Rectangle_8395" data-name="Rectangle 8395" width="0.232" height="19.4" transform="translate(22.484)" fill="#62c58a"/>
      <rect id="Rectangle_8396" data-name="Rectangle 8396" width="0.232" height="19.4" transform="translate(22.716)" fill="#63c589"/>
      <rect id="Rectangle_8397" data-name="Rectangle 8397" width="0.232" height="19.4" transform="translate(22.948)" fill="#63c588"/>
      <rect id="Rectangle_8398" data-name="Rectangle 8398" width="0.232" height="19.4" transform="translate(23.179)" fill="#64c587"/>
      <rect id="Rectangle_8399" data-name="Rectangle 8399" width="0.232" height="19.4" transform="translate(23.411)" fill="#64c586"/>
      <rect id="Rectangle_8400" data-name="Rectangle 8400" width="0.232" height="19.4" transform="translate(23.643)" fill="#65c585"/>
      <rect id="Rectangle_8401" data-name="Rectangle 8401" width="0.232" height="19.4" transform="translate(23.875)" fill="#65c584"/>
      <rect id="Rectangle_8402" data-name="Rectangle 8402" width="0.232" height="19.4" transform="translate(24.107)" fill="#66c583"/>
      <rect id="Rectangle_8403" data-name="Rectangle 8403" width="0.232" height="19.4" transform="translate(24.338)" fill="#67c582"/>
      <rect id="Rectangle_8404" data-name="Rectangle 8404" width="0.232" height="19.4" transform="translate(24.57)" fill="#67c581"/>
      <rect id="Rectangle_8405" data-name="Rectangle 8405" width="0.232" height="19.4" transform="translate(24.802)" fill="#68c580"/>
      <rect id="Rectangle_8406" data-name="Rectangle 8406" width="0.232" height="19.4" transform="translate(25.034)" fill="#68c57f"/>
      <rect id="Rectangle_8407" data-name="Rectangle 8407" width="0.232" height="19.4" transform="translate(25.266)" fill="#69c57e"/>
      <rect id="Rectangle_8408" data-name="Rectangle 8408" width="0.232" height="19.4" transform="translate(25.497)" fill="#69c57d"/>
      <rect id="Rectangle_8409" data-name="Rectangle 8409" width="0.232" height="19.4" transform="translate(25.729)" fill="#6ac57c"/>
      <rect id="Rectangle_8410" data-name="Rectangle 8410" width="0.232" height="19.4" transform="translate(25.961)" fill="#6bc57b"/>
      <rect id="Rectangle_8411" data-name="Rectangle 8411" width="0.232" height="19.4" transform="translate(26.193)" fill="#6bc57a"/>
      <rect id="Rectangle_8412" data-name="Rectangle 8412" width="0.232" height="19.4" transform="translate(26.425)" fill="#6cc579"/>
      <rect id="Rectangle_8413" data-name="Rectangle 8413" width="0.232" height="19.4" transform="translate(26.656)" fill="#6cc578"/>
      <rect id="Rectangle_8414" data-name="Rectangle 8414" width="0.232" height="19.4" transform="translate(26.888)" fill="#6dc577"/>
      <rect id="Rectangle_8415" data-name="Rectangle 8415" width="0.232" height="19.4" transform="translate(27.12)" fill="#6dc576"/>
      <rect id="Rectangle_8416" data-name="Rectangle 8416" width="0.232" height="19.4" transform="translate(27.352)" fill="#6ec575"/>
      <rect id="Rectangle_8417" data-name="Rectangle 8417" width="0.232" height="19.4" transform="translate(27.583)" fill="#6ec574"/>
      <rect id="Rectangle_8418" data-name="Rectangle 8418" width="0.232" height="19.4" transform="translate(27.815)" fill="#6fc573"/>
      <rect id="Rectangle_8419" data-name="Rectangle 8419" width="0.232" height="19.4" transform="translate(28.047)" fill="#70c572"/>
      <rect id="Rectangle_8420" data-name="Rectangle 8420" width="0.232" height="19.4" transform="translate(28.279)" fill="#70c571"/>
      <rect id="Rectangle_8421" data-name="Rectangle 8421" width="0.232" height="19.4" transform="translate(28.51)" fill="#71c570"/>
      <rect id="Rectangle_8422" data-name="Rectangle 8422" width="0.232" height="19.4" transform="translate(28.743)" fill="#71c56f"/>
      <rect id="Rectangle_8423" data-name="Rectangle 8423" width="0.232" height="19.4" transform="translate(28.974)" fill="#72c56e"/>
      <rect id="Rectangle_8424" data-name="Rectangle 8424" width="0.232" height="19.4" transform="translate(29.206)" fill="#72c56d"/>
      <rect id="Rectangle_8425" data-name="Rectangle 8425" width="0.232" height="19.4" transform="translate(29.438)" fill="#73c56c"/>
      <rect id="Rectangle_8426" data-name="Rectangle 8426" width="0.232" height="19.4" transform="translate(29.67)" fill="#73c56b"/>
      <rect id="Rectangle_8427" data-name="Rectangle 8427" width="0.232" height="19.4" transform="translate(29.901)" fill="#74c66a"/>
      <rect id="Rectangle_8428" data-name="Rectangle 8428" width="0.232" height="19.4" transform="translate(30.133)" fill="#75c669"/>
      <rect id="Rectangle_8429" data-name="Rectangle 8429" width="0.232" height="19.4" transform="translate(30.365)" fill="#75c668"/>
      <rect id="Rectangle_8430" data-name="Rectangle 8430" width="0.232" height="19.4" transform="translate(30.597)" fill="#76c667"/>
      <rect id="Rectangle_8431" data-name="Rectangle 8431" width="0.232" height="19.4" transform="translate(30.828)" fill="#76c666"/>
      <rect id="Rectangle_8432" data-name="Rectangle 8432" width="0.232" height="19.4" transform="translate(31.061)" fill="#77c665"/>
      <rect id="Rectangle_8433" data-name="Rectangle 8433" width="0.232" height="19.4" transform="translate(31.292)" fill="#77c664"/>
      <rect id="Rectangle_8434" data-name="Rectangle 8434" width="0.232" height="19.4" transform="translate(31.524)" fill="#78c663"/>
      <rect id="Rectangle_8435" data-name="Rectangle 8435" width="0.232" height="19.4" transform="translate(31.756)" fill="#78c662"/>
      <rect id="Rectangle_8436" data-name="Rectangle 8436" width="0.232" height="19.4" transform="translate(31.988)" fill="#79c661"/>
      <rect id="Rectangle_8437" data-name="Rectangle 8437" width="0.232" height="19.4" transform="translate(32.219)" fill="#7ac660"/>
      <rect id="Rectangle_8438" data-name="Rectangle 8438" width="0.232" height="19.4" transform="translate(32.451)" fill="#7ac65f"/>
      <rect id="Rectangle_8439" data-name="Rectangle 8439" width="0.232" height="19.4" transform="translate(32.683)" fill="#7bc65e"/>
      <rect id="Rectangle_8440" data-name="Rectangle 8440" width="0.232" height="19.4" transform="translate(32.915)" fill="#7bc65d"/>
      <rect id="Rectangle_8441" data-name="Rectangle 8441" width="0.232" height="19.4" transform="translate(33.146)" fill="#7cc65c"/>
      <rect id="Rectangle_8442" data-name="Rectangle 8442" width="0.232" height="19.4" transform="translate(33.378)" fill="#7cc65b"/>
      <rect id="Rectangle_8443" data-name="Rectangle 8443" width="0.232" height="19.4" transform="translate(33.61)" fill="#7dc65a"/>
      <rect id="Rectangle_8444" data-name="Rectangle 8444" width="0.232" height="19.4" transform="translate(33.842)" fill="#7dc659"/>
      <rect id="Rectangle_8445" data-name="Rectangle 8445" width="0.232" height="19.4" transform="translate(34.074)" fill="#7ec658"/>
      <rect id="Rectangle_8446" data-name="Rectangle 8446" width="0.232" height="19.4" transform="translate(34.306)" fill="#7fc657"/>
      <rect id="Rectangle_8447" data-name="Rectangle 8447" width="0.232" height="19.4" transform="translate(34.537)" fill="#7fc656"/>
      <rect id="Rectangle_8448" data-name="Rectangle 8448" width="0.232" height="19.4" transform="translate(34.769)" fill="#80c655"/>
      <rect id="Rectangle_8449" data-name="Rectangle 8449" width="0.232" height="19.4" transform="translate(35.001)" fill="#80c654"/>
      <rect id="Rectangle_8450" data-name="Rectangle 8450" width="0.232" height="19.4" transform="translate(35.233)" fill="#81c653"/>
      <rect id="Rectangle_8451" data-name="Rectangle 8451" width="0.232" height="19.4" transform="translate(35.464)" fill="#81c652"/>
      <rect id="Rectangle_8452" data-name="Rectangle 8452" width="0.232" height="19.4" transform="translate(35.696)" fill="#82c651"/>
      <rect id="Rectangle_8453" data-name="Rectangle 8453" width="0.232" height="19.4" transform="translate(35.928)" fill="#83c650"/>
      <rect id="Rectangle_8454" data-name="Rectangle 8454" width="0.232" height="19.4" transform="translate(36.16)" fill="#83c64f"/>
      <rect id="Rectangle_8455" data-name="Rectangle 8455" width="0.232" height="19.4" transform="translate(36.392)" fill="#84c64e"/>
      <rect id="Rectangle_8456" data-name="Rectangle 8456" width="0.232" height="19.4" transform="translate(36.623)" fill="#84c64d"/>
      <rect id="Rectangle_8457" data-name="Rectangle 8457" width="0.232" height="19.4" transform="translate(36.855)" fill="#85c64c"/>
      <rect id="Rectangle_8458" data-name="Rectangle 8458" width="0.232" height="19.4" transform="translate(37.087)" fill="#85c64b"/>
      <rect id="Rectangle_8459" data-name="Rectangle 8459" width="0.232" height="19.4" transform="translate(37.319)" fill="#86c64a"/>
      <rect id="Rectangle_8460" data-name="Rectangle 8460" width="0.232" height="19.4" transform="translate(37.551)" fill="#86c649"/>
      <rect id="Rectangle_8461" data-name="Rectangle 8461" width="0.232" height="19.4" transform="translate(37.782)" fill="#87c648"/>
      <rect id="Rectangle_8462" data-name="Rectangle 8462" width="0.232" height="19.4" transform="translate(38.014)" fill="#88c647"/>
      <rect id="Rectangle_8463" data-name="Rectangle 8463" width="0.232" height="19.4" transform="translate(38.246)" fill="#88c646"/>
      <rect id="Rectangle_8464" data-name="Rectangle 8464" width="0.232" height="19.4" transform="translate(38.478)" fill="#89c645"/>
      <rect id="Rectangle_8465" data-name="Rectangle 8465" width="0.232" height="19.4" transform="translate(38.71)" fill="#89c644"/>
      <rect id="Rectangle_8466" data-name="Rectangle 8466" width="0.232" height="19.4" transform="translate(38.941)" fill="#8ac643"/>
      <rect id="Rectangle_8467" data-name="Rectangle 8467" width="0.232" height="19.4" transform="translate(39.174)" fill="#8ac642"/>
      <rect id="Rectangle_8468" data-name="Rectangle 8468" width="0.232" height="19.4" transform="translate(39.405)" fill="#8bc641"/>
      <rect id="Rectangle_8469" data-name="Rectangle 8469" width="0.232" height="19.4" transform="translate(39.637)" fill="#8bc640"/>
      <rect id="Rectangle_8470" data-name="Rectangle 8470" width="0.232" height="19.4" transform="translate(39.869)" fill="#8cc63f"/>
      <path id="Path_7831" data-name="Path 7831" d="M84.75,115.65v0Z" transform="translate(-44.65 -96.25)" fill="#8cc63f"/>
    </g>
  </g>
  <g id="Group_2771" data-name="Group 2771">
    <g id="Group_2770" data-name="Group 2770" clip-path="url(#clip-path-2)">
      <path id="Path_7833" data-name="Path 7833" d="M77.821,92.6H65.4a1.419,1.419,0,0,1,0-2.839h12.42a2.724,2.724,0,0,0,2.721-2.721V58.06a2.724,2.724,0,0,0-2.721-2.721H40.56a2.724,2.724,0,0,0-2.721,2.721V68.41a1.419,1.419,0,0,1-2.839,0V58.06a5.566,5.566,0,0,1,5.56-5.56H77.821a5.566,5.566,0,0,1,5.56,5.56V87.041a5.566,5.566,0,0,1-5.56,5.56" transform="translate(-18.439 -27.659)" fill="#000c30"/>
      <path id="Path_7834" data-name="Path 7834" d="M82.9,27.68a1.419,1.419,0,0,1-1.419-1.419V15.91a13.071,13.071,0,0,0-26.142,0V26.26a1.419,1.419,0,1,1-2.839,0V15.91a15.91,15.91,0,0,1,31.82,0V26.26A1.419,1.419,0,0,1,82.9,27.68" transform="translate(-27.659)" fill="#000c30"/>
      <path id="Path_7835" data-name="Path 7835" d="M81.825,92.363a1.42,1.42,0,0,1-.961-2.465,4.812,4.812,0,0,0,1.2-5.325,4.791,4.791,0,1,0-8.882,3.594,1.419,1.419,0,0,1-2.632,1.065A7.63,7.63,0,1,1,84.7,83.508a7.665,7.665,0,0,1-1.911,8.48,1.416,1.416,0,0,1-.96.374" transform="translate(-36.873 -41.481)" fill="#000c30"/>
    </g>
  </g>
</svg>
