<?xml version="1.0" encoding="utf-8"?>
<!-- Generator: Adobe Illustrator 24.1.3, SVG Export Plug-In . SVG Version: 6.00 Build 0)  -->
<svg version="1.1" id="Layer_1" xmlns="http://www.w3.org/2000/svg" xmlns:xlink="http://www.w3.org/1999/xlink" x="0px" y="0px"
	 viewBox="0 0 643 632" style="enable-background:new 0 0 643 632;" xml:space="preserve">
<style type="text/css">
	.st0{clip-path:url(#SVGID_2_);}
	.st1{opacity:0.1;clip-path:url(#SVGID_4_);}
	.st2{clip-path:url(#SVGID_6_);fill:#2EC2EB;}
	.st3{clip-path:url(#SVGID_8_);fill:none;stroke:#BCBEC0;stroke-width:23.3206;stroke-miterlimit:10;}
	.st4{clip-path:url(#SVGID_8_);fill:url(#SVGID_9_);}
	.st5{clip-path:url(#SVGID_8_);fill:url(#SVGID_10_);}
	.st6{clip-path:url(#SVGID_12_);fill:none;stroke:#FFFFFF;stroke-width:36.0993;stroke-linecap:round;stroke-miterlimit:10;}
	.st7{fill:none;stroke:#FFFFFF;stroke-width:36.0993;stroke-linecap:round;stroke-linejoin:round;stroke-miterlimit:10;}
	
		.st8{clip-path:url(#SVGID_14_);fill:none;stroke:#BCBEC0;stroke-width:25.4596;stroke-linecap:round;stroke-linejoin:round;stroke-miterlimit:10;}
	.st9{clip-path:url(#SVGID_14_);fill:url(#SVGID_15_);}
	
		.st10{clip-path:url(#SVGID_17_);fill:none;stroke:#BCBEC0;stroke-width:23.9366;stroke-linecap:round;stroke-linejoin:round;stroke-miterlimit:10;}
	.st11{fill:url(#SVGID_18_);}
	
		.st12{clip-path:url(#SVGID_20_);fill:none;stroke:#BCBEC0;stroke-width:23.9366;stroke-linecap:round;stroke-linejoin:round;stroke-miterlimit:10;stroke-dasharray:67.4535,43.5168;}
	
		.st13{clip-path:url(#SVGID_20_);fill:none;stroke:#BCBEC0;stroke-width:23.9366;stroke-linecap:round;stroke-linejoin:round;stroke-miterlimit:10;stroke-dasharray:67.688,43.7514;}
	
		.st14{clip-path:url(#SVGID_20_);fill:none;stroke:#BCBEC0;stroke-width:23.9366;stroke-linecap:round;stroke-linejoin:round;stroke-miterlimit:10;}
	
		.st15{clip-path:url(#SVGID_22_);fill:none;stroke:#BCBEC0;stroke-width:22.4093;stroke-linecap:round;stroke-linejoin:round;stroke-miterlimit:10;}
	.st16{fill:url(#SVGID_23_);}
	.st17{clip-path:url(#SVGID_25_);fill:url(#SVGID_26_);}
</style>
<g>
	<g>
		<defs>
			<rect id="SVGID_21_" x="79.4" y="51.5" width="484.2" height="528.9"/>
		</defs>
		<clipPath id="SVGID_2_">
			<use xlink:href="#SVGID_21_"  style="overflow:visible;"/>
		</clipPath>
		
			<path style="clip-path:url(#SVGID_2_);fill:none;stroke:#BCBEC0;stroke-width:22.4093;stroke-linecap:round;stroke-linejoin:round;stroke-miterlimit:10;" d="
			M327.5,568.1C529,487.8,550.6,249.6,552.4,176.4c0.3-11.5-8.4-20.8-18.9-20.4c-114.7,4.8-173.5-52.3-197.8-85.8
			c-7.3-10-21-10-28.3,0c-24.4,33.4-83.1,90.5-197.8,85.8c-10.5-0.4-19.2,8.9-18.9,20.4c1.8,73.3,23.3,311.5,224.8,391.7
			C319.3,569.6,323.6,569.6,327.5,568.1z"/>
	</g>
	
		<linearGradient id="SVGID_4_" gradientUnits="userSpaceOnUse" x1="-123.2212" y1="708.2823" x2="-118.7394" y2="708.2823" gradientTransform="matrix(49.9018 0 0 -49.9018 6394.2446 35634.8203)">
		<stop  offset="0" style="stop-color:#8FC740"/>
		<stop  offset="1" style="stop-color:#38C6F4"/>
	</linearGradient>
	<path style="fill:url(#SVGID_4_);" d="M262.7,282.3l60.7,58.1l128.1-122.6c3.6-3.4,9.3-3.3,12.7,0.3c3.4,3.6,3.3,9.3-0.3,12.7
		L323.4,365.2l-73.1-70c-3.6-3.4-3.7-9.1-0.3-12.7C253.4,279,259.1,278.9,262.7,282.3L262.7,282.3z"/>
	<g>
		<defs>
			<rect id="SVGID_24_" x="79.4" y="51.5" width="484.2" height="528.9"/>
		</defs>
		<clipPath id="SVGID_6_">
			<use xlink:href="#SVGID_24_"  style="overflow:visible;"/>
		</clipPath>
		
			<linearGradient id="SVGID_8_" gradientUnits="userSpaceOnUse" x1="-125.2736" y1="706.7744" x2="-120.7918" y2="706.7744" gradientTransform="matrix(61.5906 0 0 -61.5906 7900.2407 43848.4297)">
			<stop  offset="0" style="stop-color:#8FC740"/>
			<stop  offset="1" style="stop-color:#38C6F4"/>
		</linearGradient>
		<path style="clip-path:url(#SVGID_6_);fill:url(#SVGID_8_);" d="M455.8,291.1c1.5,7.6,2.3,15.4,2.5,23.3l0,0l0,0
			c0,1.1,0,2.3,0,3.4c0,74-58.6,134.9-132.4,136.7c-1.1,0-2.3,0-3.4,0c-73.5,0-133.9-59.1-135.7-133.5c0-1.1,0-2.3,0-3.4
			c0-74,58.6-134.9,132.4-136.7c1.1,0,2.3,0,3.4,0c32.9,0,63.2,11.9,86.8,31.6c3.8,3.2,4.3,8.8,1.1,12.6c-3.2,3.8-8.8,4.3-12.6,1.1
			c-20.5-17.2-46.7-27.4-75.2-27.4c-1,0-2,0-2.9,0c-64,1.6-115,54.5-115,118.8c0,1,0,2,0,3c1.6,64.7,54.1,116,117.8,116
			c1,0,2,0,2.9,0c64-1.6,115-54.5,115-118.8c0-1,0-2,0-3l0,0c-0.2-6.9-0.9-13.7-2.2-20.3c-1-4.9,2.2-9.6,7.1-10.5
			C450.1,283.1,454.8,286.2,455.8,291.1L455.8,291.1z"/>
	</g>
</g>
</svg>
