<?xml version="1.0" encoding="utf-8"?>
<!-- Generator: Adobe Illustrator 23.1.0, SVG Export Plug-In . SVG Version: 6.00 Build 0)  -->
<svg version="1.1" id="Layer_1" xmlns="http://www.w3.org/2000/svg" xmlns:xlink="http://www.w3.org/1999/xlink" x="0px" y="0px"
	 viewBox="0 0 90 97" style="enable-background:new 0 0 90 97;" xml:space="preserve">
<style type="text/css">
	
		.st0{clip-path:url(#SVGID_2_);fill:none;stroke:#000C30;stroke-width:4.1;stroke-linecap:round;stroke-linejoin:round;stroke-miterlimit:10;}
	.st1{fill:url(#SVGID_3_);}
	.st2{clip-path:url(#SVGID_5_);fill:url(#SVGID_6_);}
</style>
<g>
	<defs>
		<rect id="SVGID_1_" x="0.9" y="0" width="88.6" height="96.8"/>
	</defs>
	<clipPath id="SVGID_2_">
		<use xlink:href="#SVGID_1_"  style="overflow:visible;"/>
	</clipPath>
	<path class="st0" d="M46.3,94.5c36.9-14.7,40.8-58.3,41.1-71.7c0.1-2.1-1.5-3.8-3.5-3.7C63,19.9,52.3,9.5,47.8,3.4
		c-1.3-1.8-3.8-1.8-5.2,0C38.2,9.5,27.4,19.9,6.4,19.1C4.5,19,2.9,20.7,3,22.8c0.3,13.4,4.3,57,41.1,71.7
		C44.8,94.8,45.6,94.8,46.3,94.5z"/>
</g>
<linearGradient id="SVGID_3_" gradientUnits="userSpaceOnUse" x1="-2.906" y1="98.8982" x2="-1.906" y2="98.8982" gradientTransform="matrix(41.671 0 0 -41.671 151.986 4164.8008)">
	<stop  offset="0" style="stop-color:#8FC740"/>
	<stop  offset="1" style="stop-color:#38C6F4"/>
</linearGradient>
<path class="st1" d="M34.4,42.3L45.6,53l23.5-22.5c0.6-0.6,1.5-0.6,2.1,0c0.6,0.6,0.6,1.5,0,2.1L45.6,57.2L32.3,44.4
	c-0.6-0.6-0.6-1.5,0-2.1C32.8,41.7,33.8,41.7,34.4,42.3L34.4,42.3z"/>
<g>
	<defs>
		<rect id="SVGID_4_" x="0.9" y="0" width="88.6" height="96.8"/>
	</defs>
	<clipPath id="SVGID_5_">
		<use xlink:href="#SVGID_4_"  style="overflow:visible;"/>
	</clipPath>
	
		<linearGradient id="SVGID_6_" gradientUnits="userSpaceOnUse" x1="-2.9236" y1="99.0382" x2="-1.9236" y2="99.0382" gradientTransform="matrix(51.2532 0 0 -51.2532 169.6247 5124.6982)">
		<stop  offset="0" style="stop-color:#8FC740"/>
		<stop  offset="1" style="stop-color:#38C6F4"/>
	</linearGradient>
	<path class="st2" d="M69.6,43.8c0.3,1.4,0.4,2.8,0.5,4.2l0,0c0,0.2,0,0.4,0,0.6c0,13.5-10.7,24.5-24.1,24.9c-0.2,0-0.4,0-0.6,0
		C32,73.6,21,62.8,20.7,49.3c0-0.2,0-0.4,0-0.6c0-13.5,10.7-24.5,24.1-24.9c0.2,0,0.4,0,0.6,0c6,0,11.5,2.2,15.8,5.8
		c0.6,0.5,0.7,1.5,0.2,2.1c-0.5,0.6-1.5,0.7-2.1,0.2c-3.8-3.2-8.6-5.1-13.9-5.1c-0.2,0-0.4,0-0.5,0c-11.8,0.3-21.2,10-21.2,21.9
		c0,0.2,0,0.4,0,0.5c0.3,11.9,10,21.4,21.7,21.4c0.2,0,0.4,0,0.5,0c11.8-0.3,21.2-10,21.2-21.9c0-0.2,0-0.4,0-0.5l0,0
		c0-1.3-0.2-2.5-0.4-3.7c-0.2-0.8,0.4-1.6,1.2-1.8C68.7,42.5,69.5,43,69.6,43.8L69.6,43.8z"/>
</g>
</svg>
