<svg xmlns="http://www.w3.org/2000/svg" xmlns:xlink="http://www.w3.org/1999/xlink" width="64" height="77.547" viewBox="0 0 64 77.547">
  <defs>
    <linearGradient id="linear-gradient" y1="0.5" x2="1" y2="0.5" gradientUnits="objectBoundingBox">
      <stop offset="0" stop-color="#2cc4ec"/>
      <stop offset="1" stop-color="#8cc63f"/>
    </linearGradient>
  </defs>
  <g id="Group_3680" data-name="Group 3680" transform="translate(1420.811 -1243.061)">
    <g id="Group_3665" data-name="Group 3665" transform="translate(-1408.075 1243.061)">
      <g id="Path_9154" data-name="Path 9154">
        <path id="Path_9175" data-name="Path 9175" d="M-1370.032,1270.646a1.381,1.381,0,0,1-1.381-1.381v-6.94c0-10.335-6.17-16.5-16.5-16.5-14.543,0-16.5,11.549-16.5,22.846a1.381,1.381,0,0,1-1.381,1.381,1.381,1.381,0,0,1-1.381-1.381c0-7,0-25.607,19.264-25.607,11.883,0,19.265,7.382,19.265,19.265v6.94A1.381,1.381,0,0,1-1370.032,1270.646Z" transform="translate(1407.18 -1243.061)" fill="url(#linear-gradient)"/>
      </g>
    </g>
    <g id="Group_3666" data-name="Group 3666" transform="translate(-1420.811 1269.994)">
      <g id="Path_9155" data-name="Path 9155">
        <path id="Path_9176" data-name="Path 9176" d="M-1411.71,1322.437a9.065,9.065,0,0,1-6.433-2.648,8.962,8.962,0,0,1-2.667-6.4v-32.519a8.959,8.959,0,0,1,2.664-6.4,9.065,9.065,0,0,1,6.435-2.651h45.8a9.069,9.069,0,0,1,6.433,2.648,8.963,8.963,0,0,1,2.668,6.4v32.52a8.961,8.961,0,0,1-2.664,6.4,9.067,9.067,0,0,1-6.435,2.651h-45.8Zm-7.249-16.258v7.209a7.137,7.137,0,0,0,2.124,5.1,7.221,7.221,0,0,0,5.125,2.11h45.8a7.226,7.226,0,0,0,5.13-2.111,7.138,7.138,0,0,0,2.122-5.1v-7.21Zm0-1.841h60.3v-14.417h-60.3Zm0-16.258h60.3v-7.208a7.138,7.138,0,0,0-2.125-5.1,7.225,7.225,0,0,0-5.124-2.11h-45.8a7.222,7.222,0,0,0-5.129,2.111,7.136,7.136,0,0,0-2.122,5.1h0Z" transform="translate(1420.811 -1271.823)" fill="#000b2f"/>
      </g>
    </g>
    <g id="Group_3667" data-name="Group 3667" transform="translate(-1413.143 1276.849)">
      <g id="Path_9156" data-name="Path 9156">
        <path id="Path_9177" data-name="Path 9177" d="M-1402.156,1316.175a2.2,2.2,0,0,1-2.194-2.194,2.2,2.2,0,0,1,2.192-2.192h0a2.195,2.195,0,0,1,2.193,2.192A2.2,2.2,0,0,1-1402.156,1316.175Zm0-2.761v1.136a.569.569,0,0,0,.566-.566A.569.569,0,0,0-1402.156,1313.413Zm0,0a.569.569,0,0,0-.569.567.57.57,0,0,0,.569.569Zm-8.13,2.761a2.2,2.2,0,0,1-2.193-2.194,2.2,2.2,0,0,1,2.192-2.192h0a2.2,2.2,0,0,1,2.193,2.192A2.2,2.2,0,0,1-1410.287,1316.175Zm0-2.761,0,1.136a.569.569,0,0,0,.566-.566A.569.569,0,0,0-1410.287,1313.413Zm0,0a.569.569,0,0,0-.568.567.57.57,0,0,0,.568.569Zm8.13-13.5a2.2,2.2,0,0,1-2.194-2.194,2.2,2.2,0,0,1,2.192-2.192h0a2.195,2.195,0,0,1,2.193,2.192A2.2,2.2,0,0,1-1402.156,1299.917Zm0-2.761v1.136a.569.569,0,0,0,.566-.566A.569.569,0,0,0-1402.156,1297.156Zm0,0a.569.569,0,0,0-.569.567.57.57,0,0,0,.569.569Zm-8.13,2.761a2.2,2.2,0,0,1-2.193-2.194,2.2,2.2,0,0,1,2.192-2.192h0a2.195,2.195,0,0,1,2.193,2.192A2.2,2.2,0,0,1-1410.287,1299.917Zm0-2.761,0,1.136a.568.568,0,0,0,.566-.566A.569.569,0,0,0-1410.287,1297.156Zm0,0a.569.569,0,0,0-.568.567.569.569,0,0,0,.568.569Zm8.13-13.5a2.2,2.2,0,0,1-2.194-2.193,2.2,2.2,0,0,1,2.192-2.194h0a2.2,2.2,0,0,1,2.193,2.194A2.2,2.2,0,0,1-1402.156,1283.659Zm0-2.761a.569.569,0,0,0-.569.568.569.569,0,0,0,.569.567Zm0,0v1.135a.567.567,0,0,0,.566-.564A.569.569,0,0,0-1402.156,1280.9Zm-8.13,2.761a2.2,2.2,0,0,1-2.193-2.193,2.2,2.2,0,0,1,2.192-2.194h0a2.2,2.2,0,0,1,2.193,2.194A2.2,2.2,0,0,1-1410.287,1283.659Zm0-2.761a.569.569,0,0,0-.568.568.569.569,0,0,0,.568.567Zm0,0,0,1.135a.567.567,0,0,0,.566-.564A.569.569,0,0,0-1410.287,1280.9Z" transform="translate(1412.48 -1279.271)" fill="url(#linear-gradient)"/>
      </g>
    </g>
  </g>
</svg>
