<svg xmlns="http://www.w3.org/2000/svg" xmlns:xlink="http://www.w3.org/1999/xlink" width="63.875" height="62.891" viewBox="0 0 63.875 62.891">
  <defs>
    <linearGradient id="linear-gradient" y1="0.5" x2="1" y2="0.5" gradientUnits="objectBoundingBox">
      <stop offset="0" stop-color="#29c3ec"/>
      <stop offset="0.989" stop-color="#8ac858"/>
    </linearGradient>
  </defs>
  <g id="Group_3873" data-name="Group 3873" transform="translate(301.722 -339.184)">
    <g id="Group_3870" data-name="Group 3870" transform="translate(-301.722 340.014)">
      <g id="Group_3866" data-name="Group 3866" transform="translate(14.051 9.895)">
        <g id="Group_3864" data-name="Group 3864" transform="translate(0 14.406)">
          <path id="Path_9294" data-name="Path 9294" d="M-228.735,462.645a14.912,14.912,0,0,1-11.9-5.97,3.107,3.107,0,0,1,0-3.74,14.743,14.743,0,0,1,8.714-5.607l.344,1.59a13.123,13.123,0,0,0-7.758,4.994,1.461,1.461,0,0,0,0,1.785,13.108,13.108,0,0,0,10.6,5.321,13.142,13.142,0,0,0,10.6-5.318,1.512,1.512,0,0,0,0-1.789,13.236,13.236,0,0,0-7.759-4.994l.345-1.59a14.866,14.866,0,0,1,8.717,5.61,3.151,3.151,0,0,1,0,3.736A14.756,14.756,0,0,1-228.735,462.645Z" transform="translate(241.256 -447.328)" fill="url(#linear-gradient)"/>
        </g>
        <g id="Group_3865" data-name="Group 3865" transform="translate(5.85)">
          <path id="Path_9295" data-name="Path 9295" d="M-209.414,402.182a6.674,6.674,0,0,1-6.667-6.667V392a6.674,6.674,0,0,1,6.667-6.667A6.674,6.674,0,0,1-202.747,392v3.512A6.674,6.674,0,0,1-209.414,402.182Zm0-15.219a5.046,5.046,0,0,0-5.04,5.04v3.512a5.046,5.046,0,0,0,5.04,5.04,5.046,5.046,0,0,0,5.04-5.04V392A5.046,5.046,0,0,0-209.414,386.963Z" transform="translate(216.081 -385.336)" fill="url(#linear-gradient)"/>
        </g>
      </g>
      <g id="Group_3867" data-name="Group 3867" transform="translate(0 0)">
        <path id="Path_9296" data-name="Path 9296" d="M-275.153,394.081a26.6,26.6,0,0,1-26.569-26.569,26.412,26.412,0,0,1,4.743-15.154,26.531,26.531,0,0,1,12.164-9.6l.592,1.515A24.8,24.8,0,0,0-300.1,367.512a24.97,24.97,0,0,0,24.942,24.942,24.97,24.97,0,0,0,24.942-24.942,25.086,25.086,0,0,0-.617-5.536l1.586-.359a26.714,26.714,0,0,1,.657,5.9A26.6,26.6,0,0,1-275.153,394.081Z" transform="translate(301.722 -342.755)" fill="#000c30"/>
      </g>
      <g id="Group_3868" data-name="Group 3868" transform="translate(47.799 45.988)">
        <path id="Path_9297" data-name="Path 9297" d="M-84.486,556.72a3.145,3.145,0,0,1-2.23-.922l-8.4-8.4a3.158,3.158,0,0,1,0-4.461l1.372-1.372a3.159,3.159,0,0,1,4.461,0h0l8.4,8.4a3.134,3.134,0,0,1,.924,2.231,3.133,3.133,0,0,1-.924,2.23l-1.372,1.372A3.145,3.145,0,0,1-84.486,556.72Zm-7.024-14.448a1.523,1.523,0,0,0-1.081.447l-1.372,1.372a1.53,1.53,0,0,0,0,2.161l8.4,8.4a1.518,1.518,0,0,0,1.08.448,1.519,1.519,0,0,0,1.081-.448l1.372-1.372a1.53,1.53,0,0,0,0-2.161l-8.4-8.4A1.524,1.524,0,0,0-91.509,542.272Z" transform="translate(96.034 -540.646)" fill="#000c30"/>
      </g>
      <g id="Group_3869" data-name="Group 3869" transform="translate(44.209 42.399)">
        <rect id="Rectangle_16439" data-name="Rectangle 16439" width="1.627" height="7.351" transform="translate(0 1.15) rotate(-45.005)" fill="#000c30"/>
      </g>
    </g>
    <g id="Group_3872" data-name="Group 3872" transform="translate(-284.055 339.184)">
      <g id="Group_3871" data-name="Group 3871" transform="translate(0)">
        <path id="Path_9298" data-name="Path 9298" d="M-195.886,364.28a.848.848,0,0,1-.529-.185l-7.621-6.08h-5v-1.7h5.3a.85.85,0,0,1,.529.185l6.476,5.166v-4.5a.848.848,0,0,1,.848-.848h.091a5.128,5.128,0,0,0,5.067-5.177v-5.085a5.128,5.128,0,0,0-5.067-5.177h-23.139A5.128,5.128,0,0,0-224,346.057v7.013h-1.7v-7.013a6.826,6.826,0,0,1,6.763-6.873h23.139a6.826,6.826,0,0,1,6.763,6.873v5.085a6.844,6.844,0,0,1-6.006,6.83v5.46a.848.848,0,0,1-.48.764A.846.846,0,0,1-195.886,364.28Z" transform="translate(225.697 -339.184)" fill="#000c30"/>
      </g>
    </g>
  </g>
</svg>
