<?xml version="1.0" encoding="utf-8"?>
<!-- Generator: Adobe Illustrator 23.1.0, SVG Export Plug-In . SVG Version: 6.00 Build 0)  -->
<svg version="1.1" id="Layer_1" xmlns="http://www.w3.org/2000/svg" xmlns:xlink="http://www.w3.org/1999/xlink" x="0px" y="0px"
	 viewBox="0 0 213 213" style="enable-background:new 0 0 213 213;" xml:space="preserve">
<style type="text/css">
	.st0{clip-path:url(#SVGID_2_);}
	.st1{filter:url(#Adobe_OpacityMaskFilter);}
	.st2{clip-path:url(#SVGID_4_);}
	.st3{clip-path:url(#SVGID_4_);mask:url(#SVGID_5_);}
	.st4{opacity:0.31;clip-path:url(#SVGID_9_);fill:#231F20;}
	.st5{clip-path:url(#SVGID_4_);fill:#FFFFFF;}
	.st6{clip-path:url(#SVGID_4_);fill:url(#SVGID_10_);}
	.st7{clip-path:url(#SVGID_12_);fill:url(#SVGID_13_);}
</style>
<g>
	<defs>
		<rect id="SVGID_1_" x="0.9" y="8.1" width="212.5" height="202.5"/>
	</defs>
	<clipPath id="SVGID_2_">
		<use xlink:href="#SVGID_1_"  style="overflow:visible;"/>
	</clipPath>
	<g class="st0">
		<defs>
			<rect id="SVGID_3_" x="0.9" y="8.1" width="212.5" height="202.5"/>
		</defs>
		<clipPath id="SVGID_4_">
			<use xlink:href="#SVGID_3_"  style="overflow:visible;"/>
		</clipPath>
		<defs>
			<filter id="Adobe_OpacityMaskFilter" filterUnits="userSpaceOnUse" x="11.9" y="17.3" width="190.1" height="190.1">
				<feColorMatrix  type="matrix" values="1 0 0 0 0  0 1 0 0 0  0 0 1 0 0  0 0 0 1 0"/>
			</filter>
		</defs>
		<mask maskUnits="userSpaceOnUse" x="11.9" y="17.3" width="190.1" height="190.1" id="SVGID_5_">
			<g class="st1">
				<g>
					<defs>
						<rect id="SVGID_6_" x="0.9" y="8.1" width="213.1" height="203.5"/>
					</defs>
					<clipPath id="SVGID_7_" class="st2">
						<use xlink:href="#SVGID_6_"  style="overflow:visible;"/>
					</clipPath>
					<g style="clip-path:url(#SVGID_7_);">
						
							<image style="overflow:visible;" width="444" height="424" xlink:href="B582912D.jpg"  transform="matrix(0.48 0 0 0.48 0.852 8.1427)">
						</image>
					</g>
				</g>
			</g>
		</mask>
		<g class="st3">
			<g>
				<defs>
					<rect id="SVGID_8_" x="11.9" y="17.3" width="190.1" height="190.1"/>
				</defs>
				<clipPath id="SVGID_9_">
					<use xlink:href="#SVGID_8_"  style="overflow:visible;"/>
				</clipPath>
				<rect x="11.9" y="17.3" class="st4" width="190.1" height="190.1"/>
			</g>
		</g>
		<path class="st5" d="M100.7,182.8c42.4,0,76.8-34.4,76.8-76.8s-34.4-76.8-76.8-76.8S24,63.6,24,106S58.3,182.8,100.7,182.8"/>
		
			<linearGradient id="SVGID_10_" gradientUnits="userSpaceOnUse" x1="56.7509" y1="155.2554" x2="57.7509" y2="155.2554" gradientTransform="matrix(161.147 0 0 -161.147 -9125.083 25124.9609)">
			<stop  offset="0" style="stop-color:#8FC740"/>
			<stop  offset="1" style="stop-color:#38C6F4"/>
		</linearGradient>
		<path class="st6" d="M100.7,182.8v-2.5c41-0.1,74.2-33.3,74.3-74.3c-0.1-41-33.3-74.2-74.3-74.3C59.7,31.8,26.5,65,26.5,106
			c0.1,41,33.3,74.2,74.3,74.3L100.7,182.8v2.5c-43.8,0-79.3-35.5-79.3-79.3c0-43.8,35.5-79.3,79.3-79.3c43.8,0,79.3,35.5,79.3,79.3
			c0,43.8-35.5,79.3-79.3,79.3V182.8z"/>
	</g>
</g>
<g>
	<defs>
		<path id="SVGID_11_" d="M94,136.5c-0.6-0.9-0.6-1.9,0.2-2.7c0.9-0.9,1.9-1.8,2.9-2.6c0.8-0.6,1.9-0.7,2.9-0.3
			c1.1,0.4,1.5,1.2,1.5,2.2c0,1.5-3.2,4.4-5,4.5c-0.1,0-0.1,0-0.2,0C95.4,137.7,94.6,137.3,94,136.5 M86.9,131.8
			c-1.1-0.9-1.2-2.4-0.1-3.4c1.5-1.4,3-2.7,4.5-4c0.9-0.8,2-1,3.2-0.6c1.1,0.4,1.6,1.2,1.6,2.6c-0.2,0.3-0.5,1.1-1,1.6
			c-1.3,1.3-2.8,2.5-4.2,3.7c-0.6,0.5-1.4,0.8-2.1,0.8C88.1,132.5,87.4,132.3,86.9,131.8 M80.2,126c-1.1-1-1-2.4,0.2-3.6
			c1.4-1.3,2.8-2.6,4.3-3.8c0.9-0.7,1.9-1.1,3.1-0.6c1.1,0.4,1.5,1.2,1.6,2.6c-0.2,0.3-0.5,1-1,1.6c-1.3,1.3-2.7,2.4-4.1,3.6
			c-0.7,0.6-1.5,0.9-2.3,0.9C81.4,126.6,80.7,126.4,80.2,126 M74.5,119.5c-0.9-0.8-0.9-2,0-2.9c0.9-0.9,1.8-1.7,2.7-2.5
			c0.5-0.4,1.2-0.5,1.8-0.8c2.1,0.1,3.3,2,2.1,3.5c-0.9,1.1-2,2.1-3.2,3c-0.5,0.3-1,0.5-1.5,0.5C75.7,120.3,75,120,74.5,119.5
			 M73.7,110.9c-1.7-1.9-3.5-3.7-5.4-5.4c-0.5-0.5-0.6-0.8-0.1-1.4c4.9-6,9.7-12,14.5-18c0.4-0.5,0.8-0.7,1.4-0.6
			c1.6,0.1,3.3,0.2,5.1,0.3c-0.2,0.5-0.4,0.7-0.5,1c-2,3.4-3.9,6.8-5.9,10.2c-1.5,2.6-1.1,5.1,1.1,6.8c3.1,2.4,8.1,1.7,10.4-1.7
			c1.5-2.2,2.9-4.3,4.3-6.5c0.4-0.7,1-1,1.9-0.9c2.1,0.2,4.1,0.2,6.2,0.4c0.7,0.1,1.5,0.4,2,0.8c5.7,5.5,11.4,11,17.1,16.4
			c1.1,1,2.2,2.1,3.3,3.1c0.3,0.3,0.6,0.6,0.9,1c0.6,1,0.4,2.1-0.5,2.9c-1,0.8-2.4,0.8-3.4,0c-0.9-0.7-1.6-1.5-2.4-2.2
			c-3.2-3-6.3-6-9.5-9c-0.1-0.1-0.2-0.2-0.4-0.3c-0.9-0.8-1.9-0.8-2.8-0.2c-0.8,0.6-0.9,1.6-0.1,2.4c0.6,0.6,1.3,1.2,1.9,1.8
			c3.3,3.1,6.5,6.1,9.8,9.2c0.2,0.2,0.4,0.4,0.6,0.6c0.9,1.1,0.8,2.5-0.3,3.3c-1,0.8-2.7,0.8-3.8-0.2c-1.7-1.5-3.4-3.1-5.1-4.7
			c-0.9-0.8-1.8-1.7-2.7-2.5c-1.1-1-2.2-1.2-3.1-0.5c-0.9,0.7-0.9,1.7,0.2,2.8c2.4,2.2,4.8,4.5,7.2,6.7c0.3,0.3,0.6,0.5,0.8,0.8
			c0.9,1.1,0.8,2.5-0.4,3.4c-1.1,0.8-2.7,0.8-3.8-0.2c-1.4-1.2-2.7-2.5-4.1-3.7c-1.1-1-2.2-1.1-3.1-0.4c-0.9,0.7-0.9,1.8,0.2,2.8
			c1.3,1.2,2.6,2.4,3.9,3.5c0.8,0.7,1.2,1.5,1,2.5c-0.2,1-1,1.6-2.1,1.9c-1.1,0.2-2.1-0.1-2.8-0.8c-0.2-0.2-0.2-0.7-0.1-0.9
			c1.3-3.5-0.4-6.5-4.4-7.8c-0.6-0.2-0.7-0.5-0.7-1c0.1-3.5-1.9-5.7-5.9-6.4c-0.3-0.1-0.7-0.5-0.8-0.8c-0.7-3.4-3.2-5.1-7.2-4.9
			c-0.3,0-0.8-0.3-0.9-0.5c-0.8-3.1-5.4-5.1-9.6-2.7c-0.4,0.2-0.7,0.3-1,0.3C74.4,111.6,74.1,111.3,73.7,110.9 M87,101.6
			c-1.1-0.6-1.5-1.8-0.8-2.9c2.1-3.7,4.3-7.3,6.5-10.9c0.2-0.3,0.7-0.6,1.1-0.7c4.4-1.1,8.8-2.2,13.2-3.3c0.8-0.2,1.7-0.2,2.5-0.2
			c4.1,0.3,8.2,0.7,12.3,1.1c0.6,0.1,1.3,0.4,1.5,0.8c4,5.8,7.9,11.7,11.9,17.6c0.2,0.3,0.3,0.8,0.1,1c-1.5,2.5-3.1,4.9-4.6,7.4
			c0,0.1-0.2,0.1-0.4,0.3c-1.7-1.7-3.3-3.3-5-4.9c-4.6-4.6-9.3-9.1-13.9-13.7c-0.9-0.9-1.9-1.4-3.2-1.5c-3.2-0.2-6.3-0.4-9.5-0.6
			c-1.1-0.1-1.9,0.4-2.4,1.2c-1.5,2.4-3.1,4.8-4.6,7.2c-0.4,0.5-0.7,1.1-1.2,1.6c-0.5,0.5-1.3,0.7-2,0.7
			C87.9,101.9,87.4,101.8,87,101.6 M63.9,102.1c-1.8-1.3-3.6-2.4-5.5-3.7c1.6-2,3.1-3.9,4.6-5.9c2.2-3,4.3-6,6.4-9.1
			c0.4-0.6,0.8-0.8,1.6-0.6c2.3,0.6,4.6,1.1,6.8,1.6c0.3,0.1,0.7,0.2,1.2,0.4c-1,1.4-1.8,2.7-2.8,3.9c-3.5,4.4-7,8.8-10.5,13.2
			c-0.3,0.4-0.6,0.6-0.9,0.6C64.5,102.5,64.2,102.4,63.9,102.1 M127.5,84.2c2.2-0.6,4.2-1.2,6.3-1.7c0.8-0.2,1.7-0.4,2.5-0.7
			c0.7-0.3,1.1-0.1,1.4,0.5c1.3,3.2,2.6,6.3,3.9,9.5c0.8,1.7,1.7,3.4,2.5,5.1c0.1,0.3,0,0.9-0.2,1c-1.8,1.2-3.7,2.3-5.6,3.6
			C134.2,96,131.1,90.1,127.5,84.2 M138.8,77.6c-0.4,0-1,0.1-1.6,0.3c-4.2,1.2-8.4,2.4-12.6,3.5c-0.4,0.1-0.9,0.1-1.4,0
			c-4.9-0.4-9.7-0.9-14.6-1.3c-0.6-0.1-1.3,0.1-1.9,0.2c-2.6,0.6-5.3,1.2-7.9,1.8c-2.1,0.5-4.2,0.8-6.5,0.5
			c-2.7-0.3-5.4-0.3-8.2-0.5c-0.9-0.1-1.9-0.2-2.8-0.4c-3.8-0.9-7.7-1.8-11.5-2.7c-1.5-0.4-2.3-0.1-3,1c-3.6,6-8,11.6-12.3,17.3
			c-0.9,1.2-0.8,2.2,0.5,3.1c2.2,1.5,4.4,3,6.7,4.5c0.9,0.6,1.9,1.2,2.6,1.9c2.3,2.2,4.6,4.6,6.8,6.9c0.5,0.5,0.5,0.8,0,1.3
			c-2.8,3.3-1.1,7.4,3.5,8.5c0.6,0.1,0.8,0.4,0.8,0.9c0.1,3.1,2,5,5.5,5.6c0.7,0.1,1,0.3,1.1,0.9c0.5,3,3,4.9,6.6,5
			c0.7,0,0.9,0.2,1.1,0.8c0.3,0.7,0.6,1.5,1.1,2.1c2.4,2.9,7.1,3.3,10.1,0.8c0.8-0.7,1.3-0.9,2.3-0.1c1.1,0.9,2.6,1.2,4.1,1.2
			c3.2,0,6-2.1,6.5-4.9c0.1-0.5,0.2-0.9,1-1c3.4-0.5,5.2-2,5.8-4.9c0.1-0.5,0.3-0.7,1-0.8c3.3-0.4,5.1-2,5.7-4.8
			c0.1-0.5,0.3-0.7,1-0.8c4.5-0.5,6.9-4.2,5.2-7.8c-0.2-0.4-0.2-1.1,0-1.5c1.6-2.8,3.3-5.5,5.1-8.2c0.3-0.5,0.8-1,1.4-1.3
			c2.4-1.6,4.9-3.1,7.4-4.7c0.8-0.5,1.2-1,1.2-1.6v-0.1c0-0.4-0.2-0.8-0.4-1.3c-1.2-2.4-2.4-4.8-3.4-7.3c-1.4-3.4-2.6-6.8-3.9-10.2
			C140.3,78.1,139.8,77.6,138.8,77.6L138.8,77.6z"/>
	</defs>
	<clipPath id="SVGID_12_">
		<use xlink:href="#SVGID_11_"  style="overflow:visible;"/>
	</clipPath>
	
		<linearGradient id="SVGID_13_" gradientUnits="userSpaceOnUse" x1="57.0666" y1="155.5784" x2="58.0666" y2="155.5784" gradientTransform="matrix(94.6786 0 0 -94.6786 -5349.0479 14839.75)">
		<stop  offset="0" style="stop-color:#8FC740"/>
		<stop  offset="1" style="stop-color:#38C6F4"/>
	</linearGradient>
	<rect x="53.6" y="77.6" class="st7" width="95" height="64.4"/>
</g>
</svg>
