<?xml version="1.0" encoding="utf-8"?>
<!-- Generator: Adobe Illustrator 23.1.0, SVG Export Plug-In . SVG Version: 6.00 Build 0)  -->
<svg version="1.1" id="Layer_1" xmlns="http://www.w3.org/2000/svg" xmlns:xlink="http://www.w3.org/1999/xlink" x="0px" y="0px"
	 viewBox="0 0 82 97" style="enable-background:new 0 0 82 97;" xml:space="preserve">
<style type="text/css">
	.st0{fill:none;stroke:#000C30;stroke-width:4;stroke-linecap:round;stroke-linejoin:round;stroke-miterlimit:10;}
	.st1{fill:url(#SVGID_1_);}
</style>
<g>
	<path class="st0" d="M23.8,93.6h14.6 M22.3,87.6h17.7 M21.1,81.6H41 M53.2,49.3C53.2,49.3,53.2,49.3,53.2,49.3
		c-2.7,4-9.7,15.1-10.8,26.1H19.8c-1.1-11.3-8.4-22.7-11-26.4C8.4,48.3,8,47.9,8,47.8c0,0,0,0,0,0C4.8,43.2,3,37.6,3,31.7
		C3,15.9,15.6,3.2,31.1,3.2c9.5,0,17.9,4.8,23,12.1"/>
	
		<linearGradient id="SVGID_1_" gradientUnits="userSpaceOnUse" x1="-451.3254" y1="556.3868" x2="-450.3254" y2="556.3868" gradientTransform="matrix(68.7676 0 0 -68.7676 31049.4824 38300.5703)">
		<stop  offset="0" style="stop-color:#8FC740"/>
		<stop  offset="1" style="stop-color:#38C6F4"/>
	</linearGradient>
	<path class="st1" d="M39.8,53.2h1.5c0,2.6-2.1,4.8-4.7,4.8c-2.6,0-4.7-2.2-4.7-4.8c0-2.6,2.1-4.8,4.7-4.8c2.6,0,4.7,2.2,4.7,4.8
		H39.8h-1.5c0-1-0.8-1.8-1.7-1.8c-0.9,0-1.7,0.8-1.7,1.8c0,1,0.8,1.8,1.7,1.8c0.9,0,1.7-0.8,1.7-1.8H39.8z M47.8,25.2h1.5
		c0,2.6-2.1,4.8-4.7,4.8c-2.6,0-4.7-2.2-4.7-4.8c0-2.6,2.1-4.8,4.7-4.8c2.6,0,4.7,2.2,4.7,4.8H47.8h-1.5c0-1-0.8-1.8-1.7-1.8
		c-0.9,0-1.7,0.8-1.7,1.8c0,1,0.8,1.8,1.7,1.8c0.9,0,1.7-0.8,1.7-1.8H47.8z M67.9,46.6h1.5c0,2.6-2.1,4.8-4.7,4.8
		c-2.6,0-4.7-2.2-4.7-4.8c0-2.6,2.1-4.8,4.7-4.8c2.6,0,4.7,2.2,4.7,4.8H67.9h-1.5c0-1-0.8-1.8-1.7-1.8c-0.9,0-1.7,0.8-1.7,1.8
		c0,1,0.8,1.8,1.7,1.8c0.9,0,1.7-0.8,1.7-1.8H67.9z M79.3,26.5h1.5c0,2.6-2.1,4.8-4.7,4.8c-2.6,0-4.7-2.2-4.7-4.8
		c0-2.6,2.1-4.8,4.7-4.8c2.6,0,4.7,2.2,4.7,4.8H79.3h-1.5c0-1-0.8-1.8-1.7-1.8c-0.9,0-1.7,0.8-1.7,1.8c0,1,0.8,1.8,1.7,1.8
		c0.9,0,1.7-0.8,1.7-1.8H79.3z M23.2,37l12.4,12.6c0.6,0.6,0.6,1.5,0,2.1c-0.6,0.6-1.5,0.6-2.1,0L21,39.1c-0.6-0.6-0.6-1.5,0-2.1
		C21.6,36.4,22.6,36.4,23.2,37z M52.2,31.1l11.3,11.5c0.6,0.6,0.6,1.5,0,2.1c-0.6,0.6-1.5,0.6-2.1,0L50.1,33.2
		c-0.6-0.6-0.6-1.5,0-2.1C50.7,30.5,51.7,30.5,52.2,31.1z M30.9,37l10-10.2c0.6-0.6,1.5-0.6,2.1,0c0.6,0.6,0.6,1.5,0,2.1L33,39.1
		c-0.6,0.6-1.5,0.6-2.1,0S30.3,37.6,30.9,37z M15.3,36.5h29.4l11.6-11.8H72c0.8,0,1.5,0.7,1.5,1.5c0,0.8-0.7,1.5-1.5,1.5l-14.5,0
		L46,39.5H15.3c-0.8,0-1.5-0.7-1.5-1.5C13.8,37.2,14.5,36.5,15.3,36.5L15.3,36.5z"/>
</g>
</svg>
