<?xml version="1.0" encoding="utf-8"?>
<!-- Generator: Adobe Illustrator 24.1.3, SVG Export Plug-In . SVG Version: 6.00 Build 0)  -->
<svg version="1.1" id="Layer_1" xmlns="http://www.w3.org/2000/svg" xmlns:xlink="http://www.w3.org/1999/xlink" x="0px" y="0px"
	 viewBox="0 0 643 632" style="enable-background:new 0 0 643 632;" xml:space="preserve">
<style type="text/css">
	.st0{clip-path:url(#SVGID_2_);}
	.st1{opacity:0.1;clip-path:url(#SVGID_4_);}
	.st2{clip-path:url(#SVGID_6_);fill:#2EC2EB;}
	.st3{clip-path:url(#SVGID_8_);fill:none;stroke:#BCBEC0;stroke-width:23.3206;stroke-miterlimit:10;}
	.st4{clip-path:url(#SVGID_8_);fill:url(#SVGID_9_);}
	.st5{clip-path:url(#SVGID_8_);fill:url(#SVGID_10_);}
	.st6{clip-path:url(#SVGID_12_);fill:none;stroke:#FFFFFF;stroke-width:36.0993;stroke-linecap:round;stroke-miterlimit:10;}
	.st7{fill:none;stroke:#FFFFFF;stroke-width:36.0993;stroke-linecap:round;stroke-linejoin:round;stroke-miterlimit:10;}
	
		.st8{clip-path:url(#SVGID_14_);fill:none;stroke:#BCBEC0;stroke-width:25.4596;stroke-linecap:round;stroke-linejoin:round;stroke-miterlimit:10;}
	.st9{clip-path:url(#SVGID_14_);fill:url(#SVGID_15_);}
</style>
<g>
	<defs>
		<rect id="SVGID_13_" x="66" y="15.5" width="511" height="600.9"/>
	</defs>
	<clipPath id="SVGID_2_">
		<use xlink:href="#SVGID_13_"  style="overflow:visible;"/>
	</clipPath>
	
		<path style="clip-path:url(#SVGID_2_);fill:none;stroke:#BCBEC0;stroke-width:25.4596;stroke-linecap:round;stroke-linejoin:round;stroke-miterlimit:10;" d="
		M210.9,603.7h93.2 M201.3,565.6h112.4 M194.1,527.6h126.8 M398.1,321.4c0,0.1-0.1,0.1-0.1,0.2c-17.4,25.3-61.9,95.9-68.8,166.1
		H185.8c-7.1-71.9-53.6-144.3-70-167.9c-2.9-4.2-4.9-6.9-5.5-7.7c-0.1-0.2-0.2-0.3-0.2-0.3c-19.8-29.1-31.4-64.4-31.4-102.5
		c0-100,80.1-181.2,178.8-181.2c60.4,0,113.9,30.4,146.3,76.9"/>
	
		<linearGradient id="SVGID_4_" gradientUnits="userSpaceOnUse" x1="-126.9505" y1="705.6761" x2="-121.8586" y2="705.6761" gradientTransform="matrix(84.9476 0 0 -84.9476 10928.5957 60202.8477)">
		<stop  offset="0" style="stop-color:#8FC740"/>
		<stop  offset="1" style="stop-color:#38C6F4"/>
	</linearGradient>
	<path style="clip-path:url(#SVGID_2_);fill:url(#SVGID_4_);" d="M313.2,346.4h10.2c0,17.1-13.7,31.2-30.8,31.2
		c-17.2,0-30.8-14.1-30.8-31.2c0-17.1,13.7-31.2,30.8-31.2c17.2,0,30.8,14.1,30.8,31.2H313.2H303c0-6.1-4.8-10.8-10.4-10.8
		c-5.6,0-10.4,4.7-10.4,10.8c0,6.1,4.8,10.8,10.4,10.8c5.6,0,10.4-4.7,10.4-10.8H313.2z M363.7,168.4h10.2
		c0,17.1-13.6,31.2-30.8,31.2c-17.2,0-30.8-14.1-30.8-31.2c0-17.1,13.6-31.2,30.8-31.2c17.2,0,30.8,14.1,30.8,31.2H363.7h-10.2
		c0-6.1-4.8-10.8-10.4-10.8c-5.6,0-10.4,4.7-10.4,10.8c0,6.1,4.8,10.8,10.4,10.8c5.6,0,10.4-4.7,10.4-10.8H363.7z M492,304.4h10.2
		c0,17.1-13.6,31.2-30.8,31.2c-17.2,0-30.8-14.1-30.8-31.2c0-17.1,13.6-31.2,30.8-31.2c17.2,0,30.8,14.1,30.8,31.2H492h-10.2
		c0-6.1-4.8-10.8-10.4-10.8c-5.6,0-10.4,4.7-10.4,10.8c0,6.1,4.8,10.8,10.4,10.8c5.6,0,10.4-4.7,10.4-10.8H492z M564.3,176.7h10.2
		c0,17.1-13.7,31.2-30.8,31.2c-17.2,0-30.8-14.1-30.8-31.2c0-17.1,13.7-31.2,30.8-31.2c17.2,0,30.8,14.1,30.8,31.2H564.3h-10.2
		c0-6.1-4.8-10.8-10.4-10.8c-5.6,0-10.4,4.7-10.4,10.8c0,6.1,4.8,10.8,10.4,10.8c5.6,0,10.4-4.7,10.4-10.8H564.3z M207.6,242.9
		l78.7,80.1c3.9,4,3.9,10.5-0.1,14.4s-10.5,3.9-14.4-0.1l-78.7-80.1c-3.9-4-3.9-10.5,0.1-14.4C197.2,238.8,203.6,238.9,207.6,242.9z
		 M392.6,205.4l71.7,73c3.9,4,3.9,10.5-0.1,14.4c-4,3.9-10.5,3.9-14.4-0.1l-71.7-73c-3.9-4-3.9-10.5,0.1-14.4
		C382.2,201.4,388.6,201.4,392.6,205.4z M255.9,242.9l63.5-64.7c3.9-4,10.4-4.1,14.4-0.1c4,3.9,4.1,10.4,0.1,14.4l-63.5,64.7
		c-3.9,4-10.4,4.1-14.4,0.1C252,253.4,251.9,246.9,255.9,242.9z M157.2,239.9h187l73.6-74.9h100.4c5.6,0,10.2,4.6,10.2,10.2
		c0,5.6-4.6,10.2-10.2,10.2l-91.8,0l-73.6,74.9H157.2c-5.6,0-10.2-4.6-10.2-10.2C147,244.4,151.6,239.9,157.2,239.9L157.2,239.9z"/>
</g>
</svg>
