<svg xmlns="http://www.w3.org/2000/svg" xmlns:xlink="http://www.w3.org/1999/xlink" width="65.18" height="64.941" viewBox="0 0 65.18 64.941">
  <defs>
    <linearGradient id="linear-gradient" y1="0.5" x2="1" y2="0.5" gradientUnits="objectBoundingBox">
      <stop offset="0" stop-color="#8fc740"/>
      <stop offset="1" stop-color="#38c6f4"/>
    </linearGradient>
  </defs>
  <g id="Group_3465" data-name="Group 3465" transform="translate(-383.488 830.617)">
    <g id="Group_3460" data-name="Group 3460" transform="translate(390.965 -823.141)">
      <path id="Path_8869" data-name="Path 8869" d="M431.647-798.06a1.166,1.166,0,0,0-1.166,1.167,1.166,1.166,0,0,0,1.166,1.166h4.246a1.167,1.167,0,0,0,1.167-1.166,19.786,19.786,0,0,0-5.814-14.034,19.786,19.786,0,0,0-14.034-5.814,19.786,19.786,0,0,0-14.034,5.814,19.785,19.785,0,0,0-5.813,14.034,19.785,19.785,0,0,0,5.813,14.034,19.785,19.785,0,0,0,14.034,5.813,1.166,1.166,0,0,0,1.166-1.167v-4.239a1.167,1.167,0,0,0-1.166-1.167,1.167,1.167,0,0,0-1.167,1.167v3.034a17.457,17.457,0,0,1-11.218-5.092,17.457,17.457,0,0,1-5.092-11.218h3.084a1.166,1.166,0,0,0,1.167-1.166,1.166,1.166,0,0,0-1.167-1.167h-3.084a17.459,17.459,0,0,1,5.092-11.218,17.459,17.459,0,0,1,11.218-5.091v3.084a1.166,1.166,0,0,0,1.167,1.166,1.166,1.166,0,0,0,1.166-1.166v-3.084a17.462,17.462,0,0,1,11.218,5.091,17.461,17.461,0,0,1,5.091,11.218Z" transform="translate(-397.365 816.741)" fill="#000c30" fill-rule="evenodd"/>
    </g>
    <g id="Group_3461" data-name="Group 3461" transform="translate(400.824 -814.352)">
      <path id="Path_8870" data-name="Path 8870" d="M435.627-790.537a1.167,1.167,0,0,1,1.167,1.167,1.167,1.167,0,0,1-1.167,1.166h-9.976a1.164,1.164,0,0,1-.907-.433l-8.786-9.853a1.166,1.166,0,0,1,.1-1.646,1.165,1.165,0,0,1,1.645.1l8.474,9.5Z" transform="translate(-415.664 800.43)" fill="#000c30" fill-rule="evenodd"/>
    </g>
    <g id="Group_3462" data-name="Group 3462" transform="translate(383.488 -830.617)">
      <path id="Path_8871" data-name="Path 8871" d="M439.956-807.278a1.164,1.164,0,0,1,1.645-.059,1.164,1.164,0,0,1,.059,1.645l-3.824,4.121a1.164,1.164,0,0,1-1.645.059,1.238,1.238,0,0,1-.12-.13l-3.712-4.059a1.162,1.162,0,0,1,.073-1.641,1.161,1.161,0,0,1,1.641.073l1.637,1.789a24.916,24.916,0,0,0-7.225-15.484,24.912,24.912,0,0,0-17.672-7.32,24.913,24.913,0,0,0-17.671,7.32,24.914,24.914,0,0,0-7.32,17.671,24.915,24.915,0,0,0,7.32,17.672,24.916,24.916,0,0,0,17.671,7.32,1.166,1.166,0,0,1,1.167,1.166,1.166,1.166,0,0,1-1.167,1.167,27.24,27.24,0,0,1-19.321-8,27.24,27.24,0,0,1-8-19.321,27.24,27.24,0,0,1,8-19.321,27.24,27.24,0,0,1,19.321-8,27.24,27.24,0,0,1,19.321,8,27.238,27.238,0,0,1,7.934,17.371Z" transform="translate(-383.488 830.617)" fill="#000c30" fill-rule="evenodd"/>
    </g>
    <g id="Group_3463" data-name="Group 3463" transform="translate(413.66 -800.685)">
      <path id="Path_8872" data-name="Path 8872" d="M458.693-740.054h-3.4a1.811,1.811,0,0,1-1.761-1.582c-.042-.226-.083-.518-.129-.85a9.469,9.469,0,0,0-.732-2.965c-.4-.143-.8-.308-1.182-.491a9.52,9.52,0,0,0-2.613,1.581c-.266.2-.5.38-.692.51a1.81,1.81,0,0,1-2.363-.127l-2.407-2.407a1.811,1.811,0,0,1-.127-2.364c.13-.189.308-.425.509-.691a9.457,9.457,0,0,0,1.579-2.616c-.182-.383-.345-.778-.489-1.181a9.468,9.468,0,0,0-2.966-.731c-.331-.046-.623-.087-.849-.129a1.81,1.81,0,0,1-1.581-1.761v-3.4a1.811,1.811,0,0,1,1.581-1.761c.226-.042.518-.083.848-.129a9.425,9.425,0,0,0,2.969-.735c.152-.423.313-.81.489-1.179a9.518,9.518,0,0,0-1.581-2.613c-.2-.266-.379-.5-.509-.691a1.811,1.811,0,0,1,.127-2.364l2.407-2.407a1.81,1.81,0,0,1,2.364-.126c.189.129.424.307.69.508a9.45,9.45,0,0,0,2.619,1.58q.582-.275,1.178-.488a9.474,9.474,0,0,0,.732-2.967c.046-.33.087-.622.128-.847a1.812,1.812,0,0,1,1.761-1.582h3.4a1.813,1.813,0,0,1,1.761,1.582c.041.225.082.518.128.848a9.428,9.428,0,0,0,.734,2.967c.417.15.806.311,1.179.489a9.489,9.489,0,0,0,2.616-1.581c.266-.2.5-.378.689-.508a1.81,1.81,0,0,1,2.365.127l2.407,2.407a1.811,1.811,0,0,1,.126,2.364c-.13.189-.307.425-.509.691a9.426,9.426,0,0,0-1.58,2.618l0,.01q.273.577.482,1.161l0,.007a9.476,9.476,0,0,0,2.968.731c.33.046.622.087.848.129a1.811,1.811,0,0,1,1.581,1.761v3.4a1.811,1.811,0,0,1-1.582,1.761c-.225.042-.518.083-.849.129a9.429,9.429,0,0,0-2.967.734c-.151.418-.308.794-.478,1.157l-.011.022a9.456,9.456,0,0,0,1.581,2.615c.2.266.379.5.508.69a1.811,1.811,0,0,1-.126,2.364l-2.408,2.407a1.811,1.811,0,0,1-2.364.127c-.189-.13-.425-.308-.691-.509a9.441,9.441,0,0,0-2.617-1.58,12.744,12.744,0,0,1-1.179.489,9.474,9.474,0,0,0-.731,2.967c-.046.33-.087.622-.128.848A1.812,1.812,0,0,1,458.693-740.054Zm-3.077-2.155h2.749c.027-.17.053-.362.082-.571.284-2.046.612-3.8,1.748-4.531l.112-.072.125-.043a10.709,10.709,0,0,0,1.159-.473l.246-.12.125-.028c1.318-.291,2.8.718,4.447,1.966.17.129.326.247.462.346l1.943-1.943c-.1-.14-.218-.294-.345-.462-1.248-1.65-2.258-3.125-1.966-4.448l.027-.125.139-.287c.146-.309.279-.631.4-.957l.1-.285.073-.114c.733-1.136,2.485-1.464,4.531-1.748.211-.029.4-.056.571-.082v-2.749c-.17-.028-.362-.054-.57-.083-2.046-.284-3.8-.612-4.532-1.748l-.07-.11-.1-.291c-.115-.321-.248-.643-.4-.956l-.139-.288-.027-.123c-.291-1.323.718-2.8,1.966-4.446.129-.17.247-.325.346-.462l-1.943-1.943c-.14.1-.294.218-.462.345-1.65,1.248-3.124,2.257-4.448,1.967l-.126-.028-.254-.124a10.572,10.572,0,0,0-.982-.408l-.293-.1-.113-.073c-1.136-.732-1.464-2.485-1.748-4.531-.03-.211-.056-.4-.082-.571h-2.749c-.027.17-.054.362-.082.571-.284,2.045-.612,3.8-1.747,4.531l-.114.073-.2.067a10.892,10.892,0,0,0-1.075.441l-.255.124-.126.028c-1.323.291-2.8-.718-4.448-1.967-.17-.128-.325-.246-.461-.345l-1.943,1.943c.1.14.218.294.345.462,1.248,1.65,2.258,3.123,1.967,4.446l-.028.128-.109.22a10.67,10.67,0,0,0-.442,1.065l-.083.242-.072.113c-.732,1.137-2.485,1.464-4.531,1.748-.211.029-.4.056-.57.082v2.749c.17.028.362.054.572.083,2.045.284,3.8.612,4.529,1.747l.073.114.067.2a10.973,10.973,0,0,0,.461,1.115l.106.216.027.127c.29,1.323-.719,2.8-1.967,4.445-.129.17-.247.326-.346.462l1.943,1.944c.141-.1.3-.219.463-.346,1.648-1.246,3.12-2.255,4.441-1.968l.127.028.267.131a10.718,10.718,0,0,0,1.144.464l.127.044.113.073c1.132.734,1.459,2.484,1.742,4.526C455.563-742.57,455.59-742.376,455.616-742.209Z" transform="translate(-439.487 775.063)" fill="url(#linear-gradient)"/>
    </g>
    <g id="Group_3464" data-name="Group 3464" transform="translate(424.437 -789.906)">
      <path id="Path_8873" data-name="Path 8873" d="M466.216-741.606a6.734,6.734,0,0,1-6.727-6.726,6.735,6.735,0,0,1,6.727-6.726,6.734,6.734,0,0,1,6.726,6.726A6.734,6.734,0,0,1,466.216-741.606Zm0-11.3a4.576,4.576,0,0,0-4.572,4.571,4.576,4.576,0,0,0,4.572,4.571,4.576,4.576,0,0,0,4.571-4.571A4.576,4.576,0,0,0,466.216-752.9Z" transform="translate(-459.489 755.059)" fill="url(#linear-gradient)"/>
    </g>
  </g>
</svg>
