<svg xmlns="http://www.w3.org/2000/svg" xmlns:xlink="http://www.w3.org/1999/xlink" width="72.216" height="64.941" viewBox="0 0 72.216 64.941">
  <defs>
    <linearGradient id="linear-gradient" y1="0.5" x2="1" y2="0.5" gradientUnits="objectBoundingBox">
      <stop offset="0" stop-color="#2cc4ec"/>
      <stop offset="1" stop-color="#8cc63f"/>
    </linearGradient>
  </defs>
  <g id="Group_2875" data-name="Group 2875" transform="translate(479.487 -1106.563)">
    <g id="Path_8139" data-name="Path 8139" transform="translate(-454.245 1106.563)">
      <path id="Path_8143" data-name="Path 8143" d="M-416.761,1145.865a1.425,1.425,0,0,1-.548-.109,1.433,1.433,0,0,1-.885-1.324V1138.2h-1.445a15.835,15.835,0,0,1-15.817-15.817,15.834,15.834,0,0,1,15.817-15.816H-404.3a15.894,15.894,0,0,1,15.816,15.812v.007a15.894,15.894,0,0,1-15.812,15.813h-4.2l-7.249,7.249A1.432,1.432,0,0,1-416.761,1145.865Zm12.461-36.436h-15.338a12.965,12.965,0,0,0-12.95,12.95,12.965,12.965,0,0,0,12.95,12.95h2.878a1.433,1.433,0,0,1,1.433,1.433v4.209l5.223-5.222a1.43,1.43,0,0,1,1.013-.42h4.8a13.02,13.02,0,0,0,12.949-12.951A13.02,13.02,0,0,0-404.3,1109.429Z" transform="translate(435.455 -1106.563)" fill="#000b2f"/>
    </g>
    <g id="Path_8140" data-name="Path 8140" transform="translate(-479.487 1130.275)">
      <path id="Path_8144" data-name="Path 8144" d="M-458.829,1189.156a20.879,20.879,0,0,1-3.523-.3,20.635,20.635,0,0,1-16.838-23.794,20.639,20.639,0,0,1,23.794-16.838,1.432,1.432,0,0,1,1.171,1.654,1.432,1.432,0,0,1-1.654,1.171,17.767,17.767,0,0,0-20.485,14.5,17.766,17.766,0,0,0,14.5,20.485,17.627,17.627,0,0,0,13.245-3.006,17.63,17.63,0,0,0,7.241-11.49,17.725,17.725,0,0,0,0-5.993,1.432,1.432,0,0,1,1.171-1.654,1.43,1.43,0,0,1,1.654,1.17,20.539,20.539,0,0,1,0,6.962,20.474,20.474,0,0,1-8.41,13.346A20.46,20.46,0,0,1-458.829,1189.156Zm-.03-8.245a1.433,1.433,0,0,1-1.433-1.433v-1.306h-2.689a1.433,1.433,0,0,1-1.433-1.433,1.433,1.433,0,0,1,1.433-1.433h5.576a2.231,2.231,0,0,0,2.082-1.407,2.245,2.245,0,0,0-1.246-2.916l-5.654-2.263a5.084,5.084,0,0,1-3.207-4.744,5.073,5.073,0,0,1,1.5-3.611,5.073,5.073,0,0,1,3.61-1.494h.029v-1.31a1.433,1.433,0,0,1,1.433-1.433,1.433,1.433,0,0,1,1.433,1.433v1.31h2.666a1.433,1.433,0,0,1,1.433,1.433,1.433,1.433,0,0,1-1.433,1.433H-458.8c-.043,0-.085,0-.128,0h-1.4a2.254,2.254,0,0,0-1.586.656,2.227,2.227,0,0,0-.658,1.584,2.232,2.232,0,0,0,1.407,2.083l5.655,2.263a5.116,5.116,0,0,1,2.839,6.645,5.085,5.085,0,0,1-4.741,3.205h-.022v1.306A1.433,1.433,0,0,1-458.859,1180.912Z" transform="translate(479.487 -1147.927)" fill="url(#linear-gradient)"/>
    </g>
    <g id="Path_8141" data-name="Path 8141" transform="translate(-478.101 1106.566)">
      <path id="Path_8145" data-name="Path 8145" d="M-434.552,1169.7a1.433,1.433,0,0,1-1.433-1.433,1.433,1.433,0,0,1,1.433-1.434,12.28,12.28,0,0,0,12.24-11.514l-3,3a1.433,1.433,0,0,1-2.027,0,1.433,1.433,0,0,1,0-2.027l5.385-5.389a1.432,1.432,0,0,1,1.1-.51h.007a1.433,1.433,0,0,1,1.014.42l5.478,5.479a1.432,1.432,0,0,1,0,2.026,1.432,1.432,0,0,1-2.026,0l-3.055-3.055A15.151,15.151,0,0,1-434.552,1169.7Zm-35.617-43.833a1.43,1.43,0,0,1-1.117-.535l-5.363-5.363a1.433,1.433,0,0,1,0-2.026,1.432,1.432,0,0,1,2.026,0l3.037,3.037a15.151,15.151,0,0,1,15.115-14.413h0a1.433,1.433,0,0,1,1.433,1.433,1.433,1.433,0,0,1-1.433,1.433h0a12.279,12.279,0,0,0-12.243,11.532l3.022-3.022a1.432,1.432,0,0,1,2.027,0,1.433,1.433,0,0,1,0,2.026l-5.479,5.478a1.427,1.427,0,0,1-1.014.42Z" transform="translate(477.069 -1106.568)" fill="#000b2f"/>
    </g>
  </g>
</svg>
