<?xml version="1.0" encoding="utf-8"?>
<!-- Generator: Adobe Illustrator 23.1.0, SVG Export Plug-In . SVG Version: 6.00 Build 0)  -->
<svg version="1.1" id="Layer_1" xmlns="http://www.w3.org/2000/svg" xmlns:xlink="http://www.w3.org/1999/xlink" x="0px" y="0px"
	 viewBox="0 0 98 98" style="enable-background:new 0 0 98 98;" xml:space="preserve">
<style type="text/css">
	
		.st0{clip-path:url(#SVGID_2_);fill:none;stroke:#BCBEC0;stroke-width:2.966;stroke-linecap:round;stroke-linejoin:round;stroke-miterlimit:10;}
	.st1{fill:none;stroke:#BCBEC0;stroke-width:2.966;stroke-linecap:round;stroke-linejoin:round;stroke-miterlimit:10;}
	.st2{clip-path:url(#SVGID_4_);fill:url(#SVGID_5_);}
	.st3{fill:none;stroke:#264569;stroke-width:2.966;stroke-linecap:round;stroke-linejoin:round;stroke-miterlimit:10;}
</style>
<g>
	<defs>
		<rect id="SVGID_1_" x="7" y="10.2" width="84.5" height="77.3"/>
	</defs>
	<clipPath id="SVGID_2_">
		<use xlink:href="#SVGID_1_"  style="overflow:visible;"/>
	</clipPath>
	<path class="st0" d="M70.8,62.5c3-5,4.8-10.9,4.8-17.2c0-18.5-15-33.6-33.6-33.6S8.4,26.7,8.4,45.3s15,33.6,33.6,33.6
		c1.7,0,3.4-0.1,5-0.4"/>
</g>
<polyline class="st1" points="43.4,27.4 43.4,48.1 35.2,55.8 "/>
<g>
	<defs>
		<path id="SVGID_3_" d="M49.6,60.3c0,0-4.4,0-4.4,4.4V83c0,0,0,4.4,4.4,4.4H87c0,0,4.4,0,4.4-4.4V64.8c0,0,0-4.4-4.4-4.4H49.6z"/>
	</defs>
	<clipPath id="SVGID_4_">
		<use xlink:href="#SVGID_3_"  style="overflow:visible;"/>
	</clipPath>
	
		<linearGradient id="SVGID_5_" gradientUnits="userSpaceOnUse" x1="1.1285" y1="99.5419" x2="2.1285" y2="99.5419" gradientTransform="matrix(46.3285 0 0 -46.3285 -7.1388 4685.5244)">
		<stop  offset="0" style="stop-color:#8FC740"/>
		<stop  offset="1" style="stop-color:#38C6F4"/>
	</linearGradient>
	<rect x="45.1" y="60.3" class="st2" width="46.3" height="27.2"/>
</g>
<polyline class="st3" points="54.6,73.9 58.5,77.9 67.3,68.9 "/>
<polyline class="st3" points="69.8,73.9 73.7,77.9 82.5,68.9 "/>
</svg>
