<?xml version="1.0" encoding="utf-8"?>
<!-- Generator: Adobe Illustrator 23.1.0, SVG Export Plug-In . SVG Version: 6.00 Build 0)  -->
<svg version="1.1" id="Layer_1" xmlns="http://www.w3.org/2000/svg" xmlns:xlink="http://www.w3.org/1999/xlink" x="0px" y="0px"
	 viewBox="0 0 98 98" style="enable-background:new 0 0 98 98;" xml:space="preserve">
<style type="text/css">
	
		.st0{clip-path:url(#SVGID_2_);fill:none;stroke:#BCBEC0;stroke-width:2.966;stroke-linecap:round;stroke-linejoin:round;stroke-miterlimit:10;}
	.st1{clip-path:url(#SVGID_4_);fill:url(#SVGID_5_);}
	.st2{fill:none;stroke:#264569;stroke-width:2.966;stroke-linecap:round;stroke-linejoin:round;stroke-miterlimit:10;}
</style>
<g>
	<defs>
		<rect id="SVGID_1_" x="13.9" y="7.5" width="70.7" height="82.7"/>
	</defs>
	<clipPath id="SVGID_2_">
		<use xlink:href="#SVGID_1_"  style="overflow:visible;"/>
	</clipPath>
	<path class="st0" d="M40.7,16.1c18.6-4.3,37.1,7.3,41.4,25.9c3.2,14-2.6,28.1-13.6,35.9"/>
	<polyline class="st0" points="42.8,9 38.4,16.9 46.3,21.3 	"/>
	<path class="st0" d="M57.7,81.6c-18.6,4.3-37.1-7.3-41.4-25.9c-3.2-14,2.6-28.1,13.6-35.9"/>
	<polyline class="st0" points="55.6,88.7 60,80.8 52.1,76.4 	"/>
</g>
<g>
	<defs>
		<path id="SVGID_3_" d="M29.9,48.8c0,10.7,8.7,19.4,19.4,19.4c10.7,0,19.3-8.7,19.3-19.4s-8.7-19.4-19.3-19.4
			C38.5,29.5,29.9,38.2,29.9,48.8"/>
	</defs>
	<clipPath id="SVGID_4_">
		<use xlink:href="#SVGID_3_"  style="overflow:visible;"/>
	</clipPath>
	
		<linearGradient id="SVGID_5_" gradientUnits="userSpaceOnUse" x1="1.3324" y1="99.7268" x2="2.3324" y2="99.7268" gradientTransform="matrix(38.7 0 0 -38.7 -21.7052 3908.2791)">
		<stop  offset="0" style="stop-color:#8FC740"/>
		<stop  offset="1" style="stop-color:#38C6F4"/>
	</linearGradient>
	<rect x="29.9" y="29.5" class="st1" width="38.7" height="38.7"/>
</g>
<polyline class="st2" points="42.8,49.4 46.8,53.4 55.6,44.3 "/>
</svg>
