<svg xmlns="http://www.w3.org/2000/svg" width="279.539" height="47.485" viewBox="0 0 279.539 47.485">
  <g id="Group_82" data-name="Group 82" transform="translate(-43.625 -219.924)">
    <path id="Path_97" data-name="Path 97" d="M125.957,239.272v14.9l-14.44-14.9H105.4v24.844h6.587V248.563l15.274,15.552h5.282V239.272Z" transform="translate(-21.119 -6.615)" fill="#193b65"/>
    <path id="Path_98" data-name="Path 98" d="M170.451,244.967v-5.7h7.19v24.844h-7.19Z" transform="translate(-43.358 -6.614)" fill="#193b65"/>
    <path id="Path_99" data-name="Path 99" d="M264.518,254.17v4.536h16.269v5.411h-23.3V239.273h23.2v5.442H264.518v4.407h13.694v5.049Z" transform="translate(-73.113 -6.615)" fill="#193b65"/>
    <path id="Path_100" data-name="Path 100" d="M216.543,244.9v19.219h-7.069V244.9h-9.1v-5.625h25.295V244.9Z" transform="translate(-53.587 -6.615)" fill="#193b65"/>
    <g id="Group_81" data-name="Group 81" transform="translate(43.625 219.924)">
      <path id="Path_101" data-name="Path 101" d="M320.54,244.847h5.292c5.805.006,8.167,2.438,8.167,6.855,0,4.523-2.426,6.829-8.167,6.839H320.54Zm-7.055-5.575v24.844h12.507c10.3-.008,15.353-4.664,15.353-12.453,0-7.364-4.554-12.38-15.353-12.391Z" transform="translate(-135.883 -226.539)" fill="#193b65"/>
      <path id="Path_102" data-name="Path 102" d="M70.747,253.158c0,7.6-4.731,11.409-13.513,11.409-8.8,0-13.611-3.8-13.609-11.366V239.273h7.051v13.946c.006,3.787,2.151,5.678,6.583,5.664,4.382-.014,6.452-1.861,6.456-5.625V239.273h7.032Z" transform="translate(-43.625 -226.539)" fill="#193b65"/>
      <path id="Path_103" data-name="Path 103" d="M382.755,227.644c4.2-.185,6.425,2.195,7.155,5.109,1.453,5.787-1.781,11.453-7.155,15.1l.009-2.062a10.977,10.977,0,0,0,2.685-2.411,9.415,9.415,0,0,0-2.7-.4v-2.613a18.83,18.83,0,0,1,4.473.438,6.46,6.46,0,0,0,1-2.382,22.218,22.218,0,0,0-5.468.028v-1.83a22.935,22.935,0,0,1,5.949-.569,4.61,4.61,0,0,0-.117-1.954,22.876,22.876,0,0,0-5.826.7v-1.482a23.559,23.559,0,0,1,5.527-1.162,3.017,3.017,0,0,0-.823-1.486,24.663,24.663,0,0,0-4.7.994v-1.393a12.752,12.752,0,0,1,3.434-.856,6.833,6.833,0,0,0-3.428-.692Z" transform="translate(-159.562 -222.56)" fill="#193b65"/>
      <path id="Path_104" data-name="Path 104" d="M386.313,226.525c9.707-1.794,14.1,2.5,11.466,12.962-2.44,8.608-7.6,14.39-15.014,18.822V253.78a7.351,7.351,0,0,1,1.368,1.683,9.929,9.929,0,0,0,2.511-1.823,19.767,19.767,0,0,0-3.879-3.648c0,.011,0-.555,0-.586a13.145,13.145,0,0,0,3.521-2.833,16.752,16.752,0,0,1,4.257,3.278,13.8,13.8,0,0,0,2.371-3.324,15.852,15.852,0,0,0-4.307-2.463,10.2,10.2,0,0,0,1.907-3.083,20.169,20.169,0,0,1,4.5,1.529,12.271,12.271,0,0,0,1.166-3.4,21.5,21.5,0,0,0-4.6-.961,10.733,10.733,0,0,0,.279-2.658,23.512,23.512,0,0,1,4.966.47,6.173,6.173,0,0,0,.085-2.374,27.447,27.447,0,0,0-5.2-.229,5.84,5.84,0,0,0-.467-2.043,24.329,24.329,0,0,1,5.179-.061,3.862,3.862,0,0,0-1.133-1.9,23.135,23.135,0,0,0-4.741.27,3.993,3.993,0,0,0-1.216-1.389,14.345,14.345,0,0,1,3.881-.411,8.548,8.548,0,0,0-4.935-.526,6.11,6.11,0,0,0-1.961-.773" transform="translate(-159.567 -222.045)" fill="#193b65"/>
      <path id="Path_105" data-name="Path 105" d="M430.018,267.19V219.924H382.782v3.9c6.757-2.143,20.206-.925,28.016,6.088,6.348,5.708,10.686,12.927,11.216,22.884a30.172,30.172,0,0,1-2.731,14.4Z" transform="translate(-159.574 -219.924)" fill="#193b65"/>
      <path id="Path_106" data-name="Path 106" d="M403.066,232.964a10.488,10.488,0,0,0-3.324-.846,9.179,9.179,0,0,1,.324,2.33,18.2,18.2,0,0,1,3.906,1.079,9.383,9.383,0,0,1,.37,3.137,16.483,16.483,0,0,0-4.384-1.628,14.471,14.471,0,0,1-.6,3.393,20.081,20.081,0,0,1,4.5,2.226,13.854,13.854,0,0,1-1.393,4.4,20.552,20.552,0,0,0-4.554-2.85,18.333,18.333,0,0,1-2.367,4.644,20.219,20.219,0,0,1,3.953,3.438,13.5,13.5,0,0,1-3.066,3.82,16.883,16.883,0,0,0-3.251-4,17,17,0,0,1-4.386,4.465,21.045,21.045,0,0,1,2.892,3.877,15.429,15.429,0,0,1-3.542,2.517,17.262,17.262,0,0,0-2.018-4.251,13.4,13.4,0,0,1-3.38,2.166v6.62c8.647-3.13,19.876-12.089,22.543-24.216,1.3-5.9-.008-9.47-1.235-11.418-2.012-3.189-5.7-3.821-7.362-4.066a6.89,6.89,0,0,1,2.209,2.055,5.312,5.312,0,0,1,4.16,3.106" transform="translate(-159.563 -222.618)" fill="#193b65"/>
      <path id="Path_107" data-name="Path 107" d="M382.754,271.315v-.559a23.3,23.3,0,0,0,7.3-3.757,19.59,19.59,0,0,1,1.1,4.1,15.813,15.813,0,0,0,3.725-2.946,13.946,13.946,0,0,0-1.522-3.2,28.655,28.655,0,0,0,5.406-5.074,15.4,15.4,0,0,1,1.551,3.461,20.928,20.928,0,0,0,3.8-4.454,12.842,12.842,0,0,0-2.249-2.877,20.24,20.24,0,0,0,3.189-5.789,10.756,10.756,0,0,1,2.555,2.646,17.029,17.029,0,0,0,1.834-5.534,8.448,8.448,0,0,0-2.667-2.01,14.956,14.956,0,0,0,.58-4.228,9.438,9.438,0,0,1,2.592,1.841,10.222,10.222,0,0,0-.31-3.735,7.3,7.3,0,0,0-2.49-1.478,8,8,0,0,0-.676-2.4,7.7,7.7,0,0,1,2.266,1.257,5.391,5.391,0,0,0-2.738-2.6,9.113,9.113,0,0,0-1.378-1.9,9.008,9.008,0,0,1,6.513,7.261,25.511,25.511,0,0,1-2.933,16.132c-3.316,6.4-7.4,10.1-14.477,15.841Z" transform="translate(-159.564 -224.08)" fill="#193b65"/>
      <path id="Path_108" data-name="Path 108" d="M403.325,274.345a23.31,23.31,0,0,0,5.828-5.194,15.634,15.634,0,0,1,.779,3.365,26.051,26.051,0,0,0,4.394-5.045,10.059,10.059,0,0,0-1.245-2.619,17.317,17.317,0,0,0,3.721-6.365,7.622,7.622,0,0,1,1.555,2.546,21.909,21.909,0,0,0,2.394-6.65,8.082,8.082,0,0,0-1.563-2.193,14.368,14.368,0,0,0,.663-4.691,9.2,9.2,0,0,1,1.753,2.2c-.011-2.625-.274-4.309-1.844-5.71a8.823,8.823,0,0,0-.746-3.089c2.315,1.964,4.363,4.577,3.774,10.414-.883,8.8-6.071,17.19-12.2,23.033Z" transform="translate(-166.597 -227.094)" fill="#193b65"/>
      <path id="Path_109" data-name="Path 109" d="M428.987,282.719a11.149,11.149,0,0,0,2.663-3.881,7.669,7.669,0,0,1,.492,2.621c.376-1.116,2.445-4.513,2.405-9.277a30.018,30.018,0,0,0,1.235-6.843,28.867,28.867,0,0,1-2.617,17.379Z" transform="translate(-175.37 -235.45)" fill="#193b65"/>
      <path id="Path_110" data-name="Path 110" d="M431.153,257.033a5.256,5.256,0,0,0-.717-3.379,21.118,21.118,0,0,0-.282-3.158c1.37,1.873,2.523,3.964,2.08,8.886-.767,6.662-2.775,13.359-7.892,18.263h-1.983A10.689,10.689,0,0,0,422,274.6a22.767,22.767,0,0,0,4.743-7.583,9.673,9.673,0,0,1,.96,3.42,25.219,25.219,0,0,0,2.646-8.244,6.407,6.407,0,0,0-.9-2.035,16.627,16.627,0,0,0,.873-4.6,5.26,5.26,0,0,1,.827,1.481" transform="translate(-172.982 -230.376)" fill="#193b65"/>
      <path id="Path_111" data-name="Path 111" d="M458.786,285.67a3.155,3.155,0,1,1,3.155,3.141,3.126,3.126,0,0,1-3.155-3.141m5.828,0a2.674,2.674,0,1,0-2.673,2.659,2.679,2.679,0,0,0,2.673-2.659m-1.175,1.7h-.582l-1.031-1.588h-.58v1.588h-.48v-3.442h1.5c.619,0,1.226.168,1.226.91,0,.68-.478.929-1.091.944Zm-1.613-2.07c.428,0,1.179.077,1.179-.47,0-.355-.465-.42-.838-.42h-.921v.89Z" transform="translate(-185.557 -241.326)" fill="#193b65"/>
    </g>
  </g>
</svg>
