<svg xmlns="http://www.w3.org/2000/svg" xmlns:xlink="http://www.w3.org/1999/xlink" width="360.407" height="383" viewBox="0 0 360.407 383">
  <defs>
    <filter id="Rectangle_7430" x="124" y="0" width="229" height="383" filterUnits="userSpaceOnUse">
      <feOffset dx="3" dy="3" input="SourceAlpha"/>
      <feGaussianBlur stdDeviation="5" result="blur"/>
      <feFlood flood-opacity="0.161"/>
      <feComposite operator="in" in2="blur"/>
      <feComposite in="SourceGraphic"/>
    </filter>
    <linearGradient id="linear-gradient" x1="-0.489" y1="0.331" x2="0.477" y2="0.331" gradientUnits="objectBoundingBox">
      <stop offset="0" stop-color="#54cdee"/>
      <stop offset="0.304" stop-color="#69cdc7"/>
      <stop offset="0.98" stop-color="#9ecf67"/>
      <stop offset="0.994" stop-color="#a0d065"/>
    </linearGradient>
    <linearGradient id="linear-gradient-2" x1="0" y1="0.5" x2="1" y2="0.5" xlink:href="#linear-gradient"/>
  </defs>
  <g id="Group_1626" data-name="Group 1626" transform="translate(-1102.352 -907)">
    <g transform="matrix(1, 0, 0, 1, 1102.35, 907)" filter="url(#Rectangle_7430)">
      <rect id="Rectangle_7430-2" data-name="Rectangle 7430" width="199" height="353" rx="18" transform="translate(136 12)" fill="#fff"/>
    </g>
    <g id="Group_1625" data-name="Group 1625" transform="translate(1102 938.794)">
      <g id="Ellipse_7" data-name="Ellipse 7" transform="translate(46.352 22.206)" fill="none" stroke="#000c30" stroke-width="2">
        <circle cx="131" cy="131" r="131" stroke="none"/>
        <circle cx="131" cy="131" r="130" fill="none"/>
      </g>
      <g id="Group_1622" data-name="Group 1622" transform="translate(57.184)">
        <g id="Ellipse_4" data-name="Ellipse 4" transform="translate(0.168 0.206)" fill="#f4f9ff" stroke="#000c30" stroke-width="2">
          <circle cx="46" cy="46" r="46" stroke="none"/>
          <circle cx="46" cy="46" r="45" fill="none"/>
        </g>
        <path id="Path_7390" data-name="Path 7390" d="M2483.036-10362.367a9.788,9.788,0,0,0,3.857,7.811l-9.365,18.24a9.683,9.683,0,0,0-2.84-.428,9.82,9.82,0,0,0-9.832,9.783,9.822,9.822,0,0,0,9.784,9.834,9.829,9.829,0,0,0,9.675-8.049l18.083.045a9.825,9.825,0,0,0,9.635,8.1,9.819,9.819,0,0,0,9.831-9.783,9.821,9.821,0,0,0-9.782-9.834,9.8,9.8,0,0,0-3.09.492l-10.026-18.527a9.787,9.787,0,0,0,3.687-7.631,9.816,9.816,0,0,0-9.783-9.832A9.819,9.819,0,0,0,2483.036-10362.367Zm-8.388,41.764a6.338,6.338,0,0,1-6.317-6.348,6.338,6.338,0,0,1,6.348-6.318,6.306,6.306,0,0,1,2.877.7,0,0,0,0,1,0,0,6.34,6.34,0,0,1,3.438,5.648A6.339,6.339,0,0,1,2474.648-10320.6Zm43.739-6.225a6.341,6.341,0,0,1-6.347,6.318,6.341,6.341,0,0,1-6.317-6.35,6.339,6.339,0,0,1,6.349-6.316A6.338,6.338,0,0,1,2518.387-10326.828Zm-12.452-7.674a9.828,9.828,0,0,0-3.529,5.9l-18.083-.045a9.841,9.841,0,0,0-3.707-6.076l9.363-18.236a9.752,9.752,0,0,0,2.84.426,9.811,9.811,0,0,0,3.09-.492Zm-6.759-27.826a6.34,6.34,0,0,1-6.349,6.316,6.341,6.341,0,0,1-6.317-6.348,6.34,6.34,0,0,1,6.348-6.316A6.339,6.339,0,0,1,2499.176-10362.328Z" transform="translate(-2447.421 10387.534)" fill="url(#linear-gradient)"/>
      </g>
      <g id="Group_1621" data-name="Group 1621" transform="translate(0 109.969)">
        <g id="Ellipse_5" data-name="Ellipse 5" transform="translate(0.352 0.237)" fill="#f4f9ff" stroke="#000c30" stroke-width="2">
          <circle cx="46" cy="46" r="46" stroke="none"/>
          <circle cx="46" cy="46" r="45" fill="none"/>
        </g>
        <path id="Path_7391" data-name="Path 7391" d="M2195.2-9809.753a4.547,4.547,0,0,1-2.9-.85c-.66-.513-1.025-.375-1.6.1a5.148,5.148,0,0,1-7.114-.561,5.063,5.063,0,0,1-.771-1.456.719.719,0,0,0-.8-.546c-2.514-.036-4.3-1.383-4.658-3.511-.074-.432-.269-.587-.767-.668-2.519-.406-3.823-1.738-3.9-3.968-.013-.387-.166-.543-.591-.646-3.251-.778-4.444-3.643-2.488-6,.3-.364.3-.6-.031-.93-1.621-1.612-3.194-3.261-4.842-4.853a13.946,13.946,0,0,0-1.861-1.327c-1.571-1.075-3.157-2.133-4.719-3.219-.941-.653-1.057-1.313-.387-2.179a131.516,131.516,0,0,0,8.731-12.208c.476-.787,1.057-.947,2.1-.7,2.714.646,5.423,1.307,8.142,1.932a12.752,12.752,0,0,0,2,.271c1.922.133,3.865.134,5.767.375a12.378,12.378,0,0,0,4.608-.365c1.855-.457,3.723-.872,5.593-1.282a4.518,4.518,0,0,1,1.311-.135c3.45.288,6.9.607,10.346.9a2.963,2.963,0,0,0,.994-.035c2.981-.812,5.961-1.629,8.927-2.481,1.449-.417,2.009-.29,2.527.974.979,2.389,1.8,4.826,2.792,7.214.725,1.749,1.58,3.463,2.435,5.171.489.976.428,1.451-.565,2.095-1.73,1.12-3.488,2.207-5.209,3.335a3.31,3.31,0,0,0-.966.938c-1.23,1.928-2.436,3.867-3.6,5.826a1.216,1.216,0,0,0-.035,1.041c1.251,2.577-.436,5.188-3.652,5.549-.449.051-.6.2-.68.571-.408,1.99-1.729,3.1-4.035,3.377-.45.054-.6.214-.684.58-.463,2.074-1.688,3.127-4.116,3.5-.556.085-.624.342-.691.729A4.531,4.531,0,0,1,2195.2-9809.753Zm-12.895-38.762c-1.278-.08-2.437-.138-3.592-.231a1.062,1.062,0,0,0-1.025.456q-5.109,6.374-10.256,12.727c-.325.4-.262.641.088.983,1.29,1.267,2.575,2.538,3.8,3.853a.938.938,0,0,0,1.434.219c2.964-1.706,6.195-.29,6.764,1.916.037.144.4.331.6.321,2.835-.142,4.613,1.078,5.091,3.488a.878.878,0,0,0,.572.546c2.813.521,4.234,2.035,4.163,4.538-.01.36.063.551.505.692,2.809.9,3.979,3.033,3.094,5.529a.721.721,0,0,0,.072.665,2.093,2.093,0,0,0,1.973.566,1.76,1.76,0,0,0,1.476-1.337,1.785,1.785,0,0,0-.7-1.774q-1.371-1.25-2.733-2.5c-.759-.7-.808-1.432-.145-1.952a1.58,1.58,0,0,1,2.176.3c.965.883,1.9,1.789,2.895,2.65a2.164,2.164,0,0,0,2.692.122,1.561,1.561,0,0,0,.261-2.372,6.558,6.558,0,0,0-.56-.561q-2.552-2.373-5.107-4.742c-.763-.711-.812-1.438-.143-1.947.641-.487,1.4-.37,2.174.347.639.593,1.266,1.2,1.9,1.788,1.189,1.1,2.364,2.217,3.583,3.294a2.168,2.168,0,0,0,2.688.132,1.555,1.555,0,0,0,.218-2.322,4.637,4.637,0,0,0-.4-.411q-3.458-3.258-6.918-6.514c-.457-.43-.93-.851-1.359-1.3a1.078,1.078,0,0,1,.069-1.694,1.478,1.478,0,0,1,1.953.121c.095.077.182.162.269.245q3.359,3.2,6.719,6.395a22.23,22.23,0,0,0,1.723,1.561,2,2,0,0,0,2.428,0,1.454,1.454,0,0,0,.388-2.022,4.228,4.228,0,0,0-.608-.7c-.761-.739-1.539-1.466-2.3-2.2-4.036-3.881-8.061-7.771-12.125-11.631a2.578,2.578,0,0,0-1.391-.591c-1.448-.148-2.915-.164-4.368-.286a1.284,1.284,0,0,0-1.372.639c-.983,1.56-1.978,3.113-3.034,4.635a5.3,5.3,0,0,1-7.39,1.173,3.516,3.516,0,0,1-.753-4.83c1.37-2.423,2.767-4.834,4.15-7.25C2182.049-9847.986,2182.14-9848.189,2182.3-9848.515Zm29,18.471c.183-.125.266-.156.3-.21,1.1-1.732,2.207-3.461,3.271-5.211a.787.787,0,0,0-.067-.731q-4.164-6.246-8.39-12.463a1.71,1.71,0,0,0-1.093-.594c-2.9-.292-5.8-.537-8.711-.761a5.844,5.844,0,0,0-1.777.11c-3.114.741-6.215,1.52-9.312,2.309a1.377,1.377,0,0,0-.772.5q-2.349,3.842-4.626,7.716a1.412,1.412,0,0,0,.6,2.025,2.159,2.159,0,0,0,2.434-.249,5.8,5.8,0,0,0,.872-1.109c1.1-1.683,2.173-3.375,3.258-5.063a1.8,1.8,0,0,1,1.718-.865c2.237.126,4.472.278,6.708.4a3.282,3.282,0,0,1,2.265,1.026c3.25,3.247,6.535,6.469,9.808,9.7Zm-36.28-19.187c-.357-.111-.59-.2-.834-.257-1.611-.372-3.231-.715-4.832-1.116a.873.873,0,0,0-1.118.408c-1.489,2.16-3,4.313-4.548,6.439-1.009,1.385-2.1,2.724-3.226,4.169,1.328.886,2.644,1.722,3.9,2.616.588.418.888.308,1.279-.189,2.454-3.122,4.945-6.224,7.4-9.344C2173.719-9847.354,2174.313-9848.247,2175.022-9849.231Zm34.4-.393c2.562,4.14,4.719,8.312,7.614,12.216,1.4-.884,2.721-1.687,3.993-2.541a.709.709,0,0,0,.136-.724c-.556-1.21-1.226-2.381-1.756-3.6-.971-2.226-1.885-4.47-2.792-6.716-.2-.482-.465-.566-.988-.383-.578.2-1.183.348-1.777.513C2212.417-9850.455,2210.985-9850.059,2209.419-9849.624Zm-22.222,29.83a1.786,1.786,0,0,0-1.151-1.83,2.126,2.126,0,0,0-2.234.389c-1.095.931-2.174,1.876-3.214,2.853a1.568,1.568,0,0,0,.063,2.434,2.186,2.186,0,0,0,2.808-.081c1.027-.861,2.049-1.732,3-2.65A4.765,4.765,0,0,0,2187.2-9819.794Zm-4.728-4.141c-.041-.965-.325-1.535-1.115-1.834a2.079,2.079,0,0,0-2.208.438c-1.03.887-2.026,1.8-3.03,2.714a1.584,1.584,0,0,0-.168,2.521,2.175,2.175,0,0,0,2.913-.173c.981-.835,1.962-1.674,2.877-2.56A4.991,4.991,0,0,0,2182.469-9823.935Zm8.594,8.969a1.639,1.639,0,0,0-1.093-1.585,2.024,2.024,0,0,0-2.055.176,17.69,17.69,0,0,0-2.071,1.819,1.418,1.418,0,0,0-.122,1.893,1.952,1.952,0,0,0,1.814.855C2188.765-9811.852,2191.042-9813.9,2191.063-9814.966ZM2175.1-9829.02a5.741,5.741,0,0,0-1.287.554,18.9,18.9,0,0,0-1.935,1.745,1.381,1.381,0,0,0-.01,2.082,1.95,1.95,0,0,0,2.462.216,11.479,11.479,0,0,0,2.281-2.089C2177.467-9827.593,2176.595-9828.927,2175.1-9829.02Z" transform="translate(-2144.61 9882.42)" fill="url(#linear-gradient-2)"/>
      </g>
      <g id="Group_1620" data-name="Group 1620" transform="translate(57.184 219.938)">
        <g id="Ellipse_6" data-name="Ellipse 6" transform="translate(0.168 0.268)" fill="#f4f9ff" stroke="#000c30" stroke-width="2">
          <circle cx="46" cy="46" r="46" stroke="none"/>
          <circle cx="46" cy="46" r="45" fill="none"/>
        </g>
        <g id="Group_1619" data-name="Group 1619" transform="translate(18.391 26.984)">
          <g id="Group_1617" data-name="Group 1617" transform="translate(1.374 0)">
            <path id="Path_7392" data-name="Path 7392" d="M2657.842-9532.182l-7.8,7.8a1.75,1.75,0,0,1-1.242.514,1.753,1.753,0,0,1-1.242-.514,1.757,1.757,0,0,1,0-2.482l4.7-4.7h-46.386a1.756,1.756,0,0,1-1.756-1.756,1.758,1.758,0,0,1,1.756-1.757h46.6l-4.915-4.913a1.758,1.758,0,0,1,0-2.483,1.755,1.755,0,0,1,2.484,0l7.8,7.8A1.756,1.756,0,0,1,2657.842-9532.182Z" transform="translate(-2604.112 9542.983)" fill="url(#linear-gradient-2)"/>
          </g>
          <g id="Group_1618" data-name="Group 1618" transform="translate(0 19.961)">
            <path id="Path_7393" data-name="Path 7393" d="M2649.748-9408.265a1.758,1.758,0,0,1-1.756,1.757h-46.385l4.7,4.7a1.757,1.757,0,0,1,0,2.482,1.756,1.756,0,0,1-1.242.516,1.754,1.754,0,0,1-1.242-.516l-7.8-7.8a1.75,1.75,0,0,1-.516-1.241,1.751,1.751,0,0,1,.516-1.241l7.8-7.8a1.757,1.757,0,0,1,2.484,0,1.759,1.759,0,0,1,0,2.484l-4.917,4.914h46.605A1.756,1.756,0,0,1,2649.748-9408.265Z" transform="translate(-2595.501 9417.934)" fill="url(#linear-gradient-2)"/>
          </g>
        </g>
      </g>
    </g>
    <g id="Group_1623" data-name="Group 1623" transform="translate(1276.669 1026.77)" opacity="0.3">
      <path id="Path_7394" data-name="Path 7394" d="M-3472.551-2119.575h161.973a21.691,21.691,0,0,0,21.9-23.111,21.656,21.656,0,0,0-6.321-13.98,21.66,21.66,0,0,0-15.364-6.364h-131.633a21.866,21.866,0,0,0-21.908,22.9,21.674,21.674,0,0,0,1.169,5.965.014.014,0,0,1,0,.015l-11.314,10.848A2.165,2.165,0,0,0-3472.551-2119.575Z" transform="translate(3474.72 2163.03)" fill="#2cc4ec"/>
    </g>
    <g id="Group_1624" data-name="Group 1624" transform="translate(1216.186 1108.146)" opacity="0.3">
      <path id="Path_7394-2" data-name="Path 7394" d="M-3290.8-2119.575h-161.973a21.691,21.691,0,0,1-21.9-23.111,21.656,21.656,0,0,1,6.321-13.98,21.66,21.66,0,0,1,15.364-6.364h131.634a21.866,21.866,0,0,1,21.908,22.9,21.674,21.674,0,0,1-1.169,5.965.014.014,0,0,0,0,.015l11.314,10.848A2.165,2.165,0,0,1-3290.8-2119.575Z" transform="translate(3474.72 2163.03)" fill="#2cc4ec"/>
    </g>
  </g>
</svg>
