<?xml version="1.0" encoding="utf-8"?>
<!-- Generator: Adobe Illustrator 23.1.0, SVG Export Plug-In . SVG Version: 6.00 Build 0)  -->
<svg version="1.1" id="Layer_1" xmlns="http://www.w3.org/2000/svg" xmlns:xlink="http://www.w3.org/1999/xlink" x="0px" y="0px"
	 viewBox="0 0 109 23" style="enable-background:new 0 0 109 23;" xml:space="preserve">
<style type="text/css">
	.st0{fill:#FFFFFF;}
</style>
<g>
	<path class="st0" d="M0.6,0.9h4.4l2.8,10.6c0.4,1.8,0.9,4.7,0.9,4.7h0.1c0,0,0.5-2.7,1-4.6l2.3-10.8h4.2l2.3,10.7
		c0.5,1.9,1,4.6,1,4.6h0.1c0,0,0.6-2.8,1.1-4.7l2.7-10.6h4.3l-6.1,21.4h-4L15,10.8C14.7,9.3,14.3,7,14.3,7h-0.1c0,0-0.3,2.3-0.7,3.8
		l-2.6,11.5h-4L0.6,0.9z"/>
	<path class="st0" d="M26.9,14.6c0-4.6,3.1-8.1,7.6-8.1c4.9,0,7.6,3.8,7.6,9.3H30.9c0.3,2.4,1.6,3.8,3.9,3.8c1.6,0,2.5-0.7,3-1.9h4
		c-0.6,2.7-3,5-7,5C29.8,22.8,26.9,19.2,26.9,14.6z M31,13h6.8c-0.1-2-1.4-3.3-3.3-3.3C32.4,9.7,31.3,11,31,13z"/>
	<path class="st0" d="M48,20.4L48,20.4l-0.1,1.9H44V0.9h4.1v7.9h0.1c0.8-1.3,2.2-2.3,4.3-2.3c3.9,0,6.6,3.3,6.6,8.1
		c0,5-2.6,8.1-6.5,8.1C50.4,22.8,48.9,21.9,48,20.4z M54.9,14.7c0-2.8-1.1-4.8-3.4-4.8c-2.6,0-3.5,2.1-3.5,4.9
		c0,2.8,1.4,4.6,3.7,4.6C53.8,19.4,54.9,17.6,54.9,14.7z"/>
	<path class="st0" d="M61,0.9H65v3.7H61V0.9z M61,6.9H65v15.4H61V6.9z"/>
	<path class="st0" d="M71.7,9L71.7,9c1.1-1.7,2.6-2.5,4.7-2.5c3.2,0,5.3,2.4,5.3,5.8v10h-4.1v-9.4c0-1.7-1-2.8-2.7-2.8
		c-1.8,0-3.1,1.4-3.1,3.5v8.7h-4.1V6.9h4V9z"/>
	<path class="st0" d="M93.4,20.6L93.4,20.6c-0.8,1.2-2,2.1-4.6,2.1c-3.1,0-5.4-1.7-5.4-4.7c0-3.4,2.8-4.5,6.2-5
		c2.6-0.4,3.7-0.6,3.7-1.7c0-1.1-0.9-1.8-2.6-1.8c-1.9,0-2.9,0.7-3,2.2h-3.6c0.1-2.7,2.1-5.1,6.6-5.1c4.6,0,6.5,2.1,6.5,5.7v7.8
		c0,1.2,0.2,1.9,0.5,2.1v0.2h-3.9C93.6,22,93.4,21.3,93.4,20.6z M93.4,16.9v-2.3c-0.7,0.4-1.8,0.7-2.9,0.9c-2.1,0.5-3.2,1-3.2,2.4
		c0,1.4,1,1.9,2.4,1.9C92.1,19.8,93.4,18.4,93.4,16.9z"/>
	<path class="st0" d="M103.7,9.4L103.7,9.4c1-1.7,2.1-2.6,3.9-2.6c0.5,0,0.7,0,1,0.1v3.6h-0.1c-2.7-0.3-4.6,1.1-4.6,4.4v7.5h-4.1
		V6.9h3.9V9.4z"/>
</g>
</svg>
