<?xml version="1.0" encoding="utf-8"?>
<!-- Generator: Adobe Illustrator 23.1.0, SVG Export Plug-In . SVG Version: 6.00 Build 0)  -->
<svg version="1.1" id="Layer_1" xmlns="http://www.w3.org/2000/svg" xmlns:xlink="http://www.w3.org/1999/xlink" x="0px" y="0px"
	 viewBox="0 0 35 35" style="enable-background:new 0 0 35 35;" xml:space="preserve">
<style type="text/css">
	.st0{clip-path:url(#SVGID_2_);fill:#FCFFFC;}
</style>
<g>
	<defs>
		<rect id="SVGID_1_" x="0.11" y="0.71" width="33.79" height="33.82"/>
	</defs>
	<clipPath id="SVGID_2_">
		<use xlink:href="#SVGID_1_"  style="overflow:visible;"/>
	</clipPath>
	<path class="st0" d="M31.03,17.96c-0.04-2.04-0.31-3.67-0.9-5.25c-2.37-6.44-9.25-10.25-15.97-8.84C8.32,5.11,3.87,9.93,3.14,15.86
		c-0.42,3.42,0.34,6.58,2.22,9.47c0.17,0.26,0.2,0.49,0.11,0.78c-0.38,1.33-0.74,2.66-1.13,3.98c-0.13,0.42,0.01,0.41,0.34,0.32
		c1.35-0.36,2.7-0.69,4.05-1.05c0.34-0.09,0.6-0.07,0.92,0.12c3.61,2.18,7.46,2.69,11.5,1.48C26.96,29.22,31.02,23.7,31.03,17.96
		 M0.11,34.53c0.56-2,1.11-3.93,1.65-5.86c0.21-0.74,0.41-1.48,0.63-2.22c0.07-0.23,0.05-0.41-0.07-0.62
		c-1.42-2.51-2.15-5.22-2.16-8.1c-0.02-3.58,0.99-6.88,3.06-9.81c2.11-2.99,4.9-5.1,8.37-6.29c2.68-0.92,5.43-1.18,8.22-0.66
		C25.79,2.09,30.05,5.47,32.53,11c1.33,2.97,1.68,6.13,1.11,9.36c-0.95,5.34-3.8,9.41-8.54,11.99c-5.13,2.79-10.41,2.82-15.68,0.27
		c-0.45-0.22-0.84-0.28-1.33-0.15C5.46,33.17,2.83,33.83,0.11,34.53"/>
	<path class="st0" d="M11.62,9.71c0.78-0.18,1.17,0.27,1.45,1.03c0.35,0.96,0.78,1.88,1.2,2.81c0.18,0.41,0.14,0.74-0.17,1.07
		c-0.38,0.4-0.72,0.83-1.08,1.24c-0.22,0.24-0.25,0.48-0.09,0.77c1.37,2.42,3.39,4.07,5.98,5.06c0.29,0.11,0.48-0.01,0.65-0.23
		c0.41-0.53,0.84-1.06,1.24-1.6c0.27-0.36,0.57-0.44,0.98-0.25c1.1,0.52,2.21,1.04,3.33,1.54c0.47,0.21,0.54,0.52,0.47,0.98
		c-0.46,3.04-3.28,4-5.73,3.27c-3.68-1.1-6.6-3.27-8.95-6.26c-1.01-1.28-1.86-2.64-2.23-4.25c-0.44-1.92,0.06-3.53,1.53-4.84
		C10.58,9.69,11.05,9.65,11.62,9.71"/>
</g>
</svg>
