<?xml version="1.0" encoding="utf-8"?>
<!-- Generator: Adobe Illustrator 23.1.0, SVG Export Plug-In . SVG Version: 6.00 Build 0)  -->
<svg version="1.1" id="Layer_1" xmlns="http://www.w3.org/2000/svg" xmlns:xlink="http://www.w3.org/1999/xlink" x="0px" y="0px"
	 viewBox="0 0 1620 770" style="enable-background:new 0 0 1620 770;" xml:space="preserve">
<style type="text/css">
	.st0{display:none;fill:#000C30;}
	.st1{opacity:8.000000e-02;fill:#F4F9FF;enable-background:new    ;}
</style>
<rect x="-150" class="st0" width="1920" height="770"/>
<path id="Path_7423" class="st1" d="M772.8,417.2l-8.4,21.9H836c56.4,0,102.1-45.7,102.1-102.1S892.4,234.9,836,234.9
	S733.9,280.6,733.9,337C733.9,368.3,748.2,397.8,772.8,417.2L772.8,417.2z"/>
<path id="Path_7423_1_" class="st1" d="M1461.3,657.7l-10.9,28.3h92.5c72.9,0,132-59.1,132-132s-59.1-132-132-132s-132,59.1-132,132
	C1411,594.4,1429.6,632.6,1461.3,657.7L1461.3,657.7z"/>
<path id="Path_7424" class="st1" d="M85.6,794.3l6.1,15.8H40c-40.7,0-73.8-33-73.8-73.7s33-73.8,73.7-73.8s73.8,33,73.8,73.7
	C113.7,758.9,103.4,780.3,85.6,794.3L85.6,794.3z"/>
<path id="Path_7425" class="st1" d="M631,83.2l6.4,16.6H583c-42.8,0-77.5-34.7-77.5-77.5s34.7-77.5,77.5-77.5s77.5,34.7,77.5,77.5
	C660.5,46.1,649.6,68.5,631,83.2z"/>
</svg>
