<svg xmlns="http://www.w3.org/2000/svg" xmlns:xlink="http://www.w3.org/1999/xlink" width="581" height="647" viewBox="0 0 581 647">
  <defs>
    <filter id="Ellipse_20" x="152" y="230" width="176" height="176" filterUnits="userSpaceOnUse">
      <feOffset dy="3" input="SourceAlpha"/>
      <feGaussianBlur stdDeviation="3" result="blur"/>
      <feFlood flood-opacity="0.161"/>
      <feComposite operator="in" in2="blur"/>
      <feComposite in="SourceGraphic"/>
    </filter>
  </defs>
  <g id="Group_1709" data-name="Group 1709" transform="translate(-1084 -757)">
    <g id="Group_1679" data-name="Group 1679" transform="translate(-175 -136)">
      <g transform="matrix(1, 0, 0, 1, 1259, 893)" filter="url(#Ellipse_20)">
        <circle id="Ellipse_20-2" data-name="Ellipse 20" cx="79" cy="79" r="79" transform="translate(161 236)" fill="#fff"/>
      </g>
      <g id="Group_1660" data-name="Group 1660" transform="translate(943.452 702.475)">
        <g id="Group_1637" data-name="Group 1637" transform="translate(515.851 465.652)">
          <g id="Group_1636" data-name="Group 1636" transform="translate(0)">
            <path id="Path_7403" data-name="Path 7403" d="M563.748,473.811c18.794.245,34.29,12.555,38.628,30.591a39.681,39.681,0,0,1-30.763,47.825,39.16,39.16,0,0,1-26.033-3.7,2.068,2.068,0,0,0-1.621-.1q-9.465,2.489-18.931,4.97c-1.107.29-1.112.288-.8-.85q2.521-9.21,5.059-18.415a2.178,2.178,0,0,0-.208-1.78,39.629,39.629,0,0,1,27.039-57.775A41.588,41.588,0,0,1,563.748,473.811Zm-1.51,6.7c-9.484.282-18.469,4.723-25.05,13.663a32.638,32.638,0,0,0-1.088,36.919,2.543,2.543,0,0,1,.324,2.283c-.96,3.347-1.845,6.716-2.784,10.07-.188.67-.127.831.619.629,3.514-.952,7.049-1.83,10.563-2.785a2.287,2.287,0,0,1,1.954.254,32.493,32.493,0,0,0,21.912,4.4A32.961,32.961,0,0,0,596.1,507.013C592.949,491.528,579.526,480.507,562.238,480.513Z" transform="translate(-524.049 -473.811)" fill="#3ad074"/>
            <path id="Path_7404" data-name="Path 7404" d="M594.246,554.13a13.316,13.316,0,0,1-4.182-.655c-9.1-2.6-15.911-8.279-21.394-15.781-2.051-2.807-3.952-5.687-4.6-9.178a11.084,11.084,0,0,1,3.578-10.76,6.406,6.406,0,0,1,5.259-.705,2.27,2.27,0,0,1,1,1.231q1.654,3.941,3.3,7.888a1.967,1.967,0,0,1-.1,1.652,12.4,12.4,0,0,1-2.451,3.251,1.6,1.6,0,0,0-.245,2.206A27.054,27.054,0,0,0,587.923,544.9a1.6,1.6,0,0,0,2.095-.512c.947-1.191,1.926-2.357,2.865-3.554.746-.951,1.125-1.107,2.279-.652,2.064.815,4.021,1.863,6.016,2.828.285.138.568.279.853.419,2.127,1.041,2.279,1.344,1.848,3.683a8.664,8.664,0,0,1-7.147,6.823A11.506,11.506,0,0,1,594.246,554.13Z" transform="translate(-544.165 -495.528)" fill="#3ad074"/>
          </g>
        </g>
      </g>
    </g>
    <g id="Group_1708" data-name="Group 1708">
      <g id="Ellipse_21" data-name="Ellipse 21" transform="translate(1219 967)" fill="none" stroke="#000c30" stroke-width="3">
        <circle cx="105" cy="105" r="105" stroke="none"/>
        <circle cx="105" cy="105" r="103.5" fill="none"/>
      </g>
      <g id="Ellipse_22" data-name="Ellipse 22" transform="translate(1408 855)" fill="none" stroke="#000c30" stroke-width="3">
        <circle cx="21" cy="21" r="21" stroke="none"/>
        <circle cx="21" cy="21" r="19.5" fill="none"/>
      </g>
      <g id="Ellipse_23" data-name="Ellipse 23" transform="translate(1560 1189)" fill="none" stroke="#000c30" stroke-width="3">
        <circle cx="21" cy="21" r="21" stroke="none"/>
        <circle cx="21" cy="21" r="19.5" fill="none"/>
      </g>
      <g id="Ellipse_24" data-name="Ellipse 24" transform="translate(1324 1222)" fill="none" stroke="#000c30" stroke-width="3">
        <circle cx="21" cy="21" r="21" stroke="none"/>
        <circle cx="21" cy="21" r="19.5" fill="none"/>
      </g>
      <g id="Ellipse_25" data-name="Ellipse 25" transform="translate(1084 1135)" fill="none" stroke="#000c30" stroke-width="3">
        <circle cx="21" cy="21" r="21" stroke="none"/>
        <circle cx="21" cy="21" r="19.5" fill="none"/>
      </g>
      <g id="Ellipse_26" data-name="Ellipse 26" transform="translate(1154 913)" fill="none" stroke="#000c30" stroke-width="3">
        <circle cx="21" cy="21" r="21" stroke="none"/>
        <circle cx="21" cy="21" r="19.5" fill="none"/>
      </g>
      <g id="Ellipse_27" data-name="Ellipse 27" transform="translate(1094 1362)" fill="none" stroke="#000c30" stroke-width="3">
        <circle cx="21" cy="21" r="21" stroke="none"/>
        <circle cx="21" cy="21" r="19.5" fill="none"/>
      </g>
      <g id="Ellipse_28" data-name="Ellipse 28" transform="translate(1623 757)" fill="none" stroke="#000c30" stroke-width="3">
        <circle cx="21" cy="21" r="21" stroke="none"/>
        <circle cx="21" cy="21" r="19.5" fill="none"/>
      </g>
      <line id="Line_4" data-name="Line 4" x1="62" y1="53" transform="translate(1189.5 946.5)" fill="none" stroke="#000c30" stroke-width="3"/>
      <line id="Line_5" data-name="Line 5" y1="89" x2="47" transform="translate(1373.5 893.5)" fill="none" stroke="#000c30" stroke-width="3"/>
      <line id="Line_6" data-name="Line 6" y1="213" x2="227" transform="translate(1403.5 791.5)" fill="none" stroke="#000c30" stroke-width="3"/>
      <line id="Line_7" data-name="Line 7" x2="149" y2="84" transform="translate(1417.5 1114.5)" fill="none" stroke="#000c30" stroke-width="3"/>
      <line id="Line_8" data-name="Line 8" x2="5" y2="50" transform="translate(1337.5 1173.5)" fill="none" stroke="#000c30" stroke-width="3"/>
      <line id="Line_9" data-name="Line 9" x1="142" y2="208" transform="translate(1126.5 1159.5)" fill="none" stroke="#000c30" stroke-width="3"/>
      <line id="Line_10" data-name="Line 10" x1="105" y2="38" transform="translate(1123.5 1111.5)" fill="none" stroke="#000c30" stroke-width="3"/>
    </g>
  </g>
</svg>
