<svg xmlns="http://www.w3.org/2000/svg" xmlns:xlink="http://www.w3.org/1999/xlink" width="64" height="64" viewBox="0 0 64 64">
  <defs>
    <linearGradient id="linear-gradient" y1="0.5" x2="1" y2="0.5" gradientUnits="objectBoundingBox">
      <stop offset="0" stop-color="#2cc4ec"/>
      <stop offset="1" stop-color="#8cc63f"/>
    </linearGradient>
  </defs>
  <g id="Group_3683" data-name="Group 3683" transform="translate(1478.382 -1035.493)">
    <g id="Group_3681" data-name="Group 3681" transform="translate(-1478.382 1035.493)">
      <rect id="Rectangle_12799" data-name="Rectangle 12799" width="64" height="64" fill="none"/>
    </g>
    <g id="Group_3584" data-name="Group 3584" transform="translate(-1459.64 1044.193)">
      <g id="Group_3583" data-name="Group 3583">
        <g id="Path_8163" data-name="Path 8163">
          <path id="Path_9178" data-name="Path 9178" d="M-1414.231,1100.467h-29.538a3.516,3.516,0,0,1-3.53-3.488v-2.65a3.514,3.514,0,0,1,3.53-3.485h15.261v-12.421a.841.841,0,0,1,.847-.835.84.84,0,0,1,.846.835v12.421h12.588a3.513,3.513,0,0,1,3.526,3.486v2.649A3.514,3.514,0,0,1-1414.231,1100.467Zm-29.538-7.954a1.83,1.83,0,0,0-1.838,1.815v2.65a1.832,1.832,0,0,0,1.839,1.818h29.534a1.83,1.83,0,0,0,1.837-1.818v-2.651a1.828,1.828,0,0,0-1.835-1.815Zm16.11-21.21a.841.841,0,0,1-.847-.835v-3.977a3.164,3.164,0,0,0-3.18-3.139h-18.8a4.879,4.879,0,0,1-3.448-1.412,4.742,4.742,0,0,1-1.424-3.4v-11.931a.841.841,0,0,1,.847-.835.841.841,0,0,1,.846.835v11.932a3.1,3.1,0,0,0,.929,2.221,3.184,3.184,0,0,0,2.25.922h18.8a4.849,4.849,0,0,1,4.872,4.809v3.977A.841.841,0,0,1-1427.659,1071.3Z" transform="translate(1455.353 -1045.772)" fill="#000b2f"/>
        </g>
      </g>
    </g>
    <g id="Group_3682" data-name="Group 3682" transform="translate(-1477.776 1036.099)">
      <path id="Path_9179" data-name="Path 9179" d="M-1418.365,1078.162H-1447.6a3.447,3.447,0,0,1-2.467-1.032,3.528,3.528,0,0,1-1.023-2.5v-2.686a3.533,3.533,0,0,1,1.024-2.5,3.448,3.448,0,0,1,2.466-1.032h29.235a3.517,3.517,0,0,1,3.49,3.53v2.687a3.533,3.533,0,0,1-1.028,2.5A3.441,3.441,0,0,1-1418.365,1078.162Zm-29.238-1.693h29.235a1.8,1.8,0,0,0,1.282-.535,1.839,1.839,0,0,0,.535-1.3v-2.687a1.831,1.831,0,0,0-1.817-1.838H-1447.6a1.794,1.794,0,0,0-1.284.538,1.84,1.84,0,0,0-.534,1.3v2.686a1.836,1.836,0,0,0,.532,1.3,1.8,1.8,0,0,0,1.283.537Zm2.661-30.515h-29.233a3.517,3.517,0,0,1-3.491-3.53v-2.685a3.532,3.532,0,0,1,1.026-2.5,3.448,3.448,0,0,1,2.465-1.032h29.234a3.518,3.518,0,0,1,3.493,3.53v2.685A3.518,3.518,0,0,1-1444.942,1045.954Zm-29.231-1.693h29.23a1.833,1.833,0,0,0,1.821-1.838v-2.683a1.832,1.832,0,0,0-1.82-1.838h-29.234a1.792,1.792,0,0,0-1.283.537,1.838,1.838,0,0,0-.534,1.3v2.684a1.831,1.831,0,0,0,1.818,1.838Z" transform="translate(1477.666 -1036.209)" fill="url(#linear-gradient)"/>
    </g>
  </g>
</svg>
