<svg xmlns="http://www.w3.org/2000/svg" xmlns:xlink="http://www.w3.org/1999/xlink" width="138" height="138" viewBox="0 0 138 138">
  <defs>
    <filter id="Ellipse_512" x="0" y="0" width="138" height="138" filterUnits="userSpaceOnUse">
      <feOffset dy="3" input="SourceAlpha"/>
      <feGaussianBlur stdDeviation="3" result="blur"/>
      <feFlood flood-opacity="0.161"/>
      <feComposite operator="in" in2="blur"/>
      <feComposite in="SourceGraphic"/>
    </filter>
    <clipPath id="clip-path">
      <rect id="Rectangle_10097" data-name="Rectangle 10097" width="68.632" height="69.37" fill="none"/>
    </clipPath>
    <clipPath id="clip-path-2">
      <rect id="Rectangle_10027" data-name="Rectangle 10027" width="61.284" height="61.558" fill="none"/>
    </clipPath>
  </defs>
  <g id="Group_3120" data-name="Group 3120" transform="translate(-891 -3116)">
    <g transform="matrix(1, 0, 0, 1, 891, 3116)" filter="url(#Ellipse_512)">
      <circle id="Ellipse_512-2" data-name="Ellipse 512" cx="60" cy="60" r="60" transform="translate(9 6)" fill="#fff"/>
    </g>
    <g id="Group_3069" data-name="Group 3069" transform="translate(926 3147.746)">
      <g id="Group_3068" data-name="Group 3068" clip-path="url(#clip-path)">
        <path id="Path_8162" data-name="Path 8162" d="M127.89,129.169c-.639-1.421-1.312-1.449-1.92-1.474-.5-.021-1.067-.02-1.635-.02a3.134,3.134,0,0,0-2.275,1.067,9.563,9.563,0,0,0-2.986,7.115c0,4.2,3.057,8.253,3.483,8.823s5.9,9.457,14.573,12.877c7.206,2.842,8.673,2.276,10.237,2.134s5.047-2.063,5.758-4.055a7.129,7.129,0,0,0,.5-4.056c-.213-.355-.782-.569-1.635-1s-5.047-2.491-5.829-2.775-1.351-.427-1.92.428-2.2,2.774-2.7,3.343-1,.641-1.849.214a23.336,23.336,0,0,1-6.86-4.234,25.711,25.711,0,0,1-4.746-5.907c-.5-.853-.053-1.315.375-1.741.383-.382.853-1,1.28-1.494a5.842,5.842,0,0,0,.852-1.423,1.57,1.57,0,0,0-.071-1.494c-.213-.427-1.871-4.646-2.63-6.332" transform="translate(-101.945 -109.307)" fill="#fff" fill-rule="evenodd"/>
      </g>
    </g>
    <g id="Group_3006" data-name="Group 3006" transform="translate(929.331 3152.056)">
      <circle id="Ellipse_524" data-name="Ellipse 524" cx="26" cy="26" r="26" transform="translate(4.669 4.944)" fill="#fff"/>
      <g id="Group_3005" data-name="Group 3005" transform="translate(-0.001 0)">
        <g id="Group_3004" data-name="Group 3004" clip-path="url(#clip-path-2)">
          <path id="Path_8073" data-name="Path 8073" d="M60.462,23.613A30.571,30.571,0,0,0,30.645,0a32.379,32.379,0,0,0-5.89.589A30.614,30.614,0,0,0,1.255,38.7a30.979,30.979,0,0,0,2.627,6.484,1.688,1.688,0,0,1,.161,1.373C2.726,51.3,1.435,56.036.136,60.777c-.238.877-.236.88.618.657q7.3-1.917,14.615-3.836a1.577,1.577,0,0,1,1.249.079,30.248,30.248,0,0,0,20.1,2.853,29.3,29.3,0,0,0,3.5-.9A30.676,30.676,0,0,0,60.462,23.613M55.6,35.62a25.593,25.593,0,0,1-17,19.1,25.565,25.565,0,0,1-21.052-2.436,1.776,1.776,0,0,0-1.508-.2c-2.712.737-5.44,1.415-8.155,2.153-.575.154-.623.029-.477-.488.724-2.59,1.408-5.188,2.15-7.776a1.957,1.957,0,0,0-.252-1.76A26.314,26.314,0,0,1,6.669,38.7,25.01,25.01,0,0,1,8.98,17.444c.358-.583.748-1.161,1.162-1.723,5.08-6.9,12.015-10.331,19.337-10.546,13.343-.005,23.706,8.5,26.137,20.453A24.753,24.753,0,0,1,55.6,35.62" transform="translate(0)" fill="#36ce67"/>
          <path id="Path_8074" data-name="Path 8074" d="M61.468,56.419a6.693,6.693,0,0,1-5.519,5.268,8.855,8.855,0,0,1-1.916.147,10.3,10.3,0,0,1-3.23-.5c-7.022-2.005-12.281-6.391-16.512-12.182a17.646,17.646,0,0,1-3.555-7.085,8.708,8.708,0,0,1,.548-5.316,9.361,9.361,0,0,1,2.215-2.99,4.94,4.94,0,0,1,4.059-.544,1.749,1.749,0,0,1,.772.948q1.278,3.043,2.544,6.09a1.527,1.527,0,0,1,.082.265,1.621,1.621,0,0,1-.158,1.011,9.584,9.584,0,0,1-1.893,2.51,1.239,1.239,0,0,0-.189,1.7A20.882,20.882,0,0,0,49.15,54.711a1.239,1.239,0,0,0,1.619-.394c.73-.919,1.485-1.819,2.21-2.745.575-.734.868-.854,1.759-.5,1.593.628,3.1,1.437,4.644,2.183.221.106.44.217.659.322,1.642.8,1.759,1.038,1.427,2.843" transform="translate(-15.374 -16.599)" fill="#36ce67"/>
        </g>
      </g>
    </g>
  </g>
</svg>
