<?xml version="1.0" encoding="utf-8"?>
<!-- Generator: Adobe Illustrator 23.1.0, SVG Export Plug-In . SVG Version: 6.00 Build 0)  -->
<svg version="1.1" id="Layer_1" xmlns="http://www.w3.org/2000/svg" xmlns:xlink="http://www.w3.org/1999/xlink" x="0px" y="0px"
	 viewBox="0 0 6.3 10.8" style="enable-background:new 0 0 6.3 10.8;" xml:space="preserve">
<style type="text/css">
	.st0{fill:#D4D9E2;}
</style>
<g id="Path_9172">
	<path class="st0" d="M1.4,10.4c-0.3,0-0.5-0.1-0.7-0.3c-0.4-0.4-0.4-1,0-1.4L4,5.4L0.7,2.1c-0.4-0.4-0.4-1,0-1.4
		c0.4-0.4,1-0.4,1.4,0l3.8,3.8c0.2,0.2,0.4,0.6,0.4,0.9c0,0.3-0.1,0.7-0.4,0.9l-3.8,3.8C1.9,10.3,1.7,10.4,1.4,10.4z M4.5,5.9
		C4.5,5.9,4.5,5.9,4.5,5.9L4.5,5.9z"/>
</g>
</svg>
