<?xml version="1.0" encoding="utf-8"?>
<!-- Generator: Adobe Illustrator 23.1.0, SVG Export Plug-In . SVG Version: 6.00 Build 0)  -->
<svg version="1.1" id="Layer_1" xmlns="http://www.w3.org/2000/svg" xmlns:xlink="http://www.w3.org/1999/xlink" x="0px" y="0px"
	 viewBox="0 0 118 108" style="enable-background:new 0 0 118 108;" xml:space="preserve">
<style type="text/css">
	.st0{fill:#FFFFFF;}
</style>
<g>
	<path class="st0" d="M63.66,107.92H3.97c-1.63,0-3.02-1-3.55-2.54c-0.53-1.54-0.04-3.19,1.25-4.19L16.1,89.98
		c2.73-2.12,3.47-5.99,1.73-9.01c-6.96-12.09-8.88-26.44-5.42-40.42c4.73-19.1,19.57-33.81,38.74-38.4
		c15.98-3.83,32.51-0.51,45.34,9.11c12.84,9.62,20.65,24.3,21.45,40.28l0,0c0.73,14.68-4.5,28.67-14.71,39.41
		C92.96,101.73,78.54,107.92,63.66,107.92z M6.13,103.42h57.52c13.66,0,26.89-5.67,36.3-15.57c9.36-9.83,14.14-22.65,13.48-36.08
		c-0.73-14.64-7.89-28.09-19.65-36.9c-11.93-8.94-26.7-11.9-41.59-8.33c-17.53,4.2-31.1,17.65-35.42,35.1
		c-3.18,12.85-1.42,26.02,4.96,37.1c2.85,4.95,1.62,11.32-2.87,14.81L6.13,103.42z"/>
</g>
</svg>
