<?xml version="1.0" encoding="utf-8"?>
<!-- Generator: Adobe Illustrator 23.1.0, SVG Export Plug-In . SVG Version: 6.00 Build 0)  -->
<svg version="1.1" id="Layer_1" xmlns="http://www.w3.org/2000/svg" xmlns:xlink="http://www.w3.org/1999/xlink" x="0px" y="0px"
	 viewBox="0 0 69 63" style="enable-background:new 0 0 69 63;" xml:space="preserve">
<style type="text/css">
	.st0{fill:#FFFFFF;}
</style>
<g>
	<path class="st0" d="M65.68,62.56H31.81c-8.77,0-17.25-3.63-23.27-9.95c-5.91-6.21-8.93-14.29-8.5-22.74l0,0
		C0.5,20.67,5.02,12.2,12.45,6.62c7.53-5.66,17.26-7.62,26.68-5.39c11.23,2.66,19.94,11.2,22.71,22.28
		c2.03,8.1,0.9,16.43-3.18,23.44c-0.75,1.28-0.44,2.87,0.73,3.77l8.19,6.29c1.05,0.81,1.47,2.2,1.04,3.45
		C68.19,61.72,67.01,62.56,65.68,62.56z M4.53,30.09C4.17,37.3,6.75,44.2,11.8,49.51c5.17,5.44,12.46,8.55,20.01,8.55h29.75
		l-4.91-3.78c-2.94-2.26-3.75-6.39-1.88-9.6c3.49-5.99,4.45-13.13,2.71-20.09C55.11,15.15,47.68,7.88,38.09,5.6
		c-8.23-1.95-16.38-0.31-22.94,4.61C8.8,14.99,4.92,22.23,4.53,30.09L4.53,30.09z"/>
</g>
</svg>
