<?xml version="1.0" encoding="utf-8"?>
<!-- Generator: Adobe Illustrator 23.1.0, SVG Export Plug-In . SVG Version: 6.00 Build 0)  -->
<svg version="1.1" id="Capa_1" xmlns="http://www.w3.org/2000/svg" xmlns:xlink="http://www.w3.org/1999/xlink" x="0px" y="0px"
	 width="14px" height="14px" viewBox="0 0 14 14" style="enable-background:new 0 0 14 14;" xml:space="preserve">
<style type="text/css">
	.st0{fill:#DC3545;}
</style>
<g>
	<g>
		<path class="st0" d="M11.9,2.1C10.6,0.7,8.9,0,7,0C5.1,0,3.4,0.7,2.1,2.1C0.7,3.4,0,5.1,0,7s0.7,3.6,2.1,4.9C3.4,13.3,5.1,14,7,14
			s3.6-0.7,4.9-2.1C13.3,10.6,14,8.9,14,7S13.3,3.4,11.9,2.1z M10.3,5.3L6.4,9.2C6.4,9.3,6.2,9.4,6.1,9.4c-0.1,0-0.2,0-0.3-0.1
			L3.7,7c-0.2-0.2-0.2-0.4,0-0.6c0.2-0.2,0.4-0.2,0.6,0l1.9,1.9l3.6-3.6c0.2-0.2,0.4-0.2,0.6,0C10.5,4.9,10.5,5.2,10.3,5.3z"/>
	</g>
</g>
</svg>
