<svg xmlns="http://www.w3.org/2000/svg" width="10" height="9.581" viewBox="0 0 10 9.581">
  <g id="streamline-icon-dislike-2-alternate_24x24" data-name="streamline-icon-dislike-2-alternate@24x24" transform="translate(-0.124 -0.623)">
    <path id="Path_3542" data-name="Path 3542" d="M.174,5.34a1.158,1.158,0,0,0,1.107,1.5H3.631a.526.526,0,0,1,.475.753l-.6,1.26a1.021,1.021,0,0,0,.177.972,1.037,1.037,0,0,0,1.653-.056L7.393,6.847a.529.529,0,0,1,.43-.223.2.2,0,0,0,.2-.2h0V1.666A.211.211,0,0,0,7.9,1.476,6.092,6.092,0,0,0,4.556.623c-.146,0-.977.008-1.28.008-1.128,0-1.879.656-2.3,2.012l-.8,2.682ZM8.65,6.625h.011a.631.631,0,0,0,.621.526h.632a.211.211,0,0,0,.211-.211V1.046A.211.211,0,0,0,9.913.835H9.282a.632.632,0,0,0-.632.632Z" transform="translate(0)" fill="#233659"/>
  </g>
</svg>
