<?xml version="1.0" encoding="utf-8"?>
<!-- Generator: Adobe Illustrator 23.1.0, SVG Export Plug-In . SVG Version: 6.00 Build 0)  -->
<svg version="1.1" id="Layer_1" xmlns="http://www.w3.org/2000/svg" xmlns:xlink="http://www.w3.org/1999/xlink" x="0px" y="0px"
	 width="13.2px" height="8.2px" viewBox="0 0 13.2 8.2" style="enable-background:new 0 0 13.2 8.2;" xml:space="preserve">
<style type="text/css">
	.st0{fill:#4A4E57;}
</style>
<g id="streamline-icon-arrow-down-1_24x24" transform="translate(-0.028 -4.469)">
	<path id="Path_3494" class="st0" d="M6.6,12.6c-0.4,0-0.7-0.2-0.9-0.4L0.4,6.2c-0.4-0.4-0.3-1,0.1-1.4s1-0.3,1.4,0.1l0,0l4.6,5.2
		c0,0.1,0.1,0.1,0.2,0c0,0,0,0,0,0l0,0l4.6-5.2c0.3-0.4,1-0.5,1.4-0.1s0.5,1,0.1,1.4l0,0l0,0l-5.2,5.9C7.3,12.4,6.9,12.6,6.6,12.6z"
		/>
</g>
</svg>
