<?xml version="1.0" encoding="utf-8"?>
<!-- Generator: Adobe Illustrator 23.1.0, SVG Export Plug-In . SVG Version: 6.00 Build 0)  -->
<svg version="1.1" id="Layer_1" xmlns="http://www.w3.org/2000/svg" xmlns:xlink="http://www.w3.org/1999/xlink" x="0px" y="0px"
	 width="64px" height="64px" viewBox="0 0 64 64" style="enable-background:new 0 0 64 64;" xml:space="preserve">
<style type="text/css">
	.st0{enable-background:new    ;}
	.st1{fill:#FFFFFF;}
</style>
<g class="st0">
	<path class="st1" d="M22.1,41.8c2,0,3.9,0.2,5.8,0.5c1.9,0.4,3.7,0.9,5.5,1.6c1.8,0.7,3.6,1.5,5.2,2.5c1.7,1,3.2,2.1,4.7,3.4
		c0.4,0.3,0.6,0.7,0.6,1.2c0,0.5-0.1,0.9-0.5,1.3c-0.2,0.2-0.4,0.3-0.6,0.4c-0.2,0.1-0.5,0.2-0.7,0.2c-0.2,0-0.4,0-0.6-0.1
		c-0.2-0.1-0.4-0.2-0.6-0.3c-1.3-1.2-2.7-2.2-4.1-3.1c-1.5-0.9-3-1.7-4.6-2.3c-1.6-0.6-3.3-1.1-5-1.3c-1.7-0.3-3.4-0.5-5.1-0.5
		s-3.5,0.2-5.1,0.5c-1.7,0.3-3.4,0.7-4.9,1.3c-1.6,0.6-3.1,1.4-4.6,2.3c-1.5,0.9-2.9,1.9-4.2,3.1c-0.4,0.3-0.8,0.4-1.3,0.4
		c-0.5,0-0.9-0.2-1.2-0.5c-0.3-0.4-0.4-0.9-0.4-1.3c0-0.5,0.2-0.9,0.5-1.2c1.5-1.3,3-2.4,4.7-3.4c1.7-1,3.4-1.8,5.2-2.5
		c1.8-0.7,3.6-1.2,5.5-1.6C18.2,42,20.1,41.8,22.1,41.8z M22.1,35.1c-3.3,0-6.2-1.2-8.5-3.5c-2.3-2.3-3.5-5.2-3.5-8.5
		c0-3.3,1.2-6.2,3.5-8.5c2.3-2.4,5.2-3.5,8.5-3.5c3.3,0,6.2,1.2,8.5,3.5c2.4,2.4,3.5,5.2,3.5,8.5c0,3.3-1.2,6.2-3.5,8.5
		C28.2,34,25.4,35.1,22.1,35.1z M16,17.1c-1.6,1.7-2.5,3.7-2.5,6c0,2.3,0.8,4.3,2.5,6c1.7,1.7,3.7,2.5,6,2.5c2.3,0,4.3-0.8,6-2.5
		c1.7-1.7,2.5-3.7,2.5-6c0-2.3-0.8-4.3-2.5-6c-1.7-1.7-3.7-2.5-6-2.5C19.7,14.6,17.7,15.4,16,17.1z M42.3,33.6
		c-1.5-1.5-2.2-3.2-2.2-5.3c0-2.1,0.7-3.9,2.2-5.3c1.5-1.5,3.2-2.2,5.3-2.2c2,0,3.8,0.7,5.3,2.2c1.5,1.5,2.2,3.2,2.2,5.3
		c0,2-0.7,3.8-2.2,5.3c-1.5,1.5-3.2,2.2-5.3,2.2C45.5,35.8,43.8,35,42.3,33.6z M63.7,47.8c0,0.5-0.1,0.9-0.4,1.3
		c-0.2,0.2-0.4,0.4-0.7,0.5c-0.2,0.1-0.5,0.2-0.7,0.2c-0.2,0-0.4,0-0.6-0.1c-0.2-0.1-0.4-0.2-0.6-0.4c-1.8-1.6-3.8-2.8-6.1-3.7
		c-2.3-0.9-4.6-1.3-7-1.3c-0.9,0-1.7,0-2.6,0.1c-0.9,0.1-1.7,0.3-2.5,0.5c-0.5,0.1-1,0.1-1.4-0.2c-0.4-0.2-0.7-0.6-0.8-1.1
		c-0.1-0.5-0.1-0.9,0.2-1.3c0.2-0.4,0.6-0.7,1.1-0.8c1-0.3,1.9-0.5,2.9-0.6s2-0.2,3.1-0.2c2.9,0,5.6,0.5,8.3,1.5
		c2.6,1,5.1,2.5,7.2,4.3C63.5,47,63.6,47.4,63.7,47.8z M44.8,25.4c-0.8,0.8-1.2,1.7-1.2,2.8c0,1.1,0.4,2,1.2,2.8
		c0.8,0.8,1.7,1.2,2.8,1.2c1.1,0,2-0.4,2.8-1.2c0.8-0.8,1.2-1.7,1.2-2.8c0-1.1-0.4-2.1-1.2-2.8c-0.8-0.8-1.7-1.2-2.8-1.2
		C46.5,24.3,45.6,24.6,44.8,25.4z"/>
</g>
</svg>
