<svg xmlns="http://www.w3.org/2000/svg" width="121.514" height="40" viewBox="0 0 121.514 40">
  <g id="Google_2015_logo" transform="translate(-0.36 -0.47)">
    <path id="Path_3885" data-name="Path 3885" d="M92.531,35.607A10.641,10.641,0,1,1,81.891,25,10.476,10.476,0,0,1,92.531,35.607Zm-4.658,0a6,6,0,1,0-11.965,0,6,6,0,1,0,11.965,0Z" transform="translate(-39.33 -14.151)" fill="#fff"/>
    <path id="Path_3886" data-name="Path 3886" d="M140.531,35.607A10.641,10.641,0,1,1,129.891,25,10.476,10.476,0,0,1,140.531,35.607Zm-4.658,0a6,6,0,1,0-11.965,0,6,6,0,1,0,11.965,0Z" transform="translate(-65.96 -14.151)" fill="#fff"/>
    <path id="Path_3887" data-name="Path 3887" d="M187.565,25.641V44.684c0,7.833-4.62,11.033-10.081,11.033a10.1,10.1,0,0,1-9.4-6.251l4.055-1.688a5.859,5.859,0,0,0,5.342,3.764c3.5,0,5.662-2.157,5.662-6.217V43.8h-.163a7.222,7.222,0,0,1-5.586,2.41,10.614,10.614,0,0,1,0-21.21,7.351,7.351,0,0,1,5.586,2.372h.163V25.646h4.424Zm-4.094,10c0-3.735-2.492-6.466-5.662-6.466-3.214,0-5.906,2.731-5.906,6.466a6.088,6.088,0,0,0,5.906,6.389C180.979,42.035,183.471,39.342,183.471,35.646Z" transform="translate(-92.531 -15.247)" fill="#fff"/>
    <path id="Path_3888" data-name="Path 3888" d="M220.043,3V34.085H215.5V3Z" transform="translate(-118.403 -1.32)" fill="#fff"/>
    <path id="Path_3889" data-name="Path 3889" d="M244.838,39.093l3.615,2.41a10.558,10.558,0,0,1-8.838,4.7A10.378,10.378,0,0,1,229.09,35.6c0-6.308,4.538-10.607,10-10.607,5.5,0,8.2,4.381,9.077,6.748l.483,1.205-14.18,5.873a5.4,5.4,0,0,0,5.141,3.214,6.054,6.054,0,0,0,5.222-2.936ZM233.71,35.277l9.479-3.936a4.107,4.107,0,0,0-3.936-2.248A5.818,5.818,0,0,0,233.71,35.277Z" transform="translate(-126.78 -14.146)" fill="#fff"/>
    <path id="Path_3890" data-name="Path 3890" d="M17.065,20.049v-4.5H32.23a14.911,14.911,0,0,1,.225,2.716c0,3.376-.923,7.551-3.9,10.526a15.061,15.061,0,0,1-11.487,4.62A16.7,16.7,0,0,1,.36,16.94,16.7,16.7,0,0,1,17.07.47,15.694,15.694,0,0,1,28.356,5.008L25.18,8.184A11.471,11.471,0,0,0,17.065,4.97,11.815,11.815,0,0,0,5.252,16.94a11.815,11.815,0,0,0,11.812,11.97,11.019,11.019,0,0,0,8.317-3.3,9.328,9.328,0,0,0,2.439-5.571Z" fill="#fff"/>
  </g>
</svg>
