<svg id="Icons_Check_Mark_Outlined" data-name="Icons / Check Mark / Outlined" xmlns="http://www.w3.org/2000/svg" width="15" height="15" viewBox="0 0 15 15">
  <path id="Combined_Shape" data-name="Combined Shape" d="M7.5,15A7.5,7.5,0,1,1,15,7.5,7.508,7.508,0,0,1,7.5,15ZM4.875,7.125a.75.75,0,0,0-.531,1.28l1.5,1.5a.8.8,0,0,0,.063.056l.007.007a.75.75,0,0,0,.948-.024l.005,0,.01-.009.014-.013L6.905,9.9l3.75-3.75.062-.071a.75.75,0,0,0-1.123-.99L6.375,8.315l-.97-.97-.071-.063A.752.752,0,0,0,4.875,7.125Z" fill="#8cc63f"/>
</svg>
