<svg xmlns="http://www.w3.org/2000/svg" width="22" height="19.25" viewBox="0 0 22 19.25">
  <path id="sms-solid" d="M11,32C4.924,32,0,36,0,40.938a7.933,7.933,0,0,0,2.449,5.616A10.931,10.931,0,0,1,.095,50.67a.342.342,0,0,0-.064.374.337.337,0,0,0,.314.206,9.827,9.827,0,0,0,6.041-2.209A13.1,13.1,0,0,0,11,49.875c6.076,0,11-4,11-8.937S17.076,32,11,32ZM5.509,43.688H4.984a.345.345,0,0,1-.344-.344v-.687a.345.345,0,0,1,.344-.344h.529c.258,0,.447-.15.447-.284a.227.227,0,0,0-.09-.163l-.941-.808a1.588,1.588,0,0,1-.571-1.207,1.747,1.747,0,0,1,1.822-1.659H6.7a.345.345,0,0,1,.344.344v.688a.345.345,0,0,1-.344.344H6.175c-.258,0-.447.15-.447.284a.227.227,0,0,0,.09.163l.941.808a1.588,1.588,0,0,1,.571,1.207,1.744,1.744,0,0,1-1.822,1.659Zm8.241-.344a.345.345,0,0,1-.344.344h-.687a.345.345,0,0,1-.344-.344v-2.93l-1.066,2.4a.343.343,0,0,1-.614,0l-1.07-2.4v2.93a.345.345,0,0,1-.344.344H8.594a.345.345,0,0,1-.344-.344V38.875a.69.69,0,0,1,.688-.687h.688a.684.684,0,0,1,.614.378L11,40.087l.761-1.521a.689.689,0,0,1,.614-.378h.688a.69.69,0,0,1,.688.688Zm2.075.344H15.3a.345.345,0,0,1-.344-.344v-.687a.345.345,0,0,1,.344-.344h.529c.258,0,.447-.15.447-.284a.227.227,0,0,0-.09-.163l-.941-.808a1.588,1.588,0,0,1-.571-1.207,1.747,1.747,0,0,1,1.822-1.659h.524a.345.345,0,0,1,.344.344v.688a.345.345,0,0,1-.344.344h-.529c-.258,0-.447.15-.447.284a.227.227,0,0,0,.09.163l.941.808a1.588,1.588,0,0,1,.571,1.207,1.74,1.74,0,0,1-1.818,1.659Z" transform="translate(0 -32)" fill="#313538"/>
</svg>
