<svg xmlns="http://www.w3.org/2000/svg" width="10" height="9.581" viewBox="0 0 10 9.581">
  <g id="streamline-icon-like-2_24x24" data-name="streamline-icon-like-2@24x24" transform="translate(-0.126 -0.623)">
    <path id="Path_3541" data-name="Path 3541" d="M10.075,5.486a1.158,1.158,0,0,0-1.107-1.5H6.619a.526.526,0,0,1-.475-.753l.6-1.26a1.021,1.021,0,0,0-.177-.972,1.037,1.037,0,0,0-1.653.056L2.856,3.979a.529.529,0,0,1-.43.223.2.2,0,0,0-.2.2V9.16a.211.211,0,0,0,.119.189,6.085,6.085,0,0,0,3.344.854c.146,0,.977-.008,1.28-.008,1.128,0,1.879-.655,2.3-2.012l.8-2.682ZM1.6,4.2H1.589a.631.631,0,0,0-.621-.526H.337a.211.211,0,0,0-.211.211V9.781a.211.211,0,0,0,.211.211H.968A.632.632,0,0,0,1.6,9.359Z" transform="translate(0 0)" fill="#233659"/>
  </g>
</svg>
