<?xml version="1.0" encoding="utf-8"?>
<!-- Generator: Adobe Illustrator 23.1.0, SVG Export Plug-In . SVG Version: 6.00 Build 0)  -->
<svg version="1.1" id="Layer_1" xmlns="http://www.w3.org/2000/svg" xmlns:xlink="http://www.w3.org/1999/xlink" x="0px" y="0px"
	 viewBox="0 0 46 46" style="enable-background:new 0 0 46 46;" xml:space="preserve">
<style type="text/css">
	.st0{fill:#FFFFFF;}
</style>
<g>
	<path class="st0" d="M16.5,12c0-1.7-1.4-3.1-3.1-3.1c-1.7,0-3.1,1.4-3.1,3.1c0,1.7,1.4,3.1,3.1,3.1C15.1,15.1,16.5,13.7,16.5,12
		 M16,25.9c0-2.7,0-5.4,0-8.1c0-0.3-0.1-0.4-0.4-0.4c-1.5,0-3,0-4.5,0c-0.3,0-0.4,0.1-0.4,0.4c0,5.5,0,10.9,0,16.4
		c0,0.3,0.1,0.4,0.4,0.4c1.5,0,3,0,4.5,0c0.4,0,0.5-0.1,0.5-0.5C16,31.3,16,28.6,16,25.9 M24.5,19.7c0-0.6,0-1.3,0-1.9
		c0-0.3-0.1-0.3-0.3-0.3c-1.5,0-2.9,0-4.4,0c-0.3,0-0.4,0.1-0.4,0.4c0,5.5,0,10.9,0,16.4c0,0.3,0.1,0.4,0.4,0.4c1.5,0,2.9,0,4.4,0
		c0.4,0,0.6-0.1,0.6-0.6c0-2.5,0-5.1,0-7.6c0-0.7,0-1.4,0.1-2.1c0.4-2.3,2-2.9,3.9-2.5c0.7,0.1,1.2,0.6,1.5,1.2
		c0.3,0.6,0.4,1.3,0.4,2c0,3,0,6.1,0,9.1c0,0.3,0.1,0.5,0.4,0.5c1.5,0,3,0,4.5,0c0.4,0,0.4-0.1,0.4-0.4c0-3.2,0-6.4,0-9.6
		c0-1.1-0.1-2.1-0.4-3.2c-0.4-1.7-1.3-3.2-3-3.9c-1.4-0.5-2.9-0.7-4.3-0.4C26.7,17.4,25.4,18.3,24.5,19.7 M46,20.7v4.8
		c-0.2,0-0.1,0.2-0.2,0.3c-0.1,0.6-0.2,1.3-0.3,1.9c-2,9.6-9.9,16.9-19.6,18c-0.1,0-0.3-0.1-0.3,0.2h-4.8c0-0.2-0.2-0.1-0.3-0.2
		c-0.6-0.1-1.3-0.2-1.9-0.3c-9.6-2-16.9-9.9-18-19.6c0-0.1,0.1-0.3-0.2-0.3v-4.8c0.2,0,0.1-0.2,0.2-0.3c0.1-0.6,0.2-1.3,0.3-1.9
		c2-9.6,9.9-16.9,19.6-18c0.1,0,0.3,0.1,0.3-0.2h4.8c0,0.2,0.2,0.1,0.3,0.2c0.6,0.1,1.3,0.2,1.9,0.3c9.6,2,16.9,9.9,18,19.6
		C45.8,20.5,45.7,20.7,46,20.7"/>
</g>
</svg>
