<?xml version="1.0" encoding="utf-8"?>
<!-- Generator: Adobe Illustrator 23.1.0, SVG Export Plug-In . SVG Version: 6.00 Build 0)  -->
<svg version="1.1" id="Layer_1" xmlns="http://www.w3.org/2000/svg" xmlns:xlink="http://www.w3.org/1999/xlink" x="0px" y="0px"
	 width="64px" height="64px" viewBox="0 0 64 64" style="enable-background:new 0 0 64 64;" xml:space="preserve">
<style type="text/css">
	.st0{enable-background:new    ;}
	.st1{fill:#FFFFFF;}
</style>
<g class="st0">
	<path class="st1" d="M9.2,56.3c-0.2,0-0.3-0.1-0.5-0.2c-0.5-0.2-0.8-0.5-1.1-1c-0.3-0.4-0.4-0.9-0.4-1.4v-9.6H4.5
		c-0.7,0-1.3-0.3-1.8-0.8C2.2,43,2,42.4,2,41.7V10.1c0-0.7,0.3-1.3,0.8-1.8s1-0.7,1.7-0.7h54.8c0.7,0,1.3,0.3,1.8,0.8
		s0.8,1.1,0.8,1.8v31.7c0,0.7-0.3,1.3-0.8,1.8s-1.1,0.7-1.8,0.7H23.8L11.3,55.7c-0.2,0.2-0.5,0.4-0.8,0.5s-0.6,0.2-0.9,0.2
		C9.5,56.4,9.4,56.3,9.2,56.3z M8.3,40.7c0.7,0,1.2,0.2,1.7,0.7s0.7,1.1,0.7,1.7v8.4l11.1-10.1c0.3-0.2,0.5-0.4,0.8-0.5
		s0.6-0.2,0.8-0.2h35V11.1H5.5v29.6H8.3z"/>
</g>
</svg>
