<svg xmlns="http://www.w3.org/2000/svg" width="56.056" height="56.418" viewBox="0 0 56.056 56.418">
  <g id="streamline-icon-human-resources-employee_40x40" data-name="streamline-icon-human-resources-employee@40x40" transform="translate(-0.23 -0.243)">
    <path id="Path_3731" data-name="Path 3731" d="M22.249,1.891a1.167,1.167,0,0,1,2.084,0l2.422,4.883a1.158,1.158,0,0,0,.871.629l5.435.785A1.153,1.153,0,0,1,34,8.964a1.127,1.127,0,0,1-.29,1.169L29.773,13.96a1.136,1.136,0,0,0-.331,1.006l.931,5.394a1.136,1.136,0,0,1-.466,1.116,1.169,1.169,0,0,1-1.222.084l-4.852-2.53a1.157,1.157,0,0,0-1.085,0l-4.84,2.53a1.169,1.169,0,0,1-1.222-.084,1.136,1.136,0,0,1-.466-1.116l.931-5.394a1.136,1.136,0,0,0-.331-1.006l-3.944-3.827a1.127,1.127,0,0,1-.29-1.169,1.153,1.153,0,0,1,.934-.775L18.955,7.4a1.158,1.158,0,0,0,.871-.629Z" transform="translate(4.967)" fill="none" stroke="#233659" stroke-linecap="round" stroke-linejoin="round" stroke-width="2"/>
    <path id="Path_3732" data-name="Path 3732" d="M14.627,22.6l-2.072-1.08a1.176,1.176,0,0,0-1.088,0L6.63,24.041a1.178,1.178,0,0,1-1.224-.082,1.136,1.136,0,0,1-.463-1.119l.929-5.392a1.128,1.128,0,0,0-.329-1.006L1.6,12.623a1.132,1.132,0,0,1-.288-1.169,1.153,1.153,0,0,1,.934-.775l5.433-.785a1.157,1.157,0,0,0,.874-.629l2.425-4.883a1.158,1.158,0,0,1,1.042-.641" transform="translate(0 1.097)" fill="none" stroke="#233659" stroke-linecap="round" stroke-linejoin="round" stroke-width="2"/>
    <path id="Path_3733" data-name="Path 3733" d="M29.463,22.6l2.072-1.083a1.176,1.176,0,0,1,1.088,0l4.837,2.523a1.178,1.178,0,0,0,1.224-.082,1.136,1.136,0,0,0,.463-1.119l-.929-5.392a1.128,1.128,0,0,1,.329-1.006l3.947-3.829a1.132,1.132,0,0,0,.288-1.169,1.153,1.153,0,0,0-.934-.775l-5.433-.785a1.157,1.157,0,0,1-.874-.629L33.117,4.381a1.158,1.158,0,0,0-1.042-.641" transform="translate(12.426 1.097)" fill="none" stroke="#233659" stroke-linecap="round" stroke-linejoin="round" stroke-width="2"/>
    <path id="Path_3734" data-name="Path 3734" d="M35.757,40.413a16.032,16.032,0,0,0-24.132,0" transform="translate(4.569 14.837)" fill="none" stroke="#233659" stroke-linecap="round" stroke-linejoin="round" stroke-width="2"/>
    <path id="Path_3735" data-name="Path 3735" d="M23.028,18.685a9.9,9.9,0,1,1-9.9,9.9A9.9,9.9,0,0,1,23.028,18.685Z" transform="translate(5.23 7.679)" fill="none" stroke="#233659" stroke-linecap="round" stroke-linejoin="round" stroke-width="2"/>
  </g>
</svg>
