<svg xmlns="http://www.w3.org/2000/svg" width="52.706" height="52.353" viewBox="0 0 52.706 52.353">
  <g id="streamline-icon-multiple-users-2_40x40" data-name="streamline-icon-multiple-users-2@40x40" transform="translate(0.103 -0.25)">
    <path id="Path_3669" data-name="Path 3669" d="M38.75,20.417a1.667,1.667,0,0,0-1.667-1.667H10.417A1.667,1.667,0,0,0,8.75,20.417" transform="translate(2.5 5.833)" fill="none" stroke="#233659" stroke-linecap="round" stroke-linejoin="round" stroke-width="2"/>
    <path id="Path_3670" data-name="Path 3670" d="M8.958,25a5.833,5.833,0,1,1-5.833,5.833A5.833,5.833,0,0,1,8.958,25Z" transform="translate(0.625 7.917)" fill="none" stroke="#233659" stroke-linecap="round" stroke-linejoin="round" stroke-width="2"/>
    <path id="Path_3671" data-name="Path 3671" d="M17.917,40A9.444,9.444,0,0,0,1.25,40" transform="translate(0 11.249)" fill="none" stroke="#233659" stroke-linecap="round" stroke-linejoin="round" stroke-width="2"/>
    <path id="Path_3672" data-name="Path 3672" d="M33.958,25a5.833,5.833,0,1,1-5.833,5.833A5.833,5.833,0,0,1,33.958,25Z" transform="translate(8.958 7.917)" fill="none" stroke="#233659" stroke-linecap="round" stroke-linejoin="round" stroke-width="2"/>
    <path id="Path_3673" data-name="Path 3673" d="M42.917,40A9.444,9.444,0,0,0,26.25,40" transform="translate(8.333 11.249)" fill="none" stroke="#233659" stroke-linecap="round" stroke-linejoin="round" stroke-width="2"/>
    <path id="Path_3674" data-name="Path 3674" d="M21.458,1.25a5.833,5.833,0,1,1-5.833,5.833A5.833,5.833,0,0,1,21.458,1.25Z" transform="translate(4.792 0)" fill="none" stroke="#233659" stroke-linecap="round" stroke-linejoin="round" stroke-width="2"/>
    <path id="Path_3675" data-name="Path 3675" d="M29.026,14.584a9.486,9.486,0,0,0-13.373-1.071,9.749,9.749,0,0,0-1.071,1.071" transform="translate(4.444 3.333)" fill="none" stroke="#233659" stroke-linecap="round" stroke-linejoin="round" stroke-width="2"/>
  </g>
</svg>
