<svg xmlns="http://www.w3.org/2000/svg" width="45.349" height="27.459" viewBox="0 0 45.349 27.459">
  <g id="streamline-icon-business-deal-handshake_24x24" data-name="streamline-icon-business-deal-handshake@24x24" transform="translate(0 -4.774)">
    <path id="Path_3514" data-name="Path 3514" d="M25.213,14.34,15.13,16.267" transform="translate(13.602 8.343)" fill="none" stroke="#fff" stroke-linecap="round" stroke-linejoin="round" stroke-width="1.5"/>
    <path id="Path_3515" data-name="Path 3515" d="M19.169,11.278l-6.777,2.239a2.249,2.249,0,0,1-2.746-1.194,2.276,2.276,0,0,1,1.034-2.99l6.564-3.3a4.577,4.577,0,0,1,3.637-.211L30.6,9.377" transform="translate(8.168 0)" fill="none" stroke="#fff" stroke-linecap="round" stroke-linejoin="round" stroke-width="1.5"/>
    <path id="Path_3516" data-name="Path 3516" d="M3.685,19.492H8.463l6.863,7.691a2.622,2.622,0,0,0,4.608-1.712v-1.2l.342.137a3.235,3.235,0,0,0,4.438-3h.956a2.869,2.869,0,0,0,2.294-4.588L21.829,8.956" transform="translate(2.8 3.187)" fill="none" stroke="#fff" stroke-linecap="round" stroke-linejoin="round" stroke-width="1.5"/>
    <path id="Path_3517" data-name="Path 3517" d="M17.1,7.9l-.7-.576a4.092,4.092,0,0,0-3.955-.5l-8.7,3.478" transform="translate(2.862 0.933)" fill="none" stroke="#fff" stroke-linecap="round" stroke-linejoin="round" stroke-width="1.5"/>
    <path id="Path_3518" data-name="Path 3518" d="M.75,6.751H4.658a1.877,1.877,0,0,1,1.954,1.79V21.08a1.879,1.879,0,0,1-1.954,1.792H.75" transform="translate(0 1.151)" fill="none" stroke="#fff" stroke-linecap="round" stroke-linejoin="round" stroke-width="1.5"/>
    <path id="Path_3519" data-name="Path 3519" d="M26.112,22.872H22.2A1.879,1.879,0,0,1,20.25,21.08V8.541A1.877,1.877,0,0,1,22.2,6.751h3.908" transform="translate(18.487 1.151)" fill="none" stroke="#fff" stroke-linecap="round" stroke-linejoin="round" stroke-width="1.5"/>
    <path id="Path_3520" data-name="Path 3520" d="M12.933,17.726l-1.911-1.911" transform="translate(9.744 9.731)" fill="none" stroke="#fff" stroke-linecap="round" stroke-linejoin="round" stroke-width="1.5"/>
    <path id="Path_3521" data-name="Path 3521" d="M15.847,16.727l-2.869-2.869" transform="translate(11.598 7.884)" fill="none" stroke="#fff" stroke-linecap="round" stroke-linejoin="round" stroke-width="1.5"/>
  </g>
</svg>
