<svg xmlns="http://www.w3.org/2000/svg" width="36.841" height="37.414" viewBox="0 0 36.841 37.414">
  <g id="streamline-icon-idea-strategy_40x40" data-name="streamline-icon-idea-strategy@40x40" transform="translate(-0.335 0.164)">
    <path id="Path_3631" data-name="Path 3631" d="M5.69,30.04A4.355,4.355,0,1,1,1.335,34.4,4.355,4.355,0,0,1,5.69,30.04Z" transform="translate(0 -2.5)" fill="none" stroke="#183965" stroke-linecap="round" stroke-linejoin="round" stroke-width="2"/>
    <path id="Path_3632" data-name="Path 3632" d="M15.852,30.283h8.3v8.3h-8.3Z" transform="translate(-1.244 -2.5)" fill="none" stroke="#183965" stroke-linecap="round" stroke-linejoin="round" stroke-width="2"/>
    <path id="Path_3633" data-name="Path 3633" d="M38.665,38.578H28.71l4.977-9.125Z" transform="translate(-2.489 -2.5)" fill="none" stroke="#183965" stroke-linecap="round" stroke-linejoin="round" stroke-width="2"/>
    <path id="Path_3634" data-name="Path 3634" d="M26.222,7.642a6.222,6.222,0,1,0-8.71,5.692v3.018h4.977V13.333A6.217,6.217,0,0,0,26.222,7.642Z" transform="translate(-1.244)" fill="none" stroke="#183965" stroke-linecap="round" stroke-linejoin="round" stroke-width="2"/>
    <path id="Path_3635" data-name="Path 3635" d="M5.9,25.72V21.573H31.613V25.72" transform="translate(0 -1.523)" fill="none" stroke="#183965" stroke-linecap="round" stroke-linejoin="round" stroke-width="2"/>
    <path id="Path_3636" data-name="Path 3636" d="M32.958,8.715h2.488" transform="translate(-2.489 -0.034)" fill="none" stroke="#183965" stroke-linecap="round" stroke-linejoin="round" stroke-width="2"/>
    <path id="Path_3637" data-name="Path 3637" d="M32.443,14.422l1.758,1.76" transform="translate(-2.489 -0.921)" fill="none" stroke="#183965" stroke-linecap="round" stroke-linejoin="round" stroke-width="2"/>
    <path id="Path_3638" data-name="Path 3638" d="M32.443,3.01,34.2,1.25" transform="translate(-2.489)" fill="none" stroke="#183965" stroke-linecap="round" stroke-linejoin="round" stroke-width="2"/>
    <path id="Path_3639" data-name="Path 3639" d="M7.042,8.715H4.553" transform="translate(0 -0.034)" fill="none" stroke="#183965" stroke-linecap="round" stroke-linejoin="round" stroke-width="2"/>
    <path id="Path_3640" data-name="Path 3640" d="M7.557,14.422,5.8,16.182" transform="translate(0 -0.921)" fill="none" stroke="#183965" stroke-linecap="round" stroke-linejoin="round" stroke-width="2"/>
    <path id="Path_3641" data-name="Path 3641" d="M7.557,3.01,5.8,1.25" fill="none" stroke="#183965" stroke-linecap="round" stroke-linejoin="round" stroke-width="2"/>
    <path id="Path_3642" data-name="Path 3642" d="M20,16.352v8.54" transform="translate(-1.244 -1.304)" fill="none" stroke="#183965" stroke-linecap="round" stroke-linejoin="round" stroke-width="2"/>
  </g>
</svg>
