<svg xmlns="http://www.w3.org/2000/svg" width="38" height="38" viewBox="0 0 38 38">
  <g id="streamline-icon-earth-move_140x140" data-name="streamline-icon-earth-move@140x140" transform="translate(-3.375 -3.375)">
    <path id="Path_3811" data-name="Path 3811" d="M30.625,41.358A10.733,10.733,0,1,0,41.358,30.625,10.733,10.733,0,0,0,30.625,41.358Z" transform="translate(-18.983 -18.983)" fill="none" stroke="#2cc4ec" stroke-linecap="round" stroke-linejoin="round" stroke-width="2"/>
    <path id="Path_3812" data-name="Path 3812" d="M61.25,126.875l2.422,2.422,2.422-2.422" transform="translate(-41.297 -88.922)" fill="none" stroke="#2cc4ec" stroke-linecap="round" stroke-linejoin="round" stroke-width="2"/>
    <path id="Path_3813" data-name="Path 3813" d="M6.8,61.25,4.375,63.672,6.8,66.094" transform="translate(0 -41.297)" fill="none" stroke="#2cc4ec" stroke-linecap="round" stroke-linejoin="round" stroke-width="2"/>
    <path id="Path_3814" data-name="Path 3814" d="M66.094,6.8,63.672,4.375,61.25,6.8" transform="translate(-41.297)" fill="none" stroke="#2cc4ec" stroke-linecap="round" stroke-linejoin="round" stroke-width="2"/>
    <path id="Path_3815" data-name="Path 3815" d="M126.875,66.094l2.422-2.422-2.422-2.422" transform="translate(-88.922 -41.297)" fill="none" stroke="#2cc4ec" stroke-linecap="round" stroke-linejoin="round" stroke-width="2"/>
    <path id="Path_3816" data-name="Path 3816" d="M32.865,83.125H53.091" transform="translate(-20.603 -57.15)" fill="none" stroke="#2cc4ec" stroke-linecap="round" stroke-linejoin="round" stroke-width="2"/>
    <path id="Path_3817" data-name="Path 3817" d="M32.865,56.875H53.091" transform="translate(-20.603 -38.1)" fill="none" stroke="#2cc4ec" stroke-linecap="round" stroke-linejoin="round" stroke-width="2"/>
    <path id="Path_3818" data-name="Path 3818" d="M58.157,31.541a34.248,34.248,0,0,0,.824,21.107" transform="translate(-38.108 -19.646)" fill="none" stroke="#2cc4ec" stroke-linecap="round" stroke-linejoin="round" stroke-width="2"/>
    <path id="Path_3819" data-name="Path 3819" d="M76.359,31.541a34.3,34.3,0,0,1-.817,21.107" transform="translate(-51.658 -19.646)" fill="none" stroke="#2cc4ec" stroke-linecap="round" stroke-linejoin="round" stroke-width="2"/>
  </g>
</svg>
