<svg xmlns="http://www.w3.org/2000/svg" width="57.544" height="57.276" viewBox="0 0 57.544 57.276">
  <g id="streamline-icon-team-chat_40x40" data-name="streamline-icon-team-chat@40x40" transform="translate(0.02 -0.25)">
    <path id="Path_3721" data-name="Path 3721" d="M22.415,40.834h3.667v5.5l7.334-5.5h11a3.668,3.668,0,0,0,3.667-3.667v-11A3.668,3.668,0,0,0,44.416,22.5h-22a3.668,3.668,0,0,0-3.667,3.667v11A3.668,3.668,0,0,0,22.415,40.834Z" transform="translate(8.168 9.918)" fill="none" stroke="#233659" stroke-linecap="round" stroke-linejoin="round" stroke-width="2"/>
    <path id="Path_3722" data-name="Path 3722" d="M10.33,23.75a6.417,6.417,0,1,1-6.417,6.417A6.416,6.416,0,0,1,10.33,23.75Z" transform="translate(1.244 10.501)" fill="none" stroke="#233659" stroke-linecap="round" stroke-linejoin="round" stroke-width="2"/>
    <path id="Path_3723" data-name="Path 3723" d="M21.906,41.085a10.937,10.937,0,0,0-20.654,0" transform="translate(0.002 15.167)" fill="none" stroke="#233659" stroke-linecap="round" stroke-linejoin="round" stroke-width="2"/>
    <path id="Path_3724" data-name="Path 3724" d="M33.749,2.5a6.417,6.417,0,1,1-6.417,6.417A6.416,6.416,0,0,1,33.749,2.5Z" transform="translate(12.174 0.583)" fill="none" stroke="#233659" stroke-linecap="round" stroke-linejoin="round" stroke-width="2"/>
    <path id="Path_3725" data-name="Path 3725" d="M45.321,19.835a10.937,10.937,0,0,0-20.654,0" transform="translate(10.93 5.249)" fill="none" stroke="#233659" stroke-linecap="round" stroke-linejoin="round" stroke-width="2"/>
    <path id="Path_3726" data-name="Path 3726" d="M27.5,26.25h9.167" transform="translate(12.251 11.668)" fill="none" stroke="#233659" stroke-linecap="round" stroke-linejoin="round" stroke-width="2"/>
    <path id="Path_3727" data-name="Path 3727" d="M23.748,30H38.416" transform="translate(10.501 13.418)" fill="none" stroke="#233659" stroke-linecap="round" stroke-linejoin="round" stroke-width="2"/>
    <path id="Path_3728" data-name="Path 3728" d="M26.916,19.584H23.249v5.5l-7.334-5.5h-11a3.668,3.668,0,0,1-3.667-3.667v-11A3.668,3.668,0,0,1,4.915,1.25h22a3.668,3.668,0,0,1,3.667,3.667v11A3.668,3.668,0,0,1,26.916,19.584Z" fill="none" stroke="#233659" stroke-linecap="round" stroke-linejoin="round" stroke-width="2"/>
    <path id="Path_3729" data-name="Path 3729" d="M15.415,5H6.248" transform="translate(2.334 1.75)" fill="none" stroke="#233659" stroke-linecap="round" stroke-linejoin="round" stroke-width="2"/>
    <path id="Path_3730" data-name="Path 3730" d="M20.916,8.75H6.248" transform="translate(2.334 3.5)" fill="none" stroke="#233659" stroke-linecap="round" stroke-linejoin="round" stroke-width="2"/>
  </g>
</svg>
