<svg xmlns="http://www.w3.org/2000/svg" width="69" height="60.067" viewBox="0 0 69 60.067">
  <g id="streamline-icon-saving-piggy-bank_undefinedxundefined" data-name="streamline-icon-saving-piggy-bank@undefinedxundefined" transform="translate(-0.5 -4.5)">
    <path id="Path_3868" data-name="Path 3868" d="M49.433,19A8.933,8.933,0,0,1,40.5,27.933" transform="translate(19.067 6.6)" fill="none" stroke="#233659" stroke-linecap="round" stroke-linejoin="round" stroke-width="2"/>
    <path id="Path_3869" data-name="Path 3869" d="M16.5,16.686a20.134,20.134,0,0,1,17.867,0" transform="translate(7.333 4.447)" fill="none" stroke="#233659" stroke-linecap="round" stroke-linejoin="round" stroke-width="2"/>
    <path id="Path_3870" data-name="Path 3870" d="M13.117,22a1.117,1.117,0,1,0,1.117,1.117A1.117,1.117,0,0,0,13.117,22" transform="translate(5.133 8.067)" fill="none" stroke="#233659" stroke-linecap="round" stroke-linejoin="round" stroke-width="2"/>
    <path id="Path_3871" data-name="Path 3871" d="M22.791,11.852C19.3,5.518,10.433,5.5,10.433,5.5L12.3,18.555a23.961,23.961,0,0,0-5.289,9.279H1.5V45.7H8.915A25.21,25.21,0,0,0,14.9,52.763v8.57a2.234,2.234,0,0,0,2.233,2.233H21.6a2.234,2.234,0,0,0,2.233-2.233v-3.7a28.316,28.316,0,0,0,17.867.033v3.663a2.234,2.234,0,0,0,2.233,2.233H48.4a2.234,2.234,0,0,0,2.233-2.233V52.808a23.644,23.644,0,0,0,8.933-18.275C59.567,15.2,38.573,6.575,22.791,11.852Z" transform="translate(0 0)" fill="none" stroke="#233659" stroke-linecap="round" stroke-linejoin="round" stroke-width="2"/>
  </g>
</svg>
