<svg xmlns="http://www.w3.org/2000/svg" width="64" height="65.362" viewBox="0 0 64 65.362">
  <g id="streamline-icon-phone-chatting_40x40" data-name="streamline-icon-phone-chatting@40x40" transform="translate(-0.417)">
    <path id="Path_3554" data-name="Path 3554" d="M50.119,51.745a2.723,2.723,0,1,0-5.447,0,1.362,1.362,0,0,1-1.362,1.362H17.438a1.362,1.362,0,0,1-1.362-1.362V47.66a2.723,2.723,0,0,0-5.447,0v9.532a8.17,8.17,0,0,0,8.17,8.17H41.949a8.17,8.17,0,0,0,8.17-8.17Zm-37.447-28.6a3.4,3.4,0,1,1-3.4,3.4A3.405,3.405,0,0,1,12.672,23.149Zm10.894,0a3.4,3.4,0,1,1-3.4,3.4A3.405,3.405,0,0,1,23.566,23.149ZM9.268,14.3A8.861,8.861,0,0,0,.417,23.149V28.6a8.861,8.861,0,0,0,8.851,8.851h5.962L22.8,45.018a2.041,2.041,0,0,0,3.486-1.443V37.447h.681A8.861,8.861,0,0,0,35.821,28.6V23.149A8.861,8.861,0,0,0,26.97,14.3Zm17.7,4.085a4.771,4.771,0,0,1,4.766,4.766V28.6a4.771,4.771,0,0,1-4.766,4.766H24.246A2.043,2.043,0,0,0,22.2,35.4V37a.682.682,0,0,1-1.163.482L17.52,33.961a2.034,2.034,0,0,0-1.443-.6H9.268A4.771,4.771,0,0,1,4.5,28.6V23.149a4.771,4.771,0,0,1,4.766-4.766ZM45.353,30.638a2.723,2.723,0,1,1-2.723,2.723A2.724,2.724,0,0,1,45.353,30.638Zm8.17,0A2.723,2.723,0,1,1,50.8,33.362,2.724,2.724,0,0,1,53.523,30.638Zm2.043,12.255a8.861,8.861,0,0,0,8.851-8.851V31.319a8.861,8.861,0,0,0-8.851-8.851H41.949a2.043,2.043,0,1,0,0,4.085H55.566a4.771,4.771,0,0,1,4.766,4.766v2.723a4.771,4.771,0,0,1-4.766,4.766H50.119a2.044,2.044,0,0,0-1.133.343l-4.995,3.333V40.851a2.043,2.043,0,0,0-2.043-2.043H40.587a4.719,4.719,0,0,1-2.862-.956A2.046,2.046,0,1,0,35.1,41a1.8,1.8,0,0,0,.169.125,8.747,8.747,0,0,0,4.63,1.746V46.3A2.042,2.042,0,0,0,43.079,48l7.658-5.1ZM41.949,0H20.161a8.17,8.17,0,0,0-8.17,8.17,2.723,2.723,0,1,0,5.447,0,2.724,2.724,0,0,1,2.723-2.723H41.949A2.724,2.724,0,0,1,44.672,8.17v5.447a2.723,2.723,0,1,0,5.447,0V8.17A8.17,8.17,0,0,0,41.949,0Z" fill="#233659"/>
  </g>
</svg>
