<?xml version="1.0" encoding="utf-8"?>
<!-- Generator: Adobe Illustrator 23.1.0, SVG Export Plug-In . SVG Version: 6.00 Build 0)  -->
<svg version="1.1" id="Capa_1" xmlns="http://www.w3.org/2000/svg" xmlns:xlink="http://www.w3.org/1999/xlink" x="0px" y="0px"
	 width="14px" height="14px" viewBox="0 0 14 14" style="enable-background:new 0 0 14 14;" xml:space="preserve">
<style type="text/css">
	.st0{fill:#DC3545;}
	.st1{fill:#FFFFFF;}
</style>
<circle class="st0" cx="7" cy="7" r="7"/>
<g id="streamline-icon-close_24x24" transform="translate(0 -0.001)">
	<path id="Path_3495" class="st1" d="M7.8,7.1c0,0,0-0.1,0-0.1c0,0,0,0,0,0l0,0l3.1-3.1c0.2-0.2,0.2-0.5,0-0.7
		c-0.2-0.2-0.5-0.2-0.7,0L7.1,6.2c0,0-0.1,0-0.1,0c0,0,0,0,0,0l0,0L3.9,3.1C3.7,3,3.3,3,3.1,3.1S3,3.7,3.1,3.9l3.1,3.1
		c0,0,0,0.1,0,0.1c0,0,0,0,0,0l0,0l-3.1,3.1c-0.2,0.2-0.2,0.5,0,0.7c0.2,0.2,0.5,0.2,0.7,0l0,0l0,0l3.1-3.1c0,0,0.1,0,0.1,0
		c0,0,0,0,0,0l0,0l3.1,3.1c0.2,0.2,0.5,0.2,0.7,0c0.2-0.2,0.2-0.5,0-0.7L7.8,7.1z"/>
</g>
</svg>
