<svg xmlns="http://www.w3.org/2000/svg" width="56.643" height="57.471" viewBox="0 0 56.643 57.471">
  <g id="streamline-icon-credit-card-smartphone-exchange_40x40" data-name="streamline-icon-credit-card-smartphone-exchange@40x40" transform="translate(-0.25 0.164)">
    <path id="Path_3787" data-name="Path 3787" d="M29.893,18.75H40.821a3.644,3.644,0,0,1,3.643,3.643V44.25a3.644,3.644,0,0,1-3.643,3.643H29.893A3.644,3.644,0,0,1,26.25,44.25V22.393A3.644,3.644,0,0,1,29.893,18.75Z" transform="translate(11.428 8)" fill="none" stroke="#233659" stroke-linecap="round" stroke-linejoin="round" stroke-width="2"/>
    <path id="Path_3788" data-name="Path 3788" d="M26.25,33.75H44.464" transform="translate(11.428 14.857)" fill="none" stroke="#233659" stroke-linecap="round" stroke-linejoin="round" stroke-width="2"/>
    <path id="Path_3789" data-name="Path 3789" d="M6.25,26.25A14.57,14.57,0,0,0,20.821,40.821h5.464" transform="translate(2.286 11.428)" fill="none" stroke="#233659" stroke-linecap="round" stroke-linejoin="round" stroke-width="2"/>
    <path id="Path_3790" data-name="Path 3790" d="M44.464,18.321A14.57,14.57,0,0,0,29.893,3.75H26.25" transform="translate(11.428 1.143)" fill="none" stroke="#233659" stroke-linecap="round" stroke-linejoin="round" stroke-width="2"/>
    <path id="Path_3791" data-name="Path 3791" d="M29.893,1.25,26.25,4.893l3.643,3.643" transform="translate(11.428 0)" fill="none" stroke="#233659" stroke-linecap="round" stroke-linejoin="round" stroke-width="2"/>
    <path id="Path_3792" data-name="Path 3792" d="M17.5,41.036l3.643-3.643L17.5,33.75" transform="translate(7.428 14.857)" fill="none" stroke="#233659" stroke-linecap="round" stroke-linejoin="round" stroke-width="2"/>
    <path id="Path_3793" data-name="Path 3793" d="M3.679,1.25H27.964a2.429,2.429,0,0,1,2.429,2.429v17a2.429,2.429,0,0,1-2.429,2.429H3.679A2.429,2.429,0,0,1,1.25,20.678v-17A2.429,2.429,0,0,1,3.679,1.25Z" transform="translate(0 0)" fill="none" stroke="#233659" stroke-linecap="round" stroke-linejoin="round" stroke-width="2"/>
    <path id="Path_3794" data-name="Path 3794" d="M1.25,6.25H30.393" transform="translate(0 2.286)" fill="none" stroke="#233659" stroke-linecap="round" stroke-linejoin="round" stroke-width="2"/>
    <path id="Path_3795" data-name="Path 3795" d="M18.536,11.25H11.25" transform="translate(4.571 4.571)" fill="none" stroke="#233659" stroke-linecap="round" stroke-linejoin="round" stroke-width="2"/>
  </g>
</svg>
