<svg xmlns="http://www.w3.org/2000/svg" width="59.026" height="59" viewBox="0 0 59.026 59">
  <g id="streamline-icon-earth-1_40x40_1_" data-name="streamline-icon-earth-1@40x40 (1)" transform="translate(-0.232 -0.25)">
    <path id="Path_3804" data-name="Path 3804" d="M29.75,1.25a28.5,28.5,0,1,1-28.5,28.5A28.5,28.5,0,0,1,29.75,1.25Z" transform="translate(0 0)" fill="none" stroke="#233659" stroke-linecap="round" stroke-linejoin="round" stroke-width="2"/>
    <path id="Path_3805" data-name="Path 3805" d="M17.284,31.45a3.8,3.8,0,0,0,3.686-4.722l-1.9-7.6a3.8,3.8,0,0,0-3.686-2.878H1.823A28.491,28.491,0,0,0,12,44.223L14.55,31.45Z" transform="translate(0 7.8)" fill="none" stroke="#233659" stroke-linecap="round" stroke-linejoin="round" stroke-width="2"/>
    <path id="Path_3806" data-name="Path 3806" d="M40.447,8.75h-10.3a3.8,3.8,0,0,0-3.686,2.878l-1.9,7.6a3.8,3.8,0,0,0,3.686,4.722h4l2,12.033a3.8,3.8,0,0,0,3.749,3.174h4.877a28.373,28.373,0,0,0-2.435-30.4Z" transform="translate(12.065 3.9)" fill="none" stroke="#233659" stroke-linecap="round" stroke-linejoin="round" stroke-width="2"/>
  </g>
</svg>
