<svg xmlns="http://www.w3.org/2000/svg" width="52" height="52" viewBox="0 0 52 52">
  <g id="streamline-icon-user-network_40x40" data-name="streamline-icon-user-network@40x40" transform="translate(-0.25 -0.25)">
    <path id="Path_3676" data-name="Path 3676" d="M5,1.25A3.75,3.75,0,1,1,1.25,5,3.749,3.749,0,0,1,5,1.25Z" fill="none" stroke="#233659" stroke-linecap="round" stroke-linejoin="round" stroke-width="2"/>
    <path id="Path_3677" data-name="Path 3677" d="M8.037,7.2l3.213,2.33" transform="translate(2.474 2.115)" fill="none" stroke="#233659" stroke-linecap="round" stroke-linejoin="round" stroke-width="2"/>
    <path id="Path_3678" data-name="Path 3678" d="M5,31.25A3.75,3.75,0,1,1,1.25,35,3.749,3.749,0,0,1,5,31.25Z" transform="translate(0 12.5)" fill="none" stroke="#233659" stroke-linecap="round" stroke-linejoin="round" stroke-width="2"/>
    <path id="Path_3679" data-name="Path 3679" d="M8.037,32.8l3.213-2.332" transform="translate(2.474 10.385)" fill="none" stroke="#233659" stroke-linecap="round" stroke-linejoin="round" stroke-width="2"/>
    <path id="Path_3680" data-name="Path 3680" d="M35,1.25A3.75,3.75,0,1,1,31.25,5,3.749,3.749,0,0,1,35,1.25Z" transform="translate(12.5)" fill="none" stroke="#233659" stroke-linecap="round" stroke-linejoin="round" stroke-width="2"/>
    <path id="Path_3681" data-name="Path 3681" d="M31.963,7.2,28.75,9.532" transform="translate(10.026 2.115)" fill="none" stroke="#233659" stroke-linecap="round" stroke-linejoin="round" stroke-width="2"/>
    <path id="Path_3682" data-name="Path 3682" d="M35,31.25A3.75,3.75,0,1,1,31.25,35,3.749,3.749,0,0,1,35,31.25Z" transform="translate(12.5 12.5)" fill="none" stroke="#233659" stroke-linecap="round" stroke-linejoin="round" stroke-width="2"/>
    <path id="Path_3683" data-name="Path 3683" d="M31.963,32.8,28.75,30.467" transform="translate(10.026 10.385)" fill="none" stroke="#233659" stroke-linecap="round" stroke-linejoin="round" stroke-width="2"/>
    <path id="Path_3684" data-name="Path 3684" d="M20,8.75a4.375,4.375,0,1,1-4.375,4.375A4.374,4.374,0,0,1,20,8.75Z" transform="translate(6.25 3.261)" fill="none" stroke="#233659" stroke-linecap="round" stroke-linejoin="round" stroke-width="2"/>
    <path id="Path_3685" data-name="Path 3685" d="M12.5,26.25a7.5,7.5,0,1,1,15,0Z" transform="translate(6.25 7.292)" fill="none" stroke="#233659" stroke-linecap="round" stroke-linejoin="round" stroke-width="2"/>
  </g>
</svg>
