<svg xmlns="http://www.w3.org/2000/svg" width="56" height="56" viewBox="0 0 56 56">
  <g id="streamline-icon-earth-move_40x40" data-name="streamline-icon-earth-move@40x40" transform="translate(-0.25 -0.25)">
    <path id="Path_3739" data-name="Path 3739" d="M24.95,8.75a16.2,16.2,0,1,1-16.2,16.2A16.2,16.2,0,0,1,24.95,8.75Z" transform="translate(3.3 3.3)" fill="none" stroke="#233659" stroke-linecap="round" stroke-linejoin="round" stroke-width="2"/>
    <path id="Path_3740" data-name="Path 3740" d="M17.5,36.25l3.6,3.6,3.6-3.6" transform="translate(7.15 15.4)" fill="none" stroke="#233659" stroke-linecap="round" stroke-linejoin="round" stroke-width="2"/>
    <path id="Path_3741" data-name="Path 3741" d="M4.85,17.5l-3.6,3.6,3.6,3.6" transform="translate(0 7.15)" fill="none" stroke="#233659" stroke-linecap="round" stroke-linejoin="round" stroke-width="2"/>
    <path id="Path_3742" data-name="Path 3742" d="M24.7,4.85l-3.6-3.6-3.6,3.6" transform="translate(7.15)" fill="none" stroke="#233659" stroke-linecap="round" stroke-linejoin="round" stroke-width="2"/>
    <path id="Path_3743" data-name="Path 3743" d="M36.25,24.7l3.6-3.6-3.6-3.6" transform="translate(15.4 7.15)" fill="none" stroke="#233659" stroke-linecap="round" stroke-linejoin="round" stroke-width="2"/>
    <path id="Path_3744" data-name="Path 3744" d="M9.39,23.75H39.947" transform="translate(3.582 9.9)" fill="none" stroke="#233659" stroke-linecap="round" stroke-linejoin="round" stroke-width="2"/>
    <path id="Path_3745" data-name="Path 3745" d="M9.39,16.25H39.947" transform="translate(3.582 6.6)" fill="none" stroke="#233659" stroke-linecap="round" stroke-linejoin="round" stroke-width="2"/>
    <path id="Path_3746" data-name="Path 3746" d="M18.156,9.012A52.485,52.485,0,0,0,19.38,40.876" transform="translate(6.6 3.415)" fill="none" stroke="#233659" stroke-linecap="round" stroke-linejoin="round" stroke-width="2"/>
    <path id="Path_3747" data-name="Path 3747" d="M22.8,9.012A52.152,52.152,0,0,1,24.7,23.035a52.1,52.1,0,0,1-3.12,17.842" transform="translate(8.947 3.415)" fill="none" stroke="#233659" stroke-linecap="round" stroke-linejoin="round" stroke-width="2"/>
  </g>
</svg>
