<svg xmlns="http://www.w3.org/2000/svg" width="61.037" height="60.748" viewBox="0 0 61.037 60.748">
  <g id="streamline-icon-beach-parasol-water_40x40" data-name="streamline-icon-beach-parasol-water@40x40" transform="translate(1.37 1.273)">
    <path id="Path_3872" data-name="Path 3872" d="M59.477,36.641l-2.2,2.893a2.533,2.533,0,0,1-3.568.316,2.6,2.6,0,0,1-.316-.316L50.95,36.6a2.533,2.533,0,0,0-3.568-.316,2.6,2.6,0,0,0-.316.316l-2.447,2.929a2.533,2.533,0,0,1-3.568.316,2.6,2.6,0,0,1-.316-.316L38.292,36.6a2.533,2.533,0,0,0-3.568-.316,2.6,2.6,0,0,0-.316.316L31.95,39.534a2.533,2.533,0,0,1-3.568.316,2.6,2.6,0,0,1-.316-.316L25.626,36.6a2.533,2.533,0,0,0-3.568-.316,2.6,2.6,0,0,0-.316.316L19.3,39.534a2.533,2.533,0,0,1-3.568.316,2.6,2.6,0,0,1-.316-.316L12.973,36.6A2.533,2.533,0,0,0,9.4,36.289a2.6,2.6,0,0,0-.316.316L6.649,39.534a2.533,2.533,0,0,1-3.568.316,2.6,2.6,0,0,1-.316-.316L1.25,37.721" transform="translate(-1.211 17.826)" fill="none" stroke="#233659" stroke-linecap="round" stroke-linejoin="round" stroke-width="2"/>
    <path id="Path_3873" data-name="Path 3873" d="M50.037,33.207A20.492,20.492,0,0,0,37.79,28.75H18.368" transform="translate(-18.368 13.979)" fill="none" stroke="#233659" stroke-linecap="round" stroke-linejoin="round" stroke-width="2"/>
    <path id="Path_3874" data-name="Path 3874" d="M10.123,16.905a2.534,2.534,0,0,1-1.556-3.229,2.5,2.5,0,0,1,.412-.746A25.342,25.342,0,0,1,54.1,28.634a2.534,2.534,0,0,1-2.525,2.546,2.573,2.573,0,0,1-.842-.14Z" transform="translate(-6.984 -0.047)" fill="none" stroke="#233659" stroke-linecap="round" stroke-linejoin="round" stroke-width="2"/>
    <path id="Path_3875" data-name="Path 3875" d="M18.3,6.036,19.967,1.25" transform="translate(11.805 -1.25)" fill="none" stroke="#233659" stroke-linecap="round" stroke-linejoin="round" stroke-width="2"/>
    <path id="Path_3876" data-name="Path 3876" d="M30.2,16.648l-6.544,18.8" transform="translate(-6.758 7.277)" fill="none" stroke="#233659" stroke-linecap="round" stroke-linejoin="round" stroke-width="2"/>
  </g>
</svg>
