<svg xmlns="http://www.w3.org/2000/svg" width="63.524" height="57.408" viewBox="0 0 63.524 57.408">
  <g id="streamline-icon-saving-bag-increase_64x64" data-name="streamline-icon-saving-bag-increase@64x64" transform="translate(1 1.406)">
    <path id="Path_3582" data-name="Path 3582" d="M37.76,42.667A1.7,1.7,0,0,0,36,44.291V57.066a1.674,1.674,0,0,0,1.733,1.6H60.239A1.7,1.7,0,0,0,62,57.042V44.667a2.091,2.091,0,0,0-2.168-2Z" transform="translate(-0.889 -3.667)" fill="none" stroke="#233659" stroke-linecap="round" stroke-linejoin="round" stroke-width="2"/>
    <path id="Path_3583" data-name="Path 3583" d="M49,49.683a.984.984,0,1,1-1,.984.994.994,0,0,1,1-.984h0" transform="translate(-1.12 -3.668)" fill="none" stroke="#233659" stroke-linecap="round" stroke-linejoin="round" stroke-width="2"/>
    <path id="Path_3584" data-name="Path 3584" d="M36,51.106a19.327,19.327,0,0,1-16,8.56c-9.037,0-18-6.849-18-15.3,0-8.345,7.09-17.565,12.546-21.42-1.573-3.536-2.84-6.324-3.827-8.473A4.113,4.113,0,0,1,12.65,9.05a3.936,3.936,0,0,1,1.693-.384H28" transform="translate(-2 -4.667)" fill="none" stroke="#233659" stroke-linecap="round" stroke-linejoin="round" stroke-width="2"/>
    <path id="Path_3585" data-name="Path 3585" d="M31.467,28.389a26.918,26.918,0,0,1,6.5,14.277" transform="translate(-1.389 -4.07)" fill="none" stroke="#233659" stroke-linecap="round" stroke-linejoin="round" stroke-width="2"/>
    <path id="Path_3586" data-name="Path 3586" d="M15.544,47.584A5.933,5.933,0,0,0,20.5,49.917c3.037,0,5.5-1.848,5.5-4.125s-2.464-4.123-5.5-4.123S15,39.821,15,37.541s2.464-4.125,5.5-4.125a5.923,5.923,0,0,1,4.955,2.333" transform="translate(-1.705 -3.9)" fill="none" stroke="#2cc4ec" stroke-linecap="round" stroke-linejoin="round" stroke-width="2"/>
    <path id="Path_3587" data-name="Path 3587" d="M20.5,49.917v2.749" transform="translate(-1.658 -3.668)" fill="none" stroke="#2cc4ec" stroke-linecap="round" stroke-linejoin="round" stroke-width="2"/>
    <path id="Path_3588" data-name="Path 3588" d="M20.5,30.667v2.749" transform="translate(-1.658 -4.16)" fill="none" stroke="#2cc4ec" stroke-linecap="round" stroke-linejoin="round" stroke-width="2"/>
    <path id="Path_3589" data-name="Path 3589" d="M62,14.1V4.667H52.571" transform="translate(-0.89 -4.667)" fill="none" stroke="#2cc4ec" stroke-linecap="round" stroke-linejoin="round" stroke-width="2"/>
    <path id="Path_3590" data-name="Path 3590" d="M62,4.675l-8.666,8.658A3.85,3.85,0,0,1,49.5,14.3l-9.789-2.616a3.866,3.866,0,0,0-3.733,1l-9.989,10" transform="translate(-0.889 -4.667)" fill="none" stroke="#2cc4ec" stroke-linecap="round" stroke-linejoin="round" stroke-width="2"/>
  </g>
</svg>
