<?xml version="1.0" encoding="utf-8"?>
<!-- Generator: Adobe Illustrator 23.1.0, SVG Export Plug-In . SVG Version: 6.00 Build 0)  -->
<svg version="1.1" id="Layer_1" xmlns="http://www.w3.org/2000/svg" xmlns:xlink="http://www.w3.org/1999/xlink" x="0px" y="0px"
	 viewBox="0 0 63.1 57" style="enable-background:new 0 0 63.1 57;" xml:space="preserve">
<style type="text/css">
	.st0{fill:none;stroke:#233659;stroke-width:2;stroke-linecap:round;stroke-linejoin:round;}
	.st1{fill:none;stroke:#2CC4EC;stroke-width:2;stroke-linecap:round;stroke-linejoin:round;}
</style>
<g id="streamline-icon-business-deal-handshake_40x40" transform="translate(1 1.026)">
	<path id="Path_3796" class="st0" d="M53.1,33.4l-14,2.7"/>
	<path id="Path_3797" class="st0" d="M37.1,17.5l-9.4,3.1c-1.5,0.5-3.2-0.2-3.8-1.7c-0.7-1.5-0.1-3.4,1.4-4.2l9.1-4.6
		c1.6-0.8,3.4-0.9,5.1-0.3L53,14.9"/>
	<path id="Path_3798" class="st0" d="M8,33.5h6.6l9.5,10.7c1.3,1.5,3.6,1.7,5.1,0.4c0.8-0.7,1.3-1.7,1.3-2.7v-1.7l0.5,0.2
		c2.3,0.9,4.9-0.2,5.8-2.5c0.2-0.5,0.3-1.1,0.3-1.7h1.3c2.2,0,4-1.8,4-4c0-0.9-0.3-1.7-0.8-2.4l-8.5-10.9"/>
	<path id="Path_3799" class="st0" d="M26.7,14.1l-1-0.8c-1.6-1.2-3.7-1.4-5.5-0.7L8.1,17.5"/>
	<path id="Path_3800" class="st0" d="M0,12.8h5.4c1.4-0.1,2.7,1.1,2.7,2.5v17.4c-0.1,1.4-1.3,2.5-2.7,2.5H0"/>
	<path id="Path_3801" class="st1" d="M61.1,35.2h-5.4c-1.4,0.1-2.7-1.1-2.7-2.5V15.3c0.1-1.4,1.3-2.5,2.7-2.5h5.4"/>
	<path id="Path_3802" class="st0" d="M30.6,40.1l-2.7-2.7"/>
	<path id="Path_3803" class="st0" d="M37.2,36.1l-4-4"/>
</g>
</svg>
