<svg xmlns="http://www.w3.org/2000/svg" width="53" height="56.643" viewBox="0 0 53 56.643">
  <g id="streamline-icon-phone-chatting_64x64" data-name="streamline-icon-phone-chatting@64x64" transform="translate(-3 -1)">
    <path id="Path_3570" data-name="Path 3570" d="M45.143,29.566V51.979a6.638,6.638,0,0,1-6.637,6.635H22.637A6.634,6.634,0,0,1,16,51.982v-27.9" transform="translate(-1.071 -1.971)" fill="none" stroke="#233659" stroke-linecap="round" stroke-linejoin="round" stroke-width="2"/>
    <path id="Path_3571" data-name="Path 3571" d="M16,50H45.146" transform="translate(-1.072 -4.286)" fill="none" stroke="#233659" stroke-linecap="round" stroke-linejoin="round" stroke-width="2"/>
    <path id="Path_3572" data-name="Path 3572" d="M31.853,26.35a5.726,5.726,0,0,0,4.065,1.685h3.354v7.286l7.38-7.286h5.081a5.754,5.754,0,0,0,5.753-5.751V13.753A5.754,5.754,0,0,0,51.736,8H42.916" transform="translate(-2.487 -0.536)" fill="none" stroke="#233659" stroke-linecap="round" stroke-linejoin="round" stroke-width="2"/>
    <path id="Path_3573" data-name="Path 3573" d="M41,18h0" transform="translate(-3.304 -1.429)" fill="none" stroke="#233659" stroke-linecap="round" stroke-linejoin="round" stroke-width="2"/>
    <path id="Path_3574" data-name="Path 3574" d="M40.913,18a.911.911,0,1,0,.911.911A.911.911,0,0,0,40.913,18" transform="translate(-3.215 -1.429)" fill="none" stroke="#233659" stroke-linecap="round" stroke-linejoin="round" stroke-width="2"/>
    <path id="Path_3575" data-name="Path 3575" d="M51,18h0" transform="translate(-4.197 -1.429)" fill="none" stroke="#233659" stroke-linecap="round" stroke-linejoin="round" stroke-width="2"/>
    <path id="Path_3576" data-name="Path 3576" d="M50.913,18a.911.911,0,1,0,.911.911A.911.911,0,0,0,50.913,18" transform="translate(-4.107 -1.429)" fill="none" stroke="#233659" stroke-linecap="round" stroke-linejoin="round" stroke-width="2"/>
    <path id="Path_3577" data-name="Path 3577" d="M9.753,2H25.571a5.754,5.754,0,0,1,5.753,5.753v6.71a5.754,5.754,0,0,1-5.753,5.751H20.4V27.5l-7.383-7.286H9.753A5.75,5.75,0,0,1,4,14.466V7.753A5.754,5.754,0,0,1,9.753,2Z" fill="none" stroke="#233659" stroke-linecap="round" stroke-linejoin="round" stroke-width="2"/>
    <path id="Path_3578" data-name="Path 3578" d="M24.336,12h0" transform="translate(-1.816 -0.893)" fill="none" stroke="#233659" stroke-linecap="round" stroke-linejoin="round" stroke-width="2"/>
    <path id="Path_3579" data-name="Path 3579" d="M24.247,12a.911.911,0,1,1-.911.911A.911.911,0,0,1,24.247,12" transform="translate(-1.726 -0.893)" fill="none" stroke="#233659" stroke-linecap="round" stroke-linejoin="round" stroke-width="2"/>
    <path id="Path_3580" data-name="Path 3580" d="M13.669,12h0" transform="translate(-0.863 -0.893)" fill="none" stroke="#233659" stroke-linecap="round" stroke-linejoin="round" stroke-width="2"/>
    <path id="Path_3581" data-name="Path 3581" d="M13.58,12a.911.911,0,1,1-.911.911A.911.911,0,0,1,13.58,12" transform="translate(-0.774 -0.893)" fill="none" stroke="#233659" stroke-linecap="round" stroke-linejoin="round" stroke-width="2"/>
  </g>
</svg>
