<svg xmlns="http://www.w3.org/2000/svg" width="52" height="52" viewBox="0 0 52 52">
  <g id="streamline-icon-messages-bubble-square-question_40x40" data-name="streamline-icon-messages-bubble-square-question@40x40" transform="translate(-0.25 -0.25)">
    <path id="Path_3665" data-name="Path 3665" d="M47.917,41.25H24.583l-13.333,10v-10H4.583A3.335,3.335,0,0,1,1.25,37.917V4.583A3.335,3.335,0,0,1,4.583,1.25H47.917A3.335,3.335,0,0,1,51.25,4.583V37.917A3.335,3.335,0,0,1,47.917,41.25Z" fill="none" stroke="#233659" stroke-linecap="round" stroke-linejoin="round" stroke-width="2"/>
    <path id="Path_3666" data-name="Path 3666" d="M16.25,12.916a6.667,6.667,0,1,1,8.889,6.289,3.333,3.333,0,0,0-2.222,3.142v.571" transform="translate(5 1.667)" fill="none" stroke="#233659" stroke-linecap="round" stroke-linejoin="round" stroke-width="2"/>
    <path id="Path_3667" data-name="Path 3667" d="M21.25,23.75h0" transform="translate(6.667 7.5)" fill="none" stroke="#233659" stroke-linecap="round" stroke-linejoin="round" stroke-width="2"/>
    <path id="Path_3668" data-name="Path 3668" d="M21.458,23.75a.833.833,0,1,0,.833.833.834.834,0,0,0-.833-.833h0" transform="translate(6.458 7.5)" fill="none" stroke="#233659" stroke-linecap="round" stroke-linejoin="round" stroke-width="2"/>
  </g>
</svg>
