<svg xmlns="http://www.w3.org/2000/svg" width="18" height="24" viewBox="0 0 18 24">
  <g id="streamline-icon-building-1_40x40" data-name="streamline-icon-building-1@40x40" transform="translate(-5)">
    <path id="Path_3549" data-name="Path 3549" d="M5.5,3.5h17a.5.5,0,0,0,.391-.812L21.19.563A1.494,1.494,0,0,0,20.02,0H7.98A1.494,1.494,0,0,0,6.81.563L5.11,2.688A.5.5,0,0,0,5.5,3.5ZM22.5,5H5.5a.5.5,0,0,0-.5.5v17A1.5,1.5,0,0,0,6.5,24h5a.5.5,0,0,0,.5-.5v-2a2,2,0,1,1,4,0v2a.5.5,0,0,0,.5.5h5A1.5,1.5,0,0,0,23,22.5V5.5A.5.5,0,0,0,22.5,5ZM10,16.5a.5.5,0,0,1-.5.5h-2a.5.5,0,0,1-.5-.5v-2a1.5,1.5,0,0,1,3,0Zm0-6a.5.5,0,0,1-.5.5h-2a.5.5,0,0,1-.5-.5v-2a1.5,1.5,0,0,1,3,0Zm5.5,6a.5.5,0,0,1-.5.5H13a.5.5,0,0,1-.5-.5v-2a1.5,1.5,0,0,1,3,0Zm0-6a.5.5,0,0,1-.5.5H13a.5.5,0,0,1-.5-.5v-2a1.5,1.5,0,0,1,3,0Zm5.5,6a.5.5,0,0,1-.5.5h-2a.5.5,0,0,1-.5-.5v-2a1.5,1.5,0,0,1,3,0Zm0-6a.5.5,0,0,1-.5.5h-2a.5.5,0,0,1-.5-.5v-2a1.5,1.5,0,1,1,3,0Z" transform="translate(0 0)" fill="#233659"/>
  </g>
</svg>
