<?xml version="1.0" encoding="utf-8"?>
<!-- Generator: Adobe Illustrator 23.1.0, SVG Export Plug-In . SVG Version: 6.00 Build 0)  -->
<svg version="1.1" id="streamline-icon-arrow-right-1_24x24"
	 xmlns="http://www.w3.org/2000/svg" xmlns:xlink="http://www.w3.org/1999/xlink" x="0px" y="0px" viewBox="0 0 17.7 28.3"
	 style="enable-background:new 0 0 17.7 28.3;" xml:space="preserve">
<style type="text/css">
	.st0{fill:#FFFFFF;}
</style>
<path id="Path_3506" class="st0" d="M0,14.1c0,0.8,0.3,1.5,0.9,2l13.2,11.6c0.9,0.8,2.3,0.7,3.1-0.2c0.8-0.9,0.7-2.2-0.2-3L5.5,14.3
	c-0.1-0.1-0.1-0.3,0-0.4c0,0,0,0,0,0L17,3.8c0.9-0.8,1-2.2,0.2-3.1c-0.8-0.9-2.1-1-3-0.2L0.9,12.1C0.3,12.6,0,13.3,0,14.1z"/>
</svg>
