<svg xmlns="http://www.w3.org/2000/svg" width="57.002" height="57.002" viewBox="0 0 57.002 57.002">
  <g id="streamline-icon-messages-people-user-bubble-square_40x40" data-name="streamline-icon-messages-people-user-bubble-square@40x40" transform="translate(-0.25 -0.25)">
    <path id="Path_3826" data-name="Path 3826" d="M18.75,23.251h7.334v11l11-11h11v-22H18.75Z" transform="translate(8.168)" fill="none" stroke="#233659" stroke-linecap="round" stroke-linejoin="round" stroke-width="2"/>
    <path id="Path_3827" data-name="Path 3827" d="M23.75,6.25H38.417" transform="translate(10.501 2.334)" fill="none" stroke="#233659" stroke-linecap="round" stroke-linejoin="round" stroke-width="2"/>
    <path id="Path_3828" data-name="Path 3828" d="M23.75,11.25H38.417" transform="translate(10.501 4.667)" fill="none" stroke="#233659" stroke-linecap="round" stroke-linejoin="round" stroke-width="2"/>
    <path id="Path_3829" data-name="Path 3829" d="M9.834,6.25A7.334,7.334,0,1,1,2.5,13.584,7.333,7.333,0,0,1,9.834,6.25Z" transform="translate(0.583 2.334)" fill="none" stroke="#233659" stroke-linecap="round" stroke-linejoin="round" stroke-width="2"/>
    <path id="Path_3830" data-name="Path 3830" d="M19.584,33.417v-5.5a9.167,9.167,0,1,0-18.334,0v5.5H4.917L6.75,48.084h7.334l1.833-14.667Z" transform="translate(0 8.168)" fill="none" stroke="#233659" stroke-linecap="round" stroke-linejoin="round" stroke-width="2"/>
  </g>
</svg>
