<svg id="streamline-icon-information-circle_140x140_1_" data-name="streamline-icon-information-circle@140x140 (1)" xmlns="http://www.w3.org/2000/svg" width="21" height="21" viewBox="0 0 21 21">
  <path id="Path_4" data-name="Path 4" d="M10.5,0A10.5,10.5,0,1,0,21,10.5,10.5,10.5,0,0,0,10.5,0Zm.219,4.375A1.313,1.313,0,1,1,9.406,5.687,1.312,1.312,0,0,1,10.719,4.375Zm1.969,11.813h-3.5a.875.875,0,0,1,0-1.75h.656a.219.219,0,0,0,.219-.219V10.281a.219.219,0,0,0-.219-.219H9.187a.875.875,0,1,1,0-1.75h.875a1.75,1.75,0,0,1,1.75,1.75v4.156a.219.219,0,0,0,.219.219h.656a.875.875,0,0,1,0,1.75Z" fill="#fff"/>
</svg>
