<svg xmlns="http://www.w3.org/2000/svg" width="8" height="8" viewBox="0 0 8 8">
  <g id="streamline-icon-alert-diamond_24x24" data-name="streamline-icon-alert-diamond@24x24" transform="translate(-0.414 -0.414)">
    <path id="Path_3496" data-name="Path 3496" d="M8.212,3.926,4.9.616a.69.69,0,0,0-.976,0L.616,3.926a.69.69,0,0,0,0,.976h0l3.31,3.309a.69.69,0,0,0,.976,0L8.212,4.9a.691.691,0,0,0,0-.977ZM4.092,2.487a.345.345,0,1,1,.691,0V4.558a.345.345,0,1,1-.691,0Zm.363,3.974h-.01a.528.528,0,0,1-.525-.508.509.509,0,0,1,.49-.528h.02a.527.527,0,0,1,.525.508.509.509,0,0,1-.49.528Z" fill="#c23313"/>
  </g>
</svg>
