<svg xmlns="http://www.w3.org/2000/svg" width="56" height="56.288" viewBox="0 0 56 56.288">
  <g id="streamline-icon-performance-increase_64x64" data-name="streamline-icon-performance-increase@64x64" transform="translate(-1 -0.712)">
    <path id="Path_3594" data-name="Path 3594" d="M2,62H56" transform="translate(0 -6)" fill="none" stroke="#233659" stroke-linecap="round" stroke-linejoin="round" stroke-width="2"/>
    <path id="Path_3595" data-name="Path 3595" d="M15,46H7.8A1.8,1.8,0,0,0,6,47.8V60.4H16.8V47.8A1.8,1.8,0,0,0,15,46Z" transform="translate(-0.4 -4.4)" fill="none" stroke="#233659" stroke-linecap="round" stroke-linejoin="round" stroke-width="2"/>
    <path id="Path_3596" data-name="Path 3596" d="M35,34H27.8A1.8,1.8,0,0,0,26,35.8V59.2H36.8V35.8A1.8,1.8,0,0,0,35,34Z" transform="translate(-2.4 -3.2)" fill="none" stroke="#233659" stroke-linecap="round" stroke-linejoin="round" stroke-width="2"/>
    <path id="Path_3597" data-name="Path 3597" d="M55,26H47.8A1.8,1.8,0,0,0,46,27.8V58.4H56.8V27.8A1.8,1.8,0,0,0,55,26Z" transform="translate(-4.4 -2.4)" fill="none" stroke="#233659" stroke-linecap="round" stroke-linejoin="round" stroke-width="2"/>
    <path id="Path_3598" data-name="Path 3598" d="M11.152,22.7,49.715,5.184" transform="translate(-0.915 -0.318)" fill="none" stroke="#233659" stroke-linecap="round" stroke-linejoin="round" stroke-width="2"/>
    <path id="Path_3599" data-name="Path 3599" d="M50.286,12.5l2.866-7.637L45.515,2" transform="translate(-4.352)" fill="none" stroke="#233659" stroke-linecap="round" stroke-linejoin="round" stroke-width="2"/>
  </g>
</svg>
