<?xml version="1.0" encoding="utf-8"?>
<!-- Generator: Adobe Illustrator 23.1.0, SVG Export Plug-In . SVG Version: 6.00 Build 0)  -->
<svg version="1.1" id="streamline-icon-arrow-down-1_24x24"
	 xmlns="http://www.w3.org/2000/svg" xmlns:xlink="http://www.w3.org/1999/xlink" x="0px" y="0px" width="9.6px" height="6px"
	 viewBox="0 0 9.6 6" style="enable-background:new 0 0 9.6 6;" xml:space="preserve">
<style type="text/css">
	.st0{fill:#FFFFFF;}
</style>
<path id="Path_3494" class="st0" d="M4.8,6C4.5,6,4.3,5.9,4.1,5.7L0.2,1.2c-0.3-0.3-0.2-0.8,0.1-1C0.5-0.1,1,0,1.3,0.3l3.4,3.9
	c0,0,0.1,0,0.1,0l0,0l3.4-3.9C8.5,0,9-0.1,9.3,0.2c0.3,0.3,0.4,0.7,0.1,1l0,0l0,0L5.5,5.7C5.3,5.9,5,6,4.8,6z"/>
</svg>
