<svg xmlns="http://www.w3.org/2000/svg" width="56.794" height="56.406" viewBox="0 0 56.794 56.406">
  <g id="streamline-icon-multiple-chat_64x64" data-name="streamline-icon-multiple-chat@64x64" transform="translate(-0.604 -1)">
    <path id="Path_3563" data-name="Path 3563" d="M52.4,20H32.6L29,23.6,25.4,20H5.6A3.6,3.6,0,0,1,2,16.4V5.6A3.6,3.6,0,0,1,5.6,2H52.4A3.6,3.6,0,0,1,56,5.6V16.4A3.6,3.6,0,0,1,52.4,20Z" transform="translate(0 0)" fill="none" stroke="#233659" stroke-linecap="round" stroke-linejoin="round" stroke-width="2"/>
    <path id="Path_3564" data-name="Path 3564" d="M8.3,38A6.3,6.3,0,1,1,2,44.3,6.3,6.3,0,0,1,8.3,38Z" transform="translate(0 -3.599)" fill="none" stroke="#233659" stroke-linecap="round" stroke-linejoin="round" stroke-width="2"/>
    <path id="Path_3565" data-name="Path 3565" d="M18.234,60.56A10.8,10.8,0,0,0,2,56.041" transform="translate(0 -5.199)" fill="none" stroke="#233659" stroke-linecap="round" stroke-linejoin="round" stroke-width="2"/>
    <path id="Path_3566" data-name="Path 3566" d="M54.3,38A6.3,6.3,0,1,1,48,44.3,6.3,6.3,0,0,1,54.3,38Z" transform="translate(-4.598 -3.599)" fill="none" stroke="#233659" stroke-linecap="round" stroke-linejoin="round" stroke-width="2"/>
    <path id="Path_3567" data-name="Path 3567" d="M43.963,60.56A10.8,10.8,0,0,1,60.2,56.041" transform="translate(-4.195 -5.199)" fill="none" stroke="#233659" stroke-linecap="round" stroke-linejoin="round" stroke-width="2"/>
    <path id="Path_3568" data-name="Path 3568" d="M31.1,34A8.1,8.1,0,1,1,23,42.1,8.1,8.1,0,0,1,31.1,34Z" transform="translate(-2.099 -3.199)" fill="none" stroke="#233659" stroke-linecap="round" stroke-linejoin="round" stroke-width="2"/>
    <path id="Path_3569" data-name="Path 3569" d="M42.057,61.4a14.56,14.56,0,0,0-22.631,0" transform="translate(-1.742 -5.398)" fill="none" stroke="#233659" stroke-linecap="round" stroke-linejoin="round" stroke-width="2"/>
  </g>
</svg>
