<svg xmlns="http://www.w3.org/2000/svg" width="60.267" height="60.267" viewBox="0 0 60.267 60.267">
  <g id="streamline-icon-fast-food-burger-drink_40x40" data-name="streamline-icon-fast-food-burger-drink@40x40" transform="translate(-0.25 -0.252)">
    <path id="Path_3877" data-name="Path 3877" d="M16.788,53.981H7.077L1.25,11.252H34.268L33.32,18.2" transform="translate(0 5.538)" fill="none" stroke="#233659" stroke-linecap="round" stroke-linejoin="round" stroke-width="2"/>
    <path id="Path_3878" data-name="Path 3878" d="M10,43.981,15.827,1.252,27.48,3.194" transform="translate(4.846 0)" fill="none" stroke="#233659" stroke-linecap="round" stroke-linejoin="round" stroke-width="2"/>
    <path id="Path_3879" data-name="Path 3879" d="M18.75,33.752H45.941v3.884a3.886,3.886,0,0,1-3.884,3.884H22.634a3.886,3.886,0,0,1-3.884-3.884Z" transform="translate(9.691 17.998)" fill="none" stroke="#233659" stroke-linecap="round" stroke-linejoin="round" stroke-width="2"/>
    <path id="Path_3880" data-name="Path 3880" d="M26.519,21.252H38.172a7.768,7.768,0,0,1,7.769,7.769v3.884H18.75V29.021A7.768,7.768,0,0,1,26.519,21.252Z" transform="translate(9.691 11.076)" fill="none" stroke="#233659" stroke-linecap="round" stroke-linejoin="round" stroke-width="2"/>
    <path id="Path_3881" data-name="Path 3881" d="M20.134,28.752H47.326a3.886,3.886,0,0,1,3.884,3.884h0a3.886,3.886,0,0,1-3.884,3.884H20.134a3.886,3.886,0,0,1-3.884-3.884h0A3.886,3.886,0,0,1,20.134,28.752Z" transform="translate(8.307 15.229)" fill="none" stroke="#233659" stroke-linecap="round" stroke-linejoin="round" stroke-width="2"/>
  </g>
</svg>
