<?xml version="1.0" encoding="utf-8"?>
<!-- Generator: Adobe Illustrator 23.1.0, SVG Export Plug-In . SVG Version: 6.00 Build 0)  -->
<svg version="1.1" id="streamline-icon-arrow-right-1_24x24"
	 xmlns="http://www.w3.org/2000/svg" xmlns:xlink="http://www.w3.org/1999/xlink" x="0px" y="0px" viewBox="0 0 17.9 28.6"
	 style="enable-background:new 0 0 17.9 28.6;" xml:space="preserve">
<style type="text/css">
	.st0{fill:#FFFFFF;}
</style>
<path id="Path_3506" class="st0" d="M17.9,14.3c0,0.8-0.3,1.5-0.9,2.1L3.6,28.1c-0.9,0.8-2.3,0.7-3.1-0.2c-0.8-0.9-0.7-2.3,0.2-3.1
	l11.7-10.3c0.1-0.1,0.1-0.3,0-0.4c0,0,0,0,0,0L0.7,3.8c-0.9-0.8-1-2.2-0.2-3.1c0.8-0.9,2.2-1,3.1-0.2l13.3,11.7
	C17.5,12.8,17.9,13.5,17.9,14.3z"/>
</svg>
