<svg xmlns="http://www.w3.org/2000/svg" width="37.5" height="37.5" viewBox="0 0 37.5 37.5">
  <g id="streamline-icon-hierarchy-3_40x40" data-name="streamline-icon-hierarchy-3@40x40" transform="translate(-0.25 -0.247)">
    <path id="Path_3771" data-name="Path 3771" d="M2.433,31.247H21.367A1.184,1.184,0,0,1,22.55,32.43v4.733a1.184,1.184,0,0,1-1.183,1.183H2.433A1.184,1.184,0,0,1,1.25,37.163V32.43A1.184,1.184,0,0,1,2.433,31.247Z" transform="translate(0 -1.6)" fill="none" stroke="#233659" stroke-linecap="round" stroke-linejoin="round" stroke-width="2"/>
    <path id="Path_3772" data-name="Path 3772" d="M17.433,18.747H36.367A1.184,1.184,0,0,1,37.55,19.93v4.733a1.184,1.184,0,0,1-1.183,1.183H17.433a1.184,1.184,0,0,1-1.183-1.183V19.93A1.184,1.184,0,0,1,17.433,18.747Z" transform="translate(-0.8 -0.933)" fill="none" stroke="#233659" stroke-linecap="round" stroke-linejoin="round" stroke-width="2"/>
    <path id="Path_3773" data-name="Path 3773" d="M2.433,1.247H21.367A1.184,1.184,0,0,1,22.55,2.43V7.163a1.184,1.184,0,0,1-1.183,1.183H2.433A1.184,1.184,0,0,1,1.25,7.163V2.43A1.184,1.184,0,0,1,2.433,1.247Z" transform="translate(0 0)" fill="none" stroke="#233659" stroke-linecap="round" stroke-linejoin="round" stroke-width="2"/>
    <path id="Path_3774" data-name="Path 3774" d="M11.25,8.747v2.367a2.368,2.368,0,0,0,2.367,2.367h7.1a2.368,2.368,0,0,1,2.367,2.367v2.367" transform="translate(-0.533 -0.4)" fill="none" stroke="#233659" stroke-linecap="round" stroke-linejoin="round" stroke-width="2"/>
    <path id="Path_3775" data-name="Path 3775" d="M30.85,26.247v7.1a2.368,2.368,0,0,1-2.367,2.367H23.75" transform="translate(-1.2 -1.333)" fill="none" stroke="#233659" stroke-linecap="round" stroke-linejoin="round" stroke-width="2"/>
  </g>
</svg>
