<svg id="streamline-icon-e-learning-book-smartphone_40x40" data-name="streamline-icon-e-learning-book-smartphone@40x40" xmlns="http://www.w3.org/2000/svg" width="64" height="64.012" viewBox="0 0 64 64.012">
  <path id="Path_3556" data-name="Path 3556" d="M13.333,52.683V44A1.334,1.334,0,0,0,12,42.667H6.667a1.334,1.334,0,0,1-1.333-1.333V14.667a1.334,1.334,0,0,1,1.333-1.333H28a1.334,1.334,0,0,1,1.333,1.333,2.667,2.667,0,1,0,5.333,0v-4A10.667,10.667,0,0,0,24,0H10.667A10.667,10.667,0,0,0,0,10.667V45.333A10.667,10.667,0,0,0,10.667,56h2.509a.662.662,0,0,0,.667-.661.676.676,0,0,0-.048-.251A6.516,6.516,0,0,1,13.333,52.683ZM62.787,20.533a4.153,4.153,0,0,0-2.9-1.144A33.557,33.557,0,0,0,41.5,24.416a2.67,2.67,0,0,1-3,0A33.585,33.585,0,0,0,20.117,19.4a4.15,4.15,0,0,0-2.9,1.136A4.036,4.036,0,0,0,16,23.408V52.741a4.024,4.024,0,0,0,3.931,3.984c13.581.333,17.832,6.067,17.867,6.133a2.667,2.667,0,0,0,4.389,0c.043-.059,4.293-5.792,17.867-6.133A4.026,4.026,0,0,0,64,52.741V23.408A4.036,4.036,0,0,0,62.787,20.533ZM37.333,53.464a1.334,1.334,0,0,1-1.909,1.2,35.526,35.526,0,0,0-12.856-3.149,1.332,1.332,0,0,1-1.235-1.333V26.211a1.334,1.334,0,0,1,1.328-1.339c.04,0,.083,0,.123.005a23.889,23.889,0,0,1,14.1,5.019,1.327,1.327,0,0,1,.448.995Zm21.333-3.275a1.332,1.332,0,0,1-1.235,1.333,35.574,35.574,0,0,0-12.856,3.144,1.333,1.333,0,0,1-1.909-1.2V30.9a1.327,1.327,0,0,1,.448-.995,23.865,23.865,0,0,1,14.1-5.019,1.333,1.333,0,0,1,1.445,1.211c0,.04.005.083.005.123Z" transform="translate(0 0)" fill="#233659"/>
</svg>
