<svg xmlns="http://www.w3.org/2000/svg" width="37.706" height="37.353" viewBox="0 0 37.706 37.353">
  <g id="streamline-icon-team-meeting_40x40" data-name="streamline-icon-team-meeting@40x40" transform="translate(0.105 -0.25)">
    <path id="Path_3622" data-name="Path 3622" d="M7.5,25a4.375,4.375,0,1,1-4.375,4.375A4.374,4.374,0,0,1,7.5,25Z" transform="translate(0 -2.5)" fill="none" stroke="#183965" stroke-linecap="round" stroke-linejoin="round" stroke-width="2"/>
    <path id="Path_3623" data-name="Path 3623" d="M13.748,38.75a7.083,7.083,0,0,0-12.5,0" transform="translate(0 -2.5)" fill="none" stroke="#183965" stroke-linecap="round" stroke-linejoin="round" stroke-width="2"/>
    <path id="Path_3624" data-name="Path 3624" d="M32.5,25a4.375,4.375,0,1,1-4.375,4.375A4.374,4.374,0,0,1,32.5,25Z" transform="translate(-2.5 -2.5)" fill="none" stroke="#183965" stroke-linecap="round" stroke-linejoin="round" stroke-width="2"/>
    <path id="Path_3625" data-name="Path 3625" d="M38.748,38.75a7.083,7.083,0,0,0-12.5,0" transform="translate(-2.5 -2.5)" fill="none" stroke="#183965" stroke-linecap="round" stroke-linejoin="round" stroke-width="2"/>
    <path id="Path_3626" data-name="Path 3626" d="M20,1.25a4.375,4.375,0,1,1-4.375,4.375A4.374,4.374,0,0,1,20,1.25Z" transform="translate(-1.25)" fill="none" stroke="#183965" stroke-linecap="round" stroke-linejoin="round" stroke-width="2"/>
    <path id="Path_3627" data-name="Path 3627" d="M25.413,13.75a7.115,7.115,0,0,0-10.03-.8,7.312,7.312,0,0,0-.8.8" transform="translate(-1.25 -0.714)" fill="none" stroke="#183965" stroke-linecap="round" stroke-linejoin="round" stroke-width="2"/>
    <path id="Path_3628" data-name="Path 3628" d="M15.083,32.845a13.8,13.8,0,0,0,9.907-.03" transform="translate(-1.254 -2.5)" fill="none" stroke="#183965" stroke-linecap="round" stroke-linejoin="round" stroke-width="2"/>
    <path id="Path_3629" data-name="Path 3629" d="M10.58,10A13.694,13.694,0,0,0,6.247,20c0,.422.025.833.063,1.25" transform="translate(0 -0.833)" fill="none" stroke="#183965" stroke-linecap="round" stroke-linejoin="round" stroke-width="2"/>
    <path id="Path_3630" data-name="Path 3630" d="M33.685,21.25c.037-.413.063-.833.063-1.25a13.688,13.688,0,0,0-4.333-10" transform="translate(-2.5 -0.833)" fill="none" stroke="#183965" stroke-linecap="round" stroke-linejoin="round" stroke-width="2"/>
  </g>
</svg>
