<svg xmlns="http://www.w3.org/2000/svg" width="56" height="56" viewBox="0 0 56 56">
  <g id="Group_1439" data-name="Group 1439" transform="translate(-332.374 -47.786)">
    <text id="_24_7" data-name="24/7" transform="translate(360.041 55.731)" fill="#072c53" font-size="9" font-family="NHaasGroteskTXPro-75Bd, Neue Haas Grotesk Text Pro"><tspan x="0" y="9">24/7</tspan></text>
    <path id="Path_3614" data-name="Path 3614" d="M362.174,80.086V95.13a6.556,6.556,0,0,1-6.556,6.556H339.933a6.56,6.56,0,0,1-6.559-6.556V57.845a6.564,6.564,0,0,1,6.559-6.559h6.041" transform="translate(0 1.1)" fill="none" stroke="#233659" stroke-linecap="round" stroke-linejoin="round" stroke-width="2"/>
    <path id="Path_3615" data-name="Path 3615" d="M333.374,78.786h28.8" transform="translate(0 13.2)" fill="none" stroke="#233659" stroke-linecap="round" stroke-linejoin="round" stroke-width="2"/>
    <path id="Path_3616" data-name="Path 3616" d="M374.124,48.786h-19.8a7.2,7.2,0,0,0-7.2,7.2v10.8a7.2,7.2,0,0,0,7.2,7.2h9v9l9-9h1.8a7.2,7.2,0,0,0,7.2-7.2v-10.8A7.2,7.2,0,0,0,374.124,48.786Z" transform="translate(6.05 0)" fill="none" stroke="#233659" stroke-linecap="round" stroke-linejoin="round" stroke-width="2"/>
  </g>
</svg>
