<svg xmlns="http://www.w3.org/2000/svg" width="40.477" height="41.811" viewBox="0 0 40.477 41.811">
  <g id="streamline-icon-target-center-1_24x24_1_" data-name="streamline-icon-target-center-1@24x24 (1)" transform="translate(-0.064)">
    <path id="Path_3522" data-name="Path 3522" d="M11.427,11.25A6.552,6.552,0,1,1,4.875,17.8,6.552,6.552,0,0,1,11.427,11.25Z" transform="translate(2.977 8.328)" fill="none" stroke="#fff" stroke-linecap="round" stroke-linejoin="round" stroke-width="1.5"/>
    <path id="Path_3523" data-name="Path 3523" d="M14.228,7.5a13.1,13.1,0,1,1-13.1,13.1A13.1,13.1,0,0,1,14.228,7.5Z" transform="translate(0 5.733)" fill="none" stroke="#fff" stroke-linecap="round" stroke-linejoin="round" stroke-width="1.5"/>
    <path id="Path_3524" data-name="Path 3524" d="M8.625,21.724,24.349,6" transform="translate(5.996 4.191)" fill="none" stroke="#fff" stroke-linecap="round" stroke-linejoin="round" stroke-width="1.5"/>
    <path id="Path_3525" data-name="Path 3525" d="M1.125,25.181l4.516-4.516" transform="translate(0 15.569)" fill="none" stroke="#fff" stroke-linecap="round" stroke-linejoin="round" stroke-width="1.5"/>
    <path id="Path_3526" data-name="Path 3526" d="M18.056,25.181,13.54,20.665" transform="translate(9.707 15.569)" fill="none" stroke="#fff" stroke-linecap="round" stroke-linejoin="round" stroke-width="1.5"/>
    <path id="Path_3527" data-name="Path 3527" d="M23.191,13.722a2.619,2.619,0,0,1-2.224.743l-5.189-.741-.741-5.189a2.62,2.62,0,0,1,.741-2.224L21.337.75,22.92,6.58l5.83,1.583Z" transform="translate(11.041 0)" fill="none" stroke="#fff" stroke-linecap="round" stroke-linejoin="round" stroke-width="1.5"/>
  </g>
</svg>
