<svg xmlns="http://www.w3.org/2000/svg" width="30.4" height="37.5" viewBox="0 0 30.4 37.5">
  <g id="streamline-icon-phone-action-ring_40x40" data-name="streamline-icon-phone-action-ring@40x40" transform="translate(-4 -0.25)">
    <path id="Path_3850" data-name="Path 3850" d="M23.933,23.867v8.706a4.31,4.31,0,0,1-4.31,4.31H9.312A4.31,4.31,0,0,1,5,32.574V8.062A4.313,4.313,0,0,1,9.312,3.75h5.155" transform="translate(0 -0.133)" fill="none" stroke="#183965" stroke-linecap="round" stroke-linejoin="round" stroke-width="2"/>
    <path id="Path_3851" data-name="Path 3851" d="M5,31.25H23.933" transform="translate(0 -1.6)" fill="none" stroke="#183965" stroke-linecap="round" stroke-linejoin="round" stroke-width="2"/>
    <path id="Path_3852" data-name="Path 3852" d="M25.783,1.25A5.917,5.917,0,0,1,31.7,7.167V11.9a2.368,2.368,0,0,0,2.367,2.367H17.5A2.368,2.368,0,0,0,19.867,11.9V7.167A5.917,5.917,0,0,1,25.783,1.25Z" transform="translate(-0.667)" fill="none" stroke="#183965" stroke-linecap="round" stroke-linejoin="round" stroke-width="2"/>
    <path id="Path_3853" data-name="Path 3853" d="M26.25,18.75h0" transform="translate(-1.133 -0.933)" fill="none" stroke="#183965" stroke-linecap="round" stroke-linejoin="round" stroke-width="2"/>
    <path id="Path_3854" data-name="Path 3854" d="M26.217,18.75a.592.592,0,1,0,.592.592.592.592,0,0,0-.592-.592" transform="translate(-1.1 -0.933)" fill="none" stroke="#183965" stroke-linecap="round" stroke-linejoin="round" stroke-width="2"/>
  </g>
</svg>
