<svg xmlns="http://www.w3.org/2000/svg" width="38.547" height="38.275" viewBox="0 0 38.547 38.275">
  <g id="streamline-icon-multiple-users-network_140x140" data-name="streamline-icon-multiple-users-network@140x140" transform="translate(-3.107 -3.375)">
    <path id="Path_3820" data-name="Path 3820" d="M35,14.061a9.527,9.527,0,1,0,19.052,0,9.527,9.527,0,1,0-19.052,0Z" transform="translate(-22.146)" fill="none" stroke="#2cc4ec" stroke-linecap="round" stroke-linejoin="round" stroke-width="2"/>
    <path id="Path_3821" data-name="Path 3821" d="M35,39.375H54.052" transform="translate(-22.146 -25.4)" fill="none" stroke="#2cc4ec" stroke-linecap="round" stroke-linejoin="round" stroke-width="2"/>
    <path id="Path_3822" data-name="Path 3822" d="M56.875,14.061c0,5.349,1.626,9.686,3.632,9.686s3.632-4.336,3.632-9.686-1.626-9.686-3.632-9.686S56.875,8.711,56.875,14.061Z" transform="translate(-38.127)" fill="none" stroke="#2cc4ec" stroke-linecap="round" stroke-linejoin="round" stroke-width="2"/>
    <path id="Path_3823" data-name="Path 3823" d="M13.7,87.362a4.237,4.237,0,1,0,4.237-4.237A4.237,4.237,0,0,0,13.7,87.362Z" transform="translate(-6.742 -57.207)" fill="none" stroke="#2cc4ec" stroke-linecap="round" stroke-linejoin="round" stroke-width="2"/>
    <path id="Path_3824" data-name="Path 3824" d="M18.02,122.964a7.222,7.222,0,0,0-13.639,0" transform="translate(0 -82.588)" fill="none" stroke="#2cc4ec" stroke-linecap="round" stroke-linejoin="round" stroke-width="2"/>
    <path id="Path_3825" data-name="Path 3825" d="M95.672,87.362a4.237,4.237,0,1,0,4.237-4.237,4.237,4.237,0,0,0-4.237,4.237Z" transform="translate(-66.348 -57.207)" fill="none" stroke="#2cc4ec" stroke-linecap="round" stroke-linejoin="round" stroke-width="2"/>
    <path id="Path_3826" data-name="Path 3826" d="M99.978,122.964a7.222,7.222,0,0,0-13.639,0" transform="translate(-59.597 -82.588)" fill="none" stroke="#2cc4ec" stroke-linecap="round" stroke-linejoin="round" stroke-width="2"/>
  </g>
</svg>
