<svg id="streamline-icon-buildings-2_24x24" data-name="streamline-icon-buildings-2@24x24" xmlns="http://www.w3.org/2000/svg" width="41.5" height="41.5" viewBox="0 0 41.5 41.5">
  <path id="Path_3528" data-name="Path 3528" d="M3.139,5.25H20.028a.889.889,0,0,1,.889.889V37.25H2.25V6.139A.889.889,0,0,1,3.139,5.25Z" transform="translate(1.167 3.5)" fill="none" stroke="#fff" stroke-linecap="round" stroke-linejoin="round" stroke-width="1.5"/>
  <path id="Path_3529" data-name="Path 3529" d="M6.139,2.25h6.222a.889.889,0,0,1,.889.889V7.583h-8V3.139A.889.889,0,0,1,6.139,2.25Z" transform="translate(3.5 1.167)" fill="none" stroke="#fff" stroke-linecap="round" stroke-linejoin="round" stroke-width="1.5"/>
  <path id="Path_3530" data-name="Path 3530" d="M5.25,8.25h8" transform="translate(3.5 5.833)" fill="none" stroke="#fff" stroke-linecap="round" stroke-linejoin="round" stroke-width="1.5"/>
  <path id="Path_3531" data-name="Path 3531" d="M5.25,11.25h8" transform="translate(3.5 8.167)" fill="none" stroke="#fff" stroke-linecap="round" stroke-linejoin="round" stroke-width="1.5"/>
  <path id="Path_3532" data-name="Path 3532" d="M5.25,14.25h8" transform="translate(3.5 10.5)" fill="none" stroke="#fff" stroke-linecap="round" stroke-linejoin="round" stroke-width="1.5"/>
  <path id="Path_3533" data-name="Path 3533" d="M5.25,17.25h8" transform="translate(3.5 12.833)" fill="none" stroke="#fff" stroke-linecap="round" stroke-linejoin="round" stroke-width="1.5"/>
  <path id="Path_3534" data-name="Path 3534" d="M5.25,20.25h8" transform="translate(3.5 15.167)" fill="none" stroke="#fff" stroke-linecap="round" stroke-linejoin="round" stroke-width="1.5"/>
  <path id="Path_3535" data-name="Path 3535" d="M8.25.75V3.417" transform="translate(5.833 0)" fill="none" stroke="#fff" stroke-linecap="round" stroke-linejoin="round" stroke-width="1.5"/>
  <path id="Path_3536" data-name="Path 3536" d="M15.75,33.75H26.417V11.083A1.334,1.334,0,0,0,25.083,9.75h-8a1.334,1.334,0,0,0-1.333,1.333V33.75" transform="translate(11.667 7)" fill="none" stroke="#fff" stroke-linecap="round" stroke-linejoin="round" stroke-width="1.5"/>
  <path id="Path_3537" data-name="Path 3537" d="M20.25,8.25v2.667" transform="translate(15.167 5.833)" fill="none" stroke="#fff" stroke-linecap="round" stroke-linejoin="round" stroke-width="1.5"/>
  <path id="Path_3538" data-name="Path 3538" d="M.75,23.25h40" transform="translate(0 17.5)" fill="none" stroke="#fff" stroke-linecap="round" stroke-linejoin="round" stroke-width="1.5"/>
</svg>
