<svg id="streamline-icon-check-circle-1-alternate_24x24" data-name="streamline-icon-check-circle-1-alternate@24x24" xmlns="http://www.w3.org/2000/svg" width="12" height="12" viewBox="0 0 12 12">
  <path id="Path_3498" data-name="Path 3498" d="M9.24,3.225a.624.624,0,0,0-.873.132h0L5.4,7.377,3.521,5.87a.625.625,0,0,0-.782.977L5.131,8.759a.631.631,0,0,0,.886-.108l.007-.009L9.375,4.1a.626.626,0,0,0-.135-.874ZM6,0a6,6,0,1,0,6,6A6,6,0,0,0,6,0ZM6,11a5,5,0,1,1,5-5A5,5,0,0,1,6,11Z" fill="#3c9807"/>
</svg>
