<svg xmlns="http://www.w3.org/2000/svg" width="64" height="62.673" viewBox="0 0 64 62.673">
  <g id="streamline-icon-headphones-customer-support-human_40x40_1_" data-name="streamline-icon-headphones-customer-support-human@40x40 (1)" transform="translate(-0.004)">
    <path id="Path_3555" data-name="Path 3555" d="M64,37.337a11.981,11.981,0,0,0-8-11.305V24A24,24,0,0,0,8,24v2.03A12,12,0,0,0,8,48.655a4,4,0,0,0,5.334-3.771V24a18.668,18.668,0,1,1,37.337,0V44.884A3.981,3.981,0,0,0,52,47.818v1.52c0,3.931-3.443,5.334-6.667,5.334H40.594a5.334,5.334,0,1,0,0,5.334h4.742c7.067,0,12-4.387,12-10.668V48.063A12,12,0,0,0,64,37.337Zm-23.618.12a2.221,2.221,0,0,1,1.867-1.005,2.222,2.222,0,0,1,1.862,3.432s0,0,0,.005a14.45,14.45,0,0,1-24.216,0,2.228,2.228,0,1,1,3.734-2.432,10,10,0,0,0,16.77,0ZM23.112,20.893a4.446,4.446,0,1,1-4.446,4.446A4.445,4.445,0,0,1,23.112,20.893Zm17.778,0a4.446,4.446,0,1,1-4.446,4.446A4.445,4.445,0,0,1,40.89,20.893Z" transform="translate(0)" fill="#233659"/>
  </g>
</svg>
