<svg xmlns="http://www.w3.org/2000/svg" width="59" height="59" viewBox="0 0 59 59">
  <g id="streamline-icon-multiple-circle_40x40" data-name="streamline-icon-multiple-circle@40x40" transform="translate(-0.25 -0.25)">
    <path id="Path_3807" data-name="Path 3807" d="M22.6,1.25A7.6,7.6,0,1,1,15,8.85,7.6,7.6,0,0,1,22.6,1.25Z" transform="translate(7.15 0)" fill="none" stroke="#233659" stroke-linecap="round" stroke-linejoin="round" stroke-width="2"/>
    <path id="Path_3808" data-name="Path 3808" d="M32.75,28.95v-5.7a9.5,9.5,0,1,0-19,0v5.7h3.8l1.9,15.2h7.6l1.9-15.2Z" transform="translate(6.5 6.5)" fill="none" stroke="#233659" stroke-linecap="round" stroke-linejoin="round" stroke-width="2"/>
    <path id="Path_3809" data-name="Path 3809" d="M9.45,6.25a5.7,5.7,0,1,1-5.7,5.7A5.7,5.7,0,0,1,9.45,6.25Z" transform="translate(1.3 2.6)" fill="none" stroke="#233659" stroke-linecap="round" stroke-linejoin="round" stroke-width="2"/>
    <path id="Path_3810" data-name="Path 3810" d="M13.79,16.749a9.508,9.508,0,0,0-12.54,9v1.9h3.8l1.9,11.4h7.6l.953-5.715" transform="translate(0 7.8)" fill="none" stroke="#233659" stroke-linecap="round" stroke-linejoin="round" stroke-width="2"/>
    <path id="Path_3811" data-name="Path 3811" d="M34.45,6.25a5.7,5.7,0,1,1-5.7,5.7A5.7,5.7,0,0,1,34.45,6.25Z" transform="translate(14.3 2.6)" fill="none" stroke="#233659" stroke-linecap="round" stroke-linejoin="round" stroke-width="2"/>
    <path id="Path_3812" data-name="Path 3812" d="M31.086,16.749a9.508,9.508,0,0,1,12.54,9v1.9h-3.8l-1.9,11.4h-7.6l-.953-5.715" transform="translate(14.624 7.8)" fill="none" stroke="#233659" stroke-linecap="round" stroke-linejoin="round" stroke-width="2"/>
    <path id="Path_3813" data-name="Path 3813" d="M58.25,35c0,3.149-12.76,5.7-28.5,5.7S1.25,38.149,1.25,35" transform="translate(0 17.55)" fill="none" stroke="#233659" stroke-linecap="round" stroke-linejoin="round" stroke-width="2"/>
  </g>
</svg>
