<svg xmlns="http://www.w3.org/2000/svg" width="37.004" height="37.027" viewBox="0 0 37.004 37.027">
  <g id="streamline-icon-strategy-split_40x40" data-name="streamline-icon-strategy-split@40x40" transform="translate(-0.241 -0.209)">
    <path id="Path_3659" data-name="Path 3659" d="M16.085,10a.921.921,0,0,1-.793-1.39l3.915-6.943a.921.921,0,0,1,1.587,0L24.71,8.608a.924.924,0,0,1-.8,1.392Z" transform="translate(-1.257)" fill="none" stroke="#193a65" stroke-linecap="round" stroke-linejoin="round" stroke-width="2"/>
    <path id="Path_3660" data-name="Path 3660" d="M10.687,18.233a.924.924,0,0,0-.5-1.207.94.94,0,0,0-.478-.062L2.038,18.043a.921.921,0,0,0-.787,1.038.933.933,0,0,0,.178.432l4.653,6.178a.925.925,0,0,0,1.592-.2l1.5-3.627Z" transform="translate(0 -1.393)" fill="none" stroke="#193a65" stroke-linecap="round" stroke-linejoin="round" stroke-width="2"/>
    <path id="Path_3661" data-name="Path 3661" d="M8.967,22.387C15.882,24.553,20,28.72,20,36.585v2.167" transform="translate(-0.733 -2.516)" fill="none" stroke="#193a65" stroke-linecap="round" stroke-linejoin="round" stroke-width="2"/>
    <path id="Path_3662" data-name="Path 3662" d="M29.313,18.233a.924.924,0,0,1,.5-1.207.94.94,0,0,1,.478-.062l7.667,1.078a.921.921,0,0,1,.787,1.038.933.933,0,0,1-.178.432l-4.653,6.178a.925.925,0,0,1-1.592-.2l-1.5-3.627Z" transform="translate(-2.514 -1.393)" fill="none" stroke="#193a65" stroke-linecap="round" stroke-linejoin="round" stroke-width="2"/>
    <path id="Path_3663" data-name="Path 3663" d="M31.033,22.387C24.118,24.553,20,28.72,20,36.585v2.167" transform="translate(-1.781 -2.516)" fill="none" stroke="#193a65" stroke-linecap="round" stroke-linejoin="round" stroke-width="2"/>
    <path id="Path_3664" data-name="Path 3664" d="M20,10V36.585" transform="translate(-1.257 -2.516)" fill="none" stroke="#193a65" stroke-linecap="round" stroke-linejoin="round" stroke-width="2"/>
  </g>
</svg>
