<svg xmlns="http://www.w3.org/2000/svg" width="26" height="25.997" viewBox="0 0 26 25.997">
  <g id="streamline-icon-space-rocket-flying_40x40_1_" data-name="streamline-icon-space-rocket-flying@40x40 (1)" transform="translate(-1.311 -1.317)">
    <path id="Path_3557" data-name="Path 3557" d="M13.26,21.881a1.736,1.736,0,0,1-.754.443.289.289,0,0,0-.21.246l-.263,2.25a1.194,1.194,0,0,0,2.031.984l3.1-3.1a8.92,8.92,0,0,0,1.881-2.836,14.421,14.421,0,0,0,.424-3.486.29.29,0,0,0-.5-.216Zm-6.5-6.5L12.5,9.625a.291.291,0,0,0,0-.412.3.3,0,0,0-.21-.083,15.059,15.059,0,0,0-3.579.4,8.908,8.908,0,0,0-2.8,1.916L2.82,14.537a1.2,1.2,0,0,0,.843,2.039c.041,0,1.823-.214,2.424-.288a.29.29,0,0,0,.242-.2A1.742,1.742,0,0,1,6.757,15.38ZM7.4,19.573c-.98-.982-2.464-.812-3.69.409-.868.87-1.761,3.671-2.357,5.869a1.159,1.159,0,0,0,1.426,1.421c2.19-.6,4.985-1.507,5.85-2.371,1.225-1.225,1.391-2.71.41-3.689ZM26.625,1.328C25.178,1.62,22.27,2.3,21.368,3.2c-.751.745-11.549,11.575-13.175,13.2a.29.29,0,0,0,0,.409l3.634,3.637a.29.29,0,0,0,.409,0L25.427,7.256c.9-.9,1.583-3.811,1.874-5.257a.573.573,0,0,0-.676-.671Z" fill="#233659"/>
  </g>
</svg>
