<?xml version="1.0" encoding="utf-8"?>
<!-- Generator: Adobe Illustrator 23.1.0, SVG Export Plug-In . SVG Version: 6.00 Build 0)  -->
<svg version="1.1" id="streamline-icon-arrow-right-1_24x24"
	 xmlns="http://www.w3.org/2000/svg" xmlns:xlink="http://www.w3.org/1999/xlink" x="0px" y="0px" viewBox="0 0 10 16"
	 style="enable-background:new 0 0 10 16;" xml:space="preserve">
<style type="text/css">
	.st0{fill:#FFFFFF;}
</style>
<path id="Path_3506" class="st0" d="M0,8c0,0.4,0.2,0.9,0.5,1.2L8,15.7c0.5,0.4,1.3,0.4,1.7-0.1c0.4-0.5,0.4-1.3-0.1-1.7L3.1,8.1
	C3,8.1,3,8,3.1,7.9c0,0,0,0,0,0l0,0l6.5-5.7c0.5-0.5,0.6-1.2,0.1-1.7C9.2-0.1,8.5-0.2,8,0.3L0.5,6.8C0.2,7.1,0,7.6,0,8z"/>
</svg>
