<svg xmlns="http://www.w3.org/2000/svg" width="52" height="52" viewBox="0 0 52 52">
  <g id="streamline-icon-cash-network_40x40" data-name="streamline-icon-cash-network@40x40" transform="translate(-0.25 -0.25)">
    <path id="Path_3686" data-name="Path 3686" d="M5,1.25A3.75,3.75,0,1,1,1.25,5,3.749,3.749,0,0,1,5,1.25Z" fill="none" stroke="#233659" stroke-linecap="round" stroke-linejoin="round" stroke-width="2"/>
    <path id="Path_3687" data-name="Path 3687" d="M8.037,7.2l3.213,2.33" transform="translate(2.474 2.115)" fill="none" stroke="#233659" stroke-linecap="round" stroke-linejoin="round" stroke-width="2"/>
    <path id="Path_3688" data-name="Path 3688" d="M5,31.25A3.75,3.75,0,1,1,1.25,35,3.749,3.749,0,0,1,5,31.25Z" transform="translate(0 12.5)" fill="none" stroke="#233659" stroke-linecap="round" stroke-linejoin="round" stroke-width="2"/>
    <path id="Path_3689" data-name="Path 3689" d="M8.037,32.8l3.213-2.332" transform="translate(2.474 10.385)" fill="none" stroke="#233659" stroke-linecap="round" stroke-linejoin="round" stroke-width="2"/>
    <path id="Path_3690" data-name="Path 3690" d="M35,1.25A3.75,3.75,0,1,1,31.25,5,3.749,3.749,0,0,1,35,1.25Z" transform="translate(12.5)" fill="none" stroke="#233659" stroke-linecap="round" stroke-linejoin="round" stroke-width="2"/>
    <path id="Path_3691" data-name="Path 3691" d="M31.963,7.2,28.75,9.532" transform="translate(10.026 2.115)" fill="none" stroke="#233659" stroke-linecap="round" stroke-linejoin="round" stroke-width="2"/>
    <path id="Path_3692" data-name="Path 3692" d="M35,31.25A3.75,3.75,0,1,1,31.25,35,3.749,3.749,0,0,1,35,31.25Z" transform="translate(12.5 12.5)" fill="none" stroke="#233659" stroke-linecap="round" stroke-linejoin="round" stroke-width="2"/>
    <path id="Path_3693" data-name="Path 3693" d="M31.963,32.8,28.75,30.467" transform="translate(10.026 10.385)" fill="none" stroke="#233659" stroke-linecap="round" stroke-linejoin="round" stroke-width="2"/>
    <path id="Path_3694" data-name="Path 3694" d="M16.25,23.75A3.75,3.75,0,1,0,20,20h0a3.75,3.75,0,1,1,3.75-3.75" transform="translate(6.25 6.25)" fill="none" stroke="#233659" stroke-linecap="round" stroke-linejoin="round" stroke-width="2"/>
    <path id="Path_3695" data-name="Path 3695" d="M20,10v2.5" transform="translate(6.25 3.125)" fill="none" stroke="#233659" stroke-linecap="round" stroke-linejoin="round" stroke-width="2"/>
    <path id="Path_3696" data-name="Path 3696" d="M20,27.5V30" transform="translate(6.25 9.375)" fill="none" stroke="#233659" stroke-linecap="round" stroke-linejoin="round" stroke-width="2"/>
  </g>
</svg>
