<?xml version="1.0" encoding="utf-8"?>
<!-- Generator: Adobe Illustrator 23.1.0, SVG Export Plug-In . SVG Version: 6.00 Build 0)  -->
<svg version="1.1" id="Layer_1" xmlns="http://www.w3.org/2000/svg" xmlns:xlink="http://www.w3.org/1999/xlink" x="0px" y="0px"
	 width="16.1px" height="15.2px" viewBox="0 0 16.1 15.2" style="enable-background:new 0 0 16.1 15.2;" xml:space="preserve">
<style type="text/css">
	.st0{fill:#233659;}
</style>
<g id="streamline-icon-arrow-right-1_24x24" transform="translate(-4.534 -0.028)">
	<path id="Path_3506" class="st0" d="M11,7.7c0-0.4,0.2-0.8,0.5-1.1l7.1-6.3c0.5-0.4,1.2-0.4,1.7,0.1c0.4,0.5,0.4,1.2-0.1,1.6
		L14,7.4c-0.1,0.1-0.1,0.2,0,0.2l0,0l6.2,5.6c0.5,0.5,0.5,1.2,0.1,1.7c-0.5,0.5-1.2,0.5-1.7,0.1l-7.1-6.2C11.2,8.5,11,8.1,11,7.7z"
		/>
</g>
<g id="streamline-icon-arrow-right-1_24x24_1_" transform="translate(-4.534 -0.028)">
	<path id="Path_3506_1_" class="st0" d="M4.5,7.7c0-0.4,0.2-0.8,0.5-1.1l7-6.3c0.5-0.4,1.2-0.4,1.7,0.1c0.4,0.5,0.4,1.2-0.1,1.6
		L7.4,7.4c-0.1,0.1-0.1,0.2,0,0.2l0,0l6.2,5.4c0.5,0.7,0.5,1.4,0.1,1.9S12.5,15.4,12,15L4.9,8.8C4.6,8.5,4.5,8.1,4.5,7.7z"/>
</g>
</svg>
