<svg id="streamline-icon-earth-3_40x40" data-name="streamline-icon-earth-3@40x40" xmlns="http://www.w3.org/2000/svg" width="59.5" height="59.5" viewBox="0 0 59.5 59.5">
  <path id="Path_3814" data-name="Path 3814" d="M29.75,1.25a28.5,28.5,0,1,1-28.5,28.5A28.5,28.5,0,0,1,29.75,1.25Z" transform="translate(0 0)" fill="none" stroke="#233659" stroke-linecap="round" stroke-linejoin="round" stroke-width="2.5"/>
  <path id="Path_3815" data-name="Path 3815" d="M17.682,57.131C13.826,51.477,11.25,41.2,11.25,29.465S13.826,7.453,17.682,1.8" transform="translate(5.2 0.285)" fill="none" stroke="#233659" stroke-linecap="round" stroke-linejoin="round" stroke-width="2.5"/>
  <path id="Path_3816" data-name="Path 3816" d="M1.25,20h57" transform="translate(0 9.75)" fill="none" stroke="#233659" stroke-linecap="round" stroke-linejoin="round" stroke-width="2.5"/>
  <path id="Path_3817" data-name="Path 3817" d="M4.137,30H52.361" transform="translate(1.501 14.95)" fill="none" stroke="#233659" stroke-linecap="round" stroke-linejoin="round" stroke-width="2.5"/>
  <path id="Path_3818" data-name="Path 3818" d="M4.137,10H52.361" transform="translate(1.501 4.55)" fill="none" stroke="#233659" stroke-linecap="round" stroke-linejoin="round" stroke-width="2.5"/>
  <path id="Path_3819" data-name="Path 3819" d="M24.518,1.8c3.856,5.654,6.432,15.93,6.432,27.667s-2.576,22.012-6.432,27.667" transform="translate(12.099 0.285)" fill="none" stroke="#233659" stroke-linecap="round" stroke-linejoin="round" stroke-width="2.5"/>
</svg>
