<svg xmlns="http://www.w3.org/2000/svg" width="16" height="11.222" viewBox="0 0 16 11.222">
  <g id="streamline-icon-close-quote_24x24" data-name="streamline-icon-close-quote@24x24" transform="translate(-0.5 -3.931)">
    <path id="Path_3504" data-name="Path 3504" d="M13.061,3.932a3.437,3.437,0,0,0-.1,6.874h.1a3.207,3.207,0,0,0,.776-.1.174.174,0,0,1,.21.127.176.176,0,0,1-.018.129,4.751,4.751,0,0,1-4.088,2.45.869.869,0,1,0,0,1.739A6.754,6.754,0,0,0,16.5,8.232V7.369A3.441,3.441,0,0,0,13.061,3.932Zm-8.571,0a3.437,3.437,0,0,0,0,6.874,3.207,3.207,0,0,0,.776-.1.174.174,0,0,1,.193.256,4.751,4.751,0,0,1-4.088,2.45.869.869,0,0,0,0,1.739A6.754,6.754,0,0,0,7.927,8.232V7.369A3.441,3.441,0,0,0,4.49,3.932Z" transform="translate(0 0)" fill="#17191d"/>
  </g>
</svg>
