<svg xmlns="http://www.w3.org/2000/svg" width="24" height="24" viewBox="0 0 24 24">
  <g id="streamline-icon-remove-circle_140x140" data-name="streamline-icon-remove-circle@140x140" transform="translate(0 0)">
    <path id="Path_3" data-name="Path 3" d="M12,0A12,12,0,1,0,24,12,12,12,0,0,0,12,0Zm5.49,16.076a1,1,0,1,1-1.414,1.414l-3.9-3.9a.252.252,0,0,0-.354,0l-3.9,3.9a1.012,1.012,0,0,1-1.414,0,1,1,0,0,1,0-1.414l3.9-3.9a.249.249,0,0,0,0-.353l-3.9-3.9A1,1,0,0,1,7.924,6.51l3.9,3.9a.25.25,0,0,0,.354,0l3.9-3.9A1,1,0,1,1,17.49,7.924l-3.9,3.9a.249.249,0,0,0,0,.353Z" fill="#fff"/>
  </g>
</svg>
