<?xml version="1.0" encoding="utf-8"?>
<!-- Generator: Adobe Illustrator 23.1.0, SVG Export Plug-In . SVG Version: 6.00 Build 0)  -->
<svg version="1.1" id="Layer_1" xmlns="http://www.w3.org/2000/svg" xmlns:xlink="http://www.w3.org/1999/xlink" x="0px" y="0px"
	 width="26px" height="16.8px" viewBox="0 0 26 16.8" style="enable-background:new 0 0 26 16.8;" xml:space="preserve">
<style type="text/css">
	.st0{fill:#233659;}
</style>
<g id="streamline-icon-navigation-menu_40x40" transform="translate(-2.75 -9.005)">
	<g id="Path_3714">
		<path class="st0" d="M27.8,25.8h-24c-0.6,0-1-0.4-1-1s0.4-1,1-1h24c0.6,0,1,0.4,1,1S28.3,25.8,27.8,25.8z"/>
	</g>
	<g id="Path_3715">
		<path class="st0" d="M27.8,18.4h-24c-0.6,0-1-0.4-1-1s0.4-1,1-1h24c0.6,0,1,0.4,1,1S28.3,18.4,27.8,18.4z"/>
	</g>
	<g id="Path_3716">
		<path class="st0" d="M27.8,11h-24c-0.6,0-1-0.4-1-1s0.4-1,1-1h24c0.6,0,1,0.4,1,1S28.3,11,27.8,11z"/>
	</g>
</g>
</svg>
