<svg id="streamline-icon-arrow-right-1_24x24" data-name="streamline-icon-arrow-right-1@24x24" xmlns="http://www.w3.org/2000/svg" width="4" height="8" viewBox="0 0 4 8">
  <path id="Path_3506" data-name="Path 3506" d="M4.534,4.028a.862.862,0,0,0,.208.578L7.723,7.884a.429.429,0,0,0,.7-.076.732.732,0,0,0-.044-.85L5.768,4.091a.1.1,0,0,1-.006-.118l.006-.008L8.375,1.1A.73.73,0,0,0,8.4.227a.427.427,0,0,0-.68-.054L4.743,3.449A.866.866,0,0,0,4.534,4.028Z" transform="translate(-4.534 -0.028)" fill="#233659"/>
</svg>
