<svg xmlns="http://www.w3.org/2000/svg" width="34.667" height="37" viewBox="0 0 34.667 37">
  <g id="streamline-icon-phone-chatting_40x40_1_" data-name="streamline-icon-phone-chatting@40x40 (1)" transform="translate(-1.5 -0.25)">
    <path id="Path_3838" data-name="Path 3838" d="M28.667,18.564V32.92a4.252,4.252,0,0,1-4.251,4.25H14.251A4.249,4.249,0,0,1,10,32.922V15.048" transform="translate(-0.5 -0.92)" fill="none" stroke="#183965" stroke-linecap="round" stroke-linejoin="round" stroke-width="2"/>
    <path id="Path_3839" data-name="Path 3839" d="M10,31.25H28.668" transform="translate(-0.5 -2)" fill="none" stroke="#183965" stroke-linecap="round" stroke-linejoin="round" stroke-width="2"/>
    <path id="Path_3840" data-name="Path 3840" d="M19.908,16.754a3.667,3.667,0,0,0,2.6,1.08h2.148V22.5l4.727-4.667h3.254a3.685,3.685,0,0,0,3.685-3.684V8.685A3.686,3.686,0,0,0,32.644,5h-5.65" transform="translate(-1.161 -0.25)" fill="none" stroke="#183965" stroke-linecap="round" stroke-linejoin="round" stroke-width="2"/>
    <path id="Path_3841" data-name="Path 3841" d="M25.627,11.25h0" transform="translate(-1.542 -0.667)" fill="none" stroke="#183965" stroke-linecap="round" stroke-linejoin="round" stroke-width="2"/>
    <path id="Path_3842" data-name="Path 3842" d="M25.585,11.25a.583.583,0,1,0,.583.583.584.584,0,0,0-.583-.583" transform="translate(-1.5 -0.667)" fill="none" stroke="#183965" stroke-linecap="round" stroke-linejoin="round" stroke-width="2"/>
    <path id="Path_3843" data-name="Path 3843" d="M31.877,11.25h0" transform="translate(-1.959 -0.667)" fill="none" stroke="#183965" stroke-linecap="round" stroke-linejoin="round" stroke-width="2"/>
    <path id="Path_3844" data-name="Path 3844" d="M31.835,11.25a.583.583,0,1,0,.583.583.584.584,0,0,0-.583-.583" transform="translate(-1.917 -0.667)" fill="none" stroke="#183965" stroke-linecap="round" stroke-linejoin="round" stroke-width="2"/>
    <path id="Path_3845" data-name="Path 3845" d="M6.185,1.25H16.316A3.686,3.686,0,0,1,20,4.935v4.3a3.685,3.685,0,0,1-3.685,3.684H13v4.667L8.273,12.917H6.185A3.683,3.683,0,0,1,2.5,9.235v-4.3A3.686,3.686,0,0,1,6.185,1.25Z" transform="translate(0 0)" fill="none" stroke="#183965" stroke-linecap="round" stroke-linejoin="round" stroke-width="2"/>
    <path id="Path_3846" data-name="Path 3846" d="M15.21,7.5h0" transform="translate(-0.847 -0.417)" fill="none" stroke="#183965" stroke-linecap="round" stroke-linejoin="round" stroke-width="2"/>
    <path id="Path_3847" data-name="Path 3847" d="M15.168,7.5a.583.583,0,1,1-.583.583.584.584,0,0,1,.583-.583" transform="translate(-0.806 -0.417)" fill="none" stroke="#183965" stroke-linecap="round" stroke-linejoin="round" stroke-width="2"/>
    <path id="Path_3848" data-name="Path 3848" d="M8.543,7.5h0" transform="translate(-0.403 -0.417)" fill="none" stroke="#183965" stroke-linecap="round" stroke-linejoin="round" stroke-width="2"/>
    <path id="Path_3849" data-name="Path 3849" d="M8.5,7.5a.583.583,0,1,1-.583.583A.584.584,0,0,1,8.5,7.5" transform="translate(-0.361 -0.417)" fill="none" stroke="#183965" stroke-linecap="round" stroke-linejoin="round" stroke-width="2"/>
  </g>
</svg>
