<svg xmlns="http://www.w3.org/2000/svg" width="10" height="10" viewBox="0 0 10 10">
  <g id="streamline-icon-close_24x24" data-name="streamline-icon-close@24x24" transform="translate(0 -0.001)">
    <path id="Path_3495" data-name="Path 3495" d="M5.958,5.075a.1.1,0,0,1,0-.147h0L9.817,1.068A.625.625,0,1,0,8.932.185L5.073,4.042a.1.1,0,0,1-.147,0h0L1.067.185a.625.625,0,1,0-.884.884L4.041,4.927a.1.1,0,0,1,0,.147h0L.183,8.934a.625.625,0,0,0,.884.884h0L4.926,5.959a.1.1,0,0,1,.147,0h0L8.932,9.818a.625.625,0,0,0,.884-.884Z" transform="translate(0 0)"/>
  </g>
</svg>
