<svg xmlns="http://www.w3.org/2000/svg" width="64" height="63.992" viewBox="0 0 64 63.992">
  <g id="streamline-icon-space-rocket-flying_40x40_1_" data-name="streamline-icon-space-rocket-flying@40x40 (1)" transform="translate(-1.311 -1.317)">
    <path id="Path_3557" data-name="Path 3557" d="M30.724,51.936a4.273,4.273,0,0,1-1.855,1.09.712.712,0,0,0-.517.605L27.7,59.171a2.94,2.94,0,0,0,5,2.423l7.623-7.623a21.958,21.958,0,0,0,4.629-6.981A35.5,35.5,0,0,0,46,38.409a.714.714,0,0,0-1.219-.531Zm-16.008-16L28.849,21.768a.717.717,0,0,0-.009-1.013.727.727,0,0,0-.517-.205,37.068,37.068,0,0,0-8.81,1,21.928,21.928,0,0,0-6.892,4.718l-7.6,7.6A2.942,2.942,0,0,0,7.1,38.88c.1,0,4.486-.528,5.968-.708a.714.714,0,0,0,.6-.5A4.288,4.288,0,0,1,14.717,35.934ZM16.3,46.254c-2.412-2.417-6.065-2-9.084,1.007C5.076,49.4,2.879,56.3,1.412,61.708a2.853,2.853,0,0,0,3.51,3.5c5.391-1.484,12.272-3.71,14.4-5.836,3.017-3.017,3.425-6.67,1.01-9.081ZM63.621,1.345C60.06,2.064,52.9,3.737,50.682,5.957,48.832,7.792,22.254,34.45,18.25,38.446a.715.715,0,0,0,0,1.007l8.944,8.953a.715.715,0,0,0,1.007,0L60.673,15.937C62.9,13.714,64.569,6.556,65.285,3a1.41,1.41,0,0,0-1.664-1.652Z" fill="#233659"/>
  </g>
</svg>
