<svg xmlns="http://www.w3.org/2000/svg" width="57.151" height="57.026" viewBox="0 0 57.151 57.026">
  <g id="streamline-icon-rating-star-three_64x64" data-name="streamline-icon-rating-star-three@64x64" transform="translate(-0.846 -0.996)">
    <path id="Path_3591" data-name="Path 3591" d="M48.347,34.918l3.562,6.412h6.065a1.659,1.659,0,0,1,1.2,2.84L53.6,50.255l3.085,7.089a1.679,1.679,0,0,1-2.393,2.1l-7.458-4.2-7.456,4.195a1.682,1.682,0,0,1-2.4-2.1l3.087-7.089L34.5,44.168a1.66,1.66,0,0,1,1.2-2.84h6.065l3.559-6.412a1.7,1.7,0,0,1,3.026,0Z" transform="translate(-2.667 -2.665)" fill="none" stroke="#233659" stroke-linecap="round" stroke-linejoin="round" stroke-width="2"/>
    <path id="Path_3592" data-name="Path 3592" d="M16.347,34.918l3.559,6.412h6.065a1.663,1.663,0,0,1,1.2,2.84L21.6,50.255l3.087,7.089a1.682,1.682,0,0,1-2.4,2.1l-7.456-4.2L7.376,59.436a1.68,1.68,0,0,1-2.393-2.092l3.085-7.089L2.5,44.171a1.66,1.66,0,0,1,1.2-2.84H9.759l3.562-6.412a1.7,1.7,0,0,1,3.026,0Z" transform="translate(0 -2.665)" fill="none" stroke="#233659" stroke-linecap="round" stroke-linejoin="round" stroke-width="2"/>
    <path id="Path_3593" data-name="Path 3593" d="M32.348,2.932l3.557,6.4h6.062a1.659,1.659,0,0,1,1.2,2.84L37.6,18.256l3.085,7.089a1.679,1.679,0,0,1-2.393,2.1l-7.453-4.2-7.453,4.192a1.68,1.68,0,0,1-2.393-2.1l3.085-7.082-5.566-6.079a1.66,1.66,0,0,1,1.2-2.84h6.06l3.562-6.4a1.7,1.7,0,0,1,3.024,0Z" transform="translate(-1.334)" fill="none" stroke="#233659" stroke-linecap="round" stroke-linejoin="round" stroke-width="2"/>
  </g>
</svg>
