<svg xmlns="http://www.w3.org/2000/svg" width="16" height="11.222" viewBox="0 0 16 11.222">
  <g id="streamline-icon-open-quote_24x24" data-name="streamline-icon-open-quote@24x24" transform="translate(-0.497 -3.932)">
    <path id="Path_3503" data-name="Path 3503" d="M7.057,3.932A6.753,6.753,0,0,0,.5,10.851v.865A3.437,3.437,0,1,0,3.937,8.279h0a3.206,3.206,0,0,0-.776.1.174.174,0,0,1-.193-.256,4.753,4.753,0,0,1,4.089-2.45.869.869,0,0,0,0-1.739Zm8.571,1.739a.869.869,0,1,0,0-1.739A6.754,6.754,0,0,0,9.07,10.851v.865a3.437,3.437,0,1,0,3.438-3.437h0a3.212,3.212,0,0,0-.776.1.173.173,0,0,1-.181-.064.175.175,0,0,1-.012-.192A4.753,4.753,0,0,1,15.627,5.671Z" fill="#17191d"/>
  </g>
</svg>
