<svg xmlns="http://www.w3.org/2000/svg" width="56.652" height="56.643" viewBox="0 0 56.652 56.643">
  <g id="streamline-icon-earth-cash_140x140" data-name="streamline-icon-earth-cash@140x140" transform="translate(1.013 1)">
    <path id="Path_3804" data-name="Path 3804" d="M25.976,58.385A27.318,27.318,0,1,1,58.756,28.063" transform="translate(-4.356 -4.349)" fill="none" stroke="#233659" stroke-linecap="round" stroke-linejoin="round" stroke-width="2"/>
    <path id="Path_3805" data-name="Path 3805" d="M19.741,71.443a3.642,3.642,0,0,0,3.533-4.526l-1.821-7.284a3.642,3.642,0,0,0-3.533-2.758h-13a27.306,27.306,0,0,0,9.751,26.811l2.448-12.242Z" transform="translate(-4.366 -35.011)" fill="none" stroke="#233659" stroke-linecap="round" stroke-linejoin="round" stroke-width="2"/>
    <path id="Path_3806" data-name="Path 3806" d="M102.032,30.625H92.164a3.642,3.642,0,0,0-3.533,2.758L87.5,37.866" transform="translate(-52.892 -19.688)" fill="none" stroke="#233659" stroke-linecap="round" stroke-linejoin="round" stroke-width="2"/>
    <path id="Path_3807" data-name="Path 3807" d="M97.885,83.125H92.949a3.258,3.258,0,0,0-1.214,6.281l5.012,2.006a3.258,3.258,0,0,1-1.214,6.281H90.6" transform="translate(-54.172 -50.335)" fill="none" stroke="#2cc4ec" stroke-linecap="round" stroke-linejoin="round" stroke-width="2"/>
    <path id="Path_3808" data-name="Path 3808" d="M100.625,80.571V78.75" transform="translate(-60.554 -47.781)" fill="none" stroke="#2cc4ec" stroke-linecap="round" stroke-linejoin="round" stroke-width="2"/>
    <path id="Path_3809" data-name="Path 3809" d="M100.625,119.946v-1.821" transform="translate(-60.554 -70.767)" fill="none" stroke="#2cc4ec" stroke-linecap="round" stroke-linejoin="round" stroke-width="2"/>
    <path id="Path_3810" data-name="Path 3810" d="M65.625,80.193A14.568,14.568,0,1,0,80.193,65.625,14.568,14.568,0,0,0,65.625,80.193Z" transform="translate(-40.123 -40.119)" fill="none" stroke="#2cc4ec" stroke-linecap="round" stroke-linejoin="round" stroke-width="2"/>
  </g>
</svg>
