<svg xmlns="http://www.w3.org/2000/svg" width="56.642" height="56.642" viewBox="0 0 56.642 56.642">
  <g id="streamline-icon-hierarchy-3_40x40" data-name="streamline-icon-hierarchy-3@40x40" transform="translate(-0.25 -0.247)">
    <path id="Path_3771" data-name="Path 3771" d="M3.071,31.247H32.214a1.822,1.822,0,0,1,1.821,1.821v7.286a1.822,1.822,0,0,1-1.821,1.821H3.071A1.822,1.822,0,0,1,1.25,40.354V33.068A1.822,1.822,0,0,1,3.071,31.247Z" transform="translate(0 13.714)" fill="none" stroke="#233659" stroke-linecap="round" stroke-linejoin="round" stroke-width="2"/>
    <path id="Path_3772" data-name="Path 3772" d="M18.071,18.747H47.214a1.822,1.822,0,0,1,1.821,1.821v7.286a1.822,1.822,0,0,1-1.821,1.821H18.071a1.822,1.822,0,0,1-1.821-1.821V20.568A1.822,1.822,0,0,1,18.071,18.747Z" transform="translate(6.857 8)" fill="none" stroke="#233659" stroke-linecap="round" stroke-linejoin="round" stroke-width="2"/>
    <path id="Path_3773" data-name="Path 3773" d="M3.071,1.247H32.214a1.822,1.822,0,0,1,1.821,1.821v7.286a1.822,1.822,0,0,1-1.821,1.821H3.071A1.822,1.822,0,0,1,1.25,10.354V3.068A1.822,1.822,0,0,1,3.071,1.247Z" transform="translate(0 0)" fill="none" stroke="#233659" stroke-linecap="round" stroke-linejoin="round" stroke-width="2"/>
    <path id="Path_3774" data-name="Path 3774" d="M11.25,8.747v3.643a3.644,3.644,0,0,0,3.643,3.643H25.821a3.644,3.644,0,0,1,3.643,3.643v3.643" transform="translate(4.571 3.428)" fill="none" stroke="#233659" stroke-linecap="round" stroke-linejoin="round" stroke-width="2"/>
    <path id="Path_3775" data-name="Path 3775" d="M34.678,26.247V37.175a3.644,3.644,0,0,1-3.643,3.643H23.75" transform="translate(10.285 11.428)" fill="none" stroke="#233659" stroke-linecap="round" stroke-linejoin="round" stroke-width="2"/>
  </g>
</svg>
