<svg xmlns="http://www.w3.org/2000/svg" width="49.354" height="56.662" viewBox="0 0 49.354 56.662">
  <g id="streamline-icon-shield-lock_40x40" data-name="streamline-icon-shield-lock@40x40" transform="translate(-2.75 -0.248)">
    <path id="Path_3831" data-name="Path 3831" d="M3.75,8.956v18.49A28.917,28.917,0,0,0,22.284,54.433l2.528.971a7.276,7.276,0,0,0,5.231,0l2.528-.971A28.917,28.917,0,0,0,51.1,27.446V8.956A3.613,3.613,0,0,0,49,5.649a52.718,52.718,0,0,0-21.569-4.4,52.718,52.718,0,0,0-21.569,4.4A3.613,3.613,0,0,0,3.75,8.956Z" transform="translate(0 0)" fill="none" stroke="#233659" stroke-linecap="round" stroke-linejoin="round" stroke-width="2"/>
    <path id="Path_3832" data-name="Path 3832" d="M16.143,16.25h14.57a3.644,3.644,0,0,1,3.643,3.643V30.821a3.644,3.644,0,0,1-3.643,3.643H16.143A3.644,3.644,0,0,1,12.5,30.821V19.893A3.644,3.644,0,0,1,16.143,16.25Z" transform="translate(3.999 6.856)" fill="none" stroke="#233659" stroke-linecap="round" stroke-linejoin="round" stroke-width="2"/>
    <path id="Path_3833" data-name="Path 3833" d="M22.285,8.75h0A7.285,7.285,0,0,0,15,16.035v3.643h14.57V16.035A7.285,7.285,0,0,0,22.285,8.75Z" transform="translate(5.142 3.429)" fill="none" stroke="#233659" stroke-linecap="round" stroke-linejoin="round" stroke-width="2"/>
    <path id="Path_3834" data-name="Path 3834" d="M20.286,21.923a.911.911,0,1,1-.911.911.911.911,0,0,1,.911-.911h0" transform="translate(7.141 9.449)" fill="none" stroke="#233659" stroke-linecap="round" stroke-linejoin="round" stroke-width="2"/>
  </g>
</svg>
