<?xml version="1.0" encoding="utf-8"?>
<!-- Generator: Adobe Illustrator 23.1.0, SVG Export Plug-In . SVG Version: 6.00 Build 0)  -->
<svg version="1.1" id="Layer_1" xmlns="http://www.w3.org/2000/svg" xmlns:xlink="http://www.w3.org/1999/xlink" x="0px" y="0px"
	 width="16.1px" height="15.2px" viewBox="0 0 16.1 15.2" style="enable-background:new 0 0 16.1 15.2;" xml:space="preserve">
<style type="text/css">
	.st0{fill:#233659;}
</style>
<g id="streamline-icon-arrow-right-1_24x24" transform="translate(-4.534 -0.028)">
	<path id="Path_3506" class="st0" d="M14.1,7.6c0,0.4-0.2,0.8-0.5,1.1L6.5,15c-0.5,0.4-1.2,0.4-1.7-0.1c-0.4-0.5-0.4-1.2,0.1-1.6
		l6.2-5.4c0.1-0.1,0.1-0.2,0-0.2l0,0L4.9,2.1C4.4,1.6,4.4,0.9,4.8,0.4C5.3-0.1,6-0.1,6.5,0.3l7.1,6.2C13.9,6.8,14.1,7.2,14.1,7.6z"
		/>
</g>
<g id="streamline-icon-arrow-right-1_24x24_1_" transform="translate(-4.534 -0.028)">
	<path id="Path_3506_1_" class="st0" d="M20.6,7.6c0,0.4-0.2,0.8-0.5,1.1L13.1,15c-0.5,0.4-1.2,0.4-1.7-0.1
		c-0.4-0.5-0.4-1.2,0.1-1.6l6.2-5.4c0.1-0.1,0.1-0.2,0-0.2l0,0l-6.2-5.4C11,1.6,11,0.9,11.4,0.4c0.4-0.5,1.2-0.5,1.7-0.1l7.1,6.2
		C20.5,6.8,20.6,7.2,20.6,7.6z"/>
</g>
</svg>
