<svg xmlns="http://www.w3.org/2000/svg" width="56" height="56" viewBox="0 0 56 56">
  <g id="Group_1450" data-name="Group 1450" transform="translate(-0.25 -0.25)">
    <path id="Path_3748" data-name="Path 3748" d="M26.45,44.45h-3.6L8.45,55.25V44.45H4.85a3.6,3.6,0,0,1-3.6-3.6v-36a3.6,3.6,0,0,1,3.6-3.6h46.8a3.6,3.6,0,0,1,3.6,3.6v18" fill="none" stroke="#233659" stroke-linecap="round" stroke-linejoin="round" stroke-width="2"/>
    <path id="Path_3749" data-name="Path 3749" d="M36.978,21.25h-7.56a3.862,3.862,0,0,0-1.44,7.451l7.644,2.379a3.862,3.862,0,0,1-1.44,7.451H25.1" transform="translate(10.493 8.8)" fill="none" stroke="#233659" stroke-linecap="round" stroke-linejoin="round" stroke-width="2"/>
    <path id="Path_3750" data-name="Path 3750" d="M29.6,22.57V18.25" transform="translate(12.473 7.48)" fill="none" stroke="#233659" stroke-linecap="round" stroke-linejoin="round" stroke-width="2"/>
    <path id="Path_3751" data-name="Path 3751" d="M29.6,37.57V33.25" transform="translate(12.473 14.08)" fill="none" stroke="#233659" stroke-linecap="round" stroke-linejoin="round" stroke-width="2"/>
  </g>
</svg>
