<svg xmlns="http://www.w3.org/2000/svg" width="53.233" height="56.446" viewBox="0 0 53.233 56.446">
  <g id="streamline-icon-currency-dollar-decrease_40x40" data-name="streamline-icon-currency-dollar-decrease@40x40" transform="translate(-1.086 -0.222)">
    <path id="Path_3608" data-name="Path 3608" d="M40.8,31.25v10.8H30" transform="translate(12.104 13.203)" fill="none" stroke="#233659" stroke-linecap="round" stroke-linejoin="round" stroke-width="2"/>
    <path id="Path_3609" data-name="Path 3609" d="M52.905,46.456,40.784,34.334a5.4,5.4,0,0,0-5.369-1.356L21.7,36.641a5.4,5.4,0,0,1-5.213-1.4L2.5,21.243" transform="translate(0 8.798)" fill="none" stroke="#233659" stroke-linecap="round" stroke-linejoin="round" stroke-width="2"/>
    <path id="Path_3610" data-name="Path 3610" d="M5.357,22.824A18,18,0,1,1,33.8,33.659" transform="translate(1.099 0)" fill="none" stroke="#233659" stroke-linecap="round" stroke-linejoin="round" stroke-width="2"/>
    <path id="Path_3611" data-name="Path 3611" d="M22.475,8.757H17.6a3.221,3.221,0,0,0-1.2,6.209l4.954,1.98a3.221,3.221,0,0,1-1.2,6.212H15.274" transform="translate(5.227 3.302)" fill="none" stroke="#233659" stroke-linecap="round" stroke-linejoin="round" stroke-width="2"/>
    <path id="Path_3612" data-name="Path 3612" d="M17.5,9.307v-1.8" transform="translate(6.602 2.752)" fill="none" stroke="#233659" stroke-linecap="round" stroke-linejoin="round" stroke-width="2"/>
    <path id="Path_3613" data-name="Path 3613" d="M17.5,20.557v-1.8" transform="translate(6.602 7.704)" fill="none" stroke="#233659" stroke-linecap="round" stroke-linejoin="round" stroke-width="2"/>
  </g>
</svg>
