<svg xmlns="http://www.w3.org/2000/svg" width="40" height="40" viewBox="0 0 40 40">
  <g id="whatsapp-svgrepo-com" transform="translate(-95.904 -95.321)">
    <path id="Path_3884" data-name="Path 3884" d="M115.9,95.321a20,20,0,0,0-16.842,30.791l.5.773-1.945,6.909,7.148-1.84.737.45A20,20,0,1,0,115.9,95.321Zm12.264,26.147-.25,1.165a5.045,5.045,0,0,1-2.2,3.2,6.661,6.661,0,0,1-5.641.7,25.36,25.36,0,0,1-13.67-9.937c-2.219-3.026-3.077-6.053-2.522-8.525a7.121,7.121,0,0,1,2.341-3.588,1.89,1.89,0,0,1,1.343-.46l1.563.085a.81.81,0,0,1,.7.49l2.277,5.327a.81.81,0,0,1-.132.848L110,113.068a.6.6,0,0,0-.076.669,16.238,16.238,0,0,0,8.787,7.519.593.593,0,0,0,.667-.2l2.074-2.688a.81.81,0,0,1,.98-.241l5.282,2.435A.81.81,0,0,1,128.168,121.468Z" fill="#fff"/>
  </g>
</svg>
