<?xml version="1.0" encoding="utf-8"?>
<!-- Generator: Adobe Illustrator 23.1.0, SVG Export Plug-In . SVG Version: 6.00 Build 0)  -->
<svg version="1.1" id="Layer_1" xmlns="http://www.w3.org/2000/svg" xmlns:xlink="http://www.w3.org/1999/xlink" x="0px" y="0px"
	 width="64px" height="64px" viewBox="0 0 64 64" style="enable-background:new 0 0 64 64;" xml:space="preserve">
<style type="text/css">
	.st0{enable-background:new    ;}
	.st1{fill:#FFFFFF;}
</style>
<g class="st0">
	<path class="st1" d="M32,2.4c4.1,0,7.9,0.8,11.5,2.3c3.6,1.5,6.8,3.7,9.5,6.3s4.8,5.8,6.3,9.4c1.6,3.6,2.4,7.4,2.4,11.5
		c0,4.1-0.8,7.9-2.3,11.6c-1.6,3.6-3.7,6.7-6.4,9.4c-2.7,2.7-5.8,4.8-9.4,6.3c-3.6,1.5-7.4,2.3-11.5,2.3c-4.1,0-7.9-0.8-11.6-2.3
		c-3.6-1.6-6.7-3.7-9.4-6.4c-2.7-2.7-4.8-5.8-6.3-9.4C3.2,39.9,2.4,36.1,2.4,32c0-4.1,0.8-7.9,2.3-11.5c1.5-3.6,3.7-6.7,6.3-9.4
		s5.8-4.8,9.4-6.3C24.1,3.2,27.9,2.4,32,2.4z M27.3,6.3c-2.9,0.5-5.6,1.5-8.1,2.9c-2.5,1.5-4.7,3.2-6.6,5.3
		c-1.9,2.1-3.4,4.5-4.6,7.2c-1.1,2.7-1.8,5.5-2,8.4h11.2c0.1-2.2,0.4-4.4,0.9-6.6c0.5-2.2,1.2-4.3,2-6.3c0.8-2,1.9-3.9,3.1-5.8
		C24.4,9.7,25.8,8,27.3,6.3z M6,33.8c0.2,3,0.9,5.8,2.1,8.4c1.1,2.7,2.6,5.1,4.5,7.2c1.9,2.1,4.1,3.9,6.6,5.3
		c2.5,1.4,5.2,2.4,8.1,2.9c-1.5-1.7-2.9-3.4-4.1-5.3c-1.2-1.8-2.2-3.8-3.1-5.8c-0.9-2-1.5-4.1-2-6.3c-0.5-2.2-0.8-4.4-0.9-6.6H6z
		 M20.8,30.3h22.4c-0.1-2.3-0.4-4.5-1-6.6c-0.5-2.2-1.3-4.3-2.3-6.3c-1-2-2.1-3.9-3.4-5.7c-1.3-1.8-2.8-3.5-4.5-5
		c-1.7,1.5-3.2,3.2-4.5,5c-1.3,1.8-2.5,3.7-3.4,5.7c-1,2-1.7,4.1-2.3,6.3C21.2,25.8,20.9,28,20.8,30.3z M32,57.4
		c1.7-1.5,3.2-3.2,4.5-5c1.3-1.8,2.5-3.7,3.4-5.7c1-2,1.7-4.1,2.3-6.3c0.5-2.2,0.9-4.4,1-6.6H20.8c0.1,2.3,0.4,4.5,1,6.6
		c0.5,2.2,1.3,4.3,2.3,6.3c1,2,2.1,3.9,3.4,5.7C28.8,54.2,30.3,55.8,32,57.4z M58,30.3c-0.2-3-0.9-5.8-2.1-8.5
		c-1.1-2.7-2.6-5.1-4.5-7.2c-1.9-2.1-4.1-3.9-6.6-5.3c-2.5-1.4-5.2-2.4-8.1-2.9c1.5,1.7,2.9,3.4,4.1,5.3c1.2,1.8,2.2,3.8,3.1,5.8
		c0.9,2,1.5,4.1,2,6.3c0.5,2.2,0.8,4.4,0.9,6.6H58z M36.8,57.7c2.9-0.5,5.6-1.5,8.1-2.9c2.5-1.5,4.7-3.2,6.6-5.3
		c1.9-2.1,3.4-4.5,4.6-7.2c1.2-2.7,1.9-5.5,2.1-8.4H46.8c-0.1,2.2-0.4,4.4-0.9,6.6c-0.5,2.2-1.2,4.3-2,6.3c-0.8,2-1.9,3.9-3.1,5.8
		C39.6,54.3,38.3,56,36.8,57.7z"/>
</g>
</svg>
