<?xml version="1.0" encoding="utf-8"?>
<!-- Generator: Adobe Illustrator 23.1.0, SVG Export Plug-In . SVG Version: 6.00 Build 0)  -->
<svg version="1.1" id="Layer_1" xmlns="http://www.w3.org/2000/svg" xmlns:xlink="http://www.w3.org/1999/xlink" x="0px" y="0px"
	 width="36px" height="36px" viewBox="0 0 36 36" style="enable-background:new 0 0 36 36;" xml:space="preserve">
<style type="text/css">
	.st0{fill:#FFFFFF;}
</style>
<g>
	<g id="Youtube">
		<g id="streamline-icon-social-video-youtube-clip_140x140" transform="translate(9 -9.208)">
			<path id="Path_3909" class="st0" d="M15,20.8H3c-1.6,0-3,1.3-3,3l0,0v6.8c0,1.6,1.3,3,3,3l0,0h12c1.6,0,3-1.3,3-3l0,0v-6.8
				C18,22.1,16.7,20.8,15,20.8L15,20.8z M12.4,27.2l-5.1,3.3c-0.2,0.1-0.4,0.1-0.5-0.1c0-0.1-0.1-0.1-0.1-0.2v-6.5
				c0-0.2,0.2-0.4,0.4-0.4c0.1,0,0.1,0,0.2,0.1l5.1,3.2c0.2,0.1,0.2,0.3,0.1,0.5C12.5,27.1,12.4,27.2,12.4,27.2L12.4,27.2z"/>
		</g>
	</g>
</g>
</svg>
